<?xml version="1.0" encoding="UTF-8" standalone="no"?>
<!DOCTYPE svg PUBLIC "-//W3C//DTD SVG 1.1//EN"
 "http://www.w3.org/Graphics/SVG/1.1/DTD/svg11.dtd">
<!-- Generated by graphviz version 2.43.0 (0)
 -->
<!-- Title: %3 Pages: 1 -->
<svg width="3113pt" height="2835pt"
 viewBox="0.00 0.00 3112.50 2835.00" xmlns="http://www.w3.org/2000/svg" xmlns:xlink="http://www.w3.org/1999/xlink">
<g id="graph0" class="graph" transform="scale(1 1) rotate(0) translate(4 2831)">
<title>%3</title>
<polygon fill="white" stroke="transparent" points="-4,4 -4,-2831 3108.5,-2831 3108.5,4 -4,4"/>
<!-- 0 -->
<g id="node1" class="node">
<title>0</title>
<polygon fill="none" stroke="black" points="1550,-2827 1220,-2827 1220,-2775 1550,-2775 1550,-2827"/>
<text text-anchor="start" x="1256.5" y="-2807.8" font-family="Times,serif" font-size="14.00">({}, None, {elem: elem, at: at, t: t})</text>
<text text-anchor="start" x="1232" y="-2786.8" font-family="Courier,monospace" font-size="14.00">assume ((0 &lt;= at) and (at &lt;= len(t)))</text>
</g>
<!-- 1 -->
<g id="node2" class="node">
<title>1</title>
<polygon fill="none" stroke="black" points="1603,-2739 1167,-2739 1167,-2687 1603,-2687 1603,-2739"/>
<text text-anchor="start" x="1179" y="-2719.8" font-family="Times,serif" font-size="14.00">({0 ≤ at, at ≤ Length(t)}, None, {elem: elem, at: at, t: t})</text>
<text text-anchor="start" x="1318.5" y="-2698.8" font-family="Courier,monospace" font-size="14.00">result = tuple()</text>
</g>
<!-- 0&#45;&gt;1 -->
<g id="edge1" class="edge">
<title>0&#45;&gt;1</title>
<path fill="none" stroke="black" d="M1385,-2774.66C1385,-2766.7 1385,-2757.76 1385,-2749.24"/>
<polygon fill="black" stroke="black" points="1388.5,-2749.16 1385,-2739.16 1381.5,-2749.16 1388.5,-2749.16"/>
</g>
<!-- 2 -->
<g id="node3" class="node">
<title>2</title>
<polygon fill="none" stroke="black" points="1691,-2651 1079,-2651 1079,-2599 1691,-2599 1691,-2651"/>
<text text-anchor="start" x="1091" y="-2631.8" font-family="Times,serif" font-size="14.00">({0 ≤ at, at ≤ Length(t)}, None, {elem: elem, at: at, t: t, result: Empty(Seq(Int))})</text>
<text text-anchor="start" x="1364" y="-2610.8" font-family="Courier,monospace" font-size="14.00">i = 0</text>
</g>
<!-- 1&#45;&gt;2 -->
<g id="edge2" class="edge">
<title>1&#45;&gt;2</title>
<path fill="none" stroke="black" d="M1385,-2686.66C1385,-2678.7 1385,-2669.76 1385,-2661.24"/>
<polygon fill="black" stroke="black" points="1388.5,-2661.16 1385,-2651.16 1381.5,-2661.16 1388.5,-2661.16"/>
</g>
<!-- 3 -->
<g id="node4" class="node">
<title>3</title>
<polygon fill="none" stroke="black" points="1706.5,-2563 1063.5,-2563 1063.5,-2511 1706.5,-2511 1706.5,-2563"/>
<text text-anchor="start" x="1076" y="-2543.8" font-family="Times,serif" font-size="14.00">({0 ≤ at, at ≤ Length(t)}, None, {elem: elem, at: at, t: t, result: Empty(Seq(Int)), i: 0})</text>
<text text-anchor="start" x="1191.5" y="-2522.8" font-family="Courier,monospace" font-size="14.00">assert InsertInvariant1(i, elem, at, t, result)</text>
</g>
<!-- 2&#45;&gt;3 -->
<g id="edge3" class="edge">
<title>2&#45;&gt;3</title>
<path fill="none" stroke="black" d="M1385,-2598.66C1385,-2590.7 1385,-2581.76 1385,-2573.24"/>
<polygon fill="black" stroke="black" points="1388.5,-2573.16 1385,-2563.16 1381.5,-2573.16 1388.5,-2573.16"/>
</g>
<!-- 4 -->
<g id="node5" class="node">
<title>4</title>
<polygon fill="none" stroke="black" points="1706.5,-2475 1063.5,-2475 1063.5,-2423 1706.5,-2423 1706.5,-2475"/>
<text text-anchor="start" x="1076" y="-2455.8" font-family="Times,serif" font-size="14.00">({0 ≤ at, at ≤ Length(t)}, None, {elem: elem, at: at, t: t, result: Empty(Seq(Int)), i: 0})</text>
<text text-anchor="start" x="1335.5" y="-2434.8" font-family="Courier,monospace" font-size="14.00">havoc result</text>
</g>
<!-- 3&#45;&gt;4 -->
<g id="edge4" class="edge">
<title>3&#45;&gt;4</title>
<path fill="none" stroke="black" d="M1385,-2510.66C1385,-2502.7 1385,-2493.76 1385,-2485.24"/>
<polygon fill="black" stroke="black" points="1388.5,-2485.16 1385,-2475.16 1381.5,-2485.16 1388.5,-2485.16"/>
</g>
<!-- 5 -->
<g id="node6" class="node">
<title>5</title>
<polygon fill="none" stroke="black" points="1686.5,-2387 1083.5,-2387 1083.5,-2335 1686.5,-2335 1686.5,-2387"/>
<text text-anchor="start" x="1096" y="-2367.8" font-family="Times,serif" font-size="14.00">({0 ≤ at, at ≤ Length(t)}, None, {elem: elem, at: at, t: t, result: result!420, i: 0})</text>
<text text-anchor="start" x="1356.5" y="-2346.8" font-family="Courier,monospace" font-size="14.00">havoc i</text>
</g>
<!-- 4&#45;&gt;5 -->
<g id="edge5" class="edge">
<title>4&#45;&gt;5</title>
<path fill="none" stroke="black" d="M1385,-2422.66C1385,-2414.7 1385,-2405.76 1385,-2397.24"/>
<polygon fill="black" stroke="black" points="1388.5,-2397.16 1385,-2387.16 1381.5,-2397.16 1388.5,-2397.16"/>
</g>
<!-- 6 -->
<g id="node7" class="node">
<title>6</title>
<polygon fill="none" stroke="black" points="1700.5,-2299 1069.5,-2299 1069.5,-2247 1700.5,-2247 1700.5,-2299"/>
<text text-anchor="start" x="1082" y="-2279.8" font-family="Times,serif" font-size="14.00">({0 ≤ at, at ≤ Length(t)}, None, {elem: elem, at: at, t: t, result: result!420, i: i!421})</text>
<text text-anchor="start" x="1191.5" y="-2258.8" font-family="Courier,monospace" font-size="14.00">assume InsertInvariant1(i, elem, at, t, result)</text>
</g>
<!-- 5&#45;&gt;6 -->
<g id="edge6" class="edge">
<title>5&#45;&gt;6</title>
<path fill="none" stroke="black" d="M1385,-2334.66C1385,-2326.7 1385,-2317.76 1385,-2309.24"/>
<polygon fill="black" stroke="black" points="1388.5,-2309.16 1385,-2299.16 1381.5,-2309.16 1388.5,-2309.16"/>
</g>
<!-- 7 -->
<g id="node8" class="node">
<title>7</title>
<polygon fill="none" stroke="black" points="1800,-2211 970,-2211 970,-2129 1800,-2129 1800,-2211"/>
<text text-anchor="start" x="982" y="-2191.8" font-family="Times,serif" font-size="14.00">({0 ≤ i!421 ∧</text>
<text text-anchor="start" x="982" y="-2176.8" font-family="Times,serif" font-size="14.00">i!421 ≤ at ∧</text>
<text text-anchor="start" x="982" y="-2161.8" font-family="Times,serif" font-size="14.00">result!420 = seq.extract(t, 0, i!421), at ≤ Length(t)}, None, {elem: elem, at: at, t: t, result: result!420, i: i!421})</text>
<text text-anchor="start" x="1149.5" y="-2140.8" font-family="Courier,monospace" font-size="14.00">loop&#45;scope(inv=InsertInvariant1(i, elem, at, t, result)):</text>
</g>
<!-- 6&#45;&gt;7 -->
<g id="edge7" class="edge">
<title>6&#45;&gt;7</title>
<path fill="none" stroke="black" d="M1385,-2246.77C1385,-2239.05 1385,-2230.26 1385,-2221.47"/>
<polygon fill="black" stroke="black" points="1388.5,-2221.21 1385,-2211.21 1381.5,-2221.21 1388.5,-2221.21"/>
</g>
<!-- 8 -->
<g id="node9" class="node">
<title>8</title>
<polygon fill="none" stroke="black" points="1800,-2093 970,-2093 970,-2011 1800,-2011 1800,-2093"/>
<text text-anchor="start" x="982" y="-2073.8" font-family="Times,serif" font-size="14.00">({0 ≤ i!421 ∧</text>
<text text-anchor="start" x="982" y="-2058.8" font-family="Times,serif" font-size="14.00">i!421 ≤ at ∧</text>
<text text-anchor="start" x="982" y="-2043.8" font-family="Times,serif" font-size="14.00">result!420 = seq.extract(t, 0, i!421), at ≤ Length(t)}, None, {elem: elem, at: at, t: t, result: result!420, i: i!421})</text>
<text text-anchor="start" x="1335" y="-2022.8" font-family="Courier,monospace" font-size="14.00">if (i &lt; at):</text>
</g>
<!-- 7&#45;&gt;8 -->
<g id="edge8" class="edge">
<title>7&#45;&gt;8</title>
<path fill="none" stroke="black" d="M1385,-2128.75C1385,-2120.57 1385,-2111.86 1385,-2103.37"/>
<polygon fill="black" stroke="black" points="1388.5,-2103.17 1385,-2093.17 1381.5,-2103.17 1388.5,-2103.17"/>
</g>
<!-- 9 -->
<g id="node10" class="node">
<title>9</title>
<polygon fill="none" stroke="black" points="1382,-1975 448,-1975 448,-1893 1382,-1893 1382,-1975"/>
<text text-anchor="start" x="460" y="-1955.8" font-family="Times,serif" font-size="14.00">({0 ≤ i!421 ∧</text>
<text text-anchor="start" x="460" y="-1940.8" font-family="Times,serif" font-size="14.00">i!421 ≤ at ∧</text>
<text text-anchor="start" x="460" y="-1925.8" font-family="Times,serif" font-size="14.00">result!420 = seq.extract(t, 0, i!421), ¬(at ≤ i!421), at ≤ Length(t)}, None, {elem: elem, at: at, t: t, result: result!420, i: i!421})</text>
<text text-anchor="start" x="799" y="-1904.8" font-family="Courier,monospace" font-size="14.00">result = (result + (t[i], ))</text>
</g>
<!-- 8&#45;&gt;9 -->
<g id="edge9" class="edge">
<title>8&#45;&gt;9</title>
<path fill="none" stroke="black" d="M1222.92,-2011C1179.03,-2000.16 1131.37,-1988.4 1086.95,-1977.44"/>
<polygon fill="black" stroke="black" points="1087.78,-1974.04 1077.23,-1975.04 1086.1,-1980.83 1087.78,-1974.04"/>
</g>
<!-- 14 -->
<g id="node15" class="node">
<title>14</title>
<polygon fill="none" stroke="black" points="2372,-1975 1460,-1975 1460,-1893 2372,-1893 2372,-1975"/>
<text text-anchor="start" x="1472" y="-1955.8" font-family="Times,serif" font-size="14.00">({0 ≤ i!421 ∧</text>
<text text-anchor="start" x="1472" y="-1940.8" font-family="Times,serif" font-size="14.00">i!421 ≤ at ∧</text>
<text text-anchor="start" x="1472" y="-1925.8" font-family="Times,serif" font-size="14.00">result!420 = seq.extract(t, 0, i!421), at ≤ i!421, at ≤ Length(t)}, None, {elem: elem, at: at, t: t, result: result!420, i: i!421})</text>
<text text-anchor="start" x="1895" y="-1904.8" font-family="Courier,monospace" font-size="14.00">break</text>
</g>
<!-- 8&#45;&gt;14 -->
<g id="edge14" class="edge">
<title>8&#45;&gt;14</title>
<path fill="none" stroke="black" d="M1568.11,-2011C1618.01,-2000.1 1672.23,-1988.25 1722.68,-1977.23"/>
<polygon fill="black" stroke="black" points="1723.69,-1980.59 1732.72,-1975.04 1722.2,-1973.75 1723.69,-1980.59"/>
</g>
<!-- 10 -->
<g id="node11" class="node">
<title>10</title>
<polygon fill="none" stroke="black" points="1502.5,-1857 85.5,-1857 85.5,-1775 1502.5,-1775 1502.5,-1857"/>
<text text-anchor="start" x="98" y="-1837.8" font-family="Times,serif" font-size="14.00">({0 ≤ i!421 ∧</text>
<text text-anchor="start" x="98" y="-1822.8" font-family="Times,serif" font-size="14.00">i!421 ≤ at ∧</text>
<text text-anchor="start" x="98" y="-1807.8" font-family="Times,serif" font-size="14.00">result!420 = seq.extract(t, 0, i!421), ¬(at ≤ i!421), 0 ≤ i!421 ∧ ¬(Length(t) ≤ i!421), at ≤ Length(t)}, None, {elem: elem, at: at, t: t, result: Concat(result!420, Unit(seq.nth_i(t, i!421))), i: i!421})</text>
<text text-anchor="start" x="749" y="-1786.8" font-family="Courier,monospace" font-size="14.00">i = (i + 1)</text>
</g>
<!-- 9&#45;&gt;10 -->
<g id="edge10" class="edge">
<title>9&#45;&gt;10</title>
<path fill="none" stroke="black" d="M873.02,-1892.75C863.45,-1883.58 853.19,-1873.74 843.34,-1864.3"/>
<polygon fill="black" stroke="black" points="845.55,-1861.57 835.91,-1857.17 840.7,-1866.62 845.55,-1861.57"/>
</g>
<!-- 11 -->
<g id="node12" class="node">
<title>11</title>
<polygon fill="none" stroke="black" points="1474.5,-1739 27.5,-1739 27.5,-1657 1474.5,-1657 1474.5,-1739"/>
<text text-anchor="start" x="40" y="-1719.8" font-family="Times,serif" font-size="14.00">({0 ≤ i!421 ∧</text>
<text text-anchor="start" x="40" y="-1704.8" font-family="Times,serif" font-size="14.00">i!421 ≤ at ∧</text>
<text text-anchor="start" x="40" y="-1689.8" font-family="Times,serif" font-size="14.00">result!420 = seq.extract(t, 0, i!421), ¬(at ≤ i!421), 0 ≤ i!421 ∧ ¬(Length(t) ≤ i!421), at ≤ Length(t)}, None, {elem: elem, at: at, t: t, result: Concat(result!420, Unit(seq.nth_i(t, i!421))), i: 1 + i!421})</text>
<text text-anchor="start" x="718" y="-1668.8" font-family="Courier,monospace" font-size="14.00">continue</text>
</g>
<!-- 10&#45;&gt;11 -->
<g id="edge11" class="edge">
<title>10&#45;&gt;11</title>
<path fill="none" stroke="black" d="M779.08,-1774.75C775.98,-1766.39 772.68,-1757.47 769.46,-1748.81"/>
<polygon fill="black" stroke="black" points="772.65,-1747.33 765.89,-1739.17 766.09,-1749.77 772.65,-1747.33"/>
</g>
<!-- 12 -->
<g id="node13" class="node">
<title>12</title>
<polygon fill="none" stroke="black" points="1484,-1610.5 0,-1610.5 0,-1549.5 1484,-1549.5 1484,-1610.5"/>
<text text-anchor="start" x="12" y="-1590.8" font-family="Times,serif" font-size="14.00">({0 ≤ i!421 ∧</text>
<text text-anchor="start" x="12" y="-1575.8" font-family="Times,serif" font-size="14.00">i!421 ≤ at ∧</text>
<text text-anchor="start" x="12" y="-1560.8" font-family="Times,serif" font-size="14.00">result!420 = seq.extract(t, 0, i!421), ¬(at ≤ i!421), 0 ≤ i!421 ∧ ¬(Length(t) ≤ i!421), at ≤ Length(t)}, Continue(), {elem: elem, at: at, t: t, result: Concat(result!420, Unit(seq.nth_i(t, i!421))), i: 1 + i!421})</text>
</g>
<!-- 11&#45;&gt;12 -->
<g id="edge12" class="edge">
<title>11&#45;&gt;12</title>
<path fill="none" stroke="black" d="M747.88,-1656.75C746.98,-1645.13 745.99,-1632.46 745.09,-1620.86"/>
<polygon fill="black" stroke="black" points="748.56,-1620.27 744.29,-1610.57 741.58,-1620.81 748.56,-1620.27"/>
</g>
<!-- 13 -->
<g id="node14" class="node">
<title>13</title>
<polygon fill="#aeeeee" stroke="black" points="1266,-1503 218,-1503 218,-1397 1266,-1397 1266,-1503"/>
<text text-anchor="start" x="230" y="-1483.8" font-family="Times,serif" font-size="14.00">({0 ≤ i!421 ∧</text>
<text text-anchor="start" x="230" y="-1468.8" font-family="Times,serif" font-size="14.00">i!421 ≤ at ∧</text>
<text text-anchor="start" x="230" y="-1453.8" font-family="Times,serif" font-size="14.00">result!420 = seq.extract(t, 0, i!421), 0 ≤ i!421 ∧ ¬(Length(t) ≤ i!421), at ≤ Length(t), &#45;1 ≤ i!421 ∧</text>
<text text-anchor="start" x="230" y="-1438.8" font-family="Times,serif" font-size="14.00">i!421 ≤ &#45;1 + at ∧</text>
<text text-anchor="start" x="230" y="-1423.8" font-family="Times,serif" font-size="14.00">seq.extract(t, 0, 1 + i!421) =</text>
<text text-anchor="start" x="230" y="-1408.8" font-family="Times,serif" font-size="14.00">Concat(result!420, Unit(seq.nth_i(t, i!421)))}, Halt(), {elem: elem, at: at, t: t, result: Concat(result!420, Unit(seq.nth_i(t, i!421))), i: 1 + i!421})</text>
</g>
<!-- 12&#45;&gt;13 -->
<g id="edge13" class="edge">
<title>12&#45;&gt;13</title>
<path fill="none" stroke="black" d="M742,-1549.31C742,-1538.47 742,-1525.77 742,-1513.16"/>
<polygon fill="black" stroke="black" points="745.5,-1513.11 742,-1503.11 738.5,-1513.11 745.5,-1513.11"/>
</g>
<!-- 15 -->
<g id="node16" class="node">
<title>15</title>
<polygon fill="none" stroke="black" points="2455,-1857 1543,-1857 1543,-1775 2455,-1775 2455,-1857"/>
<text text-anchor="start" x="1555" y="-1837.8" font-family="Times,serif" font-size="14.00">({0 ≤ i!421 ∧</text>
<text text-anchor="start" x="1555" y="-1822.8" font-family="Times,serif" font-size="14.00">i!421 ≤ at ∧</text>
<text text-anchor="start" x="1555" y="-1807.8" font-family="Times,serif" font-size="14.00">result!420 = seq.extract(t, 0, i!421), at ≤ i!421, at ≤ Length(t)}, None, {elem: elem, at: at, t: t, result: result!420, i: i!421})</text>
<text text-anchor="start" x="1883" y="-1786.8" font-family="Courier,monospace" font-size="14.00">result = (result + (elem, ))</text>
</g>
<!-- 14&#45;&gt;15 -->
<g id="edge15" class="edge">
<title>14&#45;&gt;15</title>
<path fill="none" stroke="black" d="M1944.8,-1892.75C1951.11,-1883.94 1957.85,-1874.51 1964.36,-1865.41"/>
<polygon fill="black" stroke="black" points="1967.28,-1867.34 1970.25,-1857.17 1961.59,-1863.27 1967.28,-1867.34"/>
</g>
<!-- 16 -->
<g id="node17" class="node">
<title>16</title>
<polygon fill="none" stroke="black" points="2554.5,-1739 1497.5,-1739 1497.5,-1657 2554.5,-1657 2554.5,-1739"/>
<text text-anchor="start" x="1510" y="-1719.8" font-family="Times,serif" font-size="14.00">({0 ≤ i!421 ∧</text>
<text text-anchor="start" x="1510" y="-1704.8" font-family="Times,serif" font-size="14.00">i!421 ≤ at ∧</text>
<text text-anchor="start" x="1510" y="-1689.8" font-family="Times,serif" font-size="14.00">result!420 = seq.extract(t, 0, i!421), at ≤ i!421, at ≤ Length(t)}, None, {elem: elem, at: at, t: t, result: Concat(result!420, Unit(elem)), i: i!421})</text>
<text text-anchor="start" x="1832.5" y="-1668.8" font-family="Courier,monospace" font-size="14.00">assert InsertInvariant2(i, elem, at, t, result)</text>
</g>
<!-- 15&#45;&gt;16 -->
<g id="edge16" class="edge">
<title>15&#45;&gt;16</title>
<path fill="none" stroke="black" d="M2008.37,-1774.75C2010.29,-1766.48 2012.35,-1757.66 2014.34,-1749.09"/>
<polygon fill="black" stroke="black" points="2017.79,-1749.71 2016.65,-1739.17 2010.97,-1748.12 2017.79,-1749.71"/>
</g>
<!-- 17 -->
<g id="node18" class="node">
<title>17</title>
<polygon fill="none" stroke="black" points="2559.5,-1621 1502.5,-1621 1502.5,-1539 2559.5,-1539 2559.5,-1621"/>
<text text-anchor="start" x="1515" y="-1601.8" font-family="Times,serif" font-size="14.00">({0 ≤ i!421 ∧</text>
<text text-anchor="start" x="1515" y="-1586.8" font-family="Times,serif" font-size="14.00">i!421 ≤ at ∧</text>
<text text-anchor="start" x="1515" y="-1571.8" font-family="Times,serif" font-size="14.00">result!420 = seq.extract(t, 0, i!421), at ≤ i!421, at ≤ Length(t)}, None, {elem: elem, at: at, t: t, result: Concat(result!420, Unit(elem)), i: i!421})</text>
<text text-anchor="start" x="1981.5" y="-1550.8" font-family="Courier,monospace" font-size="14.00">havoc result</text>
</g>
<!-- 16&#45;&gt;17 -->
<g id="edge17" class="edge">
<title>16&#45;&gt;17</title>
<path fill="none" stroke="black" d="M2027.73,-1656.75C2028.09,-1648.57 2028.46,-1639.86 2028.83,-1631.37"/>
<polygon fill="black" stroke="black" points="2032.33,-1631.32 2029.27,-1621.17 2025.34,-1631.01 2032.33,-1631.32"/>
</g>
<!-- 18 -->
<g id="node19" class="node">
<title>18</title>
<polygon fill="none" stroke="black" points="2487,-1491 1575,-1491 1575,-1409 2487,-1409 2487,-1491"/>
<text text-anchor="start" x="1587" y="-1471.8" font-family="Times,serif" font-size="14.00">({0 ≤ i!421 ∧</text>
<text text-anchor="start" x="1587" y="-1456.8" font-family="Times,serif" font-size="14.00">i!421 ≤ at ∧</text>
<text text-anchor="start" x="1587" y="-1441.8" font-family="Times,serif" font-size="14.00">result!420 = seq.extract(t, 0, i!421), at ≤ i!421, at ≤ Length(t)}, None, {elem: elem, at: at, t: t, result: result!448, i: i!421})</text>
<text text-anchor="start" x="2002" y="-1420.8" font-family="Courier,monospace" font-size="14.00">havoc i</text>
</g>
<!-- 17&#45;&gt;18 -->
<g id="edge18" class="edge">
<title>17&#45;&gt;18</title>
<path fill="none" stroke="black" d="M2031,-1538.85C2031,-1526.94 2031,-1513.74 2031,-1501.27"/>
<polygon fill="black" stroke="black" points="2034.5,-1501.01 2031,-1491.01 2027.5,-1501.01 2034.5,-1501.01"/>
</g>
<!-- 19 -->
<g id="node20" class="node">
<title>19</title>
<polygon fill="none" stroke="black" points="2487,-1361 1575,-1361 1575,-1279 2487,-1279 2487,-1361"/>
<text text-anchor="start" x="1587" y="-1341.8" font-family="Times,serif" font-size="14.00">({0 ≤ i!421 ∧</text>
<text text-anchor="start" x="1587" y="-1326.8" font-family="Times,serif" font-size="14.00">i!421 ≤ at ∧</text>
<text text-anchor="start" x="1587" y="-1311.8" font-family="Times,serif" font-size="14.00">result!420 = seq.extract(t, 0, i!421), at ≤ i!421, at ≤ Length(t)}, None, {elem: elem, at: at, t: t, result: result!448, i: i!449})</text>
<text text-anchor="start" x="1837" y="-1290.8" font-family="Courier,monospace" font-size="14.00">assume InsertInvariant2(i, elem, at, t, result)</text>
</g>
<!-- 18&#45;&gt;19 -->
<g id="edge19" class="edge">
<title>18&#45;&gt;19</title>
<path fill="none" stroke="black" d="M2031,-1408.85C2031,-1396.94 2031,-1383.74 2031,-1371.27"/>
<polygon fill="black" stroke="black" points="2034.5,-1371.01 2031,-1361.01 2027.5,-1371.01 2034.5,-1371.01"/>
</g>
<!-- 20 -->
<g id="node21" class="node">
<title>20</title>
<polygon fill="none" stroke="black" points="2463,-1243 1599,-1243 1599,-1101 2463,-1101 2463,-1243"/>
<text text-anchor="start" x="1611" y="-1223.8" font-family="Times,serif" font-size="14.00">({0 ≤ i!421 ∧</text>
<text text-anchor="start" x="1611" y="-1208.8" font-family="Times,serif" font-size="14.00">i!421 ≤ at ∧</text>
<text text-anchor="start" x="1611" y="-1193.8" font-family="Times,serif" font-size="14.00">result!420 = seq.extract(t, 0, i!421), at ≤ i!421, i!449 ≥ at ∧</text>
<text text-anchor="start" x="1611" y="-1178.8" font-family="Times,serif" font-size="14.00">i!449 ≤ Length(t) ∧</text>
<text text-anchor="start" x="1611" y="-1163.8" font-family="Times,serif" font-size="14.00">result!448 =</text>
<text text-anchor="start" x="1611" y="-1148.8" font-family="Times,serif" font-size="14.00">Concat(seq.extract(t, 0, at),</text>
<text text-anchor="start" x="1611" y="-1133.8" font-family="Times,serif" font-size="14.00">       Concat(Unit(elem), seq.extract(t, at, i!449 + &#45;1·at)))}, None, {elem: elem, at: at, t: t, result: result!448, i: i!449})</text>
<text text-anchor="start" x="1795.5" y="-1112.8" font-family="Courier,monospace" font-size="14.00">loop&#45;scope(inv=InsertInvariant2(i, elem, at, t, result)):</text>
</g>
<!-- 19&#45;&gt;20 -->
<g id="edge20" class="edge">
<title>19&#45;&gt;20</title>
<path fill="none" stroke="black" d="M2031,-1278.72C2031,-1270.68 2031,-1261.98 2031,-1253.14"/>
<polygon fill="black" stroke="black" points="2034.5,-1253.13 2031,-1243.13 2027.5,-1253.13 2034.5,-1253.13"/>
</g>
<!-- 21 -->
<g id="node22" class="node">
<title>21</title>
<polygon fill="none" stroke="black" points="2463,-1065 1599,-1065 1599,-923 2463,-923 2463,-1065"/>
<text text-anchor="start" x="1611" y="-1045.8" font-family="Times,serif" font-size="14.00">({0 ≤ i!421 ∧</text>
<text text-anchor="start" x="1611" y="-1030.8" font-family="Times,serif" font-size="14.00">i!421 ≤ at ∧</text>
<text text-anchor="start" x="1611" y="-1015.8" font-family="Times,serif" font-size="14.00">result!420 = seq.extract(t, 0, i!421), at ≤ i!421, i!449 ≥ at ∧</text>
<text text-anchor="start" x="1611" y="-1000.8" font-family="Times,serif" font-size="14.00">i!449 ≤ Length(t) ∧</text>
<text text-anchor="start" x="1611" y="-985.8" font-family="Times,serif" font-size="14.00">result!448 =</text>
<text text-anchor="start" x="1611" y="-970.8" font-family="Times,serif" font-size="14.00">Concat(seq.extract(t, 0, at),</text>
<text text-anchor="start" x="1611" y="-955.8" font-family="Times,serif" font-size="14.00">       Concat(Unit(elem), seq.extract(t, at, i!449 + &#45;1·at)))}, None, {elem: elem, at: at, t: t, result: result!448, i: i!449})</text>
<text text-anchor="start" x="1964.5" y="-934.8" font-family="Courier,monospace" font-size="14.00">if (i &lt; len(t)):</text>
</g>
<!-- 20&#45;&gt;21 -->
<g id="edge21" class="edge">
<title>20&#45;&gt;21</title>
<path fill="none" stroke="black" d="M2031,-1100.93C2031,-1092.46 2031,-1083.75 2031,-1075.15"/>
<polygon fill="black" stroke="black" points="2034.5,-1075.11 2031,-1065.11 2027.5,-1075.11 2034.5,-1075.11"/>
</g>
<!-- 22 -->
<g id="node23" class="node">
<title>22</title>
<polygon fill="none" stroke="black" points="2022,-887 1158,-887 1158,-745 2022,-745 2022,-887"/>
<text text-anchor="start" x="1170" y="-867.8" font-family="Times,serif" font-size="14.00">({0 ≤ i!421 ∧</text>
<text text-anchor="start" x="1170" y="-852.8" font-family="Times,serif" font-size="14.00">i!421 ≤ at ∧</text>
<text text-anchor="start" x="1170" y="-837.8" font-family="Times,serif" font-size="14.00">result!420 = seq.extract(t, 0, i!421), ¬(Length(t) ≤ i!449), at ≤ i!421, i!449 ≥ at ∧</text>
<text text-anchor="start" x="1170" y="-822.8" font-family="Times,serif" font-size="14.00">i!449 ≤ Length(t) ∧</text>
<text text-anchor="start" x="1170" y="-807.8" font-family="Times,serif" font-size="14.00">result!448 =</text>
<text text-anchor="start" x="1170" y="-792.8" font-family="Times,serif" font-size="14.00">Concat(seq.extract(t, 0, at),</text>
<text text-anchor="start" x="1170" y="-777.8" font-family="Times,serif" font-size="14.00">       Concat(Unit(elem), seq.extract(t, at, i!449 + &#45;1·at)))}, None, {elem: elem, at: at, t: t, result: result!448, i: i!449})</text>
<text text-anchor="start" x="1474" y="-756.8" font-family="Courier,monospace" font-size="14.00">result = (result + (t[i], ))</text>
</g>
<!-- 21&#45;&gt;22 -->
<g id="edge22" class="edge">
<title>21&#45;&gt;22</title>
<path fill="none" stroke="black" d="M1855.44,-922.93C1829.01,-912.39 1801.68,-901.48 1775.06,-890.86"/>
<polygon fill="black" stroke="black" points="1776.26,-887.57 1765.68,-887.11 1773.67,-894.07 1776.26,-887.57"/>
</g>
<!-- 28 -->
<g id="node29" class="node">
<title>28</title>
<polygon fill="none" stroke="black" points="2934,-887 2070,-887 2070,-745 2934,-745 2934,-887"/>
<text text-anchor="start" x="2082" y="-867.8" font-family="Times,serif" font-size="14.00">({0 ≤ i!421 ∧</text>
<text text-anchor="start" x="2082" y="-852.8" font-family="Times,serif" font-size="14.00">i!421 ≤ at ∧</text>
<text text-anchor="start" x="2082" y="-837.8" font-family="Times,serif" font-size="14.00">result!420 = seq.extract(t, 0, i!421), at ≤ i!421, Length(t) ≤ i!449, i!449 ≥ at ∧</text>
<text text-anchor="start" x="2082" y="-822.8" font-family="Times,serif" font-size="14.00">i!449 ≤ Length(t) ∧</text>
<text text-anchor="start" x="2082" y="-807.8" font-family="Times,serif" font-size="14.00">result!448 =</text>
<text text-anchor="start" x="2082" y="-792.8" font-family="Times,serif" font-size="14.00">Concat(seq.extract(t, 0, at),</text>
<text text-anchor="start" x="2082" y="-777.8" font-family="Times,serif" font-size="14.00">       Concat(Unit(elem), seq.extract(t, at, i!449 + &#45;1·at)))}, None, {elem: elem, at: at, t: t, result: result!448, i: i!449})</text>
<text text-anchor="start" x="2481" y="-756.8" font-family="Courier,monospace" font-size="14.00">break</text>
</g>
<!-- 21&#45;&gt;28 -->
<g id="edge28" class="edge">
<title>21&#45;&gt;28</title>
<path fill="none" stroke="black" d="M2218.51,-922.93C2246.85,-912.34 2276.17,-901.39 2304.72,-890.72"/>
<polygon fill="black" stroke="black" points="2306.23,-893.89 2314.37,-887.11 2303.78,-887.33 2306.23,-893.89"/>
</g>
<!-- 23 -->
<g id="node24" class="node">
<title>23</title>
<polygon fill="none" stroke="black" points="2082,-709 980,-709 980,-567 2082,-567 2082,-709"/>
<text text-anchor="start" x="992" y="-689.8" font-family="Times,serif" font-size="14.00">({0 ≤ i!421 ∧</text>
<text text-anchor="start" x="992" y="-674.8" font-family="Times,serif" font-size="14.00">i!421 ≤ at ∧</text>
<text text-anchor="start" x="992" y="-659.8" font-family="Times,serif" font-size="14.00">result!420 = seq.extract(t, 0, i!421), at ≤ i!421, 0 ≤ i!449 ∧ ¬(Length(t) ≤ i!449), i!449 ≥ at ∧</text>
<text text-anchor="start" x="992" y="-644.8" font-family="Times,serif" font-size="14.00">i!449 ≤ Length(t) ∧</text>
<text text-anchor="start" x="992" y="-629.8" font-family="Times,serif" font-size="14.00">result!448 =</text>
<text text-anchor="start" x="992" y="-614.8" font-family="Times,serif" font-size="14.00">Concat(seq.extract(t, 0, at),</text>
<text text-anchor="start" x="992" y="-599.8" font-family="Times,serif" font-size="14.00">       Concat(Unit(elem), seq.extract(t, at, i!449 + &#45;1·at)))}, None, {elem: elem, at: at, t: t, result: Concat(result!448, Unit(seq.nth_i(t, i!449))), i: i!449})</text>
<text text-anchor="start" x="1485.5" y="-578.8" font-family="Courier,monospace" font-size="14.00">i = (i + 1)</text>
</g>
<!-- 22&#45;&gt;23 -->
<g id="edge23" class="edge">
<title>22&#45;&gt;23</title>
<path fill="none" stroke="black" d="M1566.51,-744.93C1563.64,-736.37 1560.69,-727.56 1557.77,-718.87"/>
<polygon fill="black" stroke="black" points="1561,-717.48 1554.5,-709.11 1554.36,-719.71 1561,-717.48"/>
</g>
<!-- 24 -->
<g id="node25" class="node">
<title>24</title>
<polygon fill="none" stroke="black" points="2090,-531 958,-531 958,-389 2090,-389 2090,-531"/>
<text text-anchor="start" x="970" y="-511.8" font-family="Times,serif" font-size="14.00">({0 ≤ i!421 ∧</text>
<text text-anchor="start" x="970" y="-496.8" font-family="Times,serif" font-size="14.00">i!421 ≤ at ∧</text>
<text text-anchor="start" x="970" y="-481.8" font-family="Times,serif" font-size="14.00">result!420 = seq.extract(t, 0, i!421), at ≤ i!421, 0 ≤ i!449 ∧ ¬(Length(t) ≤ i!449), i!449 ≥ at ∧</text>
<text text-anchor="start" x="970" y="-466.8" font-family="Times,serif" font-size="14.00">i!449 ≤ Length(t) ∧</text>
<text text-anchor="start" x="970" y="-451.8" font-family="Times,serif" font-size="14.00">result!448 =</text>
<text text-anchor="start" x="970" y="-436.8" font-family="Times,serif" font-size="14.00">Concat(seq.extract(t, 0, at),</text>
<text text-anchor="start" x="970" y="-421.8" font-family="Times,serif" font-size="14.00">       Concat(Unit(elem), seq.extract(t, at, i!449 + &#45;1·at)))}, None, {elem: elem, at: at, t: t, result: Concat(result!448, Unit(seq.nth_i(t, i!449))), i: 1 + i!449})</text>
<text text-anchor="start" x="1490.5" y="-400.8" font-family="Courier,monospace" font-size="14.00">continue</text>
</g>
<!-- 23&#45;&gt;24 -->
<g id="edge24" class="edge">
<title>23&#45;&gt;24</title>
<path fill="none" stroke="black" d="M1528.21,-566.93C1527.88,-558.46 1527.53,-549.75 1527.19,-541.15"/>
<polygon fill="black" stroke="black" points="1530.68,-540.96 1526.79,-531.11 1523.69,-541.24 1530.68,-540.96"/>
</g>
<!-- 25 -->
<g id="node26" class="node">
<title>25</title>
<polygon fill="none" stroke="black" points="2059,-353 889,-353 889,-232 2059,-232 2059,-353"/>
<text text-anchor="start" x="901" y="-333.3" font-family="Times,serif" font-size="14.00">({0 ≤ i!421 ∧</text>
<text text-anchor="start" x="901" y="-318.3" font-family="Times,serif" font-size="14.00">i!421 ≤ at ∧</text>
<text text-anchor="start" x="901" y="-303.3" font-family="Times,serif" font-size="14.00">result!420 = seq.extract(t, 0, i!421), at ≤ i!421, 0 ≤ i!449 ∧ ¬(Length(t) ≤ i!449), i!449 ≥ at ∧</text>
<text text-anchor="start" x="901" y="-288.3" font-family="Times,serif" font-size="14.00">i!449 ≤ Length(t) ∧</text>
<text text-anchor="start" x="901" y="-273.3" font-family="Times,serif" font-size="14.00">result!448 =</text>
<text text-anchor="start" x="901" y="-258.3" font-family="Times,serif" font-size="14.00">Concat(seq.extract(t, 0, at),</text>
<text text-anchor="start" x="901" y="-243.3" font-family="Times,serif" font-size="14.00">       Concat(Unit(elem), seq.extract(t, at, i!449 + &#45;1·at)))}, Continue(), {elem: elem, at: at, t: t, result: Concat(result!448, Unit(seq.nth_i(t, i!449))), i: 1 + i!449})</text>
</g>
<!-- 24&#45;&gt;25 -->
<g id="edge25" class="edge">
<title>24&#45;&gt;25</title>
<path fill="none" stroke="black" d="M1502.8,-388.81C1500.18,-380.17 1497.52,-371.34 1494.91,-362.72"/>
<polygon fill="black" stroke="black" points="1498.24,-361.64 1492,-353.08 1491.54,-363.67 1498.24,-361.64"/>
</g>
<!-- 26 -->
<g id="node27" class="node">
<title>26</title>
<polygon fill="#aeeeee" stroke="black" points="1442.5,-196 385.5,-196 385.5,0 1442.5,0 1442.5,-196"/>
<text text-anchor="start" x="398" y="-176.8" font-family="Times,serif" font-size="14.00">({0 ≤ i!421 ∧</text>
<text text-anchor="start" x="398" y="-161.8" font-family="Times,serif" font-size="14.00">i!421 ≤ at ∧</text>
<text text-anchor="start" x="398" y="-146.8" font-family="Times,serif" font-size="14.00">result!420 = seq.extract(t, 0, i!421), i!449 ≥ at ∧</text>
<text text-anchor="start" x="398" y="-131.8" font-family="Times,serif" font-size="14.00">i!449 ≤ Length(t) ∧</text>
<text text-anchor="start" x="398" y="-116.8" font-family="Times,serif" font-size="14.00">result!448 =</text>
<text text-anchor="start" x="398" y="-101.8" font-family="Times,serif" font-size="14.00">Concat(seq.extract(t, 0, at),</text>
<text text-anchor="start" x="398" y="-86.8" font-family="Times,serif" font-size="14.00">       Concat(Unit(elem), seq.extract(t, at, i!449 + &#45;1·at))), at ≤ i!421, 0 ≤ i!449 ∧ ¬(Length(t) ≤ i!449), i!449 ≥ &#45;1 + at ∧</text>
<text text-anchor="start" x="398" y="-71.8" font-family="Times,serif" font-size="14.00">i!449 ≤ &#45;1 + Length(t) ∧</text>
<text text-anchor="start" x="398" y="-56.8" font-family="Times,serif" font-size="14.00">Concat(result!448, Unit(seq.nth_i(t, i!449))) =</text>
<text text-anchor="start" x="398" y="-41.8" font-family="Times,serif" font-size="14.00">Concat(seq.extract(t, 0, at),</text>
<text text-anchor="start" x="398" y="-26.8" font-family="Times,serif" font-size="14.00">       Concat(Unit(elem),</text>
<text text-anchor="start" x="398" y="-11.8" font-family="Times,serif" font-size="14.00">              seq.extract(t, at, 1 + i!449 + &#45;1·at)))}, Halt(), {elem: elem, at: at, t: t, result: Concat(result!448, Unit(seq.nth_i(t, i!449))), i: 1 + i!449})</text>
</g>
<!-- 25&#45;&gt;26 -->
<g id="edge26" class="edge">
<title>25&#45;&gt;26</title>
<path fill="none" stroke="black" d="M1300.65,-231.91C1270.46,-221.53 1238.33,-210.49 1205.99,-199.37"/>
<polygon fill="black" stroke="black" points="1207,-196.02 1196.4,-196.08 1204.72,-202.64 1207,-196.02"/>
</g>
<!-- 27 -->
<g id="node28" class="node">
<title>27</title>
<polygon fill="#ffaeb9" stroke="black" points="2607.5,-196 1460.5,-196 1460.5,0 2607.5,0 2607.5,-196"/>
<text text-anchor="start" x="1473" y="-176.8" font-family="Times,serif" font-size="14.00">({0 ≤ i!421 ∧</text>
<text text-anchor="start" x="1473" y="-161.8" font-family="Times,serif" font-size="14.00">i!421 ≤ at ∧</text>
<text text-anchor="start" x="1473" y="-146.8" font-family="Times,serif" font-size="14.00">result!420 = seq.extract(t, 0, i!421), i!449 ≥ at ∧</text>
<text text-anchor="start" x="1473" y="-131.8" font-family="Times,serif" font-size="14.00">i!449 ≤ Length(t) ∧</text>
<text text-anchor="start" x="1473" y="-116.8" font-family="Times,serif" font-size="14.00">result!448 =</text>
<text text-anchor="start" x="1473" y="-101.8" font-family="Times,serif" font-size="14.00">Concat(seq.extract(t, 0, at),</text>
<text text-anchor="start" x="1473" y="-86.8" font-family="Times,serif" font-size="14.00">       Concat(Unit(elem), seq.extract(t, at, i!449 + &#45;1·at))), at ≤ i!421, 0 ≤ i!449 ∧ ¬(Length(t) ≤ i!449), ¬(i!449 ≥ &#45;1 + at ∧</text>
<text text-anchor="start" x="1473" y="-71.8" font-family="Times,serif" font-size="14.00">  i!449 ≤ &#45;1 + Length(t) ∧</text>
<text text-anchor="start" x="1473" y="-56.8" font-family="Times,serif" font-size="14.00">  Concat(result!448, Unit(seq.nth_i(t, i!449))) =</text>
<text text-anchor="start" x="1473" y="-41.8" font-family="Times,serif" font-size="14.00">  Concat(seq.extract(t, 0, at),</text>
<text text-anchor="start" x="1473" y="-26.8" font-family="Times,serif" font-size="14.00">         Concat(Unit(elem),</text>
<text text-anchor="start" x="1473" y="-11.8" font-family="Times,serif" font-size="14.00">                seq.extract(t, at, 1 + i!449 + &#45;1·at))))}, AssertionError(), {elem: elem, at: at, t: t, result: Concat(result!448, Unit(seq.nth_i(t, i!449))), i: 1 + i!449})</text>
</g>
<!-- 25&#45;&gt;27 -->
<g id="edge27" class="edge">
<title>25&#45;&gt;27</title>
<path fill="none" stroke="black" d="M1647.35,-231.91C1677.54,-221.53 1709.67,-210.49 1742.01,-199.37"/>
<polygon fill="black" stroke="black" points="1743.28,-202.64 1751.6,-196.08 1741,-196.02 1743.28,-202.64"/>
</g>
<!-- 29 -->
<g id="node30" class="node">
<title>29</title>
<polygon fill="none" stroke="black" points="2968,-709 2104,-709 2104,-567 2968,-567 2968,-709"/>
<text text-anchor="start" x="2116" y="-689.8" font-family="Times,serif" font-size="14.00">({0 ≤ i!421 ∧</text>
<text text-anchor="start" x="2116" y="-674.8" font-family="Times,serif" font-size="14.00">i!421 ≤ at ∧</text>
<text text-anchor="start" x="2116" y="-659.8" font-family="Times,serif" font-size="14.00">result!420 = seq.extract(t, 0, i!421), at ≤ i!421, Length(t) ≤ i!449, i!449 ≥ at ∧</text>
<text text-anchor="start" x="2116" y="-644.8" font-family="Times,serif" font-size="14.00">i!449 ≤ Length(t) ∧</text>
<text text-anchor="start" x="2116" y="-629.8" font-family="Times,serif" font-size="14.00">result!448 =</text>
<text text-anchor="start" x="2116" y="-614.8" font-family="Times,serif" font-size="14.00">Concat(seq.extract(t, 0, at),</text>
<text text-anchor="start" x="2116" y="-599.8" font-family="Times,serif" font-size="14.00">       Concat(Unit(elem), seq.extract(t, at, i!449 + &#45;1·at)))}, None, {elem: elem, at: at, t: t, result: result!448, i: i!449})</text>
<text text-anchor="start" x="2379" y="-578.8" font-family="Courier,monospace" font-size="14.00">assert PostInsert(elem, at, t, result)</text>
</g>
<!-- 28&#45;&gt;29 -->
<g id="edge29" class="edge">
<title>28&#45;&gt;29</title>
<path fill="none" stroke="black" d="M2515.54,-744.93C2517.17,-736.46 2518.85,-727.75 2520.52,-719.15"/>
<polygon fill="black" stroke="black" points="2524,-719.59 2522.46,-709.11 2517.12,-718.27 2524,-719.59"/>
</g>
<!-- 30 -->
<g id="node31" class="node">
<title>30</title>
<polygon fill="none" stroke="black" points="2997,-531 2133,-531 2133,-389 2997,-389 2997,-531"/>
<text text-anchor="start" x="2145" y="-511.8" font-family="Times,serif" font-size="14.00">({0 ≤ i!421 ∧</text>
<text text-anchor="start" x="2145" y="-496.8" font-family="Times,serif" font-size="14.00">i!421 ≤ at ∧</text>
<text text-anchor="start" x="2145" y="-481.8" font-family="Times,serif" font-size="14.00">result!420 = seq.extract(t, 0, i!421), at ≤ i!421, Length(t) ≤ i!449, i!449 ≥ at ∧</text>
<text text-anchor="start" x="2145" y="-466.8" font-family="Times,serif" font-size="14.00">i!449 ≤ Length(t) ∧</text>
<text text-anchor="start" x="2145" y="-451.8" font-family="Times,serif" font-size="14.00">result!448 =</text>
<text text-anchor="start" x="2145" y="-436.8" font-family="Times,serif" font-size="14.00">Concat(seq.extract(t, 0, at),</text>
<text text-anchor="start" x="2145" y="-421.8" font-family="Times,serif" font-size="14.00">       Concat(Unit(elem), seq.extract(t, at, i!449 + &#45;1·at)))}, None, {elem: elem, at: at, t: t, result: result!448, i: i!449})</text>
<text text-anchor="start" x="2511" y="-400.8" font-family="Courier,monospace" font-size="14.00">return result</text>
</g>
<!-- 29&#45;&gt;30 -->
<g id="edge30" class="edge">
<title>29&#45;&gt;30</title>
<path fill="none" stroke="black" d="M2547.54,-566.93C2548.94,-558.46 2550.38,-549.75 2551.79,-541.15"/>
<polygon fill="black" stroke="black" points="2555.27,-541.55 2553.45,-531.11 2548.37,-540.41 2555.27,-541.55"/>
</g>
<!-- 31 -->
<g id="node32" class="node">
<title>31</title>
<polygon fill="#aeeeee" stroke="black" points="3104.5,-353 2077.5,-353 2077.5,-232 3104.5,-232 3104.5,-353"/>
<text text-anchor="start" x="2090" y="-333.3" font-family="Times,serif" font-size="14.00">({0 ≤ i!421 ∧</text>
<text text-anchor="start" x="2090" y="-318.3" font-family="Times,serif" font-size="14.00">i!421 ≤ at ∧</text>
<text text-anchor="start" x="2090" y="-303.3" font-family="Times,serif" font-size="14.00">result!420 = seq.extract(t, 0, i!421), at ≤ i!421, Length(t) ≤ i!449, i!449 ≥ at ∧</text>
<text text-anchor="start" x="2090" y="-288.3" font-family="Times,serif" font-size="14.00">i!449 ≤ Length(t) ∧</text>
<text text-anchor="start" x="2090" y="-273.3" font-family="Times,serif" font-size="14.00">result!448 =</text>
<text text-anchor="start" x="2090" y="-258.3" font-family="Times,serif" font-size="14.00">Concat(seq.extract(t, 0, at),</text>
<text text-anchor="start" x="2090" y="-243.3" font-family="Times,serif" font-size="14.00">       Concat(Unit(elem), seq.extract(t, at, i!449 + &#45;1·at)))}, SymbolicReturn(result!448), {elem: elem, at: at, t: t, result: result!448, i: i!449})</text>
</g>
<!-- 30&#45;&gt;31 -->
<g id="edge31" class="edge">
<title>30&#45;&gt;31</title>
<path fill="none" stroke="black" d="M2576.03,-388.81C2577.37,-380.26 2578.74,-371.53 2580.08,-362.99"/>
<polygon fill="black" stroke="black" points="2583.55,-363.51 2581.64,-353.08 2576.63,-362.42 2583.55,-363.51"/>
</g>
</g>
</svg>
