<?xml version="1.0" encoding="UTF-8" standalone="no"?>
<!DOCTYPE svg PUBLIC "-//W3C//DTD SVG 1.1//EN"
 "http://www.w3.org/Graphics/SVG/1.1/DTD/svg11.dtd">
<!-- Generated by graphviz version 2.43.0 (0)
 -->
<!-- Title: %3 Pages: 1 -->
<svg width="814pt" height="572pt"
 viewBox="0.00 0.00 814.00 572.00" xmlns="http://www.w3.org/2000/svg" xmlns:xlink="http://www.w3.org/1999/xlink">
<g id="graph0" class="graph" transform="scale(1 1) rotate(0) translate(4 568)">
<title>%3</title>
<polygon fill="white" stroke="transparent" points="-4,4 -4,-568 810,-568 810,4 -4,4"/>
<!-- 0 -->
<g id="node1" class="node">
<title>0</title>
<polygon fill="none" stroke="black" points="494,-564 312,-564 312,-512 494,-512 494,-564"/>
<text text-anchor="start" x="324" y="-544.8" font-family="Times,serif" font-size="14.00">({}, None, {x: x, t: t})</text>
<text text-anchor="start" x="382" y="-523.8" font-family="Courier,monospace" font-size="14.00">i = 0</text>
</g>
<!-- 1 -->
<g id="node2" class="node">
<title>1</title>
<polygon fill="none" stroke="black" points="510,-476 296,-476 296,-424 510,-424 510,-476"/>
<text text-anchor="start" x="308" y="-456.8" font-family="Times,serif" font-size="14.00">({}, None, {x: x, t: t, i: 0})</text>
<text text-anchor="start" x="324.5" y="-435.8" font-family="Courier,monospace" font-size="14.00">while (i &lt; len(t)):</text>
</g>
<!-- 0&#45;&gt;1 -->
<g id="edge1" class="edge">
<title>0&#45;&gt;1</title>
<path fill="none" stroke="black" d="M403,-511.66C403,-503.7 403,-494.76 403,-486.24"/>
<polygon fill="black" stroke="black" points="406.5,-486.16 403,-476.16 399.5,-486.16 406.5,-486.16"/>
</g>
<!-- 2 -->
<g id="node3" class="node">
<title>2</title>
<polygon fill="none" stroke="black" points="569.5,-388 236.5,-388 236.5,-336 569.5,-336 569.5,-388"/>
<text text-anchor="start" x="249" y="-368.8" font-family="Times,serif" font-size="14.00">({¬(Length(t) ≤ 0)}, None, {x: x, t: t, i: 0})</text>
<text text-anchor="start" x="341.5" y="-347.8" font-family="Courier,monospace" font-size="14.00">if (t[i] &gt;= x):</text>
</g>
<!-- 1&#45;&gt;2 -->
<g id="edge2" class="edge">
<title>1&#45;&gt;2</title>
<path fill="none" stroke="black" d="M403,-423.66C403,-415.7 403,-406.76 403,-398.24"/>
<polygon fill="black" stroke="black" points="406.5,-398.16 403,-388.16 399.5,-398.16 406.5,-398.16"/>
</g>
<!-- 3 -->
<g id="node4" class="node">
<title>3</title>
<polygon fill="none" stroke="black" points="757.5,-300 48.5,-300 48.5,-248 757.5,-248 757.5,-300"/>
<text text-anchor="start" x="61" y="-280.8" font-family="Times,serif" font-size="14.00">({¬(Length(t) ≤ 0), If(Length(t) ≤ 0, seq.nth_u(t, 0), seq.nth_i(t, 0)) ≥ x}, None, {x: x, t: t, i: 0})</text>
<text text-anchor="start" x="382.5" y="-259.8" font-family="Courier,monospace" font-size="14.00">break</text>
</g>
<!-- 2&#45;&gt;3 -->
<g id="edge3" class="edge">
<title>2&#45;&gt;3</title>
<path fill="none" stroke="black" d="M403,-335.66C403,-327.7 403,-318.76 403,-310.24"/>
<polygon fill="black" stroke="black" points="406.5,-310.16 403,-300.16 399.5,-310.16 406.5,-310.16"/>
</g>
<!-- 4 -->
<g id="node5" class="node">
<title>4</title>
<polygon fill="none" stroke="black" points="757.5,-212 48.5,-212 48.5,-160 757.5,-160 757.5,-212"/>
<text text-anchor="start" x="61" y="-192.8" font-family="Times,serif" font-size="14.00">({¬(Length(t) ≤ 0), If(Length(t) ≤ 0, seq.nth_u(t, 0), seq.nth_i(t, 0)) ≥ x}, None, {x: x, t: t, i: 0})</text>
<text text-anchor="start" x="263" y="-171.8" font-family="Courier,monospace" font-size="14.00">assert PostInsertionPoint(x, t, i)</text>
</g>
<!-- 3&#45;&gt;4 -->
<g id="edge4" class="edge">
<title>3&#45;&gt;4</title>
<path fill="none" stroke="black" d="M403,-247.66C403,-239.7 403,-230.76 403,-222.24"/>
<polygon fill="black" stroke="black" points="406.5,-222.16 403,-212.16 399.5,-222.16 406.5,-222.16"/>
</g>
<!-- 5 -->
<g id="node6" class="node">
<title>5</title>
<polygon fill="none" stroke="black" points="757.5,-124 48.5,-124 48.5,-72 757.5,-72 757.5,-124"/>
<text text-anchor="start" x="61" y="-104.8" font-family="Times,serif" font-size="14.00">({¬(Length(t) ≤ 0), If(Length(t) ≤ 0, seq.nth_u(t, 0), seq.nth_i(t, 0)) ≥ x}, None, {x: x, t: t, i: 0})</text>
<text text-anchor="start" x="370" y="-83.8" font-family="Courier,monospace" font-size="14.00">return i</text>
</g>
<!-- 4&#45;&gt;5 -->
<g id="edge5" class="edge">
<title>4&#45;&gt;5</title>
<path fill="none" stroke="black" d="M403,-159.66C403,-151.7 403,-142.76 403,-134.24"/>
<polygon fill="black" stroke="black" points="406.5,-134.16 403,-124.16 399.5,-134.16 406.5,-134.16"/>
</g>
<!-- 6 -->
<g id="node7" class="node">
<title>6</title>
<polygon fill="#aeeeee" stroke="black" points="806,-36 0,-36 0,0 806,0 806,-36"/>
<text text-anchor="start" x="12" y="-13.8" font-family="Times,serif" font-size="14.00">({¬(Length(t) ≤ 0), If(Length(t) ≤ 0, seq.nth_u(t, 0), seq.nth_i(t, 0)) ≥ x}, SymbolicReturn(0), {x: x, t: t, i: 0})</text>
</g>
<!-- 5&#45;&gt;6 -->
<g id="edge6" class="edge">
<title>5&#45;&gt;6</title>
<path fill="none" stroke="black" d="M403,-71.89C403,-63.84 403,-54.88 403,-46.66"/>
<polygon fill="black" stroke="black" points="406.5,-46.41 403,-36.41 399.5,-46.41 406.5,-46.41"/>
</g>
</g>
</svg>
