<?xml version="1.0" encoding="UTF-8" standalone="no"?>
<!DOCTYPE svg PUBLIC "-//W3C//DTD SVG 1.1//EN"
 "http://www.w3.org/Graphics/SVG/1.1/DTD/svg11.dtd">
<!-- Generated by graphviz version 2.43.0 (0)
 -->
<!-- Title: %3 Pages: 1 -->
<svg width="228pt" height="412pt"
 viewBox="0.00 0.00 228.00 412.00" xmlns="http://www.w3.org/2000/svg" xmlns:xlink="http://www.w3.org/1999/xlink">
<g id="graph0" class="graph" transform="scale(1 1) rotate(0) translate(4 408)">
<title>%3</title>
<polygon fill="white" stroke="transparent" points="-4,4 -4,-408 224,-408 224,4 -4,4"/>
<!-- 0 -->
<g id="node1" class="node">
<title>0</title>
<polygon fill="none" stroke="black" points="220,-404 0,-404 0,-352 220,-352 220,-404"/>
<text text-anchor="start" x="12" y="-384.8" font-family="Times,serif" font-size="14.00">({}, None, {x: 68, idx: 85})</text>
<text text-anchor="start" x="39.5" y="-363.8" font-family="Courier,monospace" font-size="14.00">while (idx &gt;= x):</text>
</g>
<!-- 1 -->
<g id="node2" class="node">
<title>1</title>
<polygon fill="none" stroke="black" points="220,-316 0,-316 0,-264 220,-264 220,-316"/>
<text text-anchor="start" x="12" y="-296.8" font-family="Times,serif" font-size="14.00">({}, None, {x: 68, idx: 85})</text>
<text text-anchor="start" x="48" y="-275.8" font-family="Courier,monospace" font-size="14.00">idx = (idx &#45; 1)</text>
</g>
<!-- 0&#45;&gt;1 -->
<g id="edge1" class="edge">
<title>0&#45;&gt;1</title>
<path fill="none" stroke="black" d="M110,-351.66C110,-343.7 110,-334.76 110,-326.24"/>
<polygon fill="black" stroke="black" points="113.5,-326.16 110,-316.16 106.5,-326.16 113.5,-326.16"/>
</g>
<!-- 2 -->
<g id="node3" class="node">
<title>2</title>
<polygon fill="none" stroke="black" points="220,-228 0,-228 0,-176 220,-176 220,-228"/>
<text text-anchor="start" x="12" y="-208.8" font-family="Times,serif" font-size="14.00">({}, None, {x: 68, idx: 84})</text>
<text text-anchor="start" x="39.5" y="-187.8" font-family="Courier,monospace" font-size="14.00">while (idx &gt;= x):</text>
</g>
<!-- 1&#45;&gt;2 -->
<g id="edge2" class="edge">
<title>1&#45;&gt;2</title>
<path fill="none" stroke="black" d="M110,-263.66C110,-255.7 110,-246.76 110,-238.24"/>
<polygon fill="black" stroke="black" points="113.5,-238.16 110,-228.16 106.5,-238.16 113.5,-238.16"/>
</g>
<!-- 3 -->
<g id="node4" class="node">
<title>3</title>
<polygon fill="none" stroke="black" points="220,-140 0,-140 0,-88 220,-88 220,-140"/>
<text text-anchor="start" x="12" y="-120.8" font-family="Times,serif" font-size="14.00">({}, None, {x: 68, idx: 84})</text>
<text text-anchor="start" x="48" y="-99.8" font-family="Courier,monospace" font-size="14.00">idx = (idx &#45; 1)</text>
</g>
<!-- 2&#45;&gt;3 -->
<g id="edge3" class="edge">
<title>2&#45;&gt;3</title>
<path fill="none" stroke="black" d="M110,-175.66C110,-167.7 110,-158.76 110,-150.24"/>
<polygon fill="black" stroke="black" points="113.5,-150.16 110,-140.16 106.5,-150.16 113.5,-150.16"/>
</g>
<!-- 4 -->
<g id="node5" class="node">
<title>4</title>
<polygon fill="#aeeeee" stroke="black" points="220,-52 0,-52 0,0 220,0 220,-52"/>
<text text-anchor="start" x="12" y="-32.8" font-family="Times,serif" font-size="14.00">({}, None, {x: 68, idx: 83})</text>
<text text-anchor="start" x="39.5" y="-11.8" font-family="Courier,monospace" font-size="14.00">while (idx &gt;= x):</text>
</g>
<!-- 3&#45;&gt;4 -->
<g id="edge4" class="edge">
<title>3&#45;&gt;4</title>
<path fill="none" stroke="black" d="M110,-87.66C110,-79.7 110,-70.76 110,-62.24"/>
<polygon fill="black" stroke="black" points="113.5,-62.16 110,-52.16 106.5,-62.16 113.5,-62.16"/>
</g>
</g>
</svg>
