<?xml version="1.0" encoding="UTF-8" standalone="no"?>
<!DOCTYPE svg PUBLIC "-//W3C//DTD SVG 1.1//EN"
 "http://www.w3.org/Graphics/SVG/1.1/DTD/svg11.dtd">
<!-- Generated by graphviz version 2.43.0 (0)
 -->
<!-- Title: %3 Pages: 1 -->
<svg width="232pt" height="412pt"
 viewBox="0.00 0.00 232.00 412.00" xmlns="http://www.w3.org/2000/svg" xmlns:xlink="http://www.w3.org/1999/xlink">
<g id="graph0" class="graph" transform="scale(1 1) rotate(0) translate(4 408)">
<title>%3</title>
<polygon fill="white" stroke="transparent" points="-4,4 -4,-408 228,-408 228,4 -4,4"/>
<!-- 0 -->
<g id="node1" class="node">
<title>0</title>
<polygon fill="none" stroke="black" points="224,-404 0,-404 0,-352 224,-352 224,-404"/>
<text text-anchor="start" x="12" y="-384.8" font-family="Times,serif" font-size="14.00">({}, None, {x: &#45;36, idx: 93})</text>
<text text-anchor="start" x="41.5" y="-363.8" font-family="Courier,monospace" font-size="14.00">while (idx &gt;= x):</text>
</g>
<!-- 1 -->
<g id="node2" class="node">
<title>1</title>
<polygon fill="none" stroke="black" points="224,-316 0,-316 0,-264 224,-264 224,-316"/>
<text text-anchor="start" x="12" y="-296.8" font-family="Times,serif" font-size="14.00">({}, None, {x: &#45;36, idx: 93})</text>
<text text-anchor="start" x="50" y="-275.8" font-family="Courier,monospace" font-size="14.00">idx = (idx &#45; 1)</text>
</g>
<!-- 0&#45;&gt;1 -->
<g id="edge1" class="edge">
<title>0&#45;&gt;1</title>
<path fill="none" stroke="black" d="M112,-351.66C112,-343.7 112,-334.76 112,-326.24"/>
<polygon fill="black" stroke="black" points="115.5,-326.16 112,-316.16 108.5,-326.16 115.5,-326.16"/>
</g>
<!-- 2 -->
<g id="node3" class="node">
<title>2</title>
<polygon fill="none" stroke="black" points="224,-228 0,-228 0,-176 224,-176 224,-228"/>
<text text-anchor="start" x="12" y="-208.8" font-family="Times,serif" font-size="14.00">({}, None, {x: &#45;36, idx: 92})</text>
<text text-anchor="start" x="41.5" y="-187.8" font-family="Courier,monospace" font-size="14.00">while (idx &gt;= x):</text>
</g>
<!-- 1&#45;&gt;2 -->
<g id="edge2" class="edge">
<title>1&#45;&gt;2</title>
<path fill="none" stroke="black" d="M112,-263.66C112,-255.7 112,-246.76 112,-238.24"/>
<polygon fill="black" stroke="black" points="115.5,-238.16 112,-228.16 108.5,-238.16 115.5,-238.16"/>
</g>
<!-- 3 -->
<g id="node4" class="node">
<title>3</title>
<polygon fill="none" stroke="black" points="224,-140 0,-140 0,-88 224,-88 224,-140"/>
<text text-anchor="start" x="12" y="-120.8" font-family="Times,serif" font-size="14.00">({}, None, {x: &#45;36, idx: 92})</text>
<text text-anchor="start" x="50" y="-99.8" font-family="Courier,monospace" font-size="14.00">idx = (idx &#45; 1)</text>
</g>
<!-- 2&#45;&gt;3 -->
<g id="edge3" class="edge">
<title>2&#45;&gt;3</title>
<path fill="none" stroke="black" d="M112,-175.66C112,-167.7 112,-158.76 112,-150.24"/>
<polygon fill="black" stroke="black" points="115.5,-150.16 112,-140.16 108.5,-150.16 115.5,-150.16"/>
</g>
<!-- 4 -->
<g id="node5" class="node">
<title>4</title>
<polygon fill="#aeeeee" stroke="black" points="224,-52 0,-52 0,0 224,0 224,-52"/>
<text text-anchor="start" x="12" y="-32.8" font-family="Times,serif" font-size="14.00">({}, None, {x: &#45;36, idx: 91})</text>
<text text-anchor="start" x="41.5" y="-11.8" font-family="Courier,monospace" font-size="14.00">while (idx &gt;= x):</text>
</g>
<!-- 3&#45;&gt;4 -->
<g id="edge4" class="edge">
<title>3&#45;&gt;4</title>
<path fill="none" stroke="black" d="M112,-87.66C112,-79.7 112,-70.76 112,-62.24"/>
<polygon fill="black" stroke="black" points="115.5,-62.16 112,-52.16 108.5,-62.16 115.5,-62.16"/>
</g>
</g>
</svg>
