<?xml version="1.0" encoding="UTF-8" standalone="no"?>
<!DOCTYPE svg PUBLIC "-//W3C//DTD SVG 1.1//EN"
 "http://www.w3.org/Graphics/SVG/1.1/DTD/svg11.dtd">
<!-- Generated by graphviz version 2.43.0 (0)
 -->
<!-- Title: %3 Pages: 1 -->
<svg width="1874pt" height="220pt"
 viewBox="0.00 0.00 1874.00 220.00" xmlns="http://www.w3.org/2000/svg" xmlns:xlink="http://www.w3.org/1999/xlink">
<g id="graph0" class="graph" transform="scale(1 1) rotate(0) translate(4 216)">
<title>%3</title>
<polygon fill="white" stroke="transparent" points="-4,4 -4,-216 1870,-216 1870,4 -4,4"/>
<!-- 0 -->
<g id="node1" class="node">
<title>0</title>
<polygon fill="none" stroke="black" points="1079,-212 897,-212 897,-160 1079,-160 1079,-212"/>
<text text-anchor="start" x="909" y="-192.8" font-family="Times,serif" font-size="14.00">({}, None, {x: x, t: t})</text>
<text text-anchor="start" x="930" y="-171.8" font-family="Courier,monospace" font-size="14.00">if (t[x] &gt; 0):</text>
</g>
<!-- 1 -->
<g id="node2" class="node">
<title>1</title>
<polygon fill="none" stroke="black" points="680,-124 162,-124 162,-72 680,-72 680,-124"/>
<text text-anchor="start" x="174" y="-104.8" font-family="Times,serif" font-size="14.00">({0 ≤ x ∧ ¬(Length(t) ≤ x), ¬(seq.nth_i(t, x) ≤ 0)}, None, {x: x, t: t})</text>
<text text-anchor="start" x="367" y="-83.8" font-family="Courier,monospace" font-size="14.00">result = t[x]</text>
</g>
<!-- 0&#45;&gt;1 -->
<g id="edge1" class="edge">
<title>0&#45;&gt;1</title>
<path fill="none" stroke="black" d="M896.9,-171.18C816.02,-158.91 695.58,-140.65 596.1,-125.56"/>
<polygon fill="black" stroke="black" points="596.34,-122.05 585.92,-124.01 595.29,-128.98 596.34,-122.05"/>
</g>
<!-- 3 -->
<g id="node4" class="node">
<title>3</title>
<polygon fill="none" stroke="black" points="1236,-124 740,-124 740,-72 1236,-72 1236,-124"/>
<text text-anchor="start" x="752" y="-104.8" font-family="Times,serif" font-size="14.00">({0 ≤ x ∧ ¬(Length(t) ≤ x), seq.nth_i(t, x) ≤ 0}, None, {x: x, t: t})</text>
<text text-anchor="start" x="930" y="-83.8" font-family="Courier,monospace" font-size="14.00">result = &#45;t[x]</text>
</g>
<!-- 0&#45;&gt;3 -->
<g id="edge3" class="edge">
<title>0&#45;&gt;3</title>
<path fill="none" stroke="black" d="M988,-159.66C988,-151.7 988,-142.76 988,-134.24"/>
<polygon fill="black" stroke="black" points="991.5,-134.16 988,-124.16 984.5,-134.16 991.5,-134.16"/>
</g>
<!-- 5 -->
<g id="node6" class="node">
<title>5</title>
<polygon fill="#ffaeb9" stroke="black" points="1866,-116 1254,-116 1254,-80 1866,-80 1866,-116"/>
<text text-anchor="start" x="1266" y="-93.8" font-family="Times,serif" font-size="14.00">({¬(0 ≤ x ∧ ¬(Length(t) ≤ x))}, IndexError(&#39;tuple index out of range&#39;), {x: x, t: t})</text>
</g>
<!-- 0&#45;&gt;5 -->
<g id="edge5" class="edge">
<title>0&#45;&gt;5</title>
<path fill="none" stroke="black" d="M1079.27,-171.28C1176.07,-156.72 1329.57,-133.65 1437,-117.49"/>
<polygon fill="black" stroke="black" points="1437.55,-120.95 1446.92,-116 1436.51,-114.03 1437.55,-120.95"/>
</g>
<!-- 2 -->
<g id="node3" class="node">
<title>2</title>
<polygon fill="#aeeeee" stroke="black" points="676,-36 0,-36 0,0 676,0 676,-36"/>
<text text-anchor="start" x="12" y="-13.8" font-family="Times,serif" font-size="14.00">({0 ≤ x ∧ ¬(Length(t) ≤ x), ¬(seq.nth_i(t, x) ≤ 0)}, None, {x: x, t: t, result: seq.nth_i(t, x)})</text>
</g>
<!-- 1&#45;&gt;2 -->
<g id="edge2" class="edge">
<title>1&#45;&gt;2</title>
<path fill="none" stroke="black" d="M394.28,-71.89C384.48,-62.68 373.42,-52.29 363.72,-43.17"/>
<polygon fill="black" stroke="black" points="365.95,-40.47 356.27,-36.17 361.16,-45.57 365.95,-40.47"/>
</g>
<!-- 4 -->
<g id="node5" class="node">
<title>4</title>
<polygon fill="#aeeeee" stroke="black" points="1366,-36 694,-36 694,0 1366,0 1366,-36"/>
<text text-anchor="start" x="706" y="-13.8" font-family="Times,serif" font-size="14.00">({0 ≤ x ∧ ¬(Length(t) ≤ x), seq.nth_i(t, x) ≤ 0}, None, {x: x, t: t, result: &#45;1·seq.nth_i(t, x)})</text>
</g>
<!-- 3&#45;&gt;4 -->
<g id="edge4" class="edge">
<title>3&#45;&gt;4</title>
<path fill="none" stroke="black" d="M1001.52,-71.89C1006.1,-63.39 1011.22,-53.87 1015.85,-45.28"/>
<polygon fill="black" stroke="black" points="1018.97,-46.87 1020.63,-36.41 1012.8,-43.56 1018.97,-46.87"/>
</g>
</g>
</svg>
