<?xml version="1.0" encoding="UTF-8" standalone="no"?>
<!DOCTYPE svg PUBLIC "-//W3C//DTD SVG 1.1//EN"
 "http://www.w3.org/Graphics/SVG/1.1/DTD/svg11.dtd">
<!-- Generated by graphviz version 2.43.0 (0)
 -->
<!-- Title: %3 Pages: 1 -->
<svg width="890pt" height="737pt"
 viewBox="0.00 0.00 890.00 737.00" xmlns="http://www.w3.org/2000/svg" xmlns:xlink="http://www.w3.org/1999/xlink">
<g id="graph0" class="graph" transform="scale(1 1) rotate(0) translate(4 733)">
<title>%3</title>
<polygon fill="white" stroke="transparent" points="-4,4 -4,-733 886,-733 886,4 -4,4"/>
<!-- 0 -->
<g id="node1" class="node">
<title>0</title>
<text text-anchor="middle" x="570" y="-717.8" font-family="Times,serif" font-size="14.00">&lt;primary&gt;</text>
</g>
<!-- 1 -->
<g id="node2" class="node">
<title>1</title>
<text text-anchor="middle" x="185" y="-666.8" font-family="Times,serif" font-size="14.00">&lt;NAME&gt;</text>
</g>
<!-- 0&#45;&gt;1 -->
<g id="edge1" class="edge">
<title>0&#45;&gt;1</title>
<path fill="none" stroke="black" d="M528.8,-715.26C456.27,-706.02 306.31,-686.94 230.71,-677.32"/>
<polygon fill="black" stroke="black" points="230.91,-673.81 220.55,-676.02 230.02,-680.76 230.91,-673.81"/>
</g>
<!-- 20 -->
<g id="node21" class="node">
<title>20</title>
<text text-anchor="middle" x="495" y="-666.8" font-family="Times,serif" font-size="14.00">(</text>
</g>
<!-- 0&#45;&gt;20 -->
<g id="edge20" class="edge">
<title>0&#45;&gt;20</title>
<path fill="none" stroke="black" d="M559.89,-713.89C546.11,-704.89 521.51,-688.82 506.88,-679.26"/>
<polygon fill="black" stroke="black" points="508.57,-676.19 498.28,-673.65 504.74,-682.05 508.57,-676.19"/>
</g>
<!-- 21 -->
<g id="node22" class="node">
<title>21</title>
<text text-anchor="middle" x="544" y="-666.8" font-family="Times,serif" font-size="14.00">&lt;args&gt;</text>
</g>
<!-- 0&#45;&gt;21 -->
<g id="edge21" class="edge">
<title>0&#45;&gt;21</title>
<path fill="none" stroke="black" d="M566.38,-713.69C562.78,-706.88 557.1,-696.19 552.37,-687.27"/>
<polygon fill="black" stroke="black" points="555.36,-685.45 547.58,-678.26 549.18,-688.73 555.36,-685.45"/>
</g>
<!-- 40 -->
<g id="node41" class="node">
<title>40</title>
<text text-anchor="middle" x="596" y="-666.8" font-family="Times,serif" font-size="14.00">)[</text>
</g>
<!-- 0&#45;&gt;40 -->
<g id="edge40" class="edge">
<title>0&#45;&gt;40</title>
<path fill="none" stroke="black" d="M573.62,-713.69C577.22,-706.88 582.9,-696.19 587.63,-687.27"/>
<polygon fill="black" stroke="black" points="590.82,-688.73 592.42,-678.26 584.64,-685.45 590.82,-688.73"/>
</g>
<!-- 41 -->
<g id="node42" class="node">
<title>41</title>
<text text-anchor="middle" x="672" y="-666.8" font-family="Times,serif" font-size="14.00">&lt;expression&gt;</text>
</g>
<!-- 0&#45;&gt;41 -->
<g id="edge41" class="edge">
<title>0&#45;&gt;41</title>
<path fill="none" stroke="black" d="M583.76,-713.89C600.58,-705.81 629.29,-692.02 649.38,-682.37"/>
<polygon fill="black" stroke="black" points="650.96,-685.49 658.46,-678 647.93,-679.18 650.96,-685.49"/>
</g>
<!-- 58 -->
<g id="node59" class="node">
<title>58</title>
<text text-anchor="middle" x="744" y="-666.8" font-family="Times,serif" font-size="14.00">]</text>
</g>
<!-- 0&#45;&gt;58 -->
<g id="edge58" class="edge">
<title>0&#45;&gt;58</title>
<path fill="none" stroke="black" d="M604.58,-713.94C637.91,-707.04 689.41,-694.84 732,-678 732.1,-677.96 732.2,-677.92 732.3,-677.88"/>
<polygon fill="black" stroke="black" points="733.66,-681.12 740.94,-673.42 730.45,-674.9 733.66,-681.12"/>
</g>
<!-- 2 -->
<g id="node3" class="node">
<title>2</title>
<text text-anchor="middle" x="53" y="-615.8" font-family="Times,serif" font-size="14.00">&lt;INIT_CHAR&gt;</text>
</g>
<!-- 1&#45;&gt;2 -->
<g id="edge2" class="edge">
<title>1&#45;&gt;2</title>
<path fill="none" stroke="black" d="M167.47,-662.99C145.18,-654.72 106.46,-640.34 80.29,-630.63"/>
<polygon fill="black" stroke="black" points="81.19,-627.23 70.6,-627.03 78.76,-633.8 81.19,-627.23"/>
</g>
<!-- 4 -->
<g id="node5" class="node">
<title>4</title>
<text text-anchor="middle" x="185" y="-615.8" font-family="Times,serif" font-size="14.00">&lt;IDCHARS&gt;</text>
</g>
<!-- 1&#45;&gt;4 -->
<g id="edge4" class="edge">
<title>1&#45;&gt;4</title>
<path fill="none" stroke="black" d="M185,-662.69C185,-656.18 185,-646.1 185,-637.43"/>
<polygon fill="black" stroke="black" points="188.5,-637.26 185,-627.26 181.5,-637.26 188.5,-637.26"/>
</g>
<!-- 3 -->
<g id="node4" class="node">
<title>3</title>
<text text-anchor="middle" x="39" y="-564.8" font-family="Times,serif" font-size="14.00">m</text>
</g>
<!-- 2&#45;&gt;3 -->
<g id="edge3" class="edge">
<title>2&#45;&gt;3</title>
<path fill="none" stroke="black" d="M51.05,-611.69C49.17,-605.1 46.25,-594.87 43.75,-586.14"/>
<polygon fill="black" stroke="black" points="47.04,-584.91 40.93,-576.26 40.31,-586.83 47.04,-584.91"/>
</g>
<!-- 5 -->
<g id="node6" class="node">
<title>5</title>
<text text-anchor="middle" x="106" y="-564.8" font-family="Times,serif" font-size="14.00">&lt;IDCHAR&gt;</text>
</g>
<!-- 4&#45;&gt;5 -->
<g id="edge5" class="edge">
<title>4&#45;&gt;5</title>
<path fill="none" stroke="black" d="M174.35,-611.89C161.79,-604.1 140.68,-591.01 125.24,-581.43"/>
<polygon fill="black" stroke="black" points="126.83,-578.3 116.49,-576 123.14,-584.25 126.83,-578.3"/>
</g>
<!-- 7 -->
<g id="node8" class="node">
<title>7</title>
<text text-anchor="middle" x="213" y="-564.8" font-family="Times,serif" font-size="14.00">&lt;IDCHARS&gt;</text>
</g>
<!-- 4&#45;&gt;7 -->
<g id="edge7" class="edge">
<title>4&#45;&gt;7</title>
<path fill="none" stroke="black" d="M188.89,-611.69C192.82,-604.81 199.02,-593.96 204.15,-584.98"/>
<polygon fill="black" stroke="black" points="207.22,-586.67 209.14,-576.26 201.14,-583.2 207.22,-586.67"/>
</g>
<!-- 6 -->
<g id="node7" class="node">
<title>6</title>
<text text-anchor="middle" x="74" y="-513.8" font-family="Times,serif" font-size="14.00">y</text>
</g>
<!-- 5&#45;&gt;6 -->
<g id="edge6" class="edge">
<title>5&#45;&gt;6</title>
<path fill="none" stroke="black" d="M101.55,-560.69C97.01,-553.74 89.82,-542.73 83.92,-533.7"/>
<polygon fill="black" stroke="black" points="86.81,-531.71 78.41,-525.26 80.95,-535.54 86.81,-531.71"/>
</g>
<!-- 8 -->
<g id="node9" class="node">
<title>8</title>
<text text-anchor="middle" x="139" y="-513.8" font-family="Times,serif" font-size="14.00">&lt;IDCHAR&gt;</text>
</g>
<!-- 7&#45;&gt;8 -->
<g id="edge8" class="edge">
<title>7&#45;&gt;8</title>
<path fill="none" stroke="black" d="M203.02,-560.89C191.37,-553.18 171.86,-540.26 157.43,-530.71"/>
<polygon fill="black" stroke="black" points="159.09,-527.61 148.82,-525 155.23,-533.44 159.09,-527.61"/>
</g>
<!-- 10 -->
<g id="node11" class="node">
<title>10</title>
<text text-anchor="middle" x="246" y="-513.8" font-family="Times,serif" font-size="14.00">&lt;IDCHARS&gt;</text>
</g>
<!-- 7&#45;&gt;10 -->
<g id="edge10" class="edge">
<title>7&#45;&gt;10</title>
<path fill="none" stroke="black" d="M217.59,-560.69C222.27,-553.74 229.68,-542.73 235.77,-533.7"/>
<polygon fill="black" stroke="black" points="238.77,-535.5 241.45,-525.26 232.96,-531.59 238.77,-535.5"/>
</g>
<!-- 9 -->
<g id="node10" class="node">
<title>9</title>
<text text-anchor="middle" x="109" y="-462.8" font-family="Times,serif" font-size="14.00">_</text>
</g>
<!-- 8&#45;&gt;9 -->
<g id="edge9" class="edge">
<title>8&#45;&gt;9</title>
<path fill="none" stroke="black" d="M134.83,-509.69C130.48,-502.58 123.52,-491.22 117.93,-482.08"/>
<polygon fill="black" stroke="black" points="120.78,-480.04 112.57,-473.34 114.81,-483.69 120.78,-480.04"/>
</g>
<!-- 11 -->
<g id="node12" class="node">
<title>11</title>
<text text-anchor="middle" x="172" y="-462.8" font-family="Times,serif" font-size="14.00">&lt;IDCHAR&gt;</text>
</g>
<!-- 10&#45;&gt;11 -->
<g id="edge11" class="edge">
<title>10&#45;&gt;11</title>
<path fill="none" stroke="black" d="M236.02,-509.89C224.37,-502.18 204.86,-489.26 190.43,-479.71"/>
<polygon fill="black" stroke="black" points="192.09,-476.61 181.82,-474 188.23,-482.44 192.09,-476.61"/>
</g>
<!-- 13 -->
<g id="node14" class="node">
<title>13</title>
<text text-anchor="middle" x="279" y="-462.8" font-family="Times,serif" font-size="14.00">&lt;IDCHARS&gt;</text>
</g>
<!-- 10&#45;&gt;13 -->
<g id="edge13" class="edge">
<title>10&#45;&gt;13</title>
<path fill="none" stroke="black" d="M250.59,-509.69C255.27,-502.74 262.68,-491.73 268.77,-482.7"/>
<polygon fill="black" stroke="black" points="271.77,-484.5 274.45,-474.26 265.96,-480.59 271.77,-484.5"/>
</g>
<!-- 12 -->
<g id="node13" class="node">
<title>12</title>
<text text-anchor="middle" x="122" y="-411.8" font-family="Times,serif" font-size="14.00">f</text>
</g>
<!-- 11&#45;&gt;12 -->
<g id="edge12" class="edge">
<title>11&#45;&gt;12</title>
<path fill="none" stroke="black" d="M165.05,-458.69C156.58,-450.39 142.2,-436.29 132.41,-426.7"/>
<polygon fill="black" stroke="black" points="134.84,-424.19 125.25,-419.69 129.94,-429.19 134.84,-424.19"/>
</g>
<!-- 14 -->
<g id="node15" class="node">
<title>14</title>
<text text-anchor="middle" x="185" y="-411.8" font-family="Times,serif" font-size="14.00">&lt;IDCHAR&gt;</text>
</g>
<!-- 13&#45;&gt;14 -->
<g id="edge14" class="edge">
<title>13&#45;&gt;14</title>
<path fill="none" stroke="black" d="M266.32,-458.89C250.96,-450.88 224.84,-437.27 206.35,-427.63"/>
<polygon fill="black" stroke="black" points="207.96,-424.52 197.48,-423 204.73,-430.73 207.96,-424.52"/>
</g>
<!-- 16 -->
<g id="node17" class="node">
<title>16</title>
<text text-anchor="middle" x="292" y="-411.8" font-family="Times,serif" font-size="14.00">&lt;IDCHARS&gt;</text>
</g>
<!-- 13&#45;&gt;16 -->
<g id="edge16" class="edge">
<title>13&#45;&gt;16</title>
<path fill="none" stroke="black" d="M280.81,-458.69C282.55,-452.1 285.27,-441.87 287.59,-433.14"/>
<polygon fill="black" stroke="black" points="291.03,-433.82 290.21,-423.26 284.26,-432.02 291.03,-433.82"/>
</g>
<!-- 15 -->
<g id="node16" class="node">
<title>15</title>
<text text-anchor="middle" x="169" y="-360.8" font-family="Times,serif" font-size="14.00">u</text>
</g>
<!-- 14&#45;&gt;15 -->
<g id="edge15" class="edge">
<title>14&#45;&gt;15</title>
<path fill="none" stroke="black" d="M182.78,-407.69C180.6,-401.03 177.21,-390.65 174.34,-381.85"/>
<polygon fill="black" stroke="black" points="177.64,-380.68 171.21,-372.26 170.98,-382.85 177.64,-380.68"/>
</g>
<!-- 17 -->
<g id="node18" class="node">
<title>17</title>
<text text-anchor="middle" x="234" y="-360.8" font-family="Times,serif" font-size="14.00">&lt;IDCHAR&gt;</text>
</g>
<!-- 16&#45;&gt;17 -->
<g id="edge17" class="edge">
<title>16&#45;&gt;17</title>
<path fill="none" stroke="black" d="M283.94,-407.69C275.11,-400.23 260.73,-388.08 249.67,-378.73"/>
<polygon fill="black" stroke="black" points="251.89,-376.04 242,-372.26 247.38,-381.38 251.89,-376.04"/>
</g>
<!-- 19 -->
<g id="node20" class="node">
<title>19</title>
<text text-anchor="middle" x="341" y="-360.8" font-family="Times,serif" font-size="14.00">&lt;IDCHARS&gt;</text>
</g>
<!-- 16&#45;&gt;19 -->
<g id="edge19" class="edge">
<title>16&#45;&gt;19</title>
<path fill="none" stroke="black" d="M298.81,-407.69C306.05,-400.45 317.71,-388.79 326.93,-379.57"/>
<polygon fill="black" stroke="black" points="329.65,-381.8 334.24,-372.26 324.7,-376.85 329.65,-381.8"/>
</g>
<!-- 18 -->
<g id="node19" class="node">
<title>18</title>
<text text-anchor="middle" x="234" y="-309.8" font-family="Times,serif" font-size="14.00">n</text>
</g>
<!-- 17&#45;&gt;18 -->
<g id="edge18" class="edge">
<title>17&#45;&gt;18</title>
<path fill="none" stroke="black" d="M234,-356.69C234,-350.18 234,-340.1 234,-331.43"/>
<polygon fill="black" stroke="black" points="237.5,-331.26 234,-321.26 230.5,-331.26 237.5,-331.26"/>
</g>
<!-- 22 -->
<g id="node23" class="node">
<title>22</title>
<text text-anchor="middle" x="543" y="-615.8" font-family="Times,serif" font-size="14.00">&lt;expression&gt;</text>
</g>
<!-- 21&#45;&gt;22 -->
<g id="edge22" class="edge">
<title>21&#45;&gt;22</title>
<path fill="none" stroke="black" d="M543.86,-662.69C543.73,-656.18 543.52,-646.1 543.35,-637.43"/>
<polygon fill="black" stroke="black" points="546.84,-637.18 543.14,-627.26 539.84,-637.32 546.84,-637.18"/>
</g>
<!-- 23 -->
<g id="node24" class="node">
<title>23</title>
<text text-anchor="middle" x="403" y="-564.8" font-family="Times,serif" font-size="14.00">&lt;conjunction&gt;</text>
</g>
<!-- 22&#45;&gt;23 -->
<g id="edge23" class="edge">
<title>22&#45;&gt;23</title>
<path fill="none" stroke="black" d="M524.41,-611.99C500.56,-603.65 458.97,-589.09 431.21,-579.37"/>
<polygon fill="black" stroke="black" points="432.26,-576.03 421.67,-576.03 429.95,-582.64 432.26,-576.03"/>
</g>
<!-- 39 -->
<g id="node40" class="node">
<title>39</title>
<text text-anchor="middle" x="543" y="-564.8" font-family="Times,serif" font-size="14.00">&lt;or_conjunctions&gt;</text>
</g>
<!-- 22&#45;&gt;39 -->
<g id="edge39" class="edge">
<title>22&#45;&gt;39</title>
<path fill="none" stroke="black" d="M543,-611.69C543,-605.18 543,-595.1 543,-586.43"/>
<polygon fill="black" stroke="black" points="546.5,-586.26 543,-576.26 539.5,-586.26 546.5,-586.26"/>
</g>
<!-- 24 -->
<g id="node25" class="node">
<title>24</title>
<text text-anchor="middle" x="403" y="-513.8" font-family="Times,serif" font-size="14.00">&lt;inversion&gt;</text>
</g>
<!-- 23&#45;&gt;24 -->
<g id="edge24" class="edge">
<title>23&#45;&gt;24</title>
<path fill="none" stroke="black" d="M403,-560.69C403,-554.18 403,-544.1 403,-535.43"/>
<polygon fill="black" stroke="black" points="406.5,-535.26 403,-525.26 399.5,-535.26 406.5,-535.26"/>
</g>
<!-- 38 -->
<g id="node39" class="node">
<title>38</title>
<text text-anchor="middle" x="532" y="-513.8" font-family="Times,serif" font-size="14.00">&lt;and_inversions&gt;</text>
</g>
<!-- 23&#45;&gt;38 -->
<g id="edge38" class="edge">
<title>23&#45;&gt;38</title>
<path fill="none" stroke="black" d="M420.13,-560.99C441.91,-552.72 479.76,-538.34 505.33,-528.63"/>
<polygon fill="black" stroke="black" points="506.69,-531.86 514.8,-525.03 504.21,-525.31 506.69,-531.86"/>
</g>
<!-- 25 -->
<g id="node26" class="node">
<title>25</title>
<text text-anchor="middle" x="413" y="-462.8" font-family="Times,serif" font-size="14.00">&lt;comparison&gt;</text>
</g>
<!-- 24&#45;&gt;25 -->
<g id="edge25" class="edge">
<title>24&#45;&gt;25</title>
<path fill="none" stroke="black" d="M404.39,-509.69C405.73,-503.1 407.82,-492.87 409.6,-484.14"/>
<polygon fill="black" stroke="black" points="413.05,-484.75 411.62,-474.26 406.19,-483.35 413.05,-484.75"/>
</g>
<!-- 26 -->
<g id="node27" class="node">
<title>26</title>
<text text-anchor="middle" x="413" y="-411.8" font-family="Times,serif" font-size="14.00">&lt;sum&gt;</text>
</g>
<!-- 25&#45;&gt;26 -->
<g id="edge26" class="edge">
<title>25&#45;&gt;26</title>
<path fill="none" stroke="black" d="M413,-458.69C413,-452.18 413,-442.1 413,-433.43"/>
<polygon fill="black" stroke="black" points="416.5,-433.26 413,-423.26 409.5,-433.26 416.5,-433.26"/>
</g>
<!-- 37 -->
<g id="node38" class="node">
<title>37</title>
<text text-anchor="middle" x="529" y="-411.8" font-family="Times,serif" font-size="14.00">&lt;maybe_compare&gt;</text>
</g>
<!-- 25&#45;&gt;37 -->
<g id="edge37" class="edge">
<title>25&#45;&gt;37</title>
<path fill="none" stroke="black" d="M428.64,-458.89C448.04,-450.7 481.32,-436.64 504.21,-426.97"/>
<polygon fill="black" stroke="black" points="505.75,-430.12 513.6,-423 503.03,-423.67 505.75,-430.12"/>
</g>
<!-- 27 -->
<g id="node28" class="node">
<title>27</title>
<text text-anchor="middle" x="436" y="-360.8" font-family="Times,serif" font-size="14.00">&lt;term&gt;</text>
</g>
<!-- 26&#45;&gt;27 -->
<g id="edge27" class="edge">
<title>26&#45;&gt;27</title>
<path fill="none" stroke="black" d="M416.2,-407.69C419.36,-400.96 424.3,-390.42 428.46,-381.56"/>
<polygon fill="black" stroke="black" points="431.75,-382.79 432.83,-372.26 425.41,-379.82 431.75,-382.79"/>
</g>
<!-- 28 -->
<g id="node29" class="node">
<title>28</title>
<text text-anchor="middle" x="436" y="-309.8" font-family="Times,serif" font-size="14.00">&lt;factor&gt;</text>
</g>
<!-- 27&#45;&gt;28 -->
<g id="edge28" class="edge">
<title>27&#45;&gt;28</title>
<path fill="none" stroke="black" d="M436,-356.69C436,-350.18 436,-340.1 436,-331.43"/>
<polygon fill="black" stroke="black" points="439.5,-331.26 436,-321.26 432.5,-331.26 439.5,-331.26"/>
</g>
<!-- 29 -->
<g id="node30" class="node">
<title>29</title>
<text text-anchor="middle" x="436" y="-258.8" font-family="Times,serif" font-size="14.00">&lt;primary&gt;</text>
</g>
<!-- 28&#45;&gt;29 -->
<g id="edge29" class="edge">
<title>28&#45;&gt;29</title>
<path fill="none" stroke="black" d="M436,-305.69C436,-299.18 436,-289.1 436,-280.43"/>
<polygon fill="black" stroke="black" points="439.5,-280.26 436,-270.26 432.5,-280.26 439.5,-280.26"/>
</g>
<!-- 30 -->
<g id="node31" class="node">
<title>30</title>
<text text-anchor="middle" x="436" y="-207.8" font-family="Times,serif" font-size="14.00">&lt;atom&gt;</text>
</g>
<!-- 29&#45;&gt;30 -->
<g id="edge30" class="edge">
<title>29&#45;&gt;30</title>
<path fill="none" stroke="black" d="M436,-254.69C436,-248.18 436,-238.1 436,-229.43"/>
<polygon fill="black" stroke="black" points="439.5,-229.26 436,-219.26 432.5,-229.26 439.5,-229.26"/>
</g>
<!-- 31 -->
<g id="node32" class="node">
<title>31</title>
<text text-anchor="middle" x="436" y="-156.8" font-family="Times,serif" font-size="14.00">&lt;NUMBER&gt;</text>
</g>
<!-- 30&#45;&gt;31 -->
<g id="edge31" class="edge">
<title>30&#45;&gt;31</title>
<path fill="none" stroke="black" d="M436,-203.69C436,-197.18 436,-187.1 436,-178.43"/>
<polygon fill="black" stroke="black" points="439.5,-178.26 436,-168.26 432.5,-178.26 439.5,-178.26"/>
</g>
<!-- 32 -->
<g id="node33" class="node">
<title>32</title>
<text text-anchor="middle" x="428" y="-105.8" font-family="Times,serif" font-size="14.00">&lt;DIGIT&gt;</text>
</g>
<!-- 31&#45;&gt;32 -->
<g id="edge32" class="edge">
<title>31&#45;&gt;32</title>
<path fill="none" stroke="black" d="M434.89,-152.69C433.81,-146.1 432.14,-135.87 430.72,-127.14"/>
<polygon fill="black" stroke="black" points="434.17,-126.56 429.1,-117.26 427.26,-127.69 434.17,-126.56"/>
</g>
<!-- 34 -->
<g id="node35" class="node">
<title>34</title>
<text text-anchor="middle" x="527" y="-105.8" font-family="Times,serif" font-size="14.00">&lt;NUMBER&gt;</text>
</g>
<!-- 31&#45;&gt;34 -->
<g id="edge34" class="edge">
<title>31&#45;&gt;34</title>
<path fill="none" stroke="black" d="M448.27,-152.89C463.01,-144.96 487.97,-131.52 505.84,-121.9"/>
<polygon fill="black" stroke="black" points="507.78,-124.83 514.92,-117 504.46,-118.66 507.78,-124.83"/>
</g>
<!-- 33 -->
<g id="node34" class="node">
<title>33</title>
<text text-anchor="middle" x="428" y="-54.8" font-family="Times,serif" font-size="14.00">1</text>
</g>
<!-- 32&#45;&gt;33 -->
<g id="edge33" class="edge">
<title>32&#45;&gt;33</title>
<path fill="none" stroke="black" d="M428,-101.69C428,-95.18 428,-85.1 428,-76.43"/>
<polygon fill="black" stroke="black" points="431.5,-76.26 428,-66.26 424.5,-76.26 431.5,-76.26"/>
</g>
<!-- 35 -->
<g id="node36" class="node">
<title>35</title>
<text text-anchor="middle" x="527" y="-54.8" font-family="Times,serif" font-size="14.00">&lt;DIGIT&gt;</text>
</g>
<!-- 34&#45;&gt;35 -->
<g id="edge35" class="edge">
<title>34&#45;&gt;35</title>
<path fill="none" stroke="black" d="M527,-101.69C527,-95.18 527,-85.1 527,-76.43"/>
<polygon fill="black" stroke="black" points="530.5,-76.26 527,-66.26 523.5,-76.26 530.5,-76.26"/>
</g>
<!-- 36 -->
<g id="node37" class="node">
<title>36</title>
<text text-anchor="middle" x="527" y="-3.8" font-family="Times,serif" font-size="14.00">7</text>
</g>
<!-- 35&#45;&gt;36 -->
<g id="edge36" class="edge">
<title>35&#45;&gt;36</title>
<path fill="none" stroke="black" d="M527,-50.69C527,-44.18 527,-34.1 527,-25.43"/>
<polygon fill="black" stroke="black" points="530.5,-25.26 527,-15.26 523.5,-25.26 530.5,-25.26"/>
</g>
<!-- 42 -->
<g id="node43" class="node">
<title>42</title>
<text text-anchor="middle" x="674" y="-615.8" font-family="Times,serif" font-size="14.00">&lt;conjunction&gt;</text>
</g>
<!-- 41&#45;&gt;42 -->
<g id="edge42" class="edge">
<title>41&#45;&gt;42</title>
<path fill="none" stroke="black" d="M672.28,-662.69C672.54,-656.18 672.96,-646.1 673.31,-637.43"/>
<polygon fill="black" stroke="black" points="676.81,-637.39 673.72,-627.26 669.82,-637.1 676.81,-637.39"/>
</g>
<!-- 57 -->
<g id="node58" class="node">
<title>57</title>
<text text-anchor="middle" x="814" y="-615.8" font-family="Times,serif" font-size="14.00">&lt;or_conjunctions&gt;</text>
</g>
<!-- 41&#45;&gt;57 -->
<g id="edge57" class="edge">
<title>41&#45;&gt;57</title>
<path fill="none" stroke="black" d="M690.86,-662.99C715.05,-654.65 757.23,-640.09 785.39,-630.37"/>
<polygon fill="black" stroke="black" points="786.75,-633.6 795.07,-627.03 784.47,-626.99 786.75,-633.6"/>
</g>
<!-- 43 -->
<g id="node44" class="node">
<title>43</title>
<text text-anchor="middle" x="675" y="-564.8" font-family="Times,serif" font-size="14.00">&lt;inversion&gt;</text>
</g>
<!-- 42&#45;&gt;43 -->
<g id="edge43" class="edge">
<title>42&#45;&gt;43</title>
<path fill="none" stroke="black" d="M674.14,-611.69C674.27,-605.18 674.48,-595.1 674.65,-586.43"/>
<polygon fill="black" stroke="black" points="678.16,-586.32 674.86,-576.26 671.16,-586.18 678.16,-586.32"/>
</g>
<!-- 56 -->
<g id="node57" class="node">
<title>56</title>
<text text-anchor="middle" x="804" y="-564.8" font-family="Times,serif" font-size="14.00">&lt;and_inversions&gt;</text>
</g>
<!-- 42&#45;&gt;56 -->
<g id="edge56" class="edge">
<title>42&#45;&gt;56</title>
<path fill="none" stroke="black" d="M691.26,-611.99C713.21,-603.72 751.35,-589.34 777.12,-579.63"/>
<polygon fill="black" stroke="black" points="778.54,-582.84 786.67,-576.03 776.07,-576.29 778.54,-582.84"/>
</g>
<!-- 44 -->
<g id="node45" class="node">
<title>44</title>
<text text-anchor="middle" x="675" y="-513.8" font-family="Times,serif" font-size="14.00">&lt;comparison&gt;</text>
</g>
<!-- 43&#45;&gt;44 -->
<g id="edge44" class="edge">
<title>43&#45;&gt;44</title>
<path fill="none" stroke="black" d="M675,-560.69C675,-554.18 675,-544.1 675,-535.43"/>
<polygon fill="black" stroke="black" points="678.5,-535.26 675,-525.26 671.5,-535.26 678.5,-535.26"/>
</g>
<!-- 45 -->
<g id="node46" class="node">
<title>45</title>
<text text-anchor="middle" x="666" y="-462.8" font-family="Times,serif" font-size="14.00">&lt;sum&gt;</text>
</g>
<!-- 44&#45;&gt;45 -->
<g id="edge45" class="edge">
<title>44&#45;&gt;45</title>
<path fill="none" stroke="black" d="M673.75,-509.69C672.54,-503.1 670.66,-492.87 669.06,-484.14"/>
<polygon fill="black" stroke="black" points="672.49,-483.46 667.24,-474.26 665.6,-484.72 672.49,-483.46"/>
</g>
<!-- 55 -->
<g id="node56" class="node">
<title>55</title>
<text text-anchor="middle" x="782" y="-462.8" font-family="Times,serif" font-size="14.00">&lt;maybe_compare&gt;</text>
</g>
<!-- 44&#45;&gt;55 -->
<g id="edge55" class="edge">
<title>44&#45;&gt;55</title>
<path fill="none" stroke="black" d="M689.43,-509.89C707.16,-501.77 737.47,-487.89 758.56,-478.23"/>
<polygon fill="black" stroke="black" points="760.16,-481.35 767.8,-474 757.25,-474.99 760.16,-481.35"/>
</g>
<!-- 46 -->
<g id="node47" class="node">
<title>46</title>
<text text-anchor="middle" x="666" y="-411.8" font-family="Times,serif" font-size="14.00">&lt;term&gt;</text>
</g>
<!-- 45&#45;&gt;46 -->
<g id="edge46" class="edge">
<title>45&#45;&gt;46</title>
<path fill="none" stroke="black" d="M666,-458.69C666,-452.18 666,-442.1 666,-433.43"/>
<polygon fill="black" stroke="black" points="669.5,-433.26 666,-423.26 662.5,-433.26 669.5,-433.26"/>
</g>
<!-- 47 -->
<g id="node48" class="node">
<title>47</title>
<text text-anchor="middle" x="666" y="-360.8" font-family="Times,serif" font-size="14.00">&lt;factor&gt;</text>
</g>
<!-- 46&#45;&gt;47 -->
<g id="edge47" class="edge">
<title>46&#45;&gt;47</title>
<path fill="none" stroke="black" d="M666,-407.69C666,-401.18 666,-391.1 666,-382.43"/>
<polygon fill="black" stroke="black" points="669.5,-382.26 666,-372.26 662.5,-382.26 669.5,-382.26"/>
</g>
<!-- 48 -->
<g id="node49" class="node">
<title>48</title>
<text text-anchor="middle" x="619" y="-309.8" font-family="Times,serif" font-size="14.00">&#45;</text>
</g>
<!-- 47&#45;&gt;48 -->
<g id="edge48" class="edge">
<title>47&#45;&gt;48</title>
<path fill="none" stroke="black" d="M659.46,-356.69C651.51,-348.4 638.01,-334.32 628.81,-324.73"/>
<polygon fill="black" stroke="black" points="631.08,-322.03 621.63,-317.24 626.02,-326.88 631.08,-322.03"/>
</g>
<!-- 49 -->
<g id="node50" class="node">
<title>49</title>
<text text-anchor="middle" x="673" y="-309.8" font-family="Times,serif" font-size="14.00">&lt;factor&gt;</text>
</g>
<!-- 47&#45;&gt;49 -->
<g id="edge49" class="edge">
<title>47&#45;&gt;49</title>
<path fill="none" stroke="black" d="M666.97,-356.69C667.9,-350.18 669.34,-340.1 670.58,-331.43"/>
<polygon fill="black" stroke="black" points="674.09,-331.65 672.03,-321.26 667.16,-330.66 674.09,-331.65"/>
</g>
<!-- 50 -->
<g id="node51" class="node">
<title>50</title>
<text text-anchor="middle" x="673" y="-258.8" font-family="Times,serif" font-size="14.00">&lt;primary&gt;</text>
</g>
<!-- 49&#45;&gt;50 -->
<g id="edge50" class="edge">
<title>49&#45;&gt;50</title>
<path fill="none" stroke="black" d="M673,-305.69C673,-299.18 673,-289.1 673,-280.43"/>
<polygon fill="black" stroke="black" points="676.5,-280.26 673,-270.26 669.5,-280.26 676.5,-280.26"/>
</g>
<!-- 51 -->
<g id="node52" class="node">
<title>51</title>
<text text-anchor="middle" x="673" y="-207.8" font-family="Times,serif" font-size="14.00">&lt;atom&gt;</text>
</g>
<!-- 50&#45;&gt;51 -->
<g id="edge51" class="edge">
<title>50&#45;&gt;51</title>
<path fill="none" stroke="black" d="M673,-254.69C673,-248.18 673,-238.1 673,-229.43"/>
<polygon fill="black" stroke="black" points="676.5,-229.26 673,-219.26 669.5,-229.26 676.5,-229.26"/>
</g>
<!-- 52 -->
<g id="node53" class="node">
<title>52</title>
<text text-anchor="middle" x="673" y="-156.8" font-family="Times,serif" font-size="14.00">&lt;NUMBER&gt;</text>
</g>
<!-- 51&#45;&gt;52 -->
<g id="edge52" class="edge">
<title>51&#45;&gt;52</title>
<path fill="none" stroke="black" d="M673,-203.69C673,-197.18 673,-187.1 673,-178.43"/>
<polygon fill="black" stroke="black" points="676.5,-178.26 673,-168.26 669.5,-178.26 676.5,-178.26"/>
</g>
<!-- 53 -->
<g id="node54" class="node">
<title>53</title>
<text text-anchor="middle" x="673" y="-105.8" font-family="Times,serif" font-size="14.00">&lt;DIGIT&gt;</text>
</g>
<!-- 52&#45;&gt;53 -->
<g id="edge53" class="edge">
<title>52&#45;&gt;53</title>
<path fill="none" stroke="black" d="M673,-152.69C673,-146.18 673,-136.1 673,-127.43"/>
<polygon fill="black" stroke="black" points="676.5,-127.26 673,-117.26 669.5,-127.26 676.5,-127.26"/>
</g>
<!-- 54 -->
<g id="node55" class="node">
<title>54</title>
<text text-anchor="middle" x="673" y="-54.8" font-family="Times,serif" font-size="14.00">2</text>
</g>
<!-- 53&#45;&gt;54 -->
<g id="edge54" class="edge">
<title>53&#45;&gt;54</title>
<path fill="none" stroke="black" d="M673,-101.69C673,-95.18 673,-85.1 673,-76.43"/>
<polygon fill="black" stroke="black" points="676.5,-76.26 673,-66.26 669.5,-76.26 676.5,-76.26"/>
</g>
</g>
</svg>
