<?xml version="1.0" encoding="UTF-8" standalone="no"?>
<!DOCTYPE svg PUBLIC "-//W3C//DTD SVG 1.1//EN"
 "http://www.w3.org/Graphics/SVG/1.1/DTD/svg11.dtd">
<!-- Generated by graphviz version 2.43.0 (0)
 -->
<!-- Title: %3 Pages: 1 -->
<svg width="60pt" height="125pt"
 viewBox="0.00 0.00 60.00 125.00" xmlns="http://www.w3.org/2000/svg" xmlns:xlink="http://www.w3.org/1999/xlink">
<g id="graph0" class="graph" transform="scale(1 1) rotate(0) translate(4 121)">
<title>%3</title>
<polygon fill="white" stroke="transparent" points="-4,4 -4,-121 56,-121 56,4 -4,4"/>
<!-- 0 -->
<g id="node1" class="node">
<title>0</title>
<text text-anchor="middle" x="33" y="-105.8" font-family="Times,serif" font-size="14.00">1</text>
</g>
<!-- 1 -->
<g id="node2" class="node">
<title>1</title>
<text text-anchor="middle" x="19" y="-54.8" font-family="Times,serif" font-size="14.00">2</text>
</g>
<!-- 0&#45;&gt;1 -->
<g id="edge1" class="edge">
<title>0&#45;&gt;1</title>
<path fill="none" stroke="black" d="M31.05,-101.69C29.17,-95.1 26.25,-84.87 23.75,-76.14"/>
<polygon fill="black" stroke="black" points="27.04,-74.91 20.93,-66.26 20.31,-76.83 27.04,-74.91"/>
</g>
<!-- 4 -->
<g id="node5" class="node">
<title>4</title>
<text text-anchor="middle" x="47" y="-54.8" font-family="Times,serif" font-size="14.00">5</text>
</g>
<!-- 0&#45;&gt;4 -->
<g id="edge4" class="edge">
<title>0&#45;&gt;4</title>
<path fill="none" stroke="black" d="M34.95,-101.69C36.83,-95.1 39.75,-84.87 42.25,-76.14"/>
<polygon fill="black" stroke="black" points="45.69,-76.83 45.07,-66.26 38.96,-74.91 45.69,-76.83"/>
</g>
<!-- 2 -->
<g id="node3" class="node">
<title>2</title>
<text text-anchor="middle" x="5" y="-3.8" font-family="Times,serif" font-size="14.00">3</text>
</g>
<!-- 1&#45;&gt;2 -->
<g id="edge2" class="edge">
<title>1&#45;&gt;2</title>
<path fill="none" stroke="black" d="M17.05,-50.69C15.17,-44.1 12.25,-33.87 9.75,-25.14"/>
<polygon fill="black" stroke="black" points="13.04,-23.91 6.93,-15.26 6.31,-25.83 13.04,-23.91"/>
</g>
<!-- 3 -->
<g id="node4" class="node">
<title>3</title>
<text text-anchor="middle" x="33" y="-3.8" font-family="Times,serif" font-size="14.00">4</text>
</g>
<!-- 1&#45;&gt;3 -->
<g id="edge3" class="edge">
<title>1&#45;&gt;3</title>
<path fill="none" stroke="black" d="M20.95,-50.69C22.83,-44.1 25.75,-33.87 28.25,-25.14"/>
<polygon fill="black" stroke="black" points="31.69,-25.83 31.07,-15.26 24.96,-23.91 31.69,-25.83"/>
</g>
</g>
</svg>
