<?xml version="1.0" encoding="UTF-8" standalone="no"?>
<!DOCTYPE svg PUBLIC "-//W3C//DTD SVG 1.1//EN"
 "http://www.w3.org/Graphics/SVG/1.1/DTD/svg11.dtd">
<!-- Generated by graphviz version 2.43.0 (0)
 -->
<!-- Title: %3 Pages: 1 -->
<svg width="2612pt" height="1738pt"
 viewBox="0.00 0.00 2612.00 1738.00" xmlns="http://www.w3.org/2000/svg" xmlns:xlink="http://www.w3.org/1999/xlink">
<g id="graph0" class="graph" transform="scale(1 1) rotate(0) translate(4 1734)">
<title>%3</title>
<polygon fill="white" stroke="transparent" points="-4,4 -4,-1734 2608,-1734 2608,4 -4,4"/>
<!-- 0 -->
<g id="node1" class="node">
<title>0</title>
<polygon fill="none" stroke="black" points="1922,-1730 1548,-1730 1548,-1678 1922,-1678 1922,-1730"/>
<text text-anchor="start" x="1560" y="-1710.8" font-family="Times,serif" font-size="14.00">({}, None, {haystack: haystack, needle: needle})</text>
<text text-anchor="start" x="1714" y="-1689.8" font-family="Courier,monospace" font-size="14.00">i = 0</text>
</g>
<!-- 1 -->
<g id="node2" class="node">
<title>1</title>
<polygon fill="none" stroke="black" points="1938,-1642 1532,-1642 1532,-1590 1938,-1590 1938,-1642"/>
<text text-anchor="start" x="1544" y="-1622.8" font-family="Times,serif" font-size="14.00">({}, None, {haystack: haystack, needle: needle, i: 0})</text>
<text text-anchor="start" x="1607" y="-1601.8" font-family="Courier,monospace" font-size="14.00">assert Inv(i, needle, haystack)</text>
</g>
<!-- 0&#45;&gt;1 -->
<g id="edge1" class="edge">
<title>0&#45;&gt;1</title>
<path fill="none" stroke="black" d="M1735,-1677.66C1735,-1669.7 1735,-1660.76 1735,-1652.24"/>
<polygon fill="black" stroke="black" points="1738.5,-1652.16 1735,-1642.16 1731.5,-1652.16 1738.5,-1652.16"/>
</g>
<!-- 2 -->
<g id="node3" class="node">
<title>2</title>
<polygon fill="none" stroke="black" points="1938,-1554 1532,-1554 1532,-1502 1938,-1502 1938,-1554"/>
<text text-anchor="start" x="1544" y="-1534.8" font-family="Times,serif" font-size="14.00">({}, None, {haystack: haystack, needle: needle, i: 0})</text>
<text text-anchor="start" x="1706" y="-1513.8" font-family="Courier,monospace" font-size="14.00">havoc i</text>
</g>
<!-- 1&#45;&gt;2 -->
<g id="edge2" class="edge">
<title>1&#45;&gt;2</title>
<path fill="none" stroke="black" d="M1735,-1589.66C1735,-1581.7 1735,-1572.76 1735,-1564.24"/>
<polygon fill="black" stroke="black" points="1738.5,-1564.16 1735,-1554.16 1731.5,-1564.16 1738.5,-1564.16"/>
</g>
<!-- 3 -->
<g id="node4" class="node">
<title>3</title>
<polygon fill="none" stroke="black" points="1956.5,-1466 1513.5,-1466 1513.5,-1414 1956.5,-1414 1956.5,-1466"/>
<text text-anchor="start" x="1526" y="-1446.8" font-family="Times,serif" font-size="14.00">({}, None, {haystack: haystack, needle: needle, i: i!2354})</text>
<text text-anchor="start" x="1607.5" y="-1425.8" font-family="Courier,monospace" font-size="14.00">assume Inv(i, needle, haystack)</text>
</g>
<!-- 2&#45;&gt;3 -->
<g id="edge3" class="edge">
<title>2&#45;&gt;3</title>
<path fill="none" stroke="black" d="M1735,-1501.66C1735,-1493.7 1735,-1484.76 1735,-1476.24"/>
<polygon fill="black" stroke="black" points="1738.5,-1476.16 1735,-1466.16 1731.5,-1476.16 1738.5,-1476.16"/>
</g>
<!-- 4 -->
<g id="node5" class="node">
<title>4</title>
<polygon fill="none" stroke="black" points="1987.5,-1378 1482.5,-1378 1482.5,-1221 1987.5,-1221 1987.5,-1378"/>
<text text-anchor="start" x="1495" y="-1358.3" font-family="Times,serif" font-size="14.00">({0 ≤ i!2354 ∧</text>
<text text-anchor="start" x="1495" y="-1343.3" font-family="Times,serif" font-size="14.00">i!2354 ≤ Length(haystack) ∧</text>
<text text-anchor="start" x="1495" y="-1328.3" font-family="Times,serif" font-size="14.00">(∀k :</text>
<text text-anchor="start" x="1495" y="-1313.3" font-family="Times,serif" font-size="14.00">  ¬(0 ≤ k ∧ ¬(i!2354 ≤ k)) ∨</text>
<text text-anchor="start" x="1495" y="-1298.3" font-family="Times,serif" font-size="14.00">  ¬(If(k ≥ 0 ∧ ¬(Length(haystack) ≤ k),</text>
<text text-anchor="start" x="1495" y="-1283.3" font-family="Times,serif" font-size="14.00">       seq.nth_i(haystack, k),</text>
<text text-anchor="start" x="1495" y="-1268.3" font-family="Times,serif" font-size="14.00">       seq.nth_u(haystack, k)) =</text>
<text text-anchor="start" x="1495" y="-1253.3" font-family="Times,serif" font-size="14.00">    needle))}, None, {haystack: haystack, needle: needle, i: i!2354})</text>
<text text-anchor="start" x="1566" y="-1232.3" font-family="Courier,monospace" font-size="14.00">loop&#45;scope(inv=Inv(i, needle, haystack)):</text>
</g>
<!-- 3&#45;&gt;4 -->
<g id="edge4" class="edge">
<title>3&#45;&gt;4</title>
<path fill="none" stroke="black" d="M1735,-1413.92C1735,-1406.36 1735,-1397.6 1735,-1388.36"/>
<polygon fill="black" stroke="black" points="1738.5,-1388.19 1735,-1378.19 1731.5,-1388.19 1738.5,-1388.19"/>
</g>
<!-- 5 -->
<g id="node6" class="node">
<title>5</title>
<polygon fill="none" stroke="black" points="1987.5,-1185 1482.5,-1185 1482.5,-1028 1987.5,-1028 1987.5,-1185"/>
<text text-anchor="start" x="1495" y="-1165.3" font-family="Times,serif" font-size="14.00">({0 ≤ i!2354 ∧</text>
<text text-anchor="start" x="1495" y="-1150.3" font-family="Times,serif" font-size="14.00">i!2354 ≤ Length(haystack) ∧</text>
<text text-anchor="start" x="1495" y="-1135.3" font-family="Times,serif" font-size="14.00">(∀k :</text>
<text text-anchor="start" x="1495" y="-1120.3" font-family="Times,serif" font-size="14.00">  ¬(0 ≤ k ∧ ¬(i!2354 ≤ k)) ∨</text>
<text text-anchor="start" x="1495" y="-1105.3" font-family="Times,serif" font-size="14.00">  ¬(If(k ≥ 0 ∧ ¬(Length(haystack) ≤ k),</text>
<text text-anchor="start" x="1495" y="-1090.3" font-family="Times,serif" font-size="14.00">       seq.nth_i(haystack, k),</text>
<text text-anchor="start" x="1495" y="-1075.3" font-family="Times,serif" font-size="14.00">       seq.nth_u(haystack, k)) =</text>
<text text-anchor="start" x="1495" y="-1060.3" font-family="Times,serif" font-size="14.00">    needle))}, None, {haystack: haystack, needle: needle, i: i!2354})</text>
<text text-anchor="start" x="1640.5" y="-1039.3" font-family="Courier,monospace" font-size="14.00">if (i &lt; len(haystack)):</text>
</g>
<!-- 4&#45;&gt;5 -->
<g id="edge5" class="edge">
<title>4&#45;&gt;5</title>
<path fill="none" stroke="black" d="M1735,-1220.81C1735,-1212.35 1735,-1203.69 1735,-1195.12"/>
<polygon fill="black" stroke="black" points="1738.5,-1195.12 1735,-1185.12 1731.5,-1195.12 1738.5,-1195.12"/>
</g>
<!-- 6 -->
<g id="node7" class="node">
<title>6</title>
<polygon fill="none" stroke="black" points="1731.5,-992 1004.5,-992 1004.5,-835 1731.5,-835 1731.5,-992"/>
<text text-anchor="start" x="1017" y="-972.3" font-family="Times,serif" font-size="14.00">({0 ≤ i!2354 ∧</text>
<text text-anchor="start" x="1017" y="-957.3" font-family="Times,serif" font-size="14.00">i!2354 ≤ Length(haystack) ∧</text>
<text text-anchor="start" x="1017" y="-942.3" font-family="Times,serif" font-size="14.00">(∀k :</text>
<text text-anchor="start" x="1017" y="-927.3" font-family="Times,serif" font-size="14.00">  ¬(0 ≤ k ∧ ¬(i!2354 ≤ k)) ∨</text>
<text text-anchor="start" x="1017" y="-912.3" font-family="Times,serif" font-size="14.00">  ¬(If(k ≥ 0 ∧ ¬(Length(haystack) ≤ k),</text>
<text text-anchor="start" x="1017" y="-897.3" font-family="Times,serif" font-size="14.00">       seq.nth_i(haystack, k),</text>
<text text-anchor="start" x="1017" y="-882.3" font-family="Times,serif" font-size="14.00">       seq.nth_u(haystack, k)) =</text>
<text text-anchor="start" x="1017" y="-867.3" font-family="Times,serif" font-size="14.00">    needle)), ¬(Length(haystack) ≤ i!2354)}, None, {haystack: haystack, needle: needle, i: i!2354})</text>
<text text-anchor="start" x="1257" y="-846.3" font-family="Courier,monospace" font-size="14.00">if (haystack[i] == needle):</text>
</g>
<!-- 5&#45;&gt;6 -->
<g id="edge6" class="edge">
<title>5&#45;&gt;6</title>
<path fill="none" stroke="black" d="M1585.99,-1027.95C1566.27,-1017.69 1546.01,-1007.14 1526.14,-996.8"/>
<polygon fill="black" stroke="black" points="1527.53,-993.58 1517.05,-992.07 1524.3,-999.79 1527.53,-993.58"/>
</g>
<!-- 15 -->
<g id="node16" class="node">
<title>15</title>
<polygon fill="none" stroke="black" points="2503.5,-992 1798.5,-992 1798.5,-835 2503.5,-835 2503.5,-992"/>
<text text-anchor="start" x="1811" y="-972.3" font-family="Times,serif" font-size="14.00">({0 ≤ i!2354 ∧</text>
<text text-anchor="start" x="1811" y="-957.3" font-family="Times,serif" font-size="14.00">i!2354 ≤ Length(haystack) ∧</text>
<text text-anchor="start" x="1811" y="-942.3" font-family="Times,serif" font-size="14.00">(∀k :</text>
<text text-anchor="start" x="1811" y="-927.3" font-family="Times,serif" font-size="14.00">  ¬(0 ≤ k ∧ ¬(i!2354 ≤ k)) ∨</text>
<text text-anchor="start" x="1811" y="-912.3" font-family="Times,serif" font-size="14.00">  ¬(If(k ≥ 0 ∧ ¬(Length(haystack) ≤ k),</text>
<text text-anchor="start" x="1811" y="-897.3" font-family="Times,serif" font-size="14.00">       seq.nth_i(haystack, k),</text>
<text text-anchor="start" x="1811" y="-882.3" font-family="Times,serif" font-size="14.00">       seq.nth_u(haystack, k)) =</text>
<text text-anchor="start" x="1811" y="-867.3" font-family="Times,serif" font-size="14.00">    needle)), Length(haystack) ≤ i!2354}, None, {haystack: haystack, needle: needle, i: i!2354})</text>
<text text-anchor="start" x="2114" y="-846.3" font-family="Courier,monospace" font-size="14.00">return &#45;1</text>
</g>
<!-- 5&#45;&gt;15 -->
<g id="edge15" class="edge">
<title>5&#45;&gt;15</title>
<path fill="none" stroke="black" d="M1903.9,-1027.95C1926.66,-1017.5 1950.05,-1006.76 1972.96,-996.24"/>
<polygon fill="black" stroke="black" points="1974.42,-999.42 1982.05,-992.07 1971.5,-993.06 1974.42,-999.42"/>
</g>
<!-- 7 -->
<g id="node8" class="node">
<title>7</title>
<polygon fill="none" stroke="black" points="936.5,-799 113.5,-799 113.5,-642 936.5,-642 936.5,-799"/>
<text text-anchor="start" x="126" y="-779.3" font-family="Times,serif" font-size="14.00">({seq.nth_i(haystack, i!2354) = needle, 0 ≤ i!2354 ∧</text>
<text text-anchor="start" x="126" y="-764.3" font-family="Times,serif" font-size="14.00">i!2354 ≤ Length(haystack) ∧</text>
<text text-anchor="start" x="126" y="-749.3" font-family="Times,serif" font-size="14.00">(∀k :</text>
<text text-anchor="start" x="126" y="-734.3" font-family="Times,serif" font-size="14.00">  ¬(0 ≤ k ∧ ¬(i!2354 ≤ k)) ∨</text>
<text text-anchor="start" x="126" y="-719.3" font-family="Times,serif" font-size="14.00">  ¬(If(k ≥ 0 ∧ ¬(Length(haystack) ≤ k),</text>
<text text-anchor="start" x="126" y="-704.3" font-family="Times,serif" font-size="14.00">       seq.nth_i(haystack, k),</text>
<text text-anchor="start" x="126" y="-689.3" font-family="Times,serif" font-size="14.00">       seq.nth_u(haystack, k)) =</text>
<text text-anchor="start" x="126" y="-674.3" font-family="Times,serif" font-size="14.00">    needle)), 0 ≤ i!2354 ∧ ¬(Length(haystack) ≤ i!2354)}, None, {haystack: haystack, needle: needle, i: i!2354})</text>
<text text-anchor="start" x="504.5" y="-653.3" font-family="Courier,monospace" font-size="14.00">break</text>
</g>
<!-- 6&#45;&gt;7 -->
<g id="edge7" class="edge">
<title>6&#45;&gt;7</title>
<path fill="none" stroke="black" d="M1025.73,-834.95C976.77,-823.86 926.32,-812.43 877.18,-801.29"/>
<polygon fill="black" stroke="black" points="877.89,-797.87 867.36,-799.07 876.34,-804.69 877.89,-797.87"/>
</g>
<!-- 10 -->
<g id="node11" class="node">
<title>10</title>
<polygon fill="none" stroke="black" points="1779.5,-799 956.5,-799 956.5,-642 1779.5,-642 1779.5,-799"/>
<text text-anchor="start" x="969" y="-779.3" font-family="Times,serif" font-size="14.00">({¬(seq.nth_i(haystack, i!2354) = needle), 0 ≤ i!2354 ∧</text>
<text text-anchor="start" x="969" y="-764.3" font-family="Times,serif" font-size="14.00">i!2354 ≤ Length(haystack) ∧</text>
<text text-anchor="start" x="969" y="-749.3" font-family="Times,serif" font-size="14.00">(∀k :</text>
<text text-anchor="start" x="969" y="-734.3" font-family="Times,serif" font-size="14.00">  ¬(0 ≤ k ∧ ¬(i!2354 ≤ k)) ∨</text>
<text text-anchor="start" x="969" y="-719.3" font-family="Times,serif" font-size="14.00">  ¬(If(k ≥ 0 ∧ ¬(Length(haystack) ≤ k),</text>
<text text-anchor="start" x="969" y="-704.3" font-family="Times,serif" font-size="14.00">       seq.nth_i(haystack, k),</text>
<text text-anchor="start" x="969" y="-689.3" font-family="Times,serif" font-size="14.00">       seq.nth_u(haystack, k)) =</text>
<text text-anchor="start" x="969" y="-674.3" font-family="Times,serif" font-size="14.00">    needle)), 0 ≤ i!2354 ∧ ¬(Length(haystack) ≤ i!2354)}, None, {haystack: haystack, needle: needle, i: i!2354})</text>
<text text-anchor="start" x="1323" y="-653.3" font-family="Courier,monospace" font-size="14.00">i = (i + i)</text>
</g>
<!-- 6&#45;&gt;10 -->
<g id="edge10" class="edge">
<title>6&#45;&gt;10</title>
<path fill="none" stroke="black" d="M1368,-834.81C1368,-826.35 1368,-817.69 1368,-809.12"/>
<polygon fill="black" stroke="black" points="1371.5,-809.12 1368,-799.12 1364.5,-809.12 1371.5,-809.12"/>
</g>
<!-- 8 -->
<g id="node9" class="node">
<title>8</title>
<polygon fill="none" stroke="black" points="933.5,-606 110.5,-606 110.5,-449 933.5,-449 933.5,-606"/>
<text text-anchor="start" x="123" y="-586.3" font-family="Times,serif" font-size="14.00">({seq.nth_i(haystack, i!2354) = needle, 0 ≤ i!2354 ∧</text>
<text text-anchor="start" x="123" y="-571.3" font-family="Times,serif" font-size="14.00">i!2354 ≤ Length(haystack) ∧</text>
<text text-anchor="start" x="123" y="-556.3" font-family="Times,serif" font-size="14.00">(∀k :</text>
<text text-anchor="start" x="123" y="-541.3" font-family="Times,serif" font-size="14.00">  ¬(0 ≤ k ∧ ¬(i!2354 ≤ k)) ∨</text>
<text text-anchor="start" x="123" y="-526.3" font-family="Times,serif" font-size="14.00">  ¬(If(k ≥ 0 ∧ ¬(Length(haystack) ≤ k),</text>
<text text-anchor="start" x="123" y="-511.3" font-family="Times,serif" font-size="14.00">       seq.nth_i(haystack, k),</text>
<text text-anchor="start" x="123" y="-496.3" font-family="Times,serif" font-size="14.00">       seq.nth_u(haystack, k)) =</text>
<text text-anchor="start" x="123" y="-481.3" font-family="Times,serif" font-size="14.00">    needle)), 0 ≤ i!2354 ∧ ¬(Length(haystack) ≤ i!2354)}, None, {haystack: haystack, needle: needle, i: i!2354})</text>
<text text-anchor="start" x="489" y="-460.3" font-family="Courier,monospace" font-size="14.00">return i</text>
</g>
<!-- 7&#45;&gt;8 -->
<g id="edge8" class="edge">
<title>7&#45;&gt;8</title>
<path fill="none" stroke="black" d="M523.78,-641.81C523.65,-633.35 523.51,-624.69 523.38,-616.12"/>
<polygon fill="black" stroke="black" points="526.88,-616.06 523.22,-606.12 519.88,-616.17 526.88,-616.06"/>
</g>
<!-- 9 -->
<g id="node10" class="node">
<title>9</title>
<polygon fill="#aeeeee" stroke="black" points="958,-413 0,-413 0,-277 958,-277 958,-413"/>
<text text-anchor="start" x="12" y="-393.8" font-family="Times,serif" font-size="14.00">({seq.nth_i(haystack, i!2354) = needle, 0 ≤ i!2354 ∧</text>
<text text-anchor="start" x="12" y="-378.8" font-family="Times,serif" font-size="14.00">i!2354 ≤ Length(haystack) ∧</text>
<text text-anchor="start" x="12" y="-363.8" font-family="Times,serif" font-size="14.00">(∀k :</text>
<text text-anchor="start" x="12" y="-348.8" font-family="Times,serif" font-size="14.00">  ¬(0 ≤ k ∧ ¬(i!2354 ≤ k)) ∨</text>
<text text-anchor="start" x="12" y="-333.8" font-family="Times,serif" font-size="14.00">  ¬(If(k ≥ 0 ∧ ¬(Length(haystack) ≤ k),</text>
<text text-anchor="start" x="12" y="-318.8" font-family="Times,serif" font-size="14.00">       seq.nth_i(haystack, k),</text>
<text text-anchor="start" x="12" y="-303.8" font-family="Times,serif" font-size="14.00">       seq.nth_u(haystack, k)) =</text>
<text text-anchor="start" x="12" y="-288.8" font-family="Times,serif" font-size="14.00">    needle)), 0 ≤ i!2354 ∧ ¬(Length(haystack) ≤ i!2354)}, SymbolicReturn(i!2354), {haystack: haystack, needle: needle, i: i!2354})</text>
</g>
<!-- 8&#45;&gt;9 -->
<g id="edge9" class="edge">
<title>8&#45;&gt;9</title>
<path fill="none" stroke="black" d="M503.51,-448.9C501.47,-440.32 499.39,-431.58 497.34,-423"/>
<polygon fill="black" stroke="black" points="500.69,-421.94 494.97,-413.03 493.88,-423.57 500.69,-421.94"/>
</g>
<!-- 11 -->
<g id="node12" class="node">
<title>11</title>
<polygon fill="none" stroke="black" points="1809.5,-606 972.5,-606 972.5,-449 1809.5,-449 1809.5,-606"/>
<text text-anchor="start" x="985" y="-586.3" font-family="Times,serif" font-size="14.00">({¬(seq.nth_i(haystack, i!2354) = needle), 0 ≤ i!2354 ∧</text>
<text text-anchor="start" x="985" y="-571.3" font-family="Times,serif" font-size="14.00">i!2354 ≤ Length(haystack) ∧</text>
<text text-anchor="start" x="985" y="-556.3" font-family="Times,serif" font-size="14.00">(∀k :</text>
<text text-anchor="start" x="985" y="-541.3" font-family="Times,serif" font-size="14.00">  ¬(0 ≤ k ∧ ¬(i!2354 ≤ k)) ∨</text>
<text text-anchor="start" x="985" y="-526.3" font-family="Times,serif" font-size="14.00">  ¬(If(k ≥ 0 ∧ ¬(Length(haystack) ≤ k),</text>
<text text-anchor="start" x="985" y="-511.3" font-family="Times,serif" font-size="14.00">       seq.nth_i(haystack, k),</text>
<text text-anchor="start" x="985" y="-496.3" font-family="Times,serif" font-size="14.00">       seq.nth_u(haystack, k)) =</text>
<text text-anchor="start" x="985" y="-481.3" font-family="Times,serif" font-size="14.00">    needle)), 0 ≤ i!2354 ∧ ¬(Length(haystack) ≤ i!2354)}, None, {haystack: haystack, needle: needle, i: 2·i!2354})</text>
<text text-anchor="start" x="1358" y="-460.3" font-family="Courier,monospace" font-size="14.00">continue</text>
</g>
<!-- 10&#45;&gt;11 -->
<g id="edge11" class="edge">
<title>10&#45;&gt;11</title>
<path fill="none" stroke="black" d="M1377.35,-641.81C1378.37,-633.35 1379.42,-624.69 1380.45,-616.12"/>
<polygon fill="black" stroke="black" points="1383.93,-616.46 1381.65,-606.12 1376.98,-615.63 1383.93,-616.46"/>
</g>
<!-- 12 -->
<g id="node13" class="node">
<title>12</title>
<polygon fill="none" stroke="black" points="1850,-413 976,-413 976,-277 1850,-277 1850,-413"/>
<text text-anchor="start" x="988" y="-393.8" font-family="Times,serif" font-size="14.00">({¬(seq.nth_i(haystack, i!2354) = needle), 0 ≤ i!2354 ∧</text>
<text text-anchor="start" x="988" y="-378.8" font-family="Times,serif" font-size="14.00">i!2354 ≤ Length(haystack) ∧</text>
<text text-anchor="start" x="988" y="-363.8" font-family="Times,serif" font-size="14.00">(∀k :</text>
<text text-anchor="start" x="988" y="-348.8" font-family="Times,serif" font-size="14.00">  ¬(0 ≤ k ∧ ¬(i!2354 ≤ k)) ∨</text>
<text text-anchor="start" x="988" y="-333.8" font-family="Times,serif" font-size="14.00">  ¬(If(k ≥ 0 ∧ ¬(Length(haystack) ≤ k),</text>
<text text-anchor="start" x="988" y="-318.8" font-family="Times,serif" font-size="14.00">       seq.nth_i(haystack, k),</text>
<text text-anchor="start" x="988" y="-303.8" font-family="Times,serif" font-size="14.00">       seq.nth_u(haystack, k)) =</text>
<text text-anchor="start" x="988" y="-288.8" font-family="Times,serif" font-size="14.00">    needle)), 0 ≤ i!2354 ∧ ¬(Length(haystack) ≤ i!2354)}, Continue(), {haystack: haystack, needle: needle, i: 2·i!2354})</text>
</g>
<!-- 11&#45;&gt;12 -->
<g id="edge12" class="edge">
<title>11&#45;&gt;12</title>
<path fill="none" stroke="black" d="M1400.46,-448.9C1401.5,-440.32 1402.57,-431.58 1403.61,-423"/>
<polygon fill="black" stroke="black" points="1407.09,-423.38 1404.83,-413.03 1400.15,-422.53 1407.09,-423.38"/>
</g>
<!-- 13 -->
<g id="node14" class="node">
<title>13</title>
<polygon fill="#aeeeee" stroke="black" points="1461.5,-188.5 620.5,-188.5 620.5,-52.5 1461.5,-52.5 1461.5,-188.5"/>
<text text-anchor="start" x="633" y="-169.3" font-family="Times,serif" font-size="14.00">({¬(seq.nth_i(haystack, i!2354) = needle), i!2354 ≥ 0 ∧</text>
<text text-anchor="start" x="633" y="-154.3" font-family="Times,serif" font-size="14.00">2·i!2354 ≤ Length(haystack) ∧</text>
<text text-anchor="start" x="633" y="-139.3" font-family="Times,serif" font-size="14.00">(∀k :</text>
<text text-anchor="start" x="633" y="-124.3" font-family="Times,serif" font-size="14.00">  ¬(0 ≤ k ∧ ¬(2·i!2354 ≤ k)) ∨</text>
<text text-anchor="start" x="633" y="-109.3" font-family="Times,serif" font-size="14.00">  ¬(If(k ≥ 0 ∧ ¬(Length(haystack) ≤ k),</text>
<text text-anchor="start" x="633" y="-94.3" font-family="Times,serif" font-size="14.00">       seq.nth_i(haystack, k),</text>
<text text-anchor="start" x="633" y="-79.3" font-family="Times,serif" font-size="14.00">       seq.nth_u(haystack, k)) =</text>
<text text-anchor="start" x="633" y="-64.3" font-family="Times,serif" font-size="14.00">    needle)), 0 ≤ i!2354 ∧ ¬(Length(haystack) ≤ i!2354)}, Halt(), {haystack: haystack, needle: needle, i: 2·i!2354})</text>
</g>
<!-- 12&#45;&gt;13 -->
<g id="edge13" class="edge">
<title>12&#45;&gt;13</title>
<path fill="none" stroke="black" d="M1300.88,-276.94C1257.06,-250.73 1206.7,-220.61 1162.06,-193.91"/>
<polygon fill="black" stroke="black" points="1163.59,-190.74 1153.21,-188.61 1159.99,-196.75 1163.59,-190.74"/>
</g>
<!-- 14 -->
<g id="node15" class="node">
<title>14</title>
<polygon fill="#ffaeb9" stroke="black" points="2092,-241 1480,-241 1480,0 2092,0 2092,-241"/>
<text text-anchor="start" x="1492" y="-221.3" font-family="Times,serif" font-size="14.00">({¬(seq.nth_i(haystack, i!2354) = needle), 0 ≤ i!2354 ∧</text>
<text text-anchor="start" x="1492" y="-206.3" font-family="Times,serif" font-size="14.00">i!2354 ≤ Length(haystack) ∧</text>
<text text-anchor="start" x="1492" y="-191.3" font-family="Times,serif" font-size="14.00">(∀k :</text>
<text text-anchor="start" x="1492" y="-176.3" font-family="Times,serif" font-size="14.00">  ¬(0 ≤ k ∧ ¬(i!2354 ≤ k)) ∨</text>
<text text-anchor="start" x="1492" y="-161.3" font-family="Times,serif" font-size="14.00">  ¬(If(k ≥ 0 ∧ ¬(Length(haystack) ≤ k),</text>
<text text-anchor="start" x="1492" y="-146.3" font-family="Times,serif" font-size="14.00">       seq.nth_i(haystack, k),</text>
<text text-anchor="start" x="1492" y="-131.3" font-family="Times,serif" font-size="14.00">       seq.nth_u(haystack, k)) =</text>
<text text-anchor="start" x="1492" y="-116.3" font-family="Times,serif" font-size="14.00">    needle)), 0 ≤ i!2354 ∧ ¬(Length(haystack) ≤ i!2354), ¬(i!2354 ≥ 0 ∧</text>
<text text-anchor="start" x="1492" y="-101.3" font-family="Times,serif" font-size="14.00">  2·i!2354 ≤ Length(haystack) ∧</text>
<text text-anchor="start" x="1492" y="-86.3" font-family="Times,serif" font-size="14.00">  (∀k :</text>
<text text-anchor="start" x="1492" y="-71.3" font-family="Times,serif" font-size="14.00">    ¬(0 ≤ k ∧ ¬(2·i!2354 ≤ k)) ∨</text>
<text text-anchor="start" x="1492" y="-56.3" font-family="Times,serif" font-size="14.00">    ¬(If(k ≥ 0 ∧ ¬(Length(haystack) ≤ k),</text>
<text text-anchor="start" x="1492" y="-41.3" font-family="Times,serif" font-size="14.00">         seq.nth_i(haystack, k),</text>
<text text-anchor="start" x="1492" y="-26.3" font-family="Times,serif" font-size="14.00">         seq.nth_u(haystack, k)) =</text>
<text text-anchor="start" x="1492" y="-11.3" font-family="Times,serif" font-size="14.00">      needle)))}, AssertionError(), {haystack: haystack, needle: needle, i: 2·i!2354})</text>
</g>
<!-- 12&#45;&gt;14 -->
<g id="edge14" class="edge">
<title>12&#45;&gt;14</title>
<path fill="none" stroke="black" d="M1525.42,-276.94C1541.82,-267.15 1559.14,-256.82 1576.74,-246.33"/>
<polygon fill="black" stroke="black" points="1578.6,-249.29 1585.39,-241.16 1575.01,-243.28 1578.6,-249.29"/>
</g>
<!-- 16 -->
<g id="node17" class="node">
<title>16</title>
<polygon fill="#aeeeee" stroke="black" points="2604,-788.5 1798,-788.5 1798,-652.5 2604,-652.5 2604,-788.5"/>
<text text-anchor="start" x="1810" y="-769.3" font-family="Times,serif" font-size="14.00">({0 ≤ i!2354 ∧</text>
<text text-anchor="start" x="1810" y="-754.3" font-family="Times,serif" font-size="14.00">i!2354 ≤ Length(haystack) ∧</text>
<text text-anchor="start" x="1810" y="-739.3" font-family="Times,serif" font-size="14.00">(∀k :</text>
<text text-anchor="start" x="1810" y="-724.3" font-family="Times,serif" font-size="14.00">  ¬(0 ≤ k ∧ ¬(i!2354 ≤ k)) ∨</text>
<text text-anchor="start" x="1810" y="-709.3" font-family="Times,serif" font-size="14.00">  ¬(If(k ≥ 0 ∧ ¬(Length(haystack) ≤ k),</text>
<text text-anchor="start" x="1810" y="-694.3" font-family="Times,serif" font-size="14.00">       seq.nth_i(haystack, k),</text>
<text text-anchor="start" x="1810" y="-679.3" font-family="Times,serif" font-size="14.00">       seq.nth_u(haystack, k)) =</text>
<text text-anchor="start" x="1810" y="-664.3" font-family="Times,serif" font-size="14.00">    needle)), Length(haystack) ≤ i!2354}, SymbolicReturn(&#45;1), {haystack: haystack, needle: needle, i: i!2354})</text>
</g>
<!-- 15&#45;&gt;16 -->
<g id="edge16" class="edge">
<title>15&#45;&gt;16</title>
<path fill="none" stroke="black" d="M2171.34,-834.81C2174.46,-822.87 2177.69,-810.54 2180.81,-798.61"/>
<polygon fill="black" stroke="black" points="2184.26,-799.27 2183.41,-788.71 2177.49,-797.49 2184.26,-799.27"/>
</g>
</g>
</svg>
