<?xml version="1.0" encoding="UTF-8" standalone="no"?>
<!DOCTYPE svg PUBLIC "-//W3C//DTD SVG 1.1//EN"
 "http://www.w3.org/Graphics/SVG/1.1/DTD/svg11.dtd">
<!-- Generated by graphviz version 2.43.0 (0)
 -->
<!-- Title: %3 Pages: 1 -->
<svg width="2112pt" height="1738pt"
 viewBox="0.00 0.00 2112.00 1738.00" xmlns="http://www.w3.org/2000/svg" xmlns:xlink="http://www.w3.org/1999/xlink">
<g id="graph0" class="graph" transform="scale(1 1) rotate(0) translate(4 1734)">
<title>%3</title>
<polygon fill="white" stroke="transparent" points="-4,4 -4,-1734 2108,-1734 2108,4 -4,4"/>
<!-- 0 -->
<g id="node1" class="node">
<title>0</title>
<polygon fill="none" stroke="black" points="1599,-1730 1225,-1730 1225,-1678 1599,-1678 1599,-1730"/>
<text text-anchor="start" x="1237" y="-1710.8" font-family="Times,serif" font-size="14.00">({}, None, {haystack: haystack, needle: needle})</text>
<text text-anchor="start" x="1391" y="-1689.8" font-family="Courier,monospace" font-size="14.00">i = 0</text>
</g>
<!-- 1 -->
<g id="node2" class="node">
<title>1</title>
<polygon fill="none" stroke="black" points="1615,-1642 1209,-1642 1209,-1590 1615,-1590 1615,-1642"/>
<text text-anchor="start" x="1221" y="-1622.8" font-family="Times,serif" font-size="14.00">({}, None, {haystack: haystack, needle: needle, i: 0})</text>
<text text-anchor="start" x="1284" y="-1601.8" font-family="Courier,monospace" font-size="14.00">assert Inv(i, needle, haystack)</text>
</g>
<!-- 0&#45;&gt;1 -->
<g id="edge1" class="edge">
<title>0&#45;&gt;1</title>
<path fill="none" stroke="black" d="M1412,-1677.66C1412,-1669.7 1412,-1660.76 1412,-1652.24"/>
<polygon fill="black" stroke="black" points="1415.5,-1652.16 1412,-1642.16 1408.5,-1652.16 1415.5,-1652.16"/>
</g>
<!-- 2 -->
<g id="node3" class="node">
<title>2</title>
<polygon fill="none" stroke="black" points="1615,-1554 1209,-1554 1209,-1502 1615,-1502 1615,-1554"/>
<text text-anchor="start" x="1221" y="-1534.8" font-family="Times,serif" font-size="14.00">({}, None, {haystack: haystack, needle: needle, i: 0})</text>
<text text-anchor="start" x="1383" y="-1513.8" font-family="Courier,monospace" font-size="14.00">havoc i</text>
</g>
<!-- 1&#45;&gt;2 -->
<g id="edge2" class="edge">
<title>1&#45;&gt;2</title>
<path fill="none" stroke="black" d="M1412,-1589.66C1412,-1581.7 1412,-1572.76 1412,-1564.24"/>
<polygon fill="black" stroke="black" points="1415.5,-1564.16 1412,-1554.16 1408.5,-1564.16 1415.5,-1564.16"/>
</g>
<!-- 3 -->
<g id="node4" class="node">
<title>3</title>
<polygon fill="none" stroke="black" points="1633.5,-1466 1190.5,-1466 1190.5,-1414 1633.5,-1414 1633.5,-1466"/>
<text text-anchor="start" x="1203" y="-1446.8" font-family="Times,serif" font-size="14.00">({}, None, {haystack: haystack, needle: needle, i: i!2332})</text>
<text text-anchor="start" x="1284.5" y="-1425.8" font-family="Courier,monospace" font-size="14.00">assume Inv(i, needle, haystack)</text>
</g>
<!-- 2&#45;&gt;3 -->
<g id="edge3" class="edge">
<title>2&#45;&gt;3</title>
<path fill="none" stroke="black" d="M1412,-1501.66C1412,-1493.7 1412,-1484.76 1412,-1476.24"/>
<polygon fill="black" stroke="black" points="1415.5,-1476.16 1412,-1466.16 1408.5,-1476.16 1415.5,-1476.16"/>
</g>
<!-- 4 -->
<g id="node5" class="node">
<title>4</title>
<polygon fill="none" stroke="black" points="1664.5,-1378 1159.5,-1378 1159.5,-1221 1664.5,-1221 1664.5,-1378"/>
<text text-anchor="start" x="1172" y="-1358.3" font-family="Times,serif" font-size="14.00">({0 ≤ i!2332 ∧</text>
<text text-anchor="start" x="1172" y="-1343.3" font-family="Times,serif" font-size="14.00">i!2332 ≤ Length(haystack) ∧</text>
<text text-anchor="start" x="1172" y="-1328.3" font-family="Times,serif" font-size="14.00">(∀k :</text>
<text text-anchor="start" x="1172" y="-1313.3" font-family="Times,serif" font-size="14.00">  ¬(0 ≤ k ∧ ¬(i!2332 ≤ k)) ∨</text>
<text text-anchor="start" x="1172" y="-1298.3" font-family="Times,serif" font-size="14.00">  ¬(If(k ≥ 0 ∧ ¬(Length(haystack) ≤ k),</text>
<text text-anchor="start" x="1172" y="-1283.3" font-family="Times,serif" font-size="14.00">       seq.nth_i(haystack, k),</text>
<text text-anchor="start" x="1172" y="-1268.3" font-family="Times,serif" font-size="14.00">       seq.nth_u(haystack, k)) =</text>
<text text-anchor="start" x="1172" y="-1253.3" font-family="Times,serif" font-size="14.00">    needle))}, None, {haystack: haystack, needle: needle, i: i!2332})</text>
<text text-anchor="start" x="1243" y="-1232.3" font-family="Courier,monospace" font-size="14.00">loop&#45;scope(inv=Inv(i, needle, haystack)):</text>
</g>
<!-- 3&#45;&gt;4 -->
<g id="edge4" class="edge">
<title>3&#45;&gt;4</title>
<path fill="none" stroke="black" d="M1412,-1413.92C1412,-1406.36 1412,-1397.6 1412,-1388.36"/>
<polygon fill="black" stroke="black" points="1415.5,-1388.19 1412,-1378.19 1408.5,-1388.19 1415.5,-1388.19"/>
</g>
<!-- 5 -->
<g id="node6" class="node">
<title>5</title>
<polygon fill="none" stroke="black" points="1664.5,-1185 1159.5,-1185 1159.5,-1028 1664.5,-1028 1664.5,-1185"/>
<text text-anchor="start" x="1172" y="-1165.3" font-family="Times,serif" font-size="14.00">({0 ≤ i!2332 ∧</text>
<text text-anchor="start" x="1172" y="-1150.3" font-family="Times,serif" font-size="14.00">i!2332 ≤ Length(haystack) ∧</text>
<text text-anchor="start" x="1172" y="-1135.3" font-family="Times,serif" font-size="14.00">(∀k :</text>
<text text-anchor="start" x="1172" y="-1120.3" font-family="Times,serif" font-size="14.00">  ¬(0 ≤ k ∧ ¬(i!2332 ≤ k)) ∨</text>
<text text-anchor="start" x="1172" y="-1105.3" font-family="Times,serif" font-size="14.00">  ¬(If(k ≥ 0 ∧ ¬(Length(haystack) ≤ k),</text>
<text text-anchor="start" x="1172" y="-1090.3" font-family="Times,serif" font-size="14.00">       seq.nth_i(haystack, k),</text>
<text text-anchor="start" x="1172" y="-1075.3" font-family="Times,serif" font-size="14.00">       seq.nth_u(haystack, k)) =</text>
<text text-anchor="start" x="1172" y="-1060.3" font-family="Times,serif" font-size="14.00">    needle))}, None, {haystack: haystack, needle: needle, i: i!2332})</text>
<text text-anchor="start" x="1317.5" y="-1039.3" font-family="Courier,monospace" font-size="14.00">if (i &lt; len(haystack)):</text>
</g>
<!-- 4&#45;&gt;5 -->
<g id="edge5" class="edge">
<title>4&#45;&gt;5</title>
<path fill="none" stroke="black" d="M1412,-1220.81C1412,-1212.35 1412,-1203.69 1412,-1195.12"/>
<polygon fill="black" stroke="black" points="1415.5,-1195.12 1412,-1185.12 1408.5,-1195.12 1415.5,-1195.12"/>
</g>
<!-- 6 -->
<g id="node7" class="node">
<title>6</title>
<polygon fill="none" stroke="black" points="1361.5,-992 856.5,-992 856.5,-835 1361.5,-835 1361.5,-992"/>
<text text-anchor="start" x="869" y="-972.3" font-family="Times,serif" font-size="14.00">({¬(Length(haystack) ≤ i!2332), 0 ≤ i!2332 ∧</text>
<text text-anchor="start" x="869" y="-957.3" font-family="Times,serif" font-size="14.00">i!2332 ≤ Length(haystack) ∧</text>
<text text-anchor="start" x="869" y="-942.3" font-family="Times,serif" font-size="14.00">(∀k :</text>
<text text-anchor="start" x="869" y="-927.3" font-family="Times,serif" font-size="14.00">  ¬(0 ≤ k ∧ ¬(i!2332 ≤ k)) ∨</text>
<text text-anchor="start" x="869" y="-912.3" font-family="Times,serif" font-size="14.00">  ¬(If(k ≥ 0 ∧ ¬(Length(haystack) ≤ k),</text>
<text text-anchor="start" x="869" y="-897.3" font-family="Times,serif" font-size="14.00">       seq.nth_i(haystack, k),</text>
<text text-anchor="start" x="869" y="-882.3" font-family="Times,serif" font-size="14.00">       seq.nth_u(haystack, k)) =</text>
<text text-anchor="start" x="869" y="-867.3" font-family="Times,serif" font-size="14.00">    needle))}, None, {haystack: haystack, needle: needle, i: i!2332})</text>
<text text-anchor="start" x="998" y="-846.3" font-family="Courier,monospace" font-size="14.00">if (haystack[i] == needle):</text>
</g>
<!-- 5&#45;&gt;6 -->
<g id="edge6" class="edge">
<title>5&#45;&gt;6</title>
<path fill="none" stroke="black" d="M1288.76,-1027.81C1273,-1017.88 1256.82,-1007.68 1240.93,-997.66"/>
<polygon fill="black" stroke="black" points="1242.46,-994.49 1232.13,-992.12 1238.73,-1000.41 1242.46,-994.49"/>
</g>
<!-- 15 -->
<g id="node16" class="node">
<title>15</title>
<polygon fill="none" stroke="black" points="1968.5,-992 1463.5,-992 1463.5,-835 1968.5,-835 1968.5,-992"/>
<text text-anchor="start" x="1476" y="-972.3" font-family="Times,serif" font-size="14.00">({Length(haystack) ≤ i!2332, 0 ≤ i!2332 ∧</text>
<text text-anchor="start" x="1476" y="-957.3" font-family="Times,serif" font-size="14.00">i!2332 ≤ Length(haystack) ∧</text>
<text text-anchor="start" x="1476" y="-942.3" font-family="Times,serif" font-size="14.00">(∀k :</text>
<text text-anchor="start" x="1476" y="-927.3" font-family="Times,serif" font-size="14.00">  ¬(0 ≤ k ∧ ¬(i!2332 ≤ k)) ∨</text>
<text text-anchor="start" x="1476" y="-912.3" font-family="Times,serif" font-size="14.00">  ¬(If(k ≥ 0 ∧ ¬(Length(haystack) ≤ k),</text>
<text text-anchor="start" x="1476" y="-897.3" font-family="Times,serif" font-size="14.00">       seq.nth_i(haystack, k),</text>
<text text-anchor="start" x="1476" y="-882.3" font-family="Times,serif" font-size="14.00">       seq.nth_u(haystack, k)) =</text>
<text text-anchor="start" x="1476" y="-867.3" font-family="Times,serif" font-size="14.00">    needle))}, None, {haystack: haystack, needle: needle, i: i!2332})</text>
<text text-anchor="start" x="1679" y="-846.3" font-family="Courier,monospace" font-size="14.00">return &#45;1</text>
</g>
<!-- 5&#45;&gt;15 -->
<g id="edge15" class="edge">
<title>5&#45;&gt;15</title>
<path fill="none" stroke="black" d="M1535.65,-1027.81C1551.46,-1017.88 1567.7,-1007.68 1583.64,-997.66"/>
<polygon fill="black" stroke="black" points="1585.86,-1000.4 1592.46,-992.12 1582.13,-994.47 1585.86,-1000.4"/>
</g>
<!-- 7 -->
<g id="node8" class="node">
<title>7</title>
<polygon fill="none" stroke="black" points="720,-799 0,-799 0,-642 720,-642 720,-799"/>
<text text-anchor="start" x="12" y="-779.3" font-family="Times,serif" font-size="14.00">({seq.nth_i(haystack, i!2332) = needle, 0 ≤ i!2332 ∧ ¬(Length(haystack) ≤ i!2332), 0 ≤ i!2332 ∧</text>
<text text-anchor="start" x="12" y="-764.3" font-family="Times,serif" font-size="14.00">i!2332 ≤ Length(haystack) ∧</text>
<text text-anchor="start" x="12" y="-749.3" font-family="Times,serif" font-size="14.00">(∀k :</text>
<text text-anchor="start" x="12" y="-734.3" font-family="Times,serif" font-size="14.00">  ¬(0 ≤ k ∧ ¬(i!2332 ≤ k)) ∨</text>
<text text-anchor="start" x="12" y="-719.3" font-family="Times,serif" font-size="14.00">  ¬(If(k ≥ 0 ∧ ¬(Length(haystack) ≤ k),</text>
<text text-anchor="start" x="12" y="-704.3" font-family="Times,serif" font-size="14.00">       seq.nth_i(haystack, k),</text>
<text text-anchor="start" x="12" y="-689.3" font-family="Times,serif" font-size="14.00">       seq.nth_u(haystack, k)) =</text>
<text text-anchor="start" x="12" y="-674.3" font-family="Times,serif" font-size="14.00">    needle))}, None, {haystack: haystack, needle: needle, i: i!2332})</text>
<text text-anchor="start" x="339" y="-653.3" font-family="Courier,monospace" font-size="14.00">break</text>
</g>
<!-- 6&#45;&gt;7 -->
<g id="edge7" class="edge">
<title>6&#45;&gt;7</title>
<path fill="none" stroke="black" d="M856.47,-848.1C797.81,-833.15 734.68,-817.04 673.74,-801.51"/>
<polygon fill="black" stroke="black" points="674.54,-798.1 663.99,-799.02 672.81,-804.88 674.54,-798.1"/>
</g>
<!-- 10 -->
<g id="node11" class="node">
<title>10</title>
<polygon fill="none" stroke="black" points="1480,-799 738,-799 738,-642 1480,-642 1480,-799"/>
<text text-anchor="start" x="750" y="-779.3" font-family="Times,serif" font-size="14.00">({¬(seq.nth_i(haystack, i!2332) = needle), 0 ≤ i!2332 ∧ ¬(Length(haystack) ≤ i!2332), 0 ≤ i!2332 ∧</text>
<text text-anchor="start" x="750" y="-764.3" font-family="Times,serif" font-size="14.00">i!2332 ≤ Length(haystack) ∧</text>
<text text-anchor="start" x="750" y="-749.3" font-family="Times,serif" font-size="14.00">(∀k :</text>
<text text-anchor="start" x="750" y="-734.3" font-family="Times,serif" font-size="14.00">  ¬(0 ≤ k ∧ ¬(i!2332 ≤ k)) ∨</text>
<text text-anchor="start" x="750" y="-719.3" font-family="Times,serif" font-size="14.00">  ¬(If(k ≥ 0 ∧ ¬(Length(haystack) ≤ k),</text>
<text text-anchor="start" x="750" y="-704.3" font-family="Times,serif" font-size="14.00">       seq.nth_i(haystack, k),</text>
<text text-anchor="start" x="750" y="-689.3" font-family="Times,serif" font-size="14.00">       seq.nth_u(haystack, k)) =</text>
<text text-anchor="start" x="750" y="-674.3" font-family="Times,serif" font-size="14.00">    needle))}, None, {haystack: haystack, needle: needle, i: i!2332})</text>
<text text-anchor="start" x="1063.5" y="-653.3" font-family="Courier,monospace" font-size="14.00">i = (i + i)</text>
</g>
<!-- 6&#45;&gt;10 -->
<g id="edge10" class="edge">
<title>6&#45;&gt;10</title>
<path fill="none" stroke="black" d="M1109,-834.81C1109,-826.35 1109,-817.69 1109,-809.12"/>
<polygon fill="black" stroke="black" points="1112.5,-809.12 1109,-799.12 1105.5,-809.12 1112.5,-809.12"/>
</g>
<!-- 8 -->
<g id="node9" class="node">
<title>8</title>
<polygon fill="none" stroke="black" points="720,-606 0,-606 0,-449 720,-449 720,-606"/>
<text text-anchor="start" x="12" y="-586.3" font-family="Times,serif" font-size="14.00">({seq.nth_i(haystack, i!2332) = needle, 0 ≤ i!2332 ∧ ¬(Length(haystack) ≤ i!2332), 0 ≤ i!2332 ∧</text>
<text text-anchor="start" x="12" y="-571.3" font-family="Times,serif" font-size="14.00">i!2332 ≤ Length(haystack) ∧</text>
<text text-anchor="start" x="12" y="-556.3" font-family="Times,serif" font-size="14.00">(∀k :</text>
<text text-anchor="start" x="12" y="-541.3" font-family="Times,serif" font-size="14.00">  ¬(0 ≤ k ∧ ¬(i!2332 ≤ k)) ∨</text>
<text text-anchor="start" x="12" y="-526.3" font-family="Times,serif" font-size="14.00">  ¬(If(k ≥ 0 ∧ ¬(Length(haystack) ≤ k),</text>
<text text-anchor="start" x="12" y="-511.3" font-family="Times,serif" font-size="14.00">       seq.nth_i(haystack, k),</text>
<text text-anchor="start" x="12" y="-496.3" font-family="Times,serif" font-size="14.00">       seq.nth_u(haystack, k)) =</text>
<text text-anchor="start" x="12" y="-481.3" font-family="Times,serif" font-size="14.00">    needle))}, None, {haystack: haystack, needle: needle, i: i!2332})</text>
<text text-anchor="start" x="326.5" y="-460.3" font-family="Courier,monospace" font-size="14.00">return i</text>
</g>
<!-- 7&#45;&gt;8 -->
<g id="edge8" class="edge">
<title>7&#45;&gt;8</title>
<path fill="none" stroke="black" d="M360,-641.81C360,-633.35 360,-624.69 360,-616.12"/>
<polygon fill="black" stroke="black" points="363.5,-616.12 360,-606.12 356.5,-616.12 363.5,-616.12"/>
</g>
<!-- 9 -->
<g id="node10" class="node">
<title>9</title>
<polygon fill="#aeeeee" stroke="black" points="720,-413 0,-413 0,-277 720,-277 720,-413"/>
<text text-anchor="start" x="12" y="-393.8" font-family="Times,serif" font-size="14.00">({seq.nth_i(haystack, i!2332) = needle, 0 ≤ i!2332 ∧ ¬(Length(haystack) ≤ i!2332), 0 ≤ i!2332 ∧</text>
<text text-anchor="start" x="12" y="-378.8" font-family="Times,serif" font-size="14.00">i!2332 ≤ Length(haystack) ∧</text>
<text text-anchor="start" x="12" y="-363.8" font-family="Times,serif" font-size="14.00">(∀k :</text>
<text text-anchor="start" x="12" y="-348.8" font-family="Times,serif" font-size="14.00">  ¬(0 ≤ k ∧ ¬(i!2332 ≤ k)) ∨</text>
<text text-anchor="start" x="12" y="-333.8" font-family="Times,serif" font-size="14.00">  ¬(If(k ≥ 0 ∧ ¬(Length(haystack) ≤ k),</text>
<text text-anchor="start" x="12" y="-318.8" font-family="Times,serif" font-size="14.00">       seq.nth_i(haystack, k),</text>
<text text-anchor="start" x="12" y="-303.8" font-family="Times,serif" font-size="14.00">       seq.nth_u(haystack, k)) =</text>
<text text-anchor="start" x="12" y="-288.8" font-family="Times,serif" font-size="14.00">    needle))}, SymbolicReturn(i!2332), {haystack: haystack, needle: needle, i: i!2332})</text>
</g>
<!-- 8&#45;&gt;9 -->
<g id="edge9" class="edge">
<title>8&#45;&gt;9</title>
<path fill="none" stroke="black" d="M360,-448.9C360,-440.41 360,-431.77 360,-423.28"/>
<polygon fill="black" stroke="black" points="363.5,-423.03 360,-413.03 356.5,-423.03 363.5,-423.03"/>
</g>
<!-- 11 -->
<g id="node12" class="node">
<title>11</title>
<polygon fill="none" stroke="black" points="1480,-606 738,-606 738,-449 1480,-449 1480,-606"/>
<text text-anchor="start" x="750" y="-586.3" font-family="Times,serif" font-size="14.00">({¬(seq.nth_i(haystack, i!2332) = needle), 0 ≤ i!2332 ∧ ¬(Length(haystack) ≤ i!2332), 0 ≤ i!2332 ∧</text>
<text text-anchor="start" x="750" y="-571.3" font-family="Times,serif" font-size="14.00">i!2332 ≤ Length(haystack) ∧</text>
<text text-anchor="start" x="750" y="-556.3" font-family="Times,serif" font-size="14.00">(∀k :</text>
<text text-anchor="start" x="750" y="-541.3" font-family="Times,serif" font-size="14.00">  ¬(0 ≤ k ∧ ¬(i!2332 ≤ k)) ∨</text>
<text text-anchor="start" x="750" y="-526.3" font-family="Times,serif" font-size="14.00">  ¬(If(k ≥ 0 ∧ ¬(Length(haystack) ≤ k),</text>
<text text-anchor="start" x="750" y="-511.3" font-family="Times,serif" font-size="14.00">       seq.nth_i(haystack, k),</text>
<text text-anchor="start" x="750" y="-496.3" font-family="Times,serif" font-size="14.00">       seq.nth_u(haystack, k)) =</text>
<text text-anchor="start" x="750" y="-481.3" font-family="Times,serif" font-size="14.00">    needle))}, None, {haystack: haystack, needle: needle, i: 2·i!2332})</text>
<text text-anchor="start" x="1075.5" y="-460.3" font-family="Courier,monospace" font-size="14.00">continue</text>
</g>
<!-- 10&#45;&gt;11 -->
<g id="edge11" class="edge">
<title>10&#45;&gt;11</title>
<path fill="none" stroke="black" d="M1109,-641.81C1109,-633.35 1109,-624.69 1109,-616.12"/>
<polygon fill="black" stroke="black" points="1112.5,-616.12 1109,-606.12 1105.5,-616.12 1112.5,-616.12"/>
</g>
<!-- 12 -->
<g id="node13" class="node">
<title>12</title>
<polygon fill="none" stroke="black" points="1480,-413 738,-413 738,-277 1480,-277 1480,-413"/>
<text text-anchor="start" x="750" y="-393.8" font-family="Times,serif" font-size="14.00">({¬(seq.nth_i(haystack, i!2332) = needle), 0 ≤ i!2332 ∧ ¬(Length(haystack) ≤ i!2332), 0 ≤ i!2332 ∧</text>
<text text-anchor="start" x="750" y="-378.8" font-family="Times,serif" font-size="14.00">i!2332 ≤ Length(haystack) ∧</text>
<text text-anchor="start" x="750" y="-363.8" font-family="Times,serif" font-size="14.00">(∀k :</text>
<text text-anchor="start" x="750" y="-348.8" font-family="Times,serif" font-size="14.00">  ¬(0 ≤ k ∧ ¬(i!2332 ≤ k)) ∨</text>
<text text-anchor="start" x="750" y="-333.8" font-family="Times,serif" font-size="14.00">  ¬(If(k ≥ 0 ∧ ¬(Length(haystack) ≤ k),</text>
<text text-anchor="start" x="750" y="-318.8" font-family="Times,serif" font-size="14.00">       seq.nth_i(haystack, k),</text>
<text text-anchor="start" x="750" y="-303.8" font-family="Times,serif" font-size="14.00">       seq.nth_u(haystack, k)) =</text>
<text text-anchor="start" x="750" y="-288.8" font-family="Times,serif" font-size="14.00">    needle))}, Continue(), {haystack: haystack, needle: needle, i: 2·i!2332})</text>
</g>
<!-- 11&#45;&gt;12 -->
<g id="edge12" class="edge">
<title>11&#45;&gt;12</title>
<path fill="none" stroke="black" d="M1109,-448.9C1109,-440.41 1109,-431.77 1109,-423.28"/>
<polygon fill="black" stroke="black" points="1112.5,-423.03 1109,-413.03 1105.5,-423.03 1112.5,-423.03"/>
</g>
<!-- 13 -->
<g id="node14" class="node">
<title>13</title>
<polygon fill="#aeeeee" stroke="black" points="1095,-188.5 353,-188.5 353,-52.5 1095,-52.5 1095,-188.5"/>
<text text-anchor="start" x="365" y="-169.3" font-family="Times,serif" font-size="14.00">({¬(seq.nth_i(haystack, i!2332) = needle), 0 ≤ i!2332 ∧ ¬(Length(haystack) ≤ i!2332), i!2332 ≥ 0 ∧</text>
<text text-anchor="start" x="365" y="-154.3" font-family="Times,serif" font-size="14.00">2·i!2332 ≤ Length(haystack) ∧</text>
<text text-anchor="start" x="365" y="-139.3" font-family="Times,serif" font-size="14.00">(∀k :</text>
<text text-anchor="start" x="365" y="-124.3" font-family="Times,serif" font-size="14.00">  ¬(0 ≤ k ∧ ¬(2·i!2332 ≤ k)) ∨</text>
<text text-anchor="start" x="365" y="-109.3" font-family="Times,serif" font-size="14.00">  ¬(If(k ≥ 0 ∧ ¬(Length(haystack) ≤ k),</text>
<text text-anchor="start" x="365" y="-94.3" font-family="Times,serif" font-size="14.00">       seq.nth_i(haystack, k),</text>
<text text-anchor="start" x="365" y="-79.3" font-family="Times,serif" font-size="14.00">       seq.nth_u(haystack, k)) =</text>
<text text-anchor="start" x="365" y="-64.3" font-family="Times,serif" font-size="14.00">    needle))}, Halt(), {haystack: haystack, needle: needle, i: 2·i!2332})</text>
</g>
<!-- 12&#45;&gt;13 -->
<g id="edge13" class="edge">
<title>12&#45;&gt;13</title>
<path fill="none" stroke="black" d="M992.97,-276.94C947.52,-250.68 895.28,-220.49 849,-193.74"/>
<polygon fill="black" stroke="black" points="850.54,-190.59 840.13,-188.61 847.04,-196.65 850.54,-190.59"/>
</g>
<!-- 14 -->
<g id="node15" class="node">
<title>14</title>
<polygon fill="#ffaeb9" stroke="black" points="1873,-241 1113,-241 1113,0 1873,0 1873,-241"/>
<text text-anchor="start" x="1125" y="-221.3" font-family="Times,serif" font-size="14.00">({¬(seq.nth_i(haystack, i!2332) = needle), 0 ≤ i!2332 ∧ ¬(Length(haystack) ≤ i!2332), ¬(i!2332 ≥ 0 ∧</text>
<text text-anchor="start" x="1125" y="-206.3" font-family="Times,serif" font-size="14.00">  2·i!2332 ≤ Length(haystack) ∧</text>
<text text-anchor="start" x="1125" y="-191.3" font-family="Times,serif" font-size="14.00">  (∀k :</text>
<text text-anchor="start" x="1125" y="-176.3" font-family="Times,serif" font-size="14.00">    ¬(0 ≤ k ∧ ¬(2·i!2332 ≤ k)) ∨</text>
<text text-anchor="start" x="1125" y="-161.3" font-family="Times,serif" font-size="14.00">    ¬(If(k ≥ 0 ∧ ¬(Length(haystack) ≤ k),</text>
<text text-anchor="start" x="1125" y="-146.3" font-family="Times,serif" font-size="14.00">         seq.nth_i(haystack, k),</text>
<text text-anchor="start" x="1125" y="-131.3" font-family="Times,serif" font-size="14.00">         seq.nth_u(haystack, k)) =</text>
<text text-anchor="start" x="1125" y="-116.3" font-family="Times,serif" font-size="14.00">      needle))), 0 ≤ i!2332 ∧</text>
<text text-anchor="start" x="1125" y="-101.3" font-family="Times,serif" font-size="14.00">i!2332 ≤ Length(haystack) ∧</text>
<text text-anchor="start" x="1125" y="-86.3" font-family="Times,serif" font-size="14.00">(∀k :</text>
<text text-anchor="start" x="1125" y="-71.3" font-family="Times,serif" font-size="14.00">  ¬(0 ≤ k ∧ ¬(i!2332 ≤ k)) ∨</text>
<text text-anchor="start" x="1125" y="-56.3" font-family="Times,serif" font-size="14.00">  ¬(If(k ≥ 0 ∧ ¬(Length(haystack) ≤ k),</text>
<text text-anchor="start" x="1125" y="-41.3" font-family="Times,serif" font-size="14.00">       seq.nth_i(haystack, k),</text>
<text text-anchor="start" x="1125" y="-26.3" font-family="Times,serif" font-size="14.00">       seq.nth_u(haystack, k)) =</text>
<text text-anchor="start" x="1125" y="-11.3" font-family="Times,serif" font-size="14.00">    needle))}, AssertionError(), {haystack: haystack, needle: needle, i: 2·i!2332})</text>
</g>
<!-- 12&#45;&gt;14 -->
<g id="edge14" class="edge">
<title>12&#45;&gt;14</title>
<path fill="none" stroke="black" d="M1224.73,-276.94C1241.62,-267.15 1259.45,-256.82 1277.57,-246.33"/>
<polygon fill="black" stroke="black" points="1279.58,-249.21 1286.48,-241.16 1276.07,-243.15 1279.58,-249.21"/>
</g>
<!-- 16 -->
<g id="node17" class="node">
<title>16</title>
<polygon fill="#aeeeee" stroke="black" points="2104,-788.5 1498,-788.5 1498,-652.5 2104,-652.5 2104,-788.5"/>
<text text-anchor="start" x="1510" y="-769.3" font-family="Times,serif" font-size="14.00">({Length(haystack) ≤ i!2332, 0 ≤ i!2332 ∧</text>
<text text-anchor="start" x="1510" y="-754.3" font-family="Times,serif" font-size="14.00">i!2332 ≤ Length(haystack) ∧</text>
<text text-anchor="start" x="1510" y="-739.3" font-family="Times,serif" font-size="14.00">(∀k :</text>
<text text-anchor="start" x="1510" y="-724.3" font-family="Times,serif" font-size="14.00">  ¬(0 ≤ k ∧ ¬(i!2332 ≤ k)) ∨</text>
<text text-anchor="start" x="1510" y="-709.3" font-family="Times,serif" font-size="14.00">  ¬(If(k ≥ 0 ∧ ¬(Length(haystack) ≤ k),</text>
<text text-anchor="start" x="1510" y="-694.3" font-family="Times,serif" font-size="14.00">       seq.nth_i(haystack, k),</text>
<text text-anchor="start" x="1510" y="-679.3" font-family="Times,serif" font-size="14.00">       seq.nth_u(haystack, k)) =</text>
<text text-anchor="start" x="1510" y="-664.3" font-family="Times,serif" font-size="14.00">    needle))}, SymbolicReturn(&#45;1), {haystack: haystack, needle: needle, i: i!2332})</text>
</g>
<!-- 15&#45;&gt;16 -->
<g id="edge16" class="edge">
<title>15&#45;&gt;16</title>
<path fill="none" stroke="black" d="M1750.57,-834.81C1755.99,-822.63 1761.59,-810.05 1767,-797.9"/>
<polygon fill="black" stroke="black" points="1770.22,-799.26 1771.09,-788.71 1763.83,-796.42 1770.22,-799.26"/>
</g>
</g>
</svg>
