<?xml version="1.0" encoding="UTF-8" standalone="no"?>
<!DOCTYPE svg PUBLIC "-//W3C//DTD SVG 1.1//EN"
 "http://www.w3.org/Graphics/SVG/1.1/DTD/svg11.dtd">
<!-- Generated by graphviz version 2.43.0 (0)
 -->
<!-- Title: %3 Pages: 1 -->
<svg width="2580pt" height="1706pt"
 viewBox="0.00 0.00 2580.00 1706.00" xmlns="http://www.w3.org/2000/svg" xmlns:xlink="http://www.w3.org/1999/xlink">
<g id="graph0" class="graph" transform="scale(1 1) rotate(0) translate(4 1702)">
<title>%3</title>
<polygon fill="white" stroke="transparent" points="-4,4 -4,-1702 2576,-1702 2576,4 -4,4"/>
<!-- 0 -->
<g id="node1" class="node">
<title>0</title>
<polygon fill="none" stroke="black" points="1715.5,-1698 1567.5,-1698 1567.5,-1646 1715.5,-1646 1715.5,-1698"/>
<text text-anchor="start" x="1579.5" y="-1678.8" font-family="Times,serif" font-size="14.00">({}, None, {t: t})</text>
<text text-anchor="start" x="1620.5" y="-1657.8" font-family="Courier,monospace" font-size="14.00">i = 0</text>
</g>
<!-- 1 -->
<g id="node2" class="node">
<title>1</title>
<polygon fill="none" stroke="black" points="1731,-1610 1552,-1610 1552,-1558 1731,-1558 1731,-1610"/>
<text text-anchor="start" x="1564.5" y="-1590.8" font-family="Times,serif" font-size="14.00">({}, None, {t: t, i: 0})</text>
<text text-anchor="start" x="1600.5" y="-1569.8" font-family="Courier,monospace" font-size="14.00">result = 1</text>
</g>
<!-- 0&#45;&gt;1 -->
<g id="edge1" class="edge">
<title>0&#45;&gt;1</title>
<path fill="none" stroke="black" d="M1641.5,-1645.66C1641.5,-1637.7 1641.5,-1628.76 1641.5,-1620.24"/>
<polygon fill="black" stroke="black" points="1645,-1620.16 1641.5,-1610.16 1638,-1620.16 1645,-1620.16"/>
</g>
<!-- 2 -->
<g id="node3" class="node">
<title>2</title>
<polygon fill="none" stroke="black" points="1765.5,-1522 1517.5,-1522 1517.5,-1470 1765.5,-1470 1765.5,-1522"/>
<text text-anchor="start" x="1529.5" y="-1502.8" font-family="Times,serif" font-size="14.00">({}, None, {t: t, i: 0, result: 1})</text>
<text text-anchor="start" x="1608" y="-1481.8" font-family="Courier,monospace" font-size="14.00">elem = 1</text>
</g>
<!-- 1&#45;&gt;2 -->
<g id="edge2" class="edge">
<title>1&#45;&gt;2</title>
<path fill="none" stroke="black" d="M1641.5,-1557.66C1641.5,-1549.7 1641.5,-1540.76 1641.5,-1532.24"/>
<polygon fill="black" stroke="black" points="1645,-1532.16 1641.5,-1522.16 1638,-1532.16 1645,-1532.16"/>
</g>
<!-- 3 -->
<g id="node4" class="node">
<title>3</title>
<polygon fill="none" stroke="black" points="1796.5,-1434 1486.5,-1434 1486.5,-1382 1796.5,-1382 1796.5,-1434"/>
<text text-anchor="start" x="1498.5" y="-1414.8" font-family="Times,serif" font-size="14.00">({}, None, {t: t, i: 0, result: 1, elem: 1})</text>
<text text-anchor="start" x="1517.5" y="-1393.8" font-family="Courier,monospace" font-size="14.00">assert Inv(i, t, elem, result)</text>
</g>
<!-- 2&#45;&gt;3 -->
<g id="edge3" class="edge">
<title>2&#45;&gt;3</title>
<path fill="none" stroke="black" d="M1641.5,-1469.66C1641.5,-1461.7 1641.5,-1452.76 1641.5,-1444.24"/>
<polygon fill="black" stroke="black" points="1645,-1444.16 1641.5,-1434.16 1638,-1444.16 1645,-1444.16"/>
</g>
<!-- 4 -->
<g id="node5" class="node">
<title>4</title>
<polygon fill="none" stroke="black" points="1796.5,-1346 1486.5,-1346 1486.5,-1294 1796.5,-1294 1796.5,-1346"/>
<text text-anchor="start" x="1498.5" y="-1326.8" font-family="Times,serif" font-size="14.00">({}, None, {t: t, i: 0, result: 1, elem: 1})</text>
<text text-anchor="start" x="1612.5" y="-1305.8" font-family="Courier,monospace" font-size="14.00">havoc i</text>
</g>
<!-- 3&#45;&gt;4 -->
<g id="edge4" class="edge">
<title>3&#45;&gt;4</title>
<path fill="none" stroke="black" d="M1641.5,-1381.66C1641.5,-1373.7 1641.5,-1364.76 1641.5,-1356.24"/>
<polygon fill="black" stroke="black" points="1645,-1356.16 1641.5,-1346.16 1638,-1356.16 1645,-1356.16"/>
</g>
<!-- 5 -->
<g id="node6" class="node">
<title>5</title>
<polygon fill="none" stroke="black" points="1801.5,-1258 1481.5,-1258 1481.5,-1206 1801.5,-1206 1801.5,-1258"/>
<text text-anchor="start" x="1493.5" y="-1238.8" font-family="Times,serif" font-size="14.00">({}, None, {t: t, i: i!3, result: 1, elem: 1})</text>
<text text-anchor="start" x="1600" y="-1217.8" font-family="Courier,monospace" font-size="14.00">havoc elem</text>
</g>
<!-- 4&#45;&gt;5 -->
<g id="edge5" class="edge">
<title>4&#45;&gt;5</title>
<path fill="none" stroke="black" d="M1641.5,-1293.66C1641.5,-1285.7 1641.5,-1276.76 1641.5,-1268.24"/>
<polygon fill="black" stroke="black" points="1645,-1268.16 1641.5,-1258.16 1638,-1268.16 1645,-1268.16"/>
</g>
<!-- 6 -->
<g id="node7" class="node">
<title>6</title>
<polygon fill="none" stroke="black" points="1822,-1170 1461,-1170 1461,-1118 1822,-1118 1822,-1170"/>
<text text-anchor="start" x="1473.5" y="-1150.8" font-family="Times,serif" font-size="14.00">({}, None, {t: t, i: i!3, result: 1, elem: elem!4})</text>
<text text-anchor="start" x="1592" y="-1129.8" font-family="Courier,monospace" font-size="14.00">havoc result</text>
</g>
<!-- 5&#45;&gt;6 -->
<g id="edge6" class="edge">
<title>5&#45;&gt;6</title>
<path fill="none" stroke="black" d="M1641.5,-1205.66C1641.5,-1197.7 1641.5,-1188.76 1641.5,-1180.24"/>
<polygon fill="black" stroke="black" points="1645,-1180.16 1641.5,-1170.16 1638,-1180.16 1645,-1180.16"/>
</g>
<!-- 7 -->
<g id="node8" class="node">
<title>7</title>
<polygon fill="none" stroke="black" points="1846,-1082 1437,-1082 1437,-1030 1846,-1030 1846,-1082"/>
<text text-anchor="start" x="1449.5" y="-1062.8" font-family="Times,serif" font-size="14.00">({}, None, {t: t, i: i!3, result: result!5, elem: elem!4})</text>
<text text-anchor="start" x="1518" y="-1041.8" font-family="Courier,monospace" font-size="14.00">assume Inv(i, t, elem, result)</text>
</g>
<!-- 6&#45;&gt;7 -->
<g id="edge7" class="edge">
<title>6&#45;&gt;7</title>
<path fill="none" stroke="black" d="M1641.5,-1117.66C1641.5,-1109.7 1641.5,-1100.76 1641.5,-1092.24"/>
<polygon fill="black" stroke="black" points="1645,-1092.16 1641.5,-1082.16 1638,-1092.16 1645,-1092.16"/>
</g>
<!-- 8 -->
<g id="node9" class="node">
<title>8</title>
<polygon fill="none" stroke="black" points="1979.5,-994 1303.5,-994 1303.5,-897 1979.5,-897 1979.5,-994"/>
<text text-anchor="start" x="1315.5" y="-974.3" font-family="Times,serif" font-size="14.00">({0 ≤ i!3 ∧</text>
<text text-anchor="start" x="1315.5" y="-959.3" font-family="Times,serif" font-size="14.00">i!3 ≤ Length(t) ∧</text>
<text text-anchor="start" x="1315.5" y="-944.3" font-family="Times,serif" font-size="14.00">(0 = elem!4 ∧ 0 = result!5 ∨</text>
<text text-anchor="start" x="1315.5" y="-929.3" font-family="Times,serif" font-size="14.00"> ¬(0 = elem!4) ∧ 0 = result!5%elem!4)}, None, {t: t, i: i!3, result: result!5, elem: elem!4})</text>
<text text-anchor="start" x="1575" y="-908.3" font-family="Courier,monospace" font-size="14.00">if (i &lt; len(t)):</text>
</g>
<!-- 7&#45;&gt;8 -->
<g id="edge8" class="edge">
<title>7&#45;&gt;8</title>
<path fill="none" stroke="black" d="M1641.5,-1029.84C1641.5,-1022.1 1641.5,-1013.25 1641.5,-1004.27"/>
<polygon fill="black" stroke="black" points="1645,-1004.13 1641.5,-994.13 1638,-1004.13 1645,-1004.13"/>
</g>
<!-- 9 -->
<g id="node10" class="node">
<title>9</title>
<polygon fill="none" stroke="black" points="1612.5,-861 798.5,-861 798.5,-764 1612.5,-764 1612.5,-861"/>
<text text-anchor="start" x="810.5" y="-841.3" font-family="Times,serif" font-size="14.00">({0 ≤ i!3 ∧</text>
<text text-anchor="start" x="810.5" y="-826.3" font-family="Times,serif" font-size="14.00">i!3 ≤ Length(t) ∧</text>
<text text-anchor="start" x="810.5" y="-811.3" font-family="Times,serif" font-size="14.00">(0 = elem!4 ∧ 0 = result!5 ∨</text>
<text text-anchor="start" x="810.5" y="-796.3" font-family="Times,serif" font-size="14.00"> ¬(0 = elem!4) ∧ 0 = result!5%elem!4), ¬(Length(t) ≤ i!3)}, None, {t: t, i: i!3, result: result!5, elem: elem!4})</text>
<text text-anchor="start" x="1160" y="-775.3" font-family="Courier,monospace" font-size="14.00">elem = t[i]</text>
</g>
<!-- 8&#45;&gt;9 -->
<g id="edge9" class="edge">
<title>8&#45;&gt;9</title>
<path fill="none" stroke="black" d="M1483.17,-896.93C1447.5,-886.21 1409.53,-874.8 1373.48,-863.97"/>
<polygon fill="black" stroke="black" points="1374.45,-860.61 1363.87,-861.08 1372.44,-867.31 1374.45,-860.61"/>
</g>
<!-- 16 -->
<g id="node17" class="node">
<title>16</title>
<polygon fill="none" stroke="black" points="2473.5,-861 1681.5,-861 1681.5,-764 2473.5,-764 2473.5,-861"/>
<text text-anchor="start" x="1693.5" y="-841.3" font-family="Times,serif" font-size="14.00">({0 ≤ i!3 ∧</text>
<text text-anchor="start" x="1693.5" y="-826.3" font-family="Times,serif" font-size="14.00">i!3 ≤ Length(t) ∧</text>
<text text-anchor="start" x="1693.5" y="-811.3" font-family="Times,serif" font-size="14.00">(0 = elem!4 ∧ 0 = result!5 ∨</text>
<text text-anchor="start" x="1693.5" y="-796.3" font-family="Times,serif" font-size="14.00"> ¬(0 = elem!4) ∧ 0 = result!5%elem!4), Length(t) ≤ i!3}, None, {t: t, i: i!3, result: result!5, elem: elem!4})</text>
<text text-anchor="start" x="2023.5" y="-775.3" font-family="Courier,monospace" font-size="14.00">return result</text>
</g>
<!-- 8&#45;&gt;16 -->
<g id="edge16" class="edge">
<title>8&#45;&gt;16</title>
<path fill="none" stroke="black" d="M1799.83,-896.93C1835.5,-886.21 1873.47,-874.8 1909.52,-863.97"/>
<polygon fill="black" stroke="black" points="1910.56,-867.31 1919.13,-861.08 1908.55,-860.61 1910.56,-867.31"/>
</g>
<!-- 10 -->
<g id="node11" class="node">
<title>10</title>
<polygon fill="none" stroke="black" points="1617.5,-728 743.5,-728 743.5,-631 1617.5,-631 1617.5,-728"/>
<text text-anchor="start" x="755.5" y="-708.3" font-family="Times,serif" font-size="14.00">({0 ≤ i!3 ∧</text>
<text text-anchor="start" x="755.5" y="-693.3" font-family="Times,serif" font-size="14.00">i!3 ≤ Length(t) ∧</text>
<text text-anchor="start" x="755.5" y="-678.3" font-family="Times,serif" font-size="14.00">(0 = elem!4 ∧ 0 = result!5 ∨</text>
<text text-anchor="start" x="755.5" y="-663.3" font-family="Times,serif" font-size="14.00"> ¬(0 = elem!4) ∧ 0 = result!5%elem!4), ¬(Length(t) ≤ i!3)}, None, {t: t, i: i!3, result: result!5, elem: seq.nth_i(t, i!3)})</text>
<text text-anchor="start" x="1081" y="-642.3" font-family="Courier,monospace" font-size="14.00">result = (result + elem)</text>
</g>
<!-- 9&#45;&gt;10 -->
<g id="edge10" class="edge">
<title>9&#45;&gt;10</title>
<path fill="none" stroke="black" d="M1196.4,-763.84C1194.82,-755.53 1193.15,-746.81 1191.52,-738.26"/>
<polygon fill="black" stroke="black" points="1194.94,-737.52 1189.63,-728.35 1188.07,-738.83 1194.94,-737.52"/>
</g>
<!-- 11 -->
<g id="node12" class="node">
<title>11</title>
<polygon fill="none" stroke="black" points="1683,-595 678,-595 678,-498 1683,-498 1683,-595"/>
<text text-anchor="start" x="690.5" y="-575.3" font-family="Times,serif" font-size="14.00">({0 ≤ i!3 ∧</text>
<text text-anchor="start" x="690.5" y="-560.3" font-family="Times,serif" font-size="14.00">i!3 ≤ Length(t) ∧</text>
<text text-anchor="start" x="690.5" y="-545.3" font-family="Times,serif" font-size="14.00">(0 = elem!4 ∧ 0 = result!5 ∨</text>
<text text-anchor="start" x="690.5" y="-530.3" font-family="Times,serif" font-size="14.00"> ¬(0 = elem!4) ∧ 0 = result!5%elem!4), ¬(Length(t) ≤ i!3)}, None, {t: t, i: i!3, result: result!5 + seq.nth_i(t, i!3), elem: seq.nth_i(t, i!3)})</text>
<text text-anchor="start" x="1135.5" y="-509.3" font-family="Courier,monospace" font-size="14.00">i = (i + 1)</text>
</g>
<!-- 10&#45;&gt;11 -->
<g id="edge11" class="edge">
<title>10&#45;&gt;11</title>
<path fill="none" stroke="black" d="M1180.5,-630.84C1180.5,-622.62 1180.5,-613.99 1180.5,-605.54"/>
<polygon fill="black" stroke="black" points="1184,-605.35 1180.5,-595.35 1177,-605.35 1184,-605.35"/>
</g>
<!-- 12 -->
<g id="node13" class="node">
<title>12</title>
<polygon fill="none" stroke="black" points="1698,-462 663,-462 663,-365 1698,-365 1698,-462"/>
<text text-anchor="start" x="675.5" y="-442.3" font-family="Times,serif" font-size="14.00">({0 ≤ i!3 ∧</text>
<text text-anchor="start" x="675.5" y="-427.3" font-family="Times,serif" font-size="14.00">i!3 ≤ Length(t) ∧</text>
<text text-anchor="start" x="675.5" y="-412.3" font-family="Times,serif" font-size="14.00">(0 = elem!4 ∧ 0 = result!5 ∨</text>
<text text-anchor="start" x="675.5" y="-397.3" font-family="Times,serif" font-size="14.00"> ¬(0 = elem!4) ∧ 0 = result!5%elem!4), ¬(Length(t) ≤ i!3)}, None, {t: t, i: 1 + i!3, result: result!5 + seq.nth_i(t, i!3), elem: seq.nth_i(t, i!3)})</text>
<text text-anchor="start" x="1057" y="-376.3" font-family="Courier,monospace" font-size="14.00">assert Inv(i, t, elem, result)</text>
</g>
<!-- 11&#45;&gt;12 -->
<g id="edge12" class="edge">
<title>11&#45;&gt;12</title>
<path fill="none" stroke="black" d="M1180.5,-497.84C1180.5,-489.62 1180.5,-480.99 1180.5,-472.54"/>
<polygon fill="black" stroke="black" points="1184,-472.35 1180.5,-462.35 1177,-472.35 1184,-472.35"/>
</g>
<!-- 13 -->
<g id="node14" class="node">
<title>13</title>
<polygon fill="none" stroke="black" points="1113.5,-329 137.5,-329 137.5,-172 1113.5,-172 1113.5,-329"/>
<text text-anchor="start" x="149.5" y="-309.3" font-family="Times,serif" font-size="14.00">({0 ≤ i!3 ∧</text>
<text text-anchor="start" x="149.5" y="-294.3" font-family="Times,serif" font-size="14.00">i!3 ≤ Length(t) ∧</text>
<text text-anchor="start" x="149.5" y="-279.3" font-family="Times,serif" font-size="14.00">(0 = elem!4 ∧ 0 = result!5 ∨</text>
<text text-anchor="start" x="149.5" y="-264.3" font-family="Times,serif" font-size="14.00"> ¬(0 = elem!4) ∧ 0 = result!5%elem!4), &#45;1 ≤ i!3 ∧</text>
<text text-anchor="start" x="149.5" y="-249.3" font-family="Times,serif" font-size="14.00">i!3 ≤ &#45;1 + Length(t) ∧</text>
<text text-anchor="start" x="149.5" y="-234.3" font-family="Times,serif" font-size="14.00">(0 = seq.nth_i(t, i!3) ∧ 0 = result!5 + seq.nth_i(t, i!3) ∨</text>
<text text-anchor="start" x="149.5" y="-219.3" font-family="Times,serif" font-size="14.00"> ¬(0 = seq.nth_i(t, i!3)) ∧</text>
<text text-anchor="start" x="149.5" y="-204.3" font-family="Times,serif" font-size="14.00"> 0 = (result!5 + seq.nth_i(t, i!3))%seq.nth_i(t, i!3))}, None, {t: t, i: 1 + i!3, result: result!5 + seq.nth_i(t, i!3), elem: seq.nth_i(t, i!3)})</text>
<text text-anchor="start" x="571.5" y="-183.3" font-family="Courier,monospace" font-size="14.00">return result</text>
</g>
<!-- 12&#45;&gt;13 -->
<g id="edge13" class="edge">
<title>12&#45;&gt;13</title>
<path fill="none" stroke="black" d="M1016.61,-364.96C980.65,-354.53 941.62,-343.2 902.6,-331.88"/>
<polygon fill="black" stroke="black" points="903.26,-328.43 892.68,-329.01 901.31,-335.15 903.26,-328.43"/>
</g>
<!-- 15 -->
<g id="node16" class="node">
<title>15</title>
<polygon fill="#ffaeb9" stroke="black" points="2339.5,-318.5 1131.5,-318.5 1131.5,-182.5 2339.5,-182.5 2339.5,-318.5"/>
<text text-anchor="start" x="1143.5" y="-299.3" font-family="Times,serif" font-size="14.00">({0 ≤ i!3 ∧</text>
<text text-anchor="start" x="1143.5" y="-284.3" font-family="Times,serif" font-size="14.00">i!3 ≤ Length(t) ∧</text>
<text text-anchor="start" x="1143.5" y="-269.3" font-family="Times,serif" font-size="14.00">(0 = elem!4 ∧ 0 = result!5 ∨</text>
<text text-anchor="start" x="1143.5" y="-254.3" font-family="Times,serif" font-size="14.00"> ¬(0 = elem!4) ∧ 0 = result!5%elem!4), ¬(&#45;1 ≤ i!3 ∧</text>
<text text-anchor="start" x="1143.5" y="-239.3" font-family="Times,serif" font-size="14.00">  i!3 ≤ &#45;1 + Length(t) ∧</text>
<text text-anchor="start" x="1143.5" y="-224.3" font-family="Times,serif" font-size="14.00">  (0 = seq.nth_i(t, i!3) ∧ 0 = result!5 + seq.nth_i(t, i!3) ∨</text>
<text text-anchor="start" x="1143.5" y="-209.3" font-family="Times,serif" font-size="14.00">   ¬(0 = seq.nth_i(t, i!3)) ∧</text>
<text text-anchor="start" x="1143.5" y="-194.3" font-family="Times,serif" font-size="14.00">   0 = (result!5 + seq.nth_i(t, i!3))%seq.nth_i(t, i!3))), ¬(Length(t) ≤ i!3)}, AssertionError(), {t: t, i: 1 + i!3, result: result!5 + seq.nth_i(t, i!3), elem: seq.nth_i(t, i!3)})</text>
</g>
<!-- 12&#45;&gt;15 -->
<g id="edge15" class="edge">
<title>12&#45;&gt;15</title>
<path fill="none" stroke="black" d="M1344.39,-364.96C1391.47,-351.3 1443.82,-336.11 1494.52,-321.41"/>
<polygon fill="black" stroke="black" points="1495.67,-324.72 1504.3,-318.57 1493.72,-317.99 1495.67,-324.72"/>
</g>
<!-- 14 -->
<g id="node15" class="node">
<title>14</title>
<polygon fill="#aeeeee" stroke="black" points="1251,-136 0,-136 0,0 1251,0 1251,-136"/>
<text text-anchor="start" x="12.5" y="-116.8" font-family="Times,serif" font-size="14.00">({0 ≤ i!3 ∧</text>
<text text-anchor="start" x="12.5" y="-101.8" font-family="Times,serif" font-size="14.00">i!3 ≤ Length(t) ∧</text>
<text text-anchor="start" x="12.5" y="-86.8" font-family="Times,serif" font-size="14.00">(0 = elem!4 ∧ 0 = result!5 ∨</text>
<text text-anchor="start" x="12.5" y="-71.8" font-family="Times,serif" font-size="14.00"> ¬(0 = elem!4) ∧ 0 = result!5%elem!4), &#45;1 ≤ i!3 ∧</text>
<text text-anchor="start" x="12.5" y="-56.8" font-family="Times,serif" font-size="14.00">i!3 ≤ &#45;1 + Length(t) ∧</text>
<text text-anchor="start" x="12.5" y="-41.8" font-family="Times,serif" font-size="14.00">(0 = seq.nth_i(t, i!3) ∧ 0 = result!5 + seq.nth_i(t, i!3) ∨</text>
<text text-anchor="start" x="12.5" y="-26.8" font-family="Times,serif" font-size="14.00"> ¬(0 = seq.nth_i(t, i!3)) ∧</text>
<text text-anchor="start" x="12.5" y="-11.8" font-family="Times,serif" font-size="14.00"> 0 = (result!5 + seq.nth_i(t, i!3))%seq.nth_i(t, i!3))}, SymbolicReturn(result!5 + seq.nth_i(t, i!3)), {t: t, i: 1 + i!3, result: result!5 + seq.nth_i(t, i!3), elem: seq.nth_i(t, i!3)})</text>
</g>
<!-- 13&#45;&gt;14 -->
<g id="edge14" class="edge">
<title>13&#45;&gt;14</title>
<path fill="none" stroke="black" d="M625.5,-171.9C625.5,-163.41 625.5,-154.77 625.5,-146.28"/>
<polygon fill="black" stroke="black" points="629,-146.03 625.5,-136.03 622,-146.03 629,-146.03"/>
</g>
<!-- 17 -->
<g id="node18" class="node">
<title>17</title>
<polygon fill="#aeeeee" stroke="black" points="2572,-717.5 1635,-717.5 1635,-641.5 2572,-641.5 2572,-717.5"/>
<text text-anchor="start" x="1647.5" y="-698.3" font-family="Times,serif" font-size="14.00">({0 ≤ i!3 ∧</text>
<text text-anchor="start" x="1647.5" y="-683.3" font-family="Times,serif" font-size="14.00">i!3 ≤ Length(t) ∧</text>
<text text-anchor="start" x="1647.5" y="-668.3" font-family="Times,serif" font-size="14.00">(0 = elem!4 ∧ 0 = result!5 ∨</text>
<text text-anchor="start" x="1647.5" y="-653.3" font-family="Times,serif" font-size="14.00"> ¬(0 = elem!4) ∧ 0 = result!5%elem!4), Length(t) ≤ i!3}, SymbolicReturn(result!5), {t: t, i: i!3, result: result!5, elem: elem!4})</text>
</g>
<!-- 16&#45;&gt;17 -->
<g id="edge17" class="edge">
<title>16&#45;&gt;17</title>
<path fill="none" stroke="black" d="M2086.96,-763.84C2089.3,-752.07 2091.8,-739.47 2094.13,-727.72"/>
<polygon fill="black" stroke="black" points="2097.61,-728.15 2096.13,-717.66 2090.75,-726.78 2097.61,-728.15"/>
</g>
</g>
</svg>
