<?xml version="1.0" encoding="UTF-8" standalone="no"?>
<!DOCTYPE svg PUBLIC "-//W3C//DTD SVG 1.1//EN"
 "http://www.w3.org/Graphics/SVG/1.1/DTD/svg11.dtd">
<!-- Generated by graphviz version 2.43.0 (0)
 -->
<!-- Title: %3 Pages: 1 -->
<svg width="2982pt" height="1738pt"
 viewBox="0.00 0.00 2982.00 1738.00" xmlns="http://www.w3.org/2000/svg" xmlns:xlink="http://www.w3.org/1999/xlink">
<g id="graph0" class="graph" transform="scale(1 1) rotate(0) translate(4 1734)">
<title>%3</title>
<polygon fill="white" stroke="transparent" points="-4,4 -4,-1734 2978,-1734 2978,4 -4,4"/>
<!-- 0 -->
<g id="node1" class="node">
<title>0</title>
<polygon fill="none" stroke="black" points="2239,-1730 1865,-1730 1865,-1678 2239,-1678 2239,-1730"/>
<text text-anchor="start" x="1877" y="-1710.8" font-family="Times,serif" font-size="14.00">({}, None, {haystack: haystack, needle: needle})</text>
<text text-anchor="start" x="2031" y="-1689.8" font-family="Courier,monospace" font-size="14.00">i = 0</text>
</g>
<!-- 1 -->
<g id="node2" class="node">
<title>1</title>
<polygon fill="none" stroke="black" points="2255,-1642 1849,-1642 1849,-1590 2255,-1590 2255,-1642"/>
<text text-anchor="start" x="1861" y="-1622.8" font-family="Times,serif" font-size="14.00">({}, None, {haystack: haystack, needle: needle, i: 0})</text>
<text text-anchor="start" x="1924" y="-1601.8" font-family="Courier,monospace" font-size="14.00">assert Inv(i, needle, haystack)</text>
</g>
<!-- 0&#45;&gt;1 -->
<g id="edge1" class="edge">
<title>0&#45;&gt;1</title>
<path fill="none" stroke="black" d="M2052,-1677.66C2052,-1669.7 2052,-1660.76 2052,-1652.24"/>
<polygon fill="black" stroke="black" points="2055.5,-1652.16 2052,-1642.16 2048.5,-1652.16 2055.5,-1652.16"/>
</g>
<!-- 2 -->
<g id="node3" class="node">
<title>2</title>
<polygon fill="none" stroke="black" points="2255,-1554 1849,-1554 1849,-1502 2255,-1502 2255,-1554"/>
<text text-anchor="start" x="1861" y="-1534.8" font-family="Times,serif" font-size="14.00">({}, None, {haystack: haystack, needle: needle, i: 0})</text>
<text text-anchor="start" x="2023" y="-1513.8" font-family="Courier,monospace" font-size="14.00">havoc i</text>
</g>
<!-- 1&#45;&gt;2 -->
<g id="edge2" class="edge">
<title>1&#45;&gt;2</title>
<path fill="none" stroke="black" d="M2052,-1589.66C2052,-1581.7 2052,-1572.76 2052,-1564.24"/>
<polygon fill="black" stroke="black" points="2055.5,-1564.16 2052,-1554.16 2048.5,-1564.16 2055.5,-1564.16"/>
</g>
<!-- 3 -->
<g id="node4" class="node">
<title>3</title>
<polygon fill="none" stroke="black" points="2273.5,-1466 1830.5,-1466 1830.5,-1414 2273.5,-1414 2273.5,-1466"/>
<text text-anchor="start" x="1843" y="-1446.8" font-family="Times,serif" font-size="14.00">({}, None, {haystack: haystack, needle: needle, i: i!2255})</text>
<text text-anchor="start" x="1924.5" y="-1425.8" font-family="Courier,monospace" font-size="14.00">assume Inv(i, needle, haystack)</text>
</g>
<!-- 2&#45;&gt;3 -->
<g id="edge3" class="edge">
<title>2&#45;&gt;3</title>
<path fill="none" stroke="black" d="M2052,-1501.66C2052,-1493.7 2052,-1484.76 2052,-1476.24"/>
<polygon fill="black" stroke="black" points="2055.5,-1476.16 2052,-1466.16 2048.5,-1476.16 2055.5,-1476.16"/>
</g>
<!-- 4 -->
<g id="node5" class="node">
<title>4</title>
<polygon fill="none" stroke="black" points="2304.5,-1378 1799.5,-1378 1799.5,-1221 2304.5,-1221 2304.5,-1378"/>
<text text-anchor="start" x="1812" y="-1358.3" font-family="Times,serif" font-size="14.00">({0 ≤ i!2255 ∧</text>
<text text-anchor="start" x="1812" y="-1343.3" font-family="Times,serif" font-size="14.00">i!2255 ≤ Length(haystack) ∧</text>
<text text-anchor="start" x="1812" y="-1328.3" font-family="Times,serif" font-size="14.00">(∀k :</text>
<text text-anchor="start" x="1812" y="-1313.3" font-family="Times,serif" font-size="14.00">  ¬(0 ≤ k ∧ ¬(i!2255 ≤ k)) ∨</text>
<text text-anchor="start" x="1812" y="-1298.3" font-family="Times,serif" font-size="14.00">  ¬(If(k ≥ 0 ∧ ¬(Length(haystack) ≤ k),</text>
<text text-anchor="start" x="1812" y="-1283.3" font-family="Times,serif" font-size="14.00">       seq.nth_i(haystack, k),</text>
<text text-anchor="start" x="1812" y="-1268.3" font-family="Times,serif" font-size="14.00">       seq.nth_u(haystack, k)) =</text>
<text text-anchor="start" x="1812" y="-1253.3" font-family="Times,serif" font-size="14.00">    needle))}, None, {haystack: haystack, needle: needle, i: i!2255})</text>
<text text-anchor="start" x="1883" y="-1232.3" font-family="Courier,monospace" font-size="14.00">loop&#45;scope(inv=Inv(i, needle, haystack)):</text>
</g>
<!-- 3&#45;&gt;4 -->
<g id="edge4" class="edge">
<title>3&#45;&gt;4</title>
<path fill="none" stroke="black" d="M2052,-1413.92C2052,-1406.36 2052,-1397.6 2052,-1388.36"/>
<polygon fill="black" stroke="black" points="2055.5,-1388.19 2052,-1378.19 2048.5,-1388.19 2055.5,-1388.19"/>
</g>
<!-- 5 -->
<g id="node6" class="node">
<title>5</title>
<polygon fill="none" stroke="black" points="2304.5,-1185 1799.5,-1185 1799.5,-1028 2304.5,-1028 2304.5,-1185"/>
<text text-anchor="start" x="1812" y="-1165.3" font-family="Times,serif" font-size="14.00">({0 ≤ i!2255 ∧</text>
<text text-anchor="start" x="1812" y="-1150.3" font-family="Times,serif" font-size="14.00">i!2255 ≤ Length(haystack) ∧</text>
<text text-anchor="start" x="1812" y="-1135.3" font-family="Times,serif" font-size="14.00">(∀k :</text>
<text text-anchor="start" x="1812" y="-1120.3" font-family="Times,serif" font-size="14.00">  ¬(0 ≤ k ∧ ¬(i!2255 ≤ k)) ∨</text>
<text text-anchor="start" x="1812" y="-1105.3" font-family="Times,serif" font-size="14.00">  ¬(If(k ≥ 0 ∧ ¬(Length(haystack) ≤ k),</text>
<text text-anchor="start" x="1812" y="-1090.3" font-family="Times,serif" font-size="14.00">       seq.nth_i(haystack, k),</text>
<text text-anchor="start" x="1812" y="-1075.3" font-family="Times,serif" font-size="14.00">       seq.nth_u(haystack, k)) =</text>
<text text-anchor="start" x="1812" y="-1060.3" font-family="Times,serif" font-size="14.00">    needle))}, None, {haystack: haystack, needle: needle, i: i!2255})</text>
<text text-anchor="start" x="1957.5" y="-1039.3" font-family="Courier,monospace" font-size="14.00">if (i &lt; len(haystack)):</text>
</g>
<!-- 4&#45;&gt;5 -->
<g id="edge5" class="edge">
<title>4&#45;&gt;5</title>
<path fill="none" stroke="black" d="M2052,-1220.81C2052,-1212.35 2052,-1203.69 2052,-1195.12"/>
<polygon fill="black" stroke="black" points="2055.5,-1195.12 2052,-1185.12 2048.5,-1195.12 2055.5,-1195.12"/>
</g>
<!-- 6 -->
<g id="node7" class="node">
<title>6</title>
<polygon fill="none" stroke="black" points="2043.5,-992 1538.5,-992 1538.5,-835 2043.5,-835 2043.5,-992"/>
<text text-anchor="start" x="1551" y="-972.3" font-family="Times,serif" font-size="14.00">({¬(Length(haystack) ≤ i!2255), 0 ≤ i!2255 ∧</text>
<text text-anchor="start" x="1551" y="-957.3" font-family="Times,serif" font-size="14.00">i!2255 ≤ Length(haystack) ∧</text>
<text text-anchor="start" x="1551" y="-942.3" font-family="Times,serif" font-size="14.00">(∀k :</text>
<text text-anchor="start" x="1551" y="-927.3" font-family="Times,serif" font-size="14.00">  ¬(0 ≤ k ∧ ¬(i!2255 ≤ k)) ∨</text>
<text text-anchor="start" x="1551" y="-912.3" font-family="Times,serif" font-size="14.00">  ¬(If(k ≥ 0 ∧ ¬(Length(haystack) ≤ k),</text>
<text text-anchor="start" x="1551" y="-897.3" font-family="Times,serif" font-size="14.00">       seq.nth_i(haystack, k),</text>
<text text-anchor="start" x="1551" y="-882.3" font-family="Times,serif" font-size="14.00">       seq.nth_u(haystack, k)) =</text>
<text text-anchor="start" x="1551" y="-867.3" font-family="Times,serif" font-size="14.00">    needle))}, None, {haystack: haystack, needle: needle, i: i!2255})</text>
<text text-anchor="start" x="1680" y="-846.3" font-family="Courier,monospace" font-size="14.00">if (haystack[i] == needle):</text>
</g>
<!-- 5&#45;&gt;6 -->
<g id="edge6" class="edge">
<title>5&#45;&gt;6</title>
<path fill="none" stroke="black" d="M1945.84,-1027.81C1932.52,-1018.06 1918.84,-1008.06 1905.4,-998.22"/>
<polygon fill="black" stroke="black" points="1907.2,-995.2 1897.06,-992.12 1903.07,-1000.85 1907.2,-995.2"/>
</g>
<!-- 14 -->
<g id="node15" class="node">
<title>14</title>
<polygon fill="none" stroke="black" points="2744.5,-992 2239.5,-992 2239.5,-835 2744.5,-835 2744.5,-992"/>
<text text-anchor="start" x="2252" y="-972.3" font-family="Times,serif" font-size="14.00">({Length(haystack) ≤ i!2255, 0 ≤ i!2255 ∧</text>
<text text-anchor="start" x="2252" y="-957.3" font-family="Times,serif" font-size="14.00">i!2255 ≤ Length(haystack) ∧</text>
<text text-anchor="start" x="2252" y="-942.3" font-family="Times,serif" font-size="14.00">(∀k :</text>
<text text-anchor="start" x="2252" y="-927.3" font-family="Times,serif" font-size="14.00">  ¬(0 ≤ k ∧ ¬(i!2255 ≤ k)) ∨</text>
<text text-anchor="start" x="2252" y="-912.3" font-family="Times,serif" font-size="14.00">  ¬(If(k ≥ 0 ∧ ¬(Length(haystack) ≤ k),</text>
<text text-anchor="start" x="2252" y="-897.3" font-family="Times,serif" font-size="14.00">       seq.nth_i(haystack, k),</text>
<text text-anchor="start" x="2252" y="-882.3" font-family="Times,serif" font-size="14.00">       seq.nth_u(haystack, k)) =</text>
<text text-anchor="start" x="2252" y="-867.3" font-family="Times,serif" font-size="14.00">    needle))}, None, {haystack: haystack, needle: needle, i: i!2255})</text>
<text text-anchor="start" x="2455" y="-846.3" font-family="Courier,monospace" font-size="14.00">return &#45;1</text>
</g>
<!-- 5&#45;&gt;14 -->
<g id="edge14" class="edge">
<title>5&#45;&gt;14</title>
<path fill="none" stroke="black" d="M2230.65,-1027.95C2254.82,-1017.46 2279.68,-1006.67 2304.01,-996.11"/>
<polygon fill="black" stroke="black" points="2305.53,-999.26 2313.3,-992.07 2302.74,-992.84 2305.53,-999.26"/>
</g>
<!-- 7 -->
<g id="node8" class="node">
<title>7</title>
<polygon fill="none" stroke="black" points="1210,-799 116,-799 116,-642 1210,-642 1210,-799"/>
<text text-anchor="start" x="128" y="-779.3" font-family="Times,serif" font-size="14.00">({0 ≤ i!2255 ∧</text>
<text text-anchor="start" x="128" y="-764.3" font-family="Times,serif" font-size="14.00">i!2255 ≤ Length(haystack) ∧</text>
<text text-anchor="start" x="128" y="-749.3" font-family="Times,serif" font-size="14.00">(∀k :</text>
<text text-anchor="start" x="128" y="-734.3" font-family="Times,serif" font-size="14.00">  ¬(0 ≤ k ∧ ¬(i!2255 ≤ k)) ∨</text>
<text text-anchor="start" x="128" y="-719.3" font-family="Times,serif" font-size="14.00">  ¬(If(k ≥ 0 ∧ ¬(Length(haystack) ≤ k),</text>
<text text-anchor="start" x="128" y="-704.3" font-family="Times,serif" font-size="14.00">       seq.nth_i(haystack, k),</text>
<text text-anchor="start" x="128" y="-689.3" font-family="Times,serif" font-size="14.00">       seq.nth_u(haystack, k)) =</text>
<text text-anchor="start" x="128" y="-674.3" font-family="Times,serif" font-size="14.00">    needle)), 0 ≤ i!2255 ∧ ¬(Length(haystack) ≤ i!2255), seq.nth_i(haystack, i!2255) = needle}, None, {haystack: haystack, needle: needle, i: i!2255})</text>
<text text-anchor="start" x="642" y="-653.3" font-family="Courier,monospace" font-size="14.00">break</text>
</g>
<!-- 6&#45;&gt;7 -->
<g id="edge7" class="edge">
<title>6&#45;&gt;7</title>
<path fill="none" stroke="black" d="M1538.21,-869.7C1418.01,-849.34 1270.37,-824.34 1130.82,-800.71"/>
<polygon fill="black" stroke="black" points="1131.23,-797.23 1120.78,-799.01 1130.06,-804.14 1131.23,-797.23"/>
</g>
<!-- 10 -->
<g id="node11" class="node">
<title>10</title>
<polygon fill="none" stroke="black" points="2349.5,-799 1232.5,-799 1232.5,-642 2349.5,-642 2349.5,-799"/>
<text text-anchor="start" x="1245" y="-779.3" font-family="Times,serif" font-size="14.00">({0 ≤ i!2255 ∧</text>
<text text-anchor="start" x="1245" y="-764.3" font-family="Times,serif" font-size="14.00">i!2255 ≤ Length(haystack) ∧</text>
<text text-anchor="start" x="1245" y="-749.3" font-family="Times,serif" font-size="14.00">(∀k :</text>
<text text-anchor="start" x="1245" y="-734.3" font-family="Times,serif" font-size="14.00">  ¬(0 ≤ k ∧ ¬(i!2255 ≤ k)) ∨</text>
<text text-anchor="start" x="1245" y="-719.3" font-family="Times,serif" font-size="14.00">  ¬(If(k ≥ 0 ∧ ¬(Length(haystack) ≤ k),</text>
<text text-anchor="start" x="1245" y="-704.3" font-family="Times,serif" font-size="14.00">       seq.nth_i(haystack, k),</text>
<text text-anchor="start" x="1245" y="-689.3" font-family="Times,serif" font-size="14.00">       seq.nth_u(haystack, k)) =</text>
<text text-anchor="start" x="1245" y="-674.3" font-family="Times,serif" font-size="14.00">    needle)), 0 ≤ i!2255 ∧ ¬(Length(haystack) ≤ i!2255), ¬(seq.nth_i(haystack, i!2255) = needle)}, None, {haystack: haystack, needle: needle, i: i!2255})</text>
<text text-anchor="start" x="1746" y="-653.3" font-family="Courier,monospace" font-size="14.00">i = (i + 1)</text>
</g>
<!-- 6&#45;&gt;10 -->
<g id="edge10" class="edge">
<title>6&#45;&gt;10</title>
<path fill="none" stroke="black" d="M1791,-834.81C1791,-826.35 1791,-817.69 1791,-809.12"/>
<polygon fill="black" stroke="black" points="1794.5,-809.12 1791,-799.12 1787.5,-809.12 1794.5,-809.12"/>
</g>
<!-- 8 -->
<g id="node9" class="node">
<title>8</title>
<polygon fill="none" stroke="black" points="1203,-606 109,-606 109,-449 1203,-449 1203,-606"/>
<text text-anchor="start" x="121" y="-586.3" font-family="Times,serif" font-size="14.00">({0 ≤ i!2255 ∧</text>
<text text-anchor="start" x="121" y="-571.3" font-family="Times,serif" font-size="14.00">i!2255 ≤ Length(haystack) ∧</text>
<text text-anchor="start" x="121" y="-556.3" font-family="Times,serif" font-size="14.00">(∀k :</text>
<text text-anchor="start" x="121" y="-541.3" font-family="Times,serif" font-size="14.00">  ¬(0 ≤ k ∧ ¬(i!2255 ≤ k)) ∨</text>
<text text-anchor="start" x="121" y="-526.3" font-family="Times,serif" font-size="14.00">  ¬(If(k ≥ 0 ∧ ¬(Length(haystack) ≤ k),</text>
<text text-anchor="start" x="121" y="-511.3" font-family="Times,serif" font-size="14.00">       seq.nth_i(haystack, k),</text>
<text text-anchor="start" x="121" y="-496.3" font-family="Times,serif" font-size="14.00">       seq.nth_u(haystack, k)) =</text>
<text text-anchor="start" x="121" y="-481.3" font-family="Times,serif" font-size="14.00">    needle)), 0 ≤ i!2255 ∧ ¬(Length(haystack) ≤ i!2255), seq.nth_i(haystack, i!2255) = needle}, None, {haystack: haystack, needle: needle, i: i!2255})</text>
<text text-anchor="start" x="622.5" y="-460.3" font-family="Courier,monospace" font-size="14.00">return i</text>
</g>
<!-- 7&#45;&gt;8 -->
<g id="edge8" class="edge">
<title>7&#45;&gt;8</title>
<path fill="none" stroke="black" d="M660.15,-641.81C659.84,-633.35 659.53,-624.69 659.21,-616.12"/>
<polygon fill="black" stroke="black" points="662.71,-615.98 658.84,-606.12 655.71,-616.24 662.71,-615.98"/>
</g>
<!-- 9 -->
<g id="node10" class="node">
<title>9</title>
<polygon fill="#aeeeee" stroke="black" points="1228,-413 0,-413 0,-277 1228,-277 1228,-413"/>
<text text-anchor="start" x="12" y="-393.8" font-family="Times,serif" font-size="14.00">({0 ≤ i!2255 ∧</text>
<text text-anchor="start" x="12" y="-378.8" font-family="Times,serif" font-size="14.00">i!2255 ≤ Length(haystack) ∧</text>
<text text-anchor="start" x="12" y="-363.8" font-family="Times,serif" font-size="14.00">(∀k :</text>
<text text-anchor="start" x="12" y="-348.8" font-family="Times,serif" font-size="14.00">  ¬(0 ≤ k ∧ ¬(i!2255 ≤ k)) ∨</text>
<text text-anchor="start" x="12" y="-333.8" font-family="Times,serif" font-size="14.00">  ¬(If(k ≥ 0 ∧ ¬(Length(haystack) ≤ k),</text>
<text text-anchor="start" x="12" y="-318.8" font-family="Times,serif" font-size="14.00">       seq.nth_i(haystack, k),</text>
<text text-anchor="start" x="12" y="-303.8" font-family="Times,serif" font-size="14.00">       seq.nth_u(haystack, k)) =</text>
<text text-anchor="start" x="12" y="-288.8" font-family="Times,serif" font-size="14.00">    needle)), 0 ≤ i!2255 ∧ ¬(Length(haystack) ≤ i!2255), seq.nth_i(haystack, i!2255) = needle}, SymbolicReturn(i!2255), {haystack: haystack, needle: needle, i: i!2255})</text>
</g>
<!-- 8&#45;&gt;9 -->
<g id="edge9" class="edge">
<title>8&#45;&gt;9</title>
<path fill="none" stroke="black" d="M637.94,-448.9C635.95,-440.32 633.91,-431.58 631.92,-423"/>
<polygon fill="black" stroke="black" points="635.27,-421.97 629.6,-413.03 628.45,-423.56 635.27,-421.97"/>
</g>
<!-- 11 -->
<g id="node12" class="node">
<title>11</title>
<polygon fill="none" stroke="black" points="2389.5,-606 1242.5,-606 1242.5,-449 2389.5,-449 2389.5,-606"/>
<text text-anchor="start" x="1255" y="-586.3" font-family="Times,serif" font-size="14.00">({0 ≤ i!2255 ∧</text>
<text text-anchor="start" x="1255" y="-571.3" font-family="Times,serif" font-size="14.00">i!2255 ≤ Length(haystack) ∧</text>
<text text-anchor="start" x="1255" y="-556.3" font-family="Times,serif" font-size="14.00">(∀k :</text>
<text text-anchor="start" x="1255" y="-541.3" font-family="Times,serif" font-size="14.00">  ¬(0 ≤ k ∧ ¬(i!2255 ≤ k)) ∨</text>
<text text-anchor="start" x="1255" y="-526.3" font-family="Times,serif" font-size="14.00">  ¬(If(k ≥ 0 ∧ ¬(Length(haystack) ≤ k),</text>
<text text-anchor="start" x="1255" y="-511.3" font-family="Times,serif" font-size="14.00">       seq.nth_i(haystack, k),</text>
<text text-anchor="start" x="1255" y="-496.3" font-family="Times,serif" font-size="14.00">       seq.nth_u(haystack, k)) =</text>
<text text-anchor="start" x="1255" y="-481.3" font-family="Times,serif" font-size="14.00">    needle)), 0 ≤ i!2255 ∧ ¬(Length(haystack) ≤ i!2255), ¬(seq.nth_i(haystack, i!2255) = needle)}, None, {haystack: haystack, needle: needle, i: 1 + i!2255})</text>
<text text-anchor="start" x="1783" y="-460.3" font-family="Courier,monospace" font-size="14.00">continue</text>
</g>
<!-- 10&#45;&gt;11 -->
<g id="edge11" class="edge">
<title>10&#45;&gt;11</title>
<path fill="none" stroke="black" d="M1801.17,-641.81C1802.28,-633.35 1803.41,-624.69 1804.53,-616.12"/>
<polygon fill="black" stroke="black" points="1808.01,-616.49 1805.84,-606.12 1801.07,-615.58 1808.01,-616.49"/>
</g>
<!-- 12 -->
<g id="node13" class="node">
<title>12</title>
<polygon fill="none" stroke="black" points="2430,-413 1246,-413 1246,-277 2430,-277 2430,-413"/>
<text text-anchor="start" x="1258" y="-393.8" font-family="Times,serif" font-size="14.00">({0 ≤ i!2255 ∧</text>
<text text-anchor="start" x="1258" y="-378.8" font-family="Times,serif" font-size="14.00">i!2255 ≤ Length(haystack) ∧</text>
<text text-anchor="start" x="1258" y="-363.8" font-family="Times,serif" font-size="14.00">(∀k :</text>
<text text-anchor="start" x="1258" y="-348.8" font-family="Times,serif" font-size="14.00">  ¬(0 ≤ k ∧ ¬(i!2255 ≤ k)) ∨</text>
<text text-anchor="start" x="1258" y="-333.8" font-family="Times,serif" font-size="14.00">  ¬(If(k ≥ 0 ∧ ¬(Length(haystack) ≤ k),</text>
<text text-anchor="start" x="1258" y="-318.8" font-family="Times,serif" font-size="14.00">       seq.nth_i(haystack, k),</text>
<text text-anchor="start" x="1258" y="-303.8" font-family="Times,serif" font-size="14.00">       seq.nth_u(haystack, k)) =</text>
<text text-anchor="start" x="1258" y="-288.8" font-family="Times,serif" font-size="14.00">    needle)), 0 ≤ i!2255 ∧ ¬(Length(haystack) ≤ i!2255), ¬(seq.nth_i(haystack, i!2255) = needle)}, Continue(), {haystack: haystack, needle: needle, i: 1 + i!2255})</text>
</g>
<!-- 11&#45;&gt;12 -->
<g id="edge12" class="edge">
<title>11&#45;&gt;12</title>
<path fill="none" stroke="black" d="M1825.46,-448.9C1826.5,-440.32 1827.57,-431.58 1828.61,-423"/>
<polygon fill="black" stroke="black" points="1832.09,-423.38 1829.83,-413.03 1825.15,-422.53 1832.09,-423.38"/>
</g>
<!-- 13 -->
<g id="node14" class="node">
<title>13</title>
<polygon fill="#aeeeee" stroke="black" points="2413,-241 1263,-241 1263,0 2413,0 2413,-241"/>
<text text-anchor="start" x="1275" y="-221.3" font-family="Times,serif" font-size="14.00">({0 ≤ i!2255 ∧</text>
<text text-anchor="start" x="1275" y="-206.3" font-family="Times,serif" font-size="14.00">i!2255 ≤ Length(haystack) ∧</text>
<text text-anchor="start" x="1275" y="-191.3" font-family="Times,serif" font-size="14.00">(∀k :</text>
<text text-anchor="start" x="1275" y="-176.3" font-family="Times,serif" font-size="14.00">  ¬(0 ≤ k ∧ ¬(i!2255 ≤ k)) ∨</text>
<text text-anchor="start" x="1275" y="-161.3" font-family="Times,serif" font-size="14.00">  ¬(If(k ≥ 0 ∧ ¬(Length(haystack) ≤ k),</text>
<text text-anchor="start" x="1275" y="-146.3" font-family="Times,serif" font-size="14.00">       seq.nth_i(haystack, k),</text>
<text text-anchor="start" x="1275" y="-131.3" font-family="Times,serif" font-size="14.00">       seq.nth_u(haystack, k)) =</text>
<text text-anchor="start" x="1275" y="-116.3" font-family="Times,serif" font-size="14.00">    needle)), &#45;1 ≤ i!2255 ∧</text>
<text text-anchor="start" x="1275" y="-101.3" font-family="Times,serif" font-size="14.00">i!2255 ≤ &#45;1 + Length(haystack) ∧</text>
<text text-anchor="start" x="1275" y="-86.3" font-family="Times,serif" font-size="14.00">(∀k :</text>
<text text-anchor="start" x="1275" y="-71.3" font-family="Times,serif" font-size="14.00">  ¬(0 ≤ k ∧ ¬(i!2255 ≤ &#45;1 + k)) ∨</text>
<text text-anchor="start" x="1275" y="-56.3" font-family="Times,serif" font-size="14.00">  ¬(If(k ≥ 0 ∧ ¬(Length(haystack) ≤ k),</text>
<text text-anchor="start" x="1275" y="-41.3" font-family="Times,serif" font-size="14.00">       seq.nth_i(haystack, k),</text>
<text text-anchor="start" x="1275" y="-26.3" font-family="Times,serif" font-size="14.00">       seq.nth_u(haystack, k)) =</text>
<text text-anchor="start" x="1275" y="-11.3" font-family="Times,serif" font-size="14.00">    needle)), 0 ≤ i!2255 ∧ ¬(Length(haystack) ≤ i!2255), ¬(seq.nth_i(haystack, i!2255) = needle)}, Halt(), {haystack: haystack, needle: needle, i: 1 + i!2255})</text>
</g>
<!-- 12&#45;&gt;13 -->
<g id="edge13" class="edge">
<title>12&#45;&gt;13</title>
<path fill="none" stroke="black" d="M1838,-276.94C1838,-268.67 1838,-260 1838,-251.18"/>
<polygon fill="black" stroke="black" points="1841.5,-251.16 1838,-241.16 1834.5,-251.16 1841.5,-251.16"/>
</g>
<!-- 15 -->
<g id="node16" class="node">
<title>15</title>
<polygon fill="#aeeeee" stroke="black" points="2974,-788.5 2368,-788.5 2368,-652.5 2974,-652.5 2974,-788.5"/>
<text text-anchor="start" x="2380" y="-769.3" font-family="Times,serif" font-size="14.00">({Length(haystack) ≤ i!2255, 0 ≤ i!2255 ∧</text>
<text text-anchor="start" x="2380" y="-754.3" font-family="Times,serif" font-size="14.00">i!2255 ≤ Length(haystack) ∧</text>
<text text-anchor="start" x="2380" y="-739.3" font-family="Times,serif" font-size="14.00">(∀k :</text>
<text text-anchor="start" x="2380" y="-724.3" font-family="Times,serif" font-size="14.00">  ¬(0 ≤ k ∧ ¬(i!2255 ≤ k)) ∨</text>
<text text-anchor="start" x="2380" y="-709.3" font-family="Times,serif" font-size="14.00">  ¬(If(k ≥ 0 ∧ ¬(Length(haystack) ≤ k),</text>
<text text-anchor="start" x="2380" y="-694.3" font-family="Times,serif" font-size="14.00">       seq.nth_i(haystack, k),</text>
<text text-anchor="start" x="2380" y="-679.3" font-family="Times,serif" font-size="14.00">       seq.nth_u(haystack, k)) =</text>
<text text-anchor="start" x="2380" y="-664.3" font-family="Times,serif" font-size="14.00">    needle))}, SymbolicReturn(&#45;1), {haystack: haystack, needle: needle, i: i!2255})</text>
</g>
<!-- 14&#45;&gt;15 -->
<g id="edge15" class="edge">
<title>14&#45;&gt;15</title>
<path fill="none" stroke="black" d="M2564.81,-834.81C2576.78,-822.04 2589.17,-808.82 2601.07,-796.12"/>
<polygon fill="black" stroke="black" points="2603.73,-798.4 2608.02,-788.71 2598.63,-793.61 2603.73,-798.4"/>
</g>
</g>
</svg>
