<?xml version="1.0" encoding="UTF-8" standalone="no"?>
<!DOCTYPE svg PUBLIC "-//W3C//DTD SVG 1.1//EN"
 "http://www.w3.org/Graphics/SVG/1.1/DTD/svg11.dtd">
<!-- Generated by graphviz version 2.43.0 (0)
 -->
<!-- Title: %3 Pages: 1 -->
<svg width="2156pt" height="2111pt"
 viewBox="0.00 0.00 2155.50 2111.00" xmlns="http://www.w3.org/2000/svg" xmlns:xlink="http://www.w3.org/1999/xlink">
<g id="graph0" class="graph" transform="scale(1 1) rotate(0) translate(4 2107)">
<title>%3</title>
<polygon fill="white" stroke="transparent" points="-4,4 -4,-2107 2151.5,-2107 2151.5,4 -4,4"/>
<!-- 0 -->
<g id="node1" class="node">
<title>0</title>
<polygon fill="none" stroke="black" points="1572,-2103 1168,-2103 1168,-2051 1572,-2051 1572,-2103"/>
<text text-anchor="start" x="1195" y="-2083.8" font-family="Times,serif" font-size="14.00">({}, None, {haystack: haystack, needle: needle})</text>
<text text-anchor="start" x="1180" y="-2062.8" font-family="Courier,monospace" font-size="14.00">def find(needle: int, haystack: tuple) &#45;&gt; int:</text>
</g>
<!-- 1 -->
<g id="node2" class="node">
<title>1</title>
<polygon fill="none" stroke="black" points="1557,-2015 1183,-2015 1183,-1963 1557,-1963 1557,-2015"/>
<text text-anchor="start" x="1195" y="-1995.8" font-family="Times,serif" font-size="14.00">({}, None, {haystack: haystack, needle: needle})</text>
<text text-anchor="start" x="1258.5" y="-1974.8" font-family="Courier,monospace" font-size="14.00">method&#45;frame(result=var_0):</text>
</g>
<!-- 0&#45;&gt;1 -->
<g id="edge1" class="edge">
<title>0&#45;&gt;1</title>
<path fill="none" stroke="black" d="M1370,-2050.66C1370,-2042.7 1370,-2033.76 1370,-2025.24"/>
<polygon fill="black" stroke="black" points="1373.5,-2025.16 1370,-2015.16 1366.5,-2025.16 1373.5,-2025.16"/>
</g>
<!-- 2 -->
<g id="node3" class="node">
<title>2</title>
<polygon fill="none" stroke="black" points="1557,-1927 1183,-1927 1183,-1875 1557,-1875 1557,-1927"/>
<text text-anchor="start" x="1195" y="-1907.8" font-family="Times,serif" font-size="14.00">({}, None, {haystack: haystack, needle: needle})</text>
<text text-anchor="start" x="1308" y="-1886.8" font-family="Courier,monospace" font-size="14.00">needle = needle</text>
</g>
<!-- 1&#45;&gt;2 -->
<g id="edge2" class="edge">
<title>1&#45;&gt;2</title>
<path fill="none" stroke="black" d="M1370,-1962.66C1370,-1954.7 1370,-1945.76 1370,-1937.24"/>
<polygon fill="black" stroke="black" points="1373.5,-1937.16 1370,-1927.16 1366.5,-1937.16 1373.5,-1937.16"/>
</g>
<!-- 3 -->
<g id="node4" class="node">
<title>3</title>
<polygon fill="none" stroke="black" points="1557,-1839 1183,-1839 1183,-1787 1557,-1787 1557,-1839"/>
<text text-anchor="start" x="1195" y="-1819.8" font-family="Times,serif" font-size="14.00">({}, None, {haystack: haystack, needle: needle})</text>
<text text-anchor="start" x="1291.5" y="-1798.8" font-family="Courier,monospace" font-size="14.00">haystack = haystack</text>
</g>
<!-- 2&#45;&gt;3 -->
<g id="edge3" class="edge">
<title>2&#45;&gt;3</title>
<path fill="none" stroke="black" d="M1370,-1874.66C1370,-1866.7 1370,-1857.76 1370,-1849.24"/>
<polygon fill="black" stroke="black" points="1373.5,-1849.16 1370,-1839.16 1366.5,-1849.16 1373.5,-1849.16"/>
</g>
<!-- 4 -->
<g id="node5" class="node">
<title>4</title>
<polygon fill="none" stroke="black" points="1557,-1751 1183,-1751 1183,-1699 1557,-1699 1557,-1751"/>
<text text-anchor="start" x="1195" y="-1731.8" font-family="Times,serif" font-size="14.00">({}, None, {haystack: haystack, needle: needle})</text>
<text text-anchor="start" x="1349" y="-1710.8" font-family="Courier,monospace" font-size="14.00">i = 0</text>
</g>
<!-- 3&#45;&gt;4 -->
<g id="edge4" class="edge">
<title>3&#45;&gt;4</title>
<path fill="none" stroke="black" d="M1370,-1786.66C1370,-1778.7 1370,-1769.76 1370,-1761.24"/>
<polygon fill="black" stroke="black" points="1373.5,-1761.16 1370,-1751.16 1366.5,-1761.16 1373.5,-1761.16"/>
</g>
<!-- 5 -->
<g id="node6" class="node">
<title>5</title>
<polygon fill="none" stroke="black" points="1573,-1663 1167,-1663 1167,-1611 1573,-1611 1573,-1663"/>
<text text-anchor="start" x="1179" y="-1643.8" font-family="Times,serif" font-size="14.00">({}, None, {haystack: haystack, needle: needle, i: 0})</text>
<text text-anchor="start" x="1242" y="-1622.8" font-family="Courier,monospace" font-size="14.00">assert Inv(i, needle, haystack)</text>
</g>
<!-- 4&#45;&gt;5 -->
<g id="edge5" class="edge">
<title>4&#45;&gt;5</title>
<path fill="none" stroke="black" d="M1370,-1698.66C1370,-1690.7 1370,-1681.76 1370,-1673.24"/>
<polygon fill="black" stroke="black" points="1373.5,-1673.16 1370,-1663.16 1366.5,-1673.16 1373.5,-1673.16"/>
</g>
<!-- 6 -->
<g id="node7" class="node">
<title>6</title>
<polygon fill="none" stroke="black" points="1573,-1575 1167,-1575 1167,-1523 1573,-1523 1573,-1575"/>
<text text-anchor="start" x="1179" y="-1555.8" font-family="Times,serif" font-size="14.00">({}, None, {haystack: haystack, needle: needle, i: 0})</text>
<text text-anchor="start" x="1341" y="-1534.8" font-family="Courier,monospace" font-size="14.00">havoc i</text>
</g>
<!-- 5&#45;&gt;6 -->
<g id="edge6" class="edge">
<title>5&#45;&gt;6</title>
<path fill="none" stroke="black" d="M1370,-1610.66C1370,-1602.7 1370,-1593.76 1370,-1585.24"/>
<polygon fill="black" stroke="black" points="1373.5,-1585.16 1370,-1575.16 1366.5,-1585.16 1373.5,-1585.16"/>
</g>
<!-- 7 -->
<g id="node8" class="node">
<title>7</title>
<polygon fill="none" stroke="black" points="1591.5,-1487 1148.5,-1487 1148.5,-1435 1591.5,-1435 1591.5,-1487"/>
<text text-anchor="start" x="1161" y="-1467.8" font-family="Times,serif" font-size="14.00">({}, None, {haystack: haystack, needle: needle, i: i!2392})</text>
<text text-anchor="start" x="1242.5" y="-1446.8" font-family="Courier,monospace" font-size="14.00">assume Inv(i, needle, haystack)</text>
</g>
<!-- 6&#45;&gt;7 -->
<g id="edge7" class="edge">
<title>6&#45;&gt;7</title>
<path fill="none" stroke="black" d="M1370,-1522.66C1370,-1514.7 1370,-1505.76 1370,-1497.24"/>
<polygon fill="black" stroke="black" points="1373.5,-1497.16 1370,-1487.16 1366.5,-1497.16 1373.5,-1497.16"/>
</g>
<!-- 8 -->
<g id="node9" class="node">
<title>8</title>
<polygon fill="none" stroke="black" points="1622.5,-1399 1117.5,-1399 1117.5,-1242 1622.5,-1242 1622.5,-1399"/>
<text text-anchor="start" x="1130" y="-1379.3" font-family="Times,serif" font-size="14.00">({0 ≤ i!2392 ∧</text>
<text text-anchor="start" x="1130" y="-1364.3" font-family="Times,serif" font-size="14.00">i!2392 ≤ Length(haystack) ∧</text>
<text text-anchor="start" x="1130" y="-1349.3" font-family="Times,serif" font-size="14.00">(∀k :</text>
<text text-anchor="start" x="1130" y="-1334.3" font-family="Times,serif" font-size="14.00">  ¬(0 ≤ k ∧ ¬(i!2392 ≤ k)) ∨</text>
<text text-anchor="start" x="1130" y="-1319.3" font-family="Times,serif" font-size="14.00">  ¬(If(k ≥ 0 ∧ ¬(Length(haystack) ≤ k),</text>
<text text-anchor="start" x="1130" y="-1304.3" font-family="Times,serif" font-size="14.00">       seq.nth_i(haystack, k),</text>
<text text-anchor="start" x="1130" y="-1289.3" font-family="Times,serif" font-size="14.00">       seq.nth_u(haystack, k)) =</text>
<text text-anchor="start" x="1130" y="-1274.3" font-family="Times,serif" font-size="14.00">    needle))}, None, {haystack: haystack, needle: needle, i: i!2392})</text>
<text text-anchor="start" x="1201" y="-1253.3" font-family="Courier,monospace" font-size="14.00">loop&#45;scope(inv=Inv(i, needle, haystack)):</text>
</g>
<!-- 7&#45;&gt;8 -->
<g id="edge8" class="edge">
<title>7&#45;&gt;8</title>
<path fill="none" stroke="black" d="M1370,-1434.92C1370,-1427.36 1370,-1418.6 1370,-1409.36"/>
<polygon fill="black" stroke="black" points="1373.5,-1409.19 1370,-1399.19 1366.5,-1409.19 1373.5,-1409.19"/>
</g>
<!-- 9 -->
<g id="node10" class="node">
<title>9</title>
<polygon fill="none" stroke="black" points="1622.5,-1206 1117.5,-1206 1117.5,-1049 1622.5,-1049 1622.5,-1206"/>
<text text-anchor="start" x="1130" y="-1186.3" font-family="Times,serif" font-size="14.00">({0 ≤ i!2392 ∧</text>
<text text-anchor="start" x="1130" y="-1171.3" font-family="Times,serif" font-size="14.00">i!2392 ≤ Length(haystack) ∧</text>
<text text-anchor="start" x="1130" y="-1156.3" font-family="Times,serif" font-size="14.00">(∀k :</text>
<text text-anchor="start" x="1130" y="-1141.3" font-family="Times,serif" font-size="14.00">  ¬(0 ≤ k ∧ ¬(i!2392 ≤ k)) ∨</text>
<text text-anchor="start" x="1130" y="-1126.3" font-family="Times,serif" font-size="14.00">  ¬(If(k ≥ 0 ∧ ¬(Length(haystack) ≤ k),</text>
<text text-anchor="start" x="1130" y="-1111.3" font-family="Times,serif" font-size="14.00">       seq.nth_i(haystack, k),</text>
<text text-anchor="start" x="1130" y="-1096.3" font-family="Times,serif" font-size="14.00">       seq.nth_u(haystack, k)) =</text>
<text text-anchor="start" x="1130" y="-1081.3" font-family="Times,serif" font-size="14.00">    needle))}, None, {haystack: haystack, needle: needle, i: i!2392})</text>
<text text-anchor="start" x="1275.5" y="-1060.3" font-family="Courier,monospace" font-size="14.00">if (i &lt; len(haystack)):</text>
</g>
<!-- 8&#45;&gt;9 -->
<g id="edge9" class="edge">
<title>8&#45;&gt;9</title>
<path fill="none" stroke="black" d="M1370,-1241.81C1370,-1233.35 1370,-1224.69 1370,-1216.12"/>
<polygon fill="black" stroke="black" points="1373.5,-1216.12 1370,-1206.12 1366.5,-1216.12 1373.5,-1216.12"/>
</g>
<!-- 10 -->
<g id="node11" class="node">
<title>10</title>
<polygon fill="none" stroke="black" points="1361.5,-1013 856.5,-1013 856.5,-856 1361.5,-856 1361.5,-1013"/>
<text text-anchor="start" x="869" y="-993.3" font-family="Times,serif" font-size="14.00">({¬(Length(haystack) ≤ i!2392), 0 ≤ i!2392 ∧</text>
<text text-anchor="start" x="869" y="-978.3" font-family="Times,serif" font-size="14.00">i!2392 ≤ Length(haystack) ∧</text>
<text text-anchor="start" x="869" y="-963.3" font-family="Times,serif" font-size="14.00">(∀k :</text>
<text text-anchor="start" x="869" y="-948.3" font-family="Times,serif" font-size="14.00">  ¬(0 ≤ k ∧ ¬(i!2392 ≤ k)) ∨</text>
<text text-anchor="start" x="869" y="-933.3" font-family="Times,serif" font-size="14.00">  ¬(If(k ≥ 0 ∧ ¬(Length(haystack) ≤ k),</text>
<text text-anchor="start" x="869" y="-918.3" font-family="Times,serif" font-size="14.00">       seq.nth_i(haystack, k),</text>
<text text-anchor="start" x="869" y="-903.3" font-family="Times,serif" font-size="14.00">       seq.nth_u(haystack, k)) =</text>
<text text-anchor="start" x="869" y="-888.3" font-family="Times,serif" font-size="14.00">    needle))}, None, {haystack: haystack, needle: needle, i: i!2392})</text>
<text text-anchor="start" x="998" y="-867.3" font-family="Courier,monospace" font-size="14.00">if (haystack[i] == needle):</text>
</g>
<!-- 9&#45;&gt;10 -->
<g id="edge10" class="edge">
<title>9&#45;&gt;10</title>
<path fill="none" stroke="black" d="M1263.84,-1048.81C1250.52,-1039.06 1236.84,-1029.06 1223.4,-1019.22"/>
<polygon fill="black" stroke="black" points="1225.2,-1016.2 1215.06,-1013.12 1221.07,-1021.85 1225.2,-1016.2"/>
</g>
<!-- 19 -->
<g id="node20" class="node">
<title>19</title>
<polygon fill="none" stroke="black" points="1961.5,-1013 1456.5,-1013 1456.5,-856 1961.5,-856 1961.5,-1013"/>
<text text-anchor="start" x="1469" y="-993.3" font-family="Times,serif" font-size="14.00">({Length(haystack) ≤ i!2392, 0 ≤ i!2392 ∧</text>
<text text-anchor="start" x="1469" y="-978.3" font-family="Times,serif" font-size="14.00">i!2392 ≤ Length(haystack) ∧</text>
<text text-anchor="start" x="1469" y="-963.3" font-family="Times,serif" font-size="14.00">(∀k :</text>
<text text-anchor="start" x="1469" y="-948.3" font-family="Times,serif" font-size="14.00">  ¬(0 ≤ k ∧ ¬(i!2392 ≤ k)) ∨</text>
<text text-anchor="start" x="1469" y="-933.3" font-family="Times,serif" font-size="14.00">  ¬(If(k ≥ 0 ∧ ¬(Length(haystack) ≤ k),</text>
<text text-anchor="start" x="1469" y="-918.3" font-family="Times,serif" font-size="14.00">       seq.nth_i(haystack, k),</text>
<text text-anchor="start" x="1469" y="-903.3" font-family="Times,serif" font-size="14.00">       seq.nth_u(haystack, k)) =</text>
<text text-anchor="start" x="1469" y="-888.3" font-family="Times,serif" font-size="14.00">    needle))}, None, {haystack: haystack, needle: needle, i: i!2392})</text>
<text text-anchor="start" x="1672" y="-867.3" font-family="Courier,monospace" font-size="14.00">return &#45;1</text>
</g>
<!-- 9&#45;&gt;19 -->
<g id="edge19" class="edge">
<title>9&#45;&gt;19</title>
<path fill="none" stroke="black" d="M1507.88,-1048.81C1525.84,-1038.69 1544.29,-1028.3 1562.39,-1018.1"/>
<polygon fill="black" stroke="black" points="1564.24,-1021.08 1571.24,-1013.12 1560.81,-1014.98 1564.24,-1021.08"/>
</g>
<!-- 11 -->
<g id="node12" class="node">
<title>11</title>
<polygon fill="none" stroke="black" points="720,-820 0,-820 0,-663 720,-663 720,-820"/>
<text text-anchor="start" x="12" y="-800.3" font-family="Times,serif" font-size="14.00">({seq.nth_i(haystack, i!2392) = needle, 0 ≤ i!2392 ∧ ¬(Length(haystack) ≤ i!2392), 0 ≤ i!2392 ∧</text>
<text text-anchor="start" x="12" y="-785.3" font-family="Times,serif" font-size="14.00">i!2392 ≤ Length(haystack) ∧</text>
<text text-anchor="start" x="12" y="-770.3" font-family="Times,serif" font-size="14.00">(∀k :</text>
<text text-anchor="start" x="12" y="-755.3" font-family="Times,serif" font-size="14.00">  ¬(0 ≤ k ∧ ¬(i!2392 ≤ k)) ∨</text>
<text text-anchor="start" x="12" y="-740.3" font-family="Times,serif" font-size="14.00">  ¬(If(k ≥ 0 ∧ ¬(Length(haystack) ≤ k),</text>
<text text-anchor="start" x="12" y="-725.3" font-family="Times,serif" font-size="14.00">       seq.nth_i(haystack, k),</text>
<text text-anchor="start" x="12" y="-710.3" font-family="Times,serif" font-size="14.00">       seq.nth_u(haystack, k)) =</text>
<text text-anchor="start" x="12" y="-695.3" font-family="Times,serif" font-size="14.00">    needle))}, None, {haystack: haystack, needle: needle, i: i!2392})</text>
<text text-anchor="start" x="339" y="-674.3" font-family="Courier,monospace" font-size="14.00">break</text>
</g>
<!-- 10&#45;&gt;11 -->
<g id="edge11" class="edge">
<title>10&#45;&gt;11</title>
<path fill="none" stroke="black" d="M856.47,-869.1C797.81,-854.15 734.68,-838.04 673.74,-822.51"/>
<polygon fill="black" stroke="black" points="674.54,-819.1 663.99,-820.02 672.81,-825.88 674.54,-819.1"/>
</g>
<!-- 15 -->
<g id="node16" class="node">
<title>15</title>
<polygon fill="none" stroke="black" points="1480,-820 738,-820 738,-663 1480,-663 1480,-820"/>
<text text-anchor="start" x="750" y="-800.3" font-family="Times,serif" font-size="14.00">({¬(seq.nth_i(haystack, i!2392) = needle), 0 ≤ i!2392 ∧ ¬(Length(haystack) ≤ i!2392), 0 ≤ i!2392 ∧</text>
<text text-anchor="start" x="750" y="-785.3" font-family="Times,serif" font-size="14.00">i!2392 ≤ Length(haystack) ∧</text>
<text text-anchor="start" x="750" y="-770.3" font-family="Times,serif" font-size="14.00">(∀k :</text>
<text text-anchor="start" x="750" y="-755.3" font-family="Times,serif" font-size="14.00">  ¬(0 ≤ k ∧ ¬(i!2392 ≤ k)) ∨</text>
<text text-anchor="start" x="750" y="-740.3" font-family="Times,serif" font-size="14.00">  ¬(If(k ≥ 0 ∧ ¬(Length(haystack) ≤ k),</text>
<text text-anchor="start" x="750" y="-725.3" font-family="Times,serif" font-size="14.00">       seq.nth_i(haystack, k),</text>
<text text-anchor="start" x="750" y="-710.3" font-family="Times,serif" font-size="14.00">       seq.nth_u(haystack, k)) =</text>
<text text-anchor="start" x="750" y="-695.3" font-family="Times,serif" font-size="14.00">    needle))}, None, {haystack: haystack, needle: needle, i: i!2392})</text>
<text text-anchor="start" x="1063.5" y="-674.3" font-family="Courier,monospace" font-size="14.00">i = (i + 1)</text>
</g>
<!-- 10&#45;&gt;15 -->
<g id="edge15" class="edge">
<title>10&#45;&gt;15</title>
<path fill="none" stroke="black" d="M1109,-855.81C1109,-847.35 1109,-838.69 1109,-830.12"/>
<polygon fill="black" stroke="black" points="1112.5,-830.12 1109,-820.12 1105.5,-830.12 1112.5,-830.12"/>
</g>
<!-- 12 -->
<g id="node13" class="node">
<title>12</title>
<polygon fill="none" stroke="black" points="720,-627 0,-627 0,-470 720,-470 720,-627"/>
<text text-anchor="start" x="12" y="-607.3" font-family="Times,serif" font-size="14.00">({seq.nth_i(haystack, i!2392) = needle, 0 ≤ i!2392 ∧ ¬(Length(haystack) ≤ i!2392), 0 ≤ i!2392 ∧</text>
<text text-anchor="start" x="12" y="-592.3" font-family="Times,serif" font-size="14.00">i!2392 ≤ Length(haystack) ∧</text>
<text text-anchor="start" x="12" y="-577.3" font-family="Times,serif" font-size="14.00">(∀k :</text>
<text text-anchor="start" x="12" y="-562.3" font-family="Times,serif" font-size="14.00">  ¬(0 ≤ k ∧ ¬(i!2392 ≤ k)) ∨</text>
<text text-anchor="start" x="12" y="-547.3" font-family="Times,serif" font-size="14.00">  ¬(If(k ≥ 0 ∧ ¬(Length(haystack) ≤ k),</text>
<text text-anchor="start" x="12" y="-532.3" font-family="Times,serif" font-size="14.00">       seq.nth_i(haystack, k),</text>
<text text-anchor="start" x="12" y="-517.3" font-family="Times,serif" font-size="14.00">       seq.nth_u(haystack, k)) =</text>
<text text-anchor="start" x="12" y="-502.3" font-family="Times,serif" font-size="14.00">    needle))}, None, {haystack: haystack, needle: needle, i: i!2392})</text>
<text text-anchor="start" x="326.5" y="-481.3" font-family="Courier,monospace" font-size="14.00">return i</text>
</g>
<!-- 11&#45;&gt;12 -->
<g id="edge12" class="edge">
<title>11&#45;&gt;12</title>
<path fill="none" stroke="black" d="M360,-662.81C360,-654.35 360,-645.69 360,-637.12"/>
<polygon fill="black" stroke="black" points="363.5,-637.12 360,-627.12 356.5,-637.12 363.5,-637.12"/>
</g>
<!-- 13 -->
<g id="node14" class="node">
<title>13</title>
<polygon fill="none" stroke="black" points="720,-434 0,-434 0,-277 720,-277 720,-434"/>
<text text-anchor="start" x="12" y="-414.3" font-family="Times,serif" font-size="14.00">({seq.nth_i(haystack, i!2392) = needle, 0 ≤ i!2392 ∧ ¬(Length(haystack) ≤ i!2392), 0 ≤ i!2392 ∧</text>
<text text-anchor="start" x="12" y="-399.3" font-family="Times,serif" font-size="14.00">i!2392 ≤ Length(haystack) ∧</text>
<text text-anchor="start" x="12" y="-384.3" font-family="Times,serif" font-size="14.00">(∀k :</text>
<text text-anchor="start" x="12" y="-369.3" font-family="Times,serif" font-size="14.00">  ¬(0 ≤ k ∧ ¬(i!2392 ≤ k)) ∨</text>
<text text-anchor="start" x="12" y="-354.3" font-family="Times,serif" font-size="14.00">  ¬(If(k ≥ 0 ∧ ¬(Length(haystack) ≤ k),</text>
<text text-anchor="start" x="12" y="-339.3" font-family="Times,serif" font-size="14.00">       seq.nth_i(haystack, k),</text>
<text text-anchor="start" x="12" y="-324.3" font-family="Times,serif" font-size="14.00">       seq.nth_u(haystack, k)) =</text>
<text text-anchor="start" x="12" y="-309.3" font-family="Times,serif" font-size="14.00">    needle))}, None, {haystack: haystack, needle: needle, i: i!2392, var_0: i!2392})</text>
<text text-anchor="start" x="302" y="-288.3" font-family="Courier,monospace" font-size="14.00">result = var_0</text>
</g>
<!-- 12&#45;&gt;13 -->
<g id="edge13" class="edge">
<title>12&#45;&gt;13</title>
<path fill="none" stroke="black" d="M360,-469.81C360,-461.35 360,-452.69 360,-444.12"/>
<polygon fill="black" stroke="black" points="363.5,-444.12 360,-434.12 356.5,-444.12 363.5,-444.12"/>
</g>
<!-- 14 -->
<g id="node15" class="node">
<title>14</title>
<polygon fill="#aeeeee" stroke="black" points="720,-188.5 0,-188.5 0,-52.5 720,-52.5 720,-188.5"/>
<text text-anchor="start" x="12" y="-169.3" font-family="Times,serif" font-size="14.00">({seq.nth_i(haystack, i!2392) = needle, 0 ≤ i!2392 ∧ ¬(Length(haystack) ≤ i!2392), 0 ≤ i!2392 ∧</text>
<text text-anchor="start" x="12" y="-154.3" font-family="Times,serif" font-size="14.00">i!2392 ≤ Length(haystack) ∧</text>
<text text-anchor="start" x="12" y="-139.3" font-family="Times,serif" font-size="14.00">(∀k :</text>
<text text-anchor="start" x="12" y="-124.3" font-family="Times,serif" font-size="14.00">  ¬(0 ≤ k ∧ ¬(i!2392 ≤ k)) ∨</text>
<text text-anchor="start" x="12" y="-109.3" font-family="Times,serif" font-size="14.00">  ¬(If(k ≥ 0 ∧ ¬(Length(haystack) ≤ k),</text>
<text text-anchor="start" x="12" y="-94.3" font-family="Times,serif" font-size="14.00">       seq.nth_i(haystack, k),</text>
<text text-anchor="start" x="12" y="-79.3" font-family="Times,serif" font-size="14.00">       seq.nth_u(haystack, k)) =</text>
<text text-anchor="start" x="12" y="-64.3" font-family="Times,serif" font-size="14.00">    needle))}, None, {haystack: haystack, needle: needle, i: i!2392, var_0: i!2392, result: i!2392})</text>
</g>
<!-- 13&#45;&gt;14 -->
<g id="edge14" class="edge">
<title>13&#45;&gt;14</title>
<path fill="none" stroke="black" d="M360,-276.91C360,-251.78 360,-223.92 360,-198.81"/>
<polygon fill="black" stroke="black" points="363.5,-198.6 360,-188.6 356.5,-198.6 363.5,-198.6"/>
</g>
<!-- 16 -->
<g id="node17" class="node">
<title>16</title>
<polygon fill="none" stroke="black" points="1480,-627 738,-627 738,-470 1480,-470 1480,-627"/>
<text text-anchor="start" x="750" y="-607.3" font-family="Times,serif" font-size="14.00">({¬(seq.nth_i(haystack, i!2392) = needle), 0 ≤ i!2392 ∧ ¬(Length(haystack) ≤ i!2392), 0 ≤ i!2392 ∧</text>
<text text-anchor="start" x="750" y="-592.3" font-family="Times,serif" font-size="14.00">i!2392 ≤ Length(haystack) ∧</text>
<text text-anchor="start" x="750" y="-577.3" font-family="Times,serif" font-size="14.00">(∀k :</text>
<text text-anchor="start" x="750" y="-562.3" font-family="Times,serif" font-size="14.00">  ¬(0 ≤ k ∧ ¬(i!2392 ≤ k)) ∨</text>
<text text-anchor="start" x="750" y="-547.3" font-family="Times,serif" font-size="14.00">  ¬(If(k ≥ 0 ∧ ¬(Length(haystack) ≤ k),</text>
<text text-anchor="start" x="750" y="-532.3" font-family="Times,serif" font-size="14.00">       seq.nth_i(haystack, k),</text>
<text text-anchor="start" x="750" y="-517.3" font-family="Times,serif" font-size="14.00">       seq.nth_u(haystack, k)) =</text>
<text text-anchor="start" x="750" y="-502.3" font-family="Times,serif" font-size="14.00">    needle))}, None, {haystack: haystack, needle: needle, i: 1 + i!2392})</text>
<text text-anchor="start" x="1075.5" y="-481.3" font-family="Courier,monospace" font-size="14.00">continue</text>
</g>
<!-- 15&#45;&gt;16 -->
<g id="edge16" class="edge">
<title>15&#45;&gt;16</title>
<path fill="none" stroke="black" d="M1109,-662.81C1109,-654.35 1109,-645.69 1109,-637.12"/>
<polygon fill="black" stroke="black" points="1112.5,-637.12 1109,-627.12 1105.5,-637.12 1112.5,-637.12"/>
</g>
<!-- 17 -->
<g id="node18" class="node">
<title>17</title>
<polygon fill="none" stroke="black" points="1480,-423.5 738,-423.5 738,-287.5 1480,-287.5 1480,-423.5"/>
<text text-anchor="start" x="750" y="-404.3" font-family="Times,serif" font-size="14.00">({¬(seq.nth_i(haystack, i!2392) = needle), 0 ≤ i!2392 ∧ ¬(Length(haystack) ≤ i!2392), 0 ≤ i!2392 ∧</text>
<text text-anchor="start" x="750" y="-389.3" font-family="Times,serif" font-size="14.00">i!2392 ≤ Length(haystack) ∧</text>
<text text-anchor="start" x="750" y="-374.3" font-family="Times,serif" font-size="14.00">(∀k :</text>
<text text-anchor="start" x="750" y="-359.3" font-family="Times,serif" font-size="14.00">  ¬(0 ≤ k ∧ ¬(i!2392 ≤ k)) ∨</text>
<text text-anchor="start" x="750" y="-344.3" font-family="Times,serif" font-size="14.00">  ¬(If(k ≥ 0 ∧ ¬(Length(haystack) ≤ k),</text>
<text text-anchor="start" x="750" y="-329.3" font-family="Times,serif" font-size="14.00">       seq.nth_i(haystack, k),</text>
<text text-anchor="start" x="750" y="-314.3" font-family="Times,serif" font-size="14.00">       seq.nth_u(haystack, k)) =</text>
<text text-anchor="start" x="750" y="-299.3" font-family="Times,serif" font-size="14.00">    needle))}, Continue(), {haystack: haystack, needle: needle, i: 1 + i!2392})</text>
</g>
<!-- 16&#45;&gt;17 -->
<g id="edge17" class="edge">
<title>16&#45;&gt;17</title>
<path fill="none" stroke="black" d="M1109,-469.81C1109,-457.99 1109,-445.79 1109,-433.97"/>
<polygon fill="black" stroke="black" points="1112.5,-433.71 1109,-423.71 1105.5,-433.71 1112.5,-433.71"/>
</g>
<!-- 18 -->
<g id="node19" class="node">
<title>18</title>
<polygon fill="#aeeeee" stroke="black" points="1378,-241 840,-241 840,0 1378,0 1378,-241"/>
<text text-anchor="start" x="852" y="-221.3" font-family="Times,serif" font-size="14.00">({¬(seq.nth_i(haystack, i!2392) = needle), &#45;1 ≤ i!2392 ∧</text>
<text text-anchor="start" x="852" y="-206.3" font-family="Times,serif" font-size="14.00">i!2392 ≤ &#45;1 + Length(haystack) ∧</text>
<text text-anchor="start" x="852" y="-191.3" font-family="Times,serif" font-size="14.00">(∀k :</text>
<text text-anchor="start" x="852" y="-176.3" font-family="Times,serif" font-size="14.00">  ¬(0 ≤ k ∧ ¬(i!2392 ≤ &#45;1 + k)) ∨</text>
<text text-anchor="start" x="852" y="-161.3" font-family="Times,serif" font-size="14.00">  ¬(If(k ≥ 0 ∧ ¬(Length(haystack) ≤ k),</text>
<text text-anchor="start" x="852" y="-146.3" font-family="Times,serif" font-size="14.00">       seq.nth_i(haystack, k),</text>
<text text-anchor="start" x="852" y="-131.3" font-family="Times,serif" font-size="14.00">       seq.nth_u(haystack, k)) =</text>
<text text-anchor="start" x="852" y="-116.3" font-family="Times,serif" font-size="14.00">    needle)), 0 ≤ i!2392 ∧ ¬(Length(haystack) ≤ i!2392), 0 ≤ i!2392 ∧</text>
<text text-anchor="start" x="852" y="-101.3" font-family="Times,serif" font-size="14.00">i!2392 ≤ Length(haystack) ∧</text>
<text text-anchor="start" x="852" y="-86.3" font-family="Times,serif" font-size="14.00">(∀k :</text>
<text text-anchor="start" x="852" y="-71.3" font-family="Times,serif" font-size="14.00">  ¬(0 ≤ k ∧ ¬(i!2392 ≤ k)) ∨</text>
<text text-anchor="start" x="852" y="-56.3" font-family="Times,serif" font-size="14.00">  ¬(If(k ≥ 0 ∧ ¬(Length(haystack) ≤ k),</text>
<text text-anchor="start" x="852" y="-41.3" font-family="Times,serif" font-size="14.00">       seq.nth_i(haystack, k),</text>
<text text-anchor="start" x="852" y="-26.3" font-family="Times,serif" font-size="14.00">       seq.nth_u(haystack, k)) =</text>
<text text-anchor="start" x="852" y="-11.3" font-family="Times,serif" font-size="14.00">    needle))}, Halt(), {haystack: haystack, needle: needle, i: 1 + i!2392})</text>
</g>
<!-- 17&#45;&gt;18 -->
<g id="edge18" class="edge">
<title>17&#45;&gt;18</title>
<path fill="none" stroke="black" d="M1109,-287.42C1109,-275.96 1109,-263.72 1109,-251.28"/>
<polygon fill="black" stroke="black" points="1112.5,-251.27 1109,-241.27 1105.5,-251.27 1112.5,-251.27"/>
</g>
<!-- 20 -->
<g id="node21" class="node">
<title>20</title>
<polygon fill="none" stroke="black" points="2091.5,-820 1516.5,-820 1516.5,-663 2091.5,-663 2091.5,-820"/>
<text text-anchor="start" x="1529" y="-800.3" font-family="Times,serif" font-size="14.00">({Length(haystack) ≤ i!2392, 0 ≤ i!2392 ∧</text>
<text text-anchor="start" x="1529" y="-785.3" font-family="Times,serif" font-size="14.00">i!2392 ≤ Length(haystack) ∧</text>
<text text-anchor="start" x="1529" y="-770.3" font-family="Times,serif" font-size="14.00">(∀k :</text>
<text text-anchor="start" x="1529" y="-755.3" font-family="Times,serif" font-size="14.00">  ¬(0 ≤ k ∧ ¬(i!2392 ≤ k)) ∨</text>
<text text-anchor="start" x="1529" y="-740.3" font-family="Times,serif" font-size="14.00">  ¬(If(k ≥ 0 ∧ ¬(Length(haystack) ≤ k),</text>
<text text-anchor="start" x="1529" y="-725.3" font-family="Times,serif" font-size="14.00">       seq.nth_i(haystack, k),</text>
<text text-anchor="start" x="1529" y="-710.3" font-family="Times,serif" font-size="14.00">       seq.nth_u(haystack, k)) =</text>
<text text-anchor="start" x="1529" y="-695.3" font-family="Times,serif" font-size="14.00">    needle))}, None, {haystack: haystack, needle: needle, i: i!2392, var_0: &#45;1})</text>
<text text-anchor="start" x="1746.5" y="-674.3" font-family="Courier,monospace" font-size="14.00">result = var_0</text>
</g>
<!-- 19&#45;&gt;20 -->
<g id="edge20" class="edge">
<title>19&#45;&gt;20</title>
<path fill="none" stroke="black" d="M1747.64,-855.81C1751.99,-847.07 1756.44,-838.13 1760.83,-829.29"/>
<polygon fill="black" stroke="black" points="1764.07,-830.63 1765.39,-820.12 1757.81,-827.51 1764.07,-830.63"/>
</g>
<!-- 21 -->
<g id="node22" class="node">
<title>21</title>
<polygon fill="#aeeeee" stroke="black" points="2147.5,-616.5 1498.5,-616.5 1498.5,-480.5 2147.5,-480.5 2147.5,-616.5"/>
<text text-anchor="start" x="1511" y="-597.3" font-family="Times,serif" font-size="14.00">({Length(haystack) ≤ i!2392, 0 ≤ i!2392 ∧</text>
<text text-anchor="start" x="1511" y="-582.3" font-family="Times,serif" font-size="14.00">i!2392 ≤ Length(haystack) ∧</text>
<text text-anchor="start" x="1511" y="-567.3" font-family="Times,serif" font-size="14.00">(∀k :</text>
<text text-anchor="start" x="1511" y="-552.3" font-family="Times,serif" font-size="14.00">  ¬(0 ≤ k ∧ ¬(i!2392 ≤ k)) ∨</text>
<text text-anchor="start" x="1511" y="-537.3" font-family="Times,serif" font-size="14.00">  ¬(If(k ≥ 0 ∧ ¬(Length(haystack) ≤ k),</text>
<text text-anchor="start" x="1511" y="-522.3" font-family="Times,serif" font-size="14.00">       seq.nth_i(haystack, k),</text>
<text text-anchor="start" x="1511" y="-507.3" font-family="Times,serif" font-size="14.00">       seq.nth_u(haystack, k)) =</text>
<text text-anchor="start" x="1511" y="-492.3" font-family="Times,serif" font-size="14.00">    needle))}, None, {haystack: haystack, needle: needle, i: i!2392, var_0: &#45;1, result: &#45;1})</text>
</g>
<!-- 20&#45;&gt;21 -->
<g id="edge21" class="edge">
<title>20&#45;&gt;21</title>
<path fill="none" stroke="black" d="M1811.73,-662.81C1812.9,-650.99 1814.12,-638.79 1815.29,-626.97"/>
<polygon fill="black" stroke="black" points="1818.81,-627 1816.31,-616.71 1811.84,-626.31 1818.81,-627"/>
</g>
</g>
</svg>
