<?xml version="1.0" encoding="UTF-8" standalone="no"?>
<!DOCTYPE svg PUBLIC "-//W3C//DTD SVG 1.1//EN"
 "http://www.w3.org/Graphics/SVG/1.1/DTD/svg11.dtd">
<!-- Generated by graphviz version 2.43.0 (0)
 -->
<!-- Title: %3 Pages: 1 -->
<svg width="3643pt" height="308pt"
 viewBox="0.00 0.00 3643.00 308.00" xmlns="http://www.w3.org/2000/svg" xmlns:xlink="http://www.w3.org/1999/xlink">
<g id="graph0" class="graph" transform="scale(1 1) rotate(0) translate(4 304)">
<title>%3</title>
<polygon fill="white" stroke="transparent" points="-4,4 -4,-304 3639,-304 3639,4 -4,4"/>
<!-- 0 -->
<g id="node1" class="node">
<title>0</title>
<polygon fill="none" stroke="black" points="1885.5,-300 1481.5,-300 1481.5,-248 1885.5,-248 1885.5,-300"/>
<text text-anchor="start" x="1619.5" y="-280.8" font-family="Times,serif" font-size="14.00">({}, None, {x: x})</text>
<text text-anchor="start" x="1493.5" y="-259.8" font-family="Courier,monospace" font-size="14.00">def find(needle: int, haystack: tuple) &#45;&gt; int:</text>
</g>
<!-- 1 -->
<g id="node2" class="node">
<title>1</title>
<polygon fill="none" stroke="black" points="1770,-212 1597,-212 1597,-160 1770,-160 1770,-212"/>
<text text-anchor="start" x="1620" y="-192.8" font-family="Times,serif" font-size="14.00">({}, None, {x: x})</text>
<text text-anchor="start" x="1609.5" y="-171.8" font-family="Courier,monospace" font-size="14.00">t = (1, 2, 3, 4, )</text>
</g>
<!-- 0&#45;&gt;1 -->
<g id="edge1" class="edge">
<title>0&#45;&gt;1</title>
<path fill="none" stroke="black" d="M1683.5,-247.66C1683.5,-239.7 1683.5,-230.76 1683.5,-222.24"/>
<polygon fill="black" stroke="black" points="1687,-222.16 1683.5,-212.16 1680,-222.16 1687,-222.16"/>
</g>
<!-- 2 -->
<g id="node3" class="node">
<title>2</title>
<polygon fill="none" stroke="black" points="1977,-124 1390,-124 1390,-72 1977,-72 1977,-124"/>
<text text-anchor="start" x="1402.5" y="-104.8" font-family="Times,serif" font-size="14.00">({}, None, {x: x, t: Concat(Unit(1), Concat(Unit(2), Concat(Unit(3), Unit(4))))})</text>
<text text-anchor="start" x="1626" y="-83.8" font-family="Courier,monospace" font-size="14.00">r = find(x, t)</text>
</g>
<!-- 1&#45;&gt;2 -->
<g id="edge2" class="edge">
<title>1&#45;&gt;2</title>
<path fill="none" stroke="black" d="M1683.5,-159.66C1683.5,-151.7 1683.5,-142.76 1683.5,-134.24"/>
<polygon fill="black" stroke="black" points="1687,-134.16 1683.5,-124.16 1680,-134.16 1687,-134.16"/>
</g>
<!-- 3 -->
<g id="node4" class="node">
<title>3</title>
<polygon fill="#aeeeee" stroke="black" points="659,-36 0,-36 0,0 659,0 659,-36"/>
<text text-anchor="start" x="12.5" y="-13.8" font-family="Times,serif" font-size="14.00">({1 = x}, None, {x: x, t: Concat(Unit(1), Concat(Unit(2), Concat(Unit(3), Unit(4)))), r: 0})</text>
</g>
<!-- 2&#45;&gt;3 -->
<g id="edge3" class="edge">
<title>2&#45;&gt;3</title>
<path fill="none" stroke="black" d="M1389.7,-80.08C1166.59,-67.22 860.68,-49.6 634.79,-36.59"/>
<polygon fill="black" stroke="black" points="634.95,-33.09 624.77,-36.01 634.55,-40.08 634.95,-33.09"/>
</g>
<!-- 4 -->
<g id="node5" class="node">
<title>4</title>
<polygon fill="#aeeeee" stroke="black" points="1336,-36 677,-36 677,0 1336,0 1336,-36"/>
<text text-anchor="start" x="689.5" y="-13.8" font-family="Times,serif" font-size="14.00">({2 = x}, None, {x: x, t: Concat(Unit(1), Concat(Unit(2), Concat(Unit(3), Unit(4)))), r: 1})</text>
</g>
<!-- 2&#45;&gt;4 -->
<g id="edge4" class="edge">
<title>2&#45;&gt;4</title>
<path fill="none" stroke="black" d="M1466.5,-72C1368.18,-60.67 1254.09,-47.53 1164.13,-37.16"/>
<polygon fill="black" stroke="black" points="1164.45,-33.68 1154.12,-36.01 1163.65,-40.63 1164.45,-33.68"/>
</g>
<!-- 5 -->
<g id="node6" class="node">
<title>5</title>
<polygon fill="#aeeeee" stroke="black" points="2013,-36 1354,-36 1354,0 2013,0 2013,-36"/>
<text text-anchor="start" x="1366.5" y="-13.8" font-family="Times,serif" font-size="14.00">({3 = x}, None, {x: x, t: Concat(Unit(1), Concat(Unit(2), Concat(Unit(3), Unit(4)))), r: 2})</text>
</g>
<!-- 2&#45;&gt;5 -->
<g id="edge5" class="edge">
<title>2&#45;&gt;5</title>
<path fill="none" stroke="black" d="M1683.5,-71.89C1683.5,-63.84 1683.5,-54.88 1683.5,-46.66"/>
<polygon fill="black" stroke="black" points="1687,-46.41 1683.5,-36.41 1680,-46.41 1687,-46.41"/>
</g>
<!-- 6 -->
<g id="node7" class="node">
<title>6</title>
<polygon fill="#aeeeee" stroke="black" points="2690,-36 2031,-36 2031,0 2690,0 2690,-36"/>
<text text-anchor="start" x="2043.5" y="-13.8" font-family="Times,serif" font-size="14.00">({4 = x}, None, {x: x, t: Concat(Unit(1), Concat(Unit(2), Concat(Unit(3), Unit(4)))), r: 3})</text>
</g>
<!-- 2&#45;&gt;6 -->
<g id="edge6" class="edge">
<title>2&#45;&gt;6</title>
<path fill="none" stroke="black" d="M1900.5,-72C1998.82,-60.67 2112.91,-47.53 2202.87,-37.16"/>
<polygon fill="black" stroke="black" points="2203.35,-40.63 2212.88,-36.01 2202.55,-33.68 2203.35,-40.63"/>
</g>
<!-- 7 -->
<g id="node8" class="node">
<title>7</title>
<polygon fill="#aeeeee" stroke="black" points="3635,-36 2708,-36 2708,0 3635,0 3635,-36"/>
<text text-anchor="start" x="2720.5" y="-13.8" font-family="Times,serif" font-size="14.00">({¬(3 = x) ∧ ¬(4 = x) ∧ ¬(1 = x) ∧ ¬(2 = x)}, None, {x: x, t: Concat(Unit(1), Concat(Unit(2), Concat(Unit(3), Unit(4)))), r: &#45;1})</text>
</g>
<!-- 2&#45;&gt;7 -->
<g id="edge7" class="edge">
<title>2&#45;&gt;7</title>
<path fill="none" stroke="black" d="M1977.04,-81.61C2224.39,-68.65 2578.28,-50.1 2836.64,-36.55"/>
<polygon fill="black" stroke="black" points="2837.14,-40.03 2846.94,-36.01 2836.77,-33.04 2837.14,-40.03"/>
</g>
</g>
</svg>
