<?xml version="1.0" encoding="UTF-8" standalone="no"?>
<!DOCTYPE svg PUBLIC "-//W3C//DTD SVG 1.1//EN"
 "http://www.w3.org/Graphics/SVG/1.1/DTD/svg11.dtd">
<!-- Generated by graphviz version 2.43.0 (0)
 -->
<!-- Title: %3 Pages: 1 -->
<svg width="1703pt" height="1504pt"
 viewBox="0.00 0.00 1702.50 1504.00" xmlns="http://www.w3.org/2000/svg" xmlns:xlink="http://www.w3.org/1999/xlink">
<g id="graph0" class="graph" transform="scale(1 1) rotate(0) translate(4 1500)">
<title>%3</title>
<polygon fill="white" stroke="transparent" points="-4,4 -4,-1500 1698.5,-1500 1698.5,4 -4,4"/>
<!-- 0 -->
<g id="node1" class="node">
<title>0</title>
<polygon fill="none" stroke="black" points="1256,-1496 882,-1496 882,-1444 1256,-1444 1256,-1496"/>
<text text-anchor="start" x="894" y="-1476.8" font-family="Times,serif" font-size="14.00">({}, None, {needle: needle, haystack: haystack})</text>
<text text-anchor="start" x="1048" y="-1455.8" font-family="Courier,monospace" font-size="14.00">i = 0</text>
</g>
<!-- 1 -->
<g id="node2" class="node">
<title>1</title>
<polygon fill="none" stroke="black" points="1272,-1408 866,-1408 866,-1356 1272,-1356 1272,-1408"/>
<text text-anchor="start" x="878" y="-1388.8" font-family="Times,serif" font-size="14.00">({}, None, {needle: needle, haystack: haystack, i: 0})</text>
<text text-anchor="start" x="961.5" y="-1367.8" font-family="Courier,monospace" font-size="14.00">while (i &lt; len(haystack)):</text>
</g>
<!-- 0&#45;&gt;1 -->
<g id="edge1" class="edge">
<title>0&#45;&gt;1</title>
<path fill="none" stroke="black" d="M1069,-1443.66C1069,-1435.7 1069,-1426.76 1069,-1418.24"/>
<polygon fill="black" stroke="black" points="1072.5,-1418.16 1069,-1408.16 1065.5,-1418.16 1072.5,-1418.16"/>
</g>
<!-- 2 -->
<g id="node3" class="node">
<title>2</title>
<polygon fill="none" stroke="black" points="1066,-1320 484,-1320 484,-1268 1066,-1268 1066,-1320"/>
<text text-anchor="start" x="496" y="-1300.8" font-family="Times,serif" font-size="14.00">({¬(Length(haystack) ≤ 0)}, None, {needle: needle, haystack: haystack, i: 0})</text>
<text text-anchor="start" x="663.5" y="-1279.8" font-family="Courier,monospace" font-size="14.00">if (haystack[i] == needle):</text>
</g>
<!-- 1&#45;&gt;2 -->
<g id="edge2" class="edge">
<title>1&#45;&gt;2</title>
<path fill="none" stroke="black" d="M983.17,-1355.89C947.78,-1345.54 906.62,-1333.5 870.3,-1322.88"/>
<polygon fill="black" stroke="black" points="871.26,-1319.51 860.68,-1320.06 869.29,-1326.23 871.26,-1319.51"/>
</g>
<!-- 20 -->
<g id="node21" class="node">
<title>20</title>
<polygon fill="none" stroke="black" points="1643.5,-1320 1084.5,-1320 1084.5,-1268 1643.5,-1268 1643.5,-1320"/>
<text text-anchor="start" x="1097" y="-1300.8" font-family="Times,serif" font-size="14.00">({Length(haystack) ≤ 0}, None, {needle: needle, haystack: haystack, i: 0})</text>
<text text-anchor="start" x="1343.5" y="-1279.8" font-family="Courier,monospace" font-size="14.00">else:</text>
</g>
<!-- 1&#45;&gt;20 -->
<g id="edge20" class="edge">
<title>1&#45;&gt;20</title>
<path fill="none" stroke="black" d="M1155.12,-1355.89C1190.64,-1345.54 1231.93,-1333.5 1268.38,-1322.88"/>
<polygon fill="black" stroke="black" points="1269.41,-1326.22 1278.03,-1320.06 1267.45,-1319.5 1269.41,-1326.22"/>
</g>
<!-- 3 -->
<g id="node4" class="node">
<title>3</title>
<polygon fill="none" stroke="black" points="522.5,-1232 83.5,-1232 83.5,-1135 522.5,-1135 522.5,-1232"/>
<text text-anchor="start" x="96" y="-1212.3" font-family="Times,serif" font-size="14.00">({¬(Length(haystack) ≤ 0), If(Length(haystack) ≤ 0,</text>
<text text-anchor="start" x="96" y="-1197.3" font-family="Times,serif" font-size="14.00">   seq.nth_u(haystack, 0),</text>
<text text-anchor="start" x="96" y="-1182.3" font-family="Times,serif" font-size="14.00">   seq.nth_i(haystack, 0)) =</text>
<text text-anchor="start" x="96" y="-1167.3" font-family="Times,serif" font-size="14.00">needle}, None, {needle: needle, haystack: haystack, i: 0})</text>
<text text-anchor="start" x="282.5" y="-1146.3" font-family="Courier,monospace" font-size="14.00">break</text>
</g>
<!-- 2&#45;&gt;3 -->
<g id="edge3" class="edge">
<title>2&#45;&gt;3</title>
<path fill="none" stroke="black" d="M666.12,-1267.97C622.38,-1257.92 570.35,-1245.96 519.52,-1234.27"/>
<polygon fill="black" stroke="black" points="520.24,-1230.85 509.71,-1232.02 518.67,-1237.67 520.24,-1230.85"/>
</g>
<!-- 6 -->
<g id="node7" class="node">
<title>6</title>
<polygon fill="none" stroke="black" points="1005.5,-1232 552.5,-1232 552.5,-1135 1005.5,-1135 1005.5,-1232"/>
<text text-anchor="start" x="565" y="-1212.3" font-family="Times,serif" font-size="14.00">({¬(Length(haystack) ≤ 0), ¬(If(Length(haystack) ≤ 0,</text>
<text text-anchor="start" x="565" y="-1197.3" font-family="Times,serif" font-size="14.00">     seq.nth_u(haystack, 0),</text>
<text text-anchor="start" x="565" y="-1182.3" font-family="Times,serif" font-size="14.00">     seq.nth_i(haystack, 0)) =</text>
<text text-anchor="start" x="565" y="-1167.3" font-family="Times,serif" font-size="14.00">  needle)}, None, {needle: needle, haystack: haystack, i: 0})</text>
<text text-anchor="start" x="734" y="-1146.3" font-family="Courier,monospace" font-size="14.00">i = (i + 1)</text>
</g>
<!-- 2&#45;&gt;6 -->
<g id="edge6" class="edge">
<title>2&#45;&gt;6</title>
<path fill="none" stroke="black" d="M775.93,-1267.84C776.21,-1260.1 776.54,-1251.25 776.87,-1242.27"/>
<polygon fill="black" stroke="black" points="780.37,-1242.25 777.24,-1232.13 773.38,-1241.99 780.37,-1242.25"/>
</g>
<!-- 4 -->
<g id="node5" class="node">
<title>4</title>
<polygon fill="none" stroke="black" points="498.5,-1099 59.5,-1099 59.5,-1002 498.5,-1002 498.5,-1099"/>
<text text-anchor="start" x="72" y="-1079.3" font-family="Times,serif" font-size="14.00">({¬(Length(haystack) ≤ 0), If(Length(haystack) ≤ 0,</text>
<text text-anchor="start" x="72" y="-1064.3" font-family="Times,serif" font-size="14.00">   seq.nth_u(haystack, 0),</text>
<text text-anchor="start" x="72" y="-1049.3" font-family="Times,serif" font-size="14.00">   seq.nth_i(haystack, 0)) =</text>
<text text-anchor="start" x="72" y="-1034.3" font-family="Times,serif" font-size="14.00">needle}, None, {needle: needle, haystack: haystack, i: 0})</text>
<text text-anchor="start" x="246" y="-1013.3" font-family="Courier,monospace" font-size="14.00">return i</text>
</g>
<!-- 3&#45;&gt;4 -->
<g id="edge4" class="edge">
<title>3&#45;&gt;4</title>
<path fill="none" stroke="black" d="M294.27,-1134.84C292.75,-1126.53 291.15,-1117.81 289.58,-1109.26"/>
<polygon fill="black" stroke="black" points="293.01,-1108.55 287.77,-1099.35 286.13,-1109.82 293.01,-1108.55"/>
</g>
<!-- 5 -->
<g id="node6" class="node">
<title>5</title>
<polygon fill="#aeeeee" stroke="black" points="537.5,-955.5 2.5,-955.5 2.5,-879.5 537.5,-879.5 537.5,-955.5"/>
<text text-anchor="start" x="15" y="-936.3" font-family="Times,serif" font-size="14.00">({¬(Length(haystack) ≤ 0), If(Length(haystack) ≤ 0,</text>
<text text-anchor="start" x="15" y="-921.3" font-family="Times,serif" font-size="14.00">   seq.nth_u(haystack, 0),</text>
<text text-anchor="start" x="15" y="-906.3" font-family="Times,serif" font-size="14.00">   seq.nth_i(haystack, 0)) =</text>
<text text-anchor="start" x="15" y="-891.3" font-family="Times,serif" font-size="14.00">needle}, SymbolicReturn(0), {needle: needle, haystack: haystack, i: 0})</text>
</g>
<!-- 4&#45;&gt;5 -->
<g id="edge5" class="edge">
<title>4&#45;&gt;5</title>
<path fill="none" stroke="black" d="M275.73,-1001.84C274.92,-990.07 274.05,-977.47 273.24,-965.72"/>
<polygon fill="black" stroke="black" points="276.73,-965.39 272.55,-955.66 269.75,-965.87 276.73,-965.39"/>
</g>
<!-- 7 -->
<g id="node8" class="node">
<title>7</title>
<polygon fill="none" stroke="black" points="1008.5,-1099 555.5,-1099 555.5,-1002 1008.5,-1002 1008.5,-1099"/>
<text text-anchor="start" x="568" y="-1079.3" font-family="Times,serif" font-size="14.00">({¬(Length(haystack) ≤ 0), ¬(If(Length(haystack) ≤ 0,</text>
<text text-anchor="start" x="568" y="-1064.3" font-family="Times,serif" font-size="14.00">     seq.nth_u(haystack, 0),</text>
<text text-anchor="start" x="568" y="-1049.3" font-family="Times,serif" font-size="14.00">     seq.nth_i(haystack, 0)) =</text>
<text text-anchor="start" x="568" y="-1034.3" font-family="Times,serif" font-size="14.00">  needle)}, None, {needle: needle, haystack: haystack, i: 1})</text>
<text text-anchor="start" x="675" y="-1013.3" font-family="Courier,monospace" font-size="14.00">while (i &lt; len(haystack)):</text>
</g>
<!-- 6&#45;&gt;7 -->
<g id="edge7" class="edge">
<title>6&#45;&gt;7</title>
<path fill="none" stroke="black" d="M780.09,-1134.84C780.28,-1126.62 780.48,-1117.99 780.67,-1109.54"/>
<polygon fill="black" stroke="black" points="784.17,-1109.43 780.9,-1099.35 777.18,-1109.27 784.17,-1109.43"/>
</g>
<!-- 8 -->
<g id="node9" class="node">
<title>8</title>
<polygon fill="none" stroke="black" points="1008.5,-966 555.5,-966 555.5,-869 1008.5,-869 1008.5,-966"/>
<text text-anchor="start" x="568" y="-946.3" font-family="Times,serif" font-size="14.00">({¬(Length(haystack) ≤ 1), ¬(If(Length(haystack) ≤ 0,</text>
<text text-anchor="start" x="568" y="-931.3" font-family="Times,serif" font-size="14.00">     seq.nth_u(haystack, 0),</text>
<text text-anchor="start" x="568" y="-916.3" font-family="Times,serif" font-size="14.00">     seq.nth_i(haystack, 0)) =</text>
<text text-anchor="start" x="568" y="-901.3" font-family="Times,serif" font-size="14.00">  needle)}, None, {needle: needle, haystack: haystack, i: 1})</text>
<text text-anchor="start" x="671" y="-880.3" font-family="Courier,monospace" font-size="14.00">if (haystack[i] == needle):</text>
</g>
<!-- 7&#45;&gt;8 -->
<g id="edge8" class="edge">
<title>7&#45;&gt;8</title>
<path fill="none" stroke="black" d="M782,-1001.84C782,-993.62 782,-984.99 782,-976.54"/>
<polygon fill="black" stroke="black" points="785.5,-976.35 782,-966.35 778.5,-976.35 785.5,-976.35"/>
</g>
<!-- 17 -->
<g id="node18" class="node">
<title>17</title>
<polygon fill="none" stroke="black" points="1604,-966 1026,-966 1026,-869 1604,-869 1604,-966"/>
<text text-anchor="start" x="1038" y="-946.3" font-family="Times,serif" font-size="14.00">({Length(haystack) ≤ 1, ¬(Length(haystack) ≤ 0), ¬(If(Length(haystack) ≤ 0,</text>
<text text-anchor="start" x="1038" y="-931.3" font-family="Times,serif" font-size="14.00">     seq.nth_u(haystack, 0),</text>
<text text-anchor="start" x="1038" y="-916.3" font-family="Times,serif" font-size="14.00">     seq.nth_i(haystack, 0)) =</text>
<text text-anchor="start" x="1038" y="-901.3" font-family="Times,serif" font-size="14.00">  needle)}, None, {needle: needle, haystack: haystack, i: 1})</text>
<text text-anchor="start" x="1294" y="-880.3" font-family="Courier,monospace" font-size="14.00">else:</text>
</g>
<!-- 7&#45;&gt;17 -->
<g id="edge17" class="edge">
<title>7&#45;&gt;17</title>
<path fill="none" stroke="black" d="M975.56,-1001.93C1019.81,-991.05 1066.96,-979.46 1111.61,-968.49"/>
<polygon fill="black" stroke="black" points="1112.52,-971.87 1121.4,-966.08 1110.85,-965.07 1112.52,-971.87"/>
</g>
<!-- 9 -->
<g id="node10" class="node">
<title>9</title>
<polygon fill="none" stroke="black" points="537.5,-833 84.5,-833 84.5,-691 537.5,-691 537.5,-833"/>
<text text-anchor="start" x="97" y="-813.8" font-family="Times,serif" font-size="14.00">({¬(Length(haystack) ≤ 1), If(Length(haystack) ≤ 1,</text>
<text text-anchor="start" x="97" y="-798.8" font-family="Times,serif" font-size="14.00">   seq.nth_u(haystack, 1),</text>
<text text-anchor="start" x="97" y="-783.8" font-family="Times,serif" font-size="14.00">   seq.nth_i(haystack, 1)) =</text>
<text text-anchor="start" x="97" y="-768.8" font-family="Times,serif" font-size="14.00">needle, ¬(If(Length(haystack) ≤ 0,</text>
<text text-anchor="start" x="97" y="-753.8" font-family="Times,serif" font-size="14.00">     seq.nth_u(haystack, 0),</text>
<text text-anchor="start" x="97" y="-738.8" font-family="Times,serif" font-size="14.00">     seq.nth_i(haystack, 0)) =</text>
<text text-anchor="start" x="97" y="-723.8" font-family="Times,serif" font-size="14.00">  needle)}, None, {needle: needle, haystack: haystack, i: 1})</text>
<text text-anchor="start" x="290.5" y="-702.8" font-family="Courier,monospace" font-size="14.00">break</text>
</g>
<!-- 8&#45;&gt;9 -->
<g id="edge9" class="edge">
<title>8&#45;&gt;9</title>
<path fill="none" stroke="black" d="M636.2,-868.98C604.34,-858.6 569.91,-847.38 535.78,-836.26"/>
<polygon fill="black" stroke="black" points="536.75,-832.89 526.16,-833.12 534.59,-839.55 536.75,-832.89"/>
</g>
<!-- 12 -->
<g id="node13" class="node">
<title>12</title>
<polygon fill="none" stroke="black" points="1008.5,-833 555.5,-833 555.5,-691 1008.5,-691 1008.5,-833"/>
<text text-anchor="start" x="568" y="-813.8" font-family="Times,serif" font-size="14.00">({¬(Length(haystack) ≤ 1), ¬(If(Length(haystack) ≤ 1,</text>
<text text-anchor="start" x="568" y="-798.8" font-family="Times,serif" font-size="14.00">     seq.nth_u(haystack, 1),</text>
<text text-anchor="start" x="568" y="-783.8" font-family="Times,serif" font-size="14.00">     seq.nth_i(haystack, 1)) =</text>
<text text-anchor="start" x="568" y="-768.8" font-family="Times,serif" font-size="14.00">  needle), ¬(If(Length(haystack) ≤ 0,</text>
<text text-anchor="start" x="568" y="-753.8" font-family="Times,serif" font-size="14.00">     seq.nth_u(haystack, 0),</text>
<text text-anchor="start" x="568" y="-738.8" font-family="Times,serif" font-size="14.00">     seq.nth_i(haystack, 0)) =</text>
<text text-anchor="start" x="568" y="-723.8" font-family="Times,serif" font-size="14.00">  needle)}, None, {needle: needle, haystack: haystack, i: 1})</text>
<text text-anchor="start" x="737" y="-702.8" font-family="Courier,monospace" font-size="14.00">i = (i + 1)</text>
</g>
<!-- 8&#45;&gt;12 -->
<g id="edge12" class="edge">
<title>8&#45;&gt;12</title>
<path fill="none" stroke="black" d="M782,-868.77C782,-860.68 782,-852.07 782,-843.41"/>
<polygon fill="black" stroke="black" points="785.5,-843.24 782,-833.24 778.5,-843.24 785.5,-843.24"/>
</g>
<!-- 10 -->
<g id="node11" class="node">
<title>10</title>
<polygon fill="none" stroke="black" points="525.5,-655 72.5,-655 72.5,-513 525.5,-513 525.5,-655"/>
<text text-anchor="start" x="85" y="-635.8" font-family="Times,serif" font-size="14.00">({¬(Length(haystack) ≤ 1), If(Length(haystack) ≤ 1,</text>
<text text-anchor="start" x="85" y="-620.8" font-family="Times,serif" font-size="14.00">   seq.nth_u(haystack, 1),</text>
<text text-anchor="start" x="85" y="-605.8" font-family="Times,serif" font-size="14.00">   seq.nth_i(haystack, 1)) =</text>
<text text-anchor="start" x="85" y="-590.8" font-family="Times,serif" font-size="14.00">needle, ¬(If(Length(haystack) ≤ 0,</text>
<text text-anchor="start" x="85" y="-575.8" font-family="Times,serif" font-size="14.00">     seq.nth_u(haystack, 0),</text>
<text text-anchor="start" x="85" y="-560.8" font-family="Times,serif" font-size="14.00">     seq.nth_i(haystack, 0)) =</text>
<text text-anchor="start" x="85" y="-545.8" font-family="Times,serif" font-size="14.00">  needle)}, None, {needle: needle, haystack: haystack, i: 1})</text>
<text text-anchor="start" x="266" y="-524.8" font-family="Courier,monospace" font-size="14.00">return i</text>
</g>
<!-- 9&#45;&gt;10 -->
<g id="edge10" class="edge">
<title>9&#45;&gt;10</title>
<path fill="none" stroke="black" d="M306.22,-690.93C305.64,-682.46 305.05,-673.75 304.46,-665.15"/>
<polygon fill="black" stroke="black" points="307.95,-664.85 303.78,-655.11 300.97,-665.33 307.95,-664.85"/>
</g>
<!-- 11 -->
<g id="node12" class="node">
<title>11</title>
<polygon fill="#aeeeee" stroke="black" points="550,-466.5 0,-466.5 0,-345.5 550,-345.5 550,-466.5"/>
<text text-anchor="start" x="12" y="-446.8" font-family="Times,serif" font-size="14.00">({¬(Length(haystack) ≤ 1), If(Length(haystack) ≤ 1,</text>
<text text-anchor="start" x="12" y="-431.8" font-family="Times,serif" font-size="14.00">   seq.nth_u(haystack, 1),</text>
<text text-anchor="start" x="12" y="-416.8" font-family="Times,serif" font-size="14.00">   seq.nth_i(haystack, 1)) =</text>
<text text-anchor="start" x="12" y="-401.8" font-family="Times,serif" font-size="14.00">needle, ¬(If(Length(haystack) ≤ 0,</text>
<text text-anchor="start" x="12" y="-386.8" font-family="Times,serif" font-size="14.00">     seq.nth_u(haystack, 0),</text>
<text text-anchor="start" x="12" y="-371.8" font-family="Times,serif" font-size="14.00">     seq.nth_i(haystack, 0)) =</text>
<text text-anchor="start" x="12" y="-356.8" font-family="Times,serif" font-size="14.00">  needle)}, SymbolicReturn(1), {needle: needle, haystack: haystack, i: 1})</text>
</g>
<!-- 10&#45;&gt;11 -->
<g id="edge11" class="edge">
<title>10&#45;&gt;11</title>
<path fill="none" stroke="black" d="M289.45,-512.93C287.81,-500.95 286.11,-488.51 284.48,-476.54"/>
<polygon fill="black" stroke="black" points="287.95,-476.05 283.13,-466.62 281.01,-477 287.95,-476.05"/>
</g>
<!-- 13 -->
<g id="node14" class="node">
<title>13</title>
<polygon fill="none" stroke="black" points="1008.5,-655 555.5,-655 555.5,-513 1008.5,-513 1008.5,-655"/>
<text text-anchor="start" x="568" y="-635.8" font-family="Times,serif" font-size="14.00">({¬(Length(haystack) ≤ 1), ¬(If(Length(haystack) ≤ 1,</text>
<text text-anchor="start" x="568" y="-620.8" font-family="Times,serif" font-size="14.00">     seq.nth_u(haystack, 1),</text>
<text text-anchor="start" x="568" y="-605.8" font-family="Times,serif" font-size="14.00">     seq.nth_i(haystack, 1)) =</text>
<text text-anchor="start" x="568" y="-590.8" font-family="Times,serif" font-size="14.00">  needle), ¬(If(Length(haystack) ≤ 0,</text>
<text text-anchor="start" x="568" y="-575.8" font-family="Times,serif" font-size="14.00">     seq.nth_u(haystack, 0),</text>
<text text-anchor="start" x="568" y="-560.8" font-family="Times,serif" font-size="14.00">     seq.nth_i(haystack, 0)) =</text>
<text text-anchor="start" x="568" y="-545.8" font-family="Times,serif" font-size="14.00">  needle)}, None, {needle: needle, haystack: haystack, i: 2})</text>
<text text-anchor="start" x="675" y="-524.8" font-family="Courier,monospace" font-size="14.00">while (i &lt; len(haystack)):</text>
</g>
<!-- 12&#45;&gt;13 -->
<g id="edge13" class="edge">
<title>12&#45;&gt;13</title>
<path fill="none" stroke="black" d="M782,-690.93C782,-682.46 782,-673.75 782,-665.15"/>
<polygon fill="black" stroke="black" points="785.5,-665.11 782,-655.11 778.5,-665.11 785.5,-665.11"/>
</g>
<!-- 14 -->
<g id="node15" class="node">
<title>14</title>
<polygon fill="none" stroke="black" points="1021.5,-477 568.5,-477 568.5,-335 1021.5,-335 1021.5,-477"/>
<text text-anchor="start" x="581" y="-457.8" font-family="Times,serif" font-size="14.00">({¬(Length(haystack) ≤ 1), ¬(If(Length(haystack) ≤ 1,</text>
<text text-anchor="start" x="581" y="-442.8" font-family="Times,serif" font-size="14.00">     seq.nth_u(haystack, 1),</text>
<text text-anchor="start" x="581" y="-427.8" font-family="Times,serif" font-size="14.00">     seq.nth_i(haystack, 1)) =</text>
<text text-anchor="start" x="581" y="-412.8" font-family="Times,serif" font-size="14.00">  needle), Length(haystack) ≤ 2, ¬(If(Length(haystack) ≤ 0,</text>
<text text-anchor="start" x="581" y="-397.8" font-family="Times,serif" font-size="14.00">     seq.nth_u(haystack, 0),</text>
<text text-anchor="start" x="581" y="-382.8" font-family="Times,serif" font-size="14.00">     seq.nth_i(haystack, 0)) =</text>
<text text-anchor="start" x="581" y="-367.8" font-family="Times,serif" font-size="14.00">  needle)}, None, {needle: needle, haystack: haystack, i: 2})</text>
<text text-anchor="start" x="774.5" y="-346.8" font-family="Courier,monospace" font-size="14.00">else:</text>
</g>
<!-- 13&#45;&gt;14 -->
<g id="edge14" class="edge">
<title>13&#45;&gt;14</title>
<path fill="none" stroke="black" d="M787.18,-512.93C787.8,-504.46 788.44,-495.75 789.08,-487.15"/>
<polygon fill="black" stroke="black" points="792.58,-487.34 789.82,-477.11 785.59,-486.83 792.58,-487.34"/>
</g>
<!-- 15 -->
<g id="node16" class="node">
<title>15</title>
<polygon fill="none" stroke="black" points="1021.5,-299 568.5,-299 568.5,-157 1021.5,-157 1021.5,-299"/>
<text text-anchor="start" x="581" y="-279.8" font-family="Times,serif" font-size="14.00">({¬(Length(haystack) ≤ 1), ¬(If(Length(haystack) ≤ 1,</text>
<text text-anchor="start" x="581" y="-264.8" font-family="Times,serif" font-size="14.00">     seq.nth_u(haystack, 1),</text>
<text text-anchor="start" x="581" y="-249.8" font-family="Times,serif" font-size="14.00">     seq.nth_i(haystack, 1)) =</text>
<text text-anchor="start" x="581" y="-234.8" font-family="Times,serif" font-size="14.00">  needle), Length(haystack) ≤ 2, ¬(If(Length(haystack) ≤ 0,</text>
<text text-anchor="start" x="581" y="-219.8" font-family="Times,serif" font-size="14.00">     seq.nth_u(haystack, 0),</text>
<text text-anchor="start" x="581" y="-204.8" font-family="Times,serif" font-size="14.00">     seq.nth_i(haystack, 0)) =</text>
<text text-anchor="start" x="581" y="-189.8" font-family="Times,serif" font-size="14.00">  needle)}, None, {needle: needle, haystack: haystack, i: 2})</text>
<text text-anchor="start" x="758" y="-168.8" font-family="Courier,monospace" font-size="14.00">return &#45;1</text>
</g>
<!-- 14&#45;&gt;15 -->
<g id="edge15" class="edge">
<title>14&#45;&gt;15</title>
<path fill="none" stroke="black" d="M795,-334.93C795,-326.46 795,-317.75 795,-309.15"/>
<polygon fill="black" stroke="black" points="798.5,-309.11 795,-299.11 791.5,-309.11 798.5,-309.11"/>
</g>
<!-- 16 -->
<g id="node17" class="node">
<title>16</title>
<polygon fill="#aeeeee" stroke="black" points="1072,-121 518,-121 518,0 1072,0 1072,-121"/>
<text text-anchor="start" x="530" y="-101.3" font-family="Times,serif" font-size="14.00">({¬(Length(haystack) ≤ 1), ¬(If(Length(haystack) ≤ 1,</text>
<text text-anchor="start" x="530" y="-86.3" font-family="Times,serif" font-size="14.00">     seq.nth_u(haystack, 1),</text>
<text text-anchor="start" x="530" y="-71.3" font-family="Times,serif" font-size="14.00">     seq.nth_i(haystack, 1)) =</text>
<text text-anchor="start" x="530" y="-56.3" font-family="Times,serif" font-size="14.00">  needle), Length(haystack) ≤ 2, ¬(If(Length(haystack) ≤ 0,</text>
<text text-anchor="start" x="530" y="-41.3" font-family="Times,serif" font-size="14.00">     seq.nth_u(haystack, 0),</text>
<text text-anchor="start" x="530" y="-26.3" font-family="Times,serif" font-size="14.00">     seq.nth_i(haystack, 0)) =</text>
<text text-anchor="start" x="530" y="-11.3" font-family="Times,serif" font-size="14.00">  needle)}, SymbolicReturn(&#45;1), {needle: needle, haystack: haystack, i: 2})</text>
</g>
<!-- 15&#45;&gt;16 -->
<g id="edge16" class="edge">
<title>15&#45;&gt;16</title>
<path fill="none" stroke="black" d="M795,-156.81C795,-148.36 795,-139.72 795,-131.27"/>
<polygon fill="black" stroke="black" points="798.5,-131.08 795,-121.08 791.5,-131.08 798.5,-131.08"/>
</g>
<!-- 18 -->
<g id="node19" class="node">
<title>18</title>
<polygon fill="none" stroke="black" points="1604,-810.5 1026,-810.5 1026,-713.5 1604,-713.5 1604,-810.5"/>
<text text-anchor="start" x="1038" y="-790.8" font-family="Times,serif" font-size="14.00">({Length(haystack) ≤ 1, ¬(Length(haystack) ≤ 0), ¬(If(Length(haystack) ≤ 0,</text>
<text text-anchor="start" x="1038" y="-775.8" font-family="Times,serif" font-size="14.00">     seq.nth_u(haystack, 0),</text>
<text text-anchor="start" x="1038" y="-760.8" font-family="Times,serif" font-size="14.00">     seq.nth_i(haystack, 0)) =</text>
<text text-anchor="start" x="1038" y="-745.8" font-family="Times,serif" font-size="14.00">  needle)}, None, {needle: needle, haystack: haystack, i: 1})</text>
<text text-anchor="start" x="1277.5" y="-724.8" font-family="Courier,monospace" font-size="14.00">return &#45;1</text>
</g>
<!-- 17&#45;&gt;18 -->
<g id="edge18" class="edge">
<title>17&#45;&gt;18</title>
<path fill="none" stroke="black" d="M1315,-868.77C1315,-853.61 1315,-836.68 1315,-820.88"/>
<polygon fill="black" stroke="black" points="1318.5,-820.7 1315,-810.7 1311.5,-820.7 1318.5,-820.7"/>
</g>
<!-- 19 -->
<g id="node20" class="node">
<title>19</title>
<polygon fill="#aeeeee" stroke="black" points="1604,-622 1026,-622 1026,-546 1604,-546 1604,-622"/>
<text text-anchor="start" x="1038" y="-602.8" font-family="Times,serif" font-size="14.00">({Length(haystack) ≤ 1, ¬(Length(haystack) ≤ 0), ¬(If(Length(haystack) ≤ 0,</text>
<text text-anchor="start" x="1038" y="-587.8" font-family="Times,serif" font-size="14.00">     seq.nth_u(haystack, 0),</text>
<text text-anchor="start" x="1038" y="-572.8" font-family="Times,serif" font-size="14.00">     seq.nth_i(haystack, 0)) =</text>
<text text-anchor="start" x="1038" y="-557.8" font-family="Times,serif" font-size="14.00">  needle)}, SymbolicReturn(&#45;1), {needle: needle, haystack: haystack, i: 1})</text>
</g>
<!-- 18&#45;&gt;19 -->
<g id="edge19" class="edge">
<title>18&#45;&gt;19</title>
<path fill="none" stroke="black" d="M1315,-713.37C1315,-688.14 1315,-657.25 1315,-632.1"/>
<polygon fill="black" stroke="black" points="1318.5,-632.06 1315,-622.06 1311.5,-632.06 1318.5,-632.06"/>
</g>
<!-- 21 -->
<g id="node22" class="node">
<title>21</title>
<polygon fill="none" stroke="black" points="1643.5,-1209.5 1084.5,-1209.5 1084.5,-1157.5 1643.5,-1157.5 1643.5,-1209.5"/>
<text text-anchor="start" x="1097" y="-1190.3" font-family="Times,serif" font-size="14.00">({Length(haystack) ≤ 0}, None, {needle: needle, haystack: haystack, i: 0})</text>
<text text-anchor="start" x="1327" y="-1169.3" font-family="Courier,monospace" font-size="14.00">return &#45;1</text>
</g>
<!-- 20&#45;&gt;21 -->
<g id="edge21" class="edge">
<title>20&#45;&gt;21</title>
<path fill="none" stroke="black" d="M1364,-1267.84C1364,-1253.59 1364,-1235.55 1364,-1219.9"/>
<polygon fill="black" stroke="black" points="1367.5,-1219.53 1364,-1209.53 1360.5,-1219.53 1367.5,-1219.53"/>
</g>
<!-- 22 -->
<g id="node23" class="node">
<title>22</title>
<polygon fill="#aeeeee" stroke="black" points="1694.5,-1068.5 1033.5,-1068.5 1033.5,-1032.5 1694.5,-1032.5 1694.5,-1068.5"/>
<text text-anchor="start" x="1046" y="-1046.3" font-family="Times,serif" font-size="14.00">({Length(haystack) ≤ 0}, SymbolicReturn(&#45;1), {needle: needle, haystack: haystack, i: 0})</text>
</g>
<!-- 21&#45;&gt;22 -->
<g id="edge22" class="edge">
<title>21&#45;&gt;22</title>
<path fill="none" stroke="black" d="M1364,-1157.24C1364,-1134.78 1364,-1102 1364,-1078.91"/>
<polygon fill="black" stroke="black" points="1367.5,-1078.74 1364,-1068.74 1360.5,-1078.74 1367.5,-1078.74"/>
</g>
</g>
</svg>
