<?xml version="1.0" encoding="UTF-8" standalone="no"?>
<!DOCTYPE svg PUBLIC "-//W3C//DTD SVG 1.1//EN"
 "http://www.w3.org/Graphics/SVG/1.1/DTD/svg11.dtd">
<!-- Generated by graphviz version 2.43.0 (0)
 -->
<!-- Title: %3 Pages: 1 -->
<svg width="2945pt" height="2835pt"
 viewBox="0.00 0.00 2945.00 2835.00" xmlns="http://www.w3.org/2000/svg" xmlns:xlink="http://www.w3.org/1999/xlink">
<g id="graph0" class="graph" transform="scale(1 1) rotate(0) translate(4 2831)">
<title>%3</title>
<polygon fill="white" stroke="transparent" points="-4,4 -4,-2831 2941,-2831 2941,4 -4,4"/>
<!-- 0 -->
<g id="node1" class="node">
<title>0</title>
<polygon fill="none" stroke="black" points="1367,-2827 1037,-2827 1037,-2775 1367,-2775 1367,-2827"/>
<text text-anchor="start" x="1073.5" y="-2807.8" font-family="Times,serif" font-size="14.00">({}, None, {elem: elem, at: at, t: t})</text>
<text text-anchor="start" x="1049" y="-2786.8" font-family="Courier,monospace" font-size="14.00">assume ((0 &lt;= at) and (at &lt;= len(t)))</text>
</g>
<!-- 1 -->
<g id="node2" class="node">
<title>1</title>
<polygon fill="none" stroke="black" points="1420,-2739 984,-2739 984,-2687 1420,-2687 1420,-2739"/>
<text text-anchor="start" x="996" y="-2719.8" font-family="Times,serif" font-size="14.00">({0 ≤ at, at ≤ Length(t)}, None, {elem: elem, at: at, t: t})</text>
<text text-anchor="start" x="1135.5" y="-2698.8" font-family="Courier,monospace" font-size="14.00">result = tuple()</text>
</g>
<!-- 0&#45;&gt;1 -->
<g id="edge1" class="edge">
<title>0&#45;&gt;1</title>
<path fill="none" stroke="black" d="M1202,-2774.66C1202,-2766.7 1202,-2757.76 1202,-2749.24"/>
<polygon fill="black" stroke="black" points="1205.5,-2749.16 1202,-2739.16 1198.5,-2749.16 1205.5,-2749.16"/>
</g>
<!-- 2 -->
<g id="node3" class="node">
<title>2</title>
<polygon fill="none" stroke="black" points="1508,-2651 896,-2651 896,-2599 1508,-2599 1508,-2651"/>
<text text-anchor="start" x="908" y="-2631.8" font-family="Times,serif" font-size="14.00">({0 ≤ at, at ≤ Length(t)}, None, {elem: elem, at: at, t: t, result: Empty(Seq(Int))})</text>
<text text-anchor="start" x="1181" y="-2610.8" font-family="Courier,monospace" font-size="14.00">i = 0</text>
</g>
<!-- 1&#45;&gt;2 -->
<g id="edge2" class="edge">
<title>1&#45;&gt;2</title>
<path fill="none" stroke="black" d="M1202,-2686.66C1202,-2678.7 1202,-2669.76 1202,-2661.24"/>
<polygon fill="black" stroke="black" points="1205.5,-2661.16 1202,-2651.16 1198.5,-2661.16 1205.5,-2661.16"/>
</g>
<!-- 3 -->
<g id="node4" class="node">
<title>3</title>
<polygon fill="none" stroke="black" points="1523.5,-2563 880.5,-2563 880.5,-2511 1523.5,-2511 1523.5,-2563"/>
<text text-anchor="start" x="893" y="-2543.8" font-family="Times,serif" font-size="14.00">({0 ≤ at, at ≤ Length(t)}, None, {elem: elem, at: at, t: t, result: Empty(Seq(Int)), i: 0})</text>
<text text-anchor="start" x="1008.5" y="-2522.8" font-family="Courier,monospace" font-size="14.00">assert InsertInvariant1(i, elem, at, t, result)</text>
</g>
<!-- 2&#45;&gt;3 -->
<g id="edge3" class="edge">
<title>2&#45;&gt;3</title>
<path fill="none" stroke="black" d="M1202,-2598.66C1202,-2590.7 1202,-2581.76 1202,-2573.24"/>
<polygon fill="black" stroke="black" points="1205.5,-2573.16 1202,-2563.16 1198.5,-2573.16 1205.5,-2573.16"/>
</g>
<!-- 4 -->
<g id="node5" class="node">
<title>4</title>
<polygon fill="none" stroke="black" points="1523.5,-2475 880.5,-2475 880.5,-2423 1523.5,-2423 1523.5,-2475"/>
<text text-anchor="start" x="893" y="-2455.8" font-family="Times,serif" font-size="14.00">({0 ≤ at, at ≤ Length(t)}, None, {elem: elem, at: at, t: t, result: Empty(Seq(Int)), i: 0})</text>
<text text-anchor="start" x="1173.5" y="-2434.8" font-family="Courier,monospace" font-size="14.00">havoc i</text>
</g>
<!-- 3&#45;&gt;4 -->
<g id="edge4" class="edge">
<title>3&#45;&gt;4</title>
<path fill="none" stroke="black" d="M1202,-2510.66C1202,-2502.7 1202,-2493.76 1202,-2485.24"/>
<polygon fill="black" stroke="black" points="1205.5,-2485.16 1202,-2475.16 1198.5,-2485.16 1205.5,-2485.16"/>
</g>
<!-- 5 -->
<g id="node6" class="node">
<title>5</title>
<polygon fill="none" stroke="black" points="1538,-2387 866,-2387 866,-2335 1538,-2335 1538,-2387"/>
<text text-anchor="start" x="878" y="-2367.8" font-family="Times,serif" font-size="14.00">({0 ≤ at, at ≤ Length(t)}, None, {elem: elem, at: at, t: t, result: Empty(Seq(Int)), i: i!412})</text>
<text text-anchor="start" x="1152" y="-2346.8" font-family="Courier,monospace" font-size="14.00">havoc result</text>
</g>
<!-- 4&#45;&gt;5 -->
<g id="edge5" class="edge">
<title>4&#45;&gt;5</title>
<path fill="none" stroke="black" d="M1202,-2422.66C1202,-2414.7 1202,-2405.76 1202,-2397.24"/>
<polygon fill="black" stroke="black" points="1205.5,-2397.16 1202,-2387.16 1198.5,-2397.16 1205.5,-2397.16"/>
</g>
<!-- 6 -->
<g id="node7" class="node">
<title>6</title>
<polygon fill="none" stroke="black" points="1517.5,-2299 886.5,-2299 886.5,-2247 1517.5,-2247 1517.5,-2299"/>
<text text-anchor="start" x="899" y="-2279.8" font-family="Times,serif" font-size="14.00">({0 ≤ at, at ≤ Length(t)}, None, {elem: elem, at: at, t: t, result: result!413, i: i!412})</text>
<text text-anchor="start" x="1008.5" y="-2258.8" font-family="Courier,monospace" font-size="14.00">assume InsertInvariant1(i, elem, at, t, result)</text>
</g>
<!-- 5&#45;&gt;6 -->
<g id="edge6" class="edge">
<title>5&#45;&gt;6</title>
<path fill="none" stroke="black" d="M1202,-2334.66C1202,-2326.7 1202,-2317.76 1202,-2309.24"/>
<polygon fill="black" stroke="black" points="1205.5,-2309.16 1202,-2299.16 1198.5,-2309.16 1205.5,-2309.16"/>
</g>
<!-- 7 -->
<g id="node8" class="node">
<title>7</title>
<polygon fill="none" stroke="black" points="1617,-2211 787,-2211 787,-2129 1617,-2129 1617,-2211"/>
<text text-anchor="start" x="799" y="-2191.8" font-family="Times,serif" font-size="14.00">({0 ≤ i!412 ∧</text>
<text text-anchor="start" x="799" y="-2176.8" font-family="Times,serif" font-size="14.00">i!412 ≤ at ∧</text>
<text text-anchor="start" x="799" y="-2161.8" font-family="Times,serif" font-size="14.00">result!413 = seq.extract(t, 0, i!412), at ≤ Length(t)}, None, {elem: elem, at: at, t: t, result: result!413, i: i!412})</text>
<text text-anchor="start" x="966.5" y="-2140.8" font-family="Courier,monospace" font-size="14.00">loop&#45;scope(inv=InsertInvariant1(i, elem, at, t, result)):</text>
</g>
<!-- 6&#45;&gt;7 -->
<g id="edge7" class="edge">
<title>6&#45;&gt;7</title>
<path fill="none" stroke="black" d="M1202,-2246.77C1202,-2239.05 1202,-2230.26 1202,-2221.47"/>
<polygon fill="black" stroke="black" points="1205.5,-2221.21 1202,-2211.21 1198.5,-2221.21 1205.5,-2221.21"/>
</g>
<!-- 8 -->
<g id="node9" class="node">
<title>8</title>
<polygon fill="none" stroke="black" points="1617,-2093 787,-2093 787,-2011 1617,-2011 1617,-2093"/>
<text text-anchor="start" x="799" y="-2073.8" font-family="Times,serif" font-size="14.00">({0 ≤ i!412 ∧</text>
<text text-anchor="start" x="799" y="-2058.8" font-family="Times,serif" font-size="14.00">i!412 ≤ at ∧</text>
<text text-anchor="start" x="799" y="-2043.8" font-family="Times,serif" font-size="14.00">result!413 = seq.extract(t, 0, i!412), at ≤ Length(t)}, None, {elem: elem, at: at, t: t, result: result!413, i: i!412})</text>
<text text-anchor="start" x="1152" y="-2022.8" font-family="Courier,monospace" font-size="14.00">if (i &lt; at):</text>
</g>
<!-- 7&#45;&gt;8 -->
<g id="edge8" class="edge">
<title>7&#45;&gt;8</title>
<path fill="none" stroke="black" d="M1202,-2128.75C1202,-2120.57 1202,-2111.86 1202,-2103.37"/>
<polygon fill="black" stroke="black" points="1205.5,-2103.17 1202,-2093.17 1198.5,-2103.17 1205.5,-2103.17"/>
</g>
<!-- 9 -->
<g id="node10" class="node">
<title>9</title>
<polygon fill="none" stroke="black" points="1199,-1975 265,-1975 265,-1893 1199,-1893 1199,-1975"/>
<text text-anchor="start" x="277" y="-1955.8" font-family="Times,serif" font-size="14.00">({0 ≤ i!412 ∧</text>
<text text-anchor="start" x="277" y="-1940.8" font-family="Times,serif" font-size="14.00">i!412 ≤ at ∧</text>
<text text-anchor="start" x="277" y="-1925.8" font-family="Times,serif" font-size="14.00">result!413 = seq.extract(t, 0, i!412), ¬(at ≤ i!412), at ≤ Length(t)}, None, {elem: elem, at: at, t: t, result: result!413, i: i!412})</text>
<text text-anchor="start" x="616" y="-1904.8" font-family="Courier,monospace" font-size="14.00">result = (result + (t[i], ))</text>
</g>
<!-- 8&#45;&gt;9 -->
<g id="edge9" class="edge">
<title>8&#45;&gt;9</title>
<path fill="none" stroke="black" d="M1039.92,-2011C996.03,-2000.16 948.37,-1988.4 903.95,-1977.44"/>
<polygon fill="black" stroke="black" points="904.78,-1974.04 894.23,-1975.04 903.1,-1980.83 904.78,-1974.04"/>
</g>
<!-- 14 -->
<g id="node15" class="node">
<title>14</title>
<polygon fill="none" stroke="black" points="2159,-1975 1247,-1975 1247,-1893 2159,-1893 2159,-1975"/>
<text text-anchor="start" x="1259" y="-1955.8" font-family="Times,serif" font-size="14.00">({0 ≤ i!412 ∧</text>
<text text-anchor="start" x="1259" y="-1940.8" font-family="Times,serif" font-size="14.00">i!412 ≤ at ∧</text>
<text text-anchor="start" x="1259" y="-1925.8" font-family="Times,serif" font-size="14.00">result!413 = seq.extract(t, 0, i!412), at ≤ i!412, at ≤ Length(t)}, None, {elem: elem, at: at, t: t, result: result!413, i: i!412})</text>
<text text-anchor="start" x="1682" y="-1904.8" font-family="Courier,monospace" font-size="14.00">break</text>
</g>
<!-- 8&#45;&gt;14 -->
<g id="edge14" class="edge">
<title>8&#45;&gt;14</title>
<path fill="none" stroke="black" d="M1374.77,-2011C1421.75,-2000.12 1472.79,-1988.3 1520.3,-1977.3"/>
<polygon fill="black" stroke="black" points="1521.12,-1980.71 1530.07,-1975.04 1519.54,-1973.89 1521.12,-1980.71"/>
</g>
<!-- 10 -->
<g id="node11" class="node">
<title>10</title>
<polygon fill="none" stroke="black" points="1258.5,-1857 85.5,-1857 85.5,-1775 1258.5,-1775 1258.5,-1857"/>
<text text-anchor="start" x="98" y="-1837.8" font-family="Times,serif" font-size="14.00">({0 ≤ i!412 ∧</text>
<text text-anchor="start" x="98" y="-1822.8" font-family="Times,serif" font-size="14.00">i!412 ≤ at ∧</text>
<text text-anchor="start" x="98" y="-1807.8" font-family="Times,serif" font-size="14.00">result!413 = seq.extract(t, 0, i!412), ¬(at ≤ i!412), at ≤ Length(t)}, None, {elem: elem, at: at, t: t, result: Concat(result!413, Unit(seq.nth_i(t, i!412))), i: i!412})</text>
<text text-anchor="start" x="627" y="-1786.8" font-family="Courier,monospace" font-size="14.00">i = (i + 1)</text>
</g>
<!-- 9&#45;&gt;10 -->
<g id="edge10" class="edge">
<title>9&#45;&gt;10</title>
<path fill="none" stroke="black" d="M711.18,-1892.75C706.76,-1884.21 702.05,-1875.09 697.47,-1866.25"/>
<polygon fill="black" stroke="black" points="700.48,-1864.45 692.78,-1857.17 694.27,-1867.66 700.48,-1864.45"/>
</g>
<!-- 11 -->
<g id="node12" class="node">
<title>11</title>
<polygon fill="none" stroke="black" points="1230.5,-1739 27.5,-1739 27.5,-1657 1230.5,-1657 1230.5,-1739"/>
<text text-anchor="start" x="40" y="-1719.8" font-family="Times,serif" font-size="14.00">({0 ≤ i!412 ∧</text>
<text text-anchor="start" x="40" y="-1704.8" font-family="Times,serif" font-size="14.00">i!412 ≤ at ∧</text>
<text text-anchor="start" x="40" y="-1689.8" font-family="Times,serif" font-size="14.00">result!413 = seq.extract(t, 0, i!412), ¬(at ≤ i!412), at ≤ Length(t)}, None, {elem: elem, at: at, t: t, result: Concat(result!413, Unit(seq.nth_i(t, i!412))), i: 1 + i!412})</text>
<text text-anchor="start" x="596" y="-1668.8" font-family="Courier,monospace" font-size="14.00">continue</text>
</g>
<!-- 10&#45;&gt;11 -->
<g id="edge11" class="edge">
<title>10&#45;&gt;11</title>
<path fill="none" stroke="black" d="M657.08,-1774.75C653.98,-1766.39 650.68,-1757.47 647.46,-1748.81"/>
<polygon fill="black" stroke="black" points="650.65,-1747.33 643.89,-1739.17 644.09,-1749.77 650.65,-1747.33"/>
</g>
<!-- 12 -->
<g id="node13" class="node">
<title>12</title>
<polygon fill="none" stroke="black" points="1240,-1610.5 0,-1610.5 0,-1549.5 1240,-1549.5 1240,-1610.5"/>
<text text-anchor="start" x="12" y="-1590.8" font-family="Times,serif" font-size="14.00">({0 ≤ i!412 ∧</text>
<text text-anchor="start" x="12" y="-1575.8" font-family="Times,serif" font-size="14.00">i!412 ≤ at ∧</text>
<text text-anchor="start" x="12" y="-1560.8" font-family="Times,serif" font-size="14.00">result!413 = seq.extract(t, 0, i!412), ¬(at ≤ i!412), at ≤ Length(t)}, Continue(), {elem: elem, at: at, t: t, result: Concat(result!413, Unit(seq.nth_i(t, i!412))), i: 1 + i!412})</text>
</g>
<!-- 11&#45;&gt;12 -->
<g id="edge12" class="edge">
<title>11&#45;&gt;12</title>
<path fill="none" stroke="black" d="M625.88,-1656.75C624.98,-1645.13 623.99,-1632.46 623.09,-1620.86"/>
<polygon fill="black" stroke="black" points="626.56,-1620.27 622.29,-1610.57 619.58,-1620.81 626.56,-1620.27"/>
</g>
<!-- 13 -->
<g id="node14" class="node">
<title>13</title>
<polygon fill="#aeeeee" stroke="black" points="1171,-1503 69,-1503 69,-1397 1171,-1397 1171,-1503"/>
<text text-anchor="start" x="81" y="-1483.8" font-family="Times,serif" font-size="14.00">({&#45;1 ≤ i!412 ∧</text>
<text text-anchor="start" x="81" y="-1468.8" font-family="Times,serif" font-size="14.00">i!412 ≤ &#45;1 + at ∧</text>
<text text-anchor="start" x="81" y="-1453.8" font-family="Times,serif" font-size="14.00">seq.extract(t, 0, 1 + i!412) =</text>
<text text-anchor="start" x="81" y="-1438.8" font-family="Times,serif" font-size="14.00">Concat(result!413, Unit(seq.nth_i(t, i!412))), 0 ≤ i!412 ∧</text>
<text text-anchor="start" x="81" y="-1423.8" font-family="Times,serif" font-size="14.00">i!412 ≤ at ∧</text>
<text text-anchor="start" x="81" y="-1408.8" font-family="Times,serif" font-size="14.00">result!413 = seq.extract(t, 0, i!412), at ≤ Length(t)}, Halt(), {elem: elem, at: at, t: t, result: Concat(result!413, Unit(seq.nth_i(t, i!412))), i: 1 + i!412})</text>
</g>
<!-- 12&#45;&gt;13 -->
<g id="edge13" class="edge">
<title>12&#45;&gt;13</title>
<path fill="none" stroke="black" d="M620,-1549.31C620,-1538.47 620,-1525.77 620,-1513.16"/>
<polygon fill="black" stroke="black" points="623.5,-1513.11 620,-1503.11 616.5,-1513.11 623.5,-1513.11"/>
</g>
<!-- 15 -->
<g id="node16" class="node">
<title>15</title>
<polygon fill="none" stroke="black" points="2211,-1857 1299,-1857 1299,-1775 2211,-1775 2211,-1857"/>
<text text-anchor="start" x="1311" y="-1837.8" font-family="Times,serif" font-size="14.00">({0 ≤ i!412 ∧</text>
<text text-anchor="start" x="1311" y="-1822.8" font-family="Times,serif" font-size="14.00">i!412 ≤ at ∧</text>
<text text-anchor="start" x="1311" y="-1807.8" font-family="Times,serif" font-size="14.00">result!413 = seq.extract(t, 0, i!412), at ≤ i!412, at ≤ Length(t)}, None, {elem: elem, at: at, t: t, result: result!413, i: i!412})</text>
<text text-anchor="start" x="1639" y="-1786.8" font-family="Courier,monospace" font-size="14.00">result = (result + (elem, ))</text>
</g>
<!-- 14&#45;&gt;15 -->
<g id="edge15" class="edge">
<title>14&#45;&gt;15</title>
<path fill="none" stroke="black" d="M1721.04,-1892.75C1724.83,-1884.3 1728.87,-1875.28 1732.8,-1866.53"/>
<polygon fill="black" stroke="black" points="1736.09,-1867.73 1736.99,-1857.17 1729.71,-1864.87 1736.09,-1867.73"/>
</g>
<!-- 16 -->
<g id="node17" class="node">
<title>16</title>
<polygon fill="none" stroke="black" points="2310.5,-1739 1253.5,-1739 1253.5,-1657 2310.5,-1657 2310.5,-1739"/>
<text text-anchor="start" x="1266" y="-1719.8" font-family="Times,serif" font-size="14.00">({0 ≤ i!412 ∧</text>
<text text-anchor="start" x="1266" y="-1704.8" font-family="Times,serif" font-size="14.00">i!412 ≤ at ∧</text>
<text text-anchor="start" x="1266" y="-1689.8" font-family="Times,serif" font-size="14.00">result!413 = seq.extract(t, 0, i!412), at ≤ i!412, at ≤ Length(t)}, None, {elem: elem, at: at, t: t, result: Concat(result!413, Unit(elem)), i: i!412})</text>
<text text-anchor="start" x="1588.5" y="-1668.8" font-family="Courier,monospace" font-size="14.00">assert InsertInvariant2(i, elem, at, t, result)</text>
</g>
<!-- 15&#45;&gt;16 -->
<g id="edge16" class="edge">
<title>15&#45;&gt;16</title>
<path fill="none" stroke="black" d="M1764.37,-1774.75C1766.29,-1766.48 1768.35,-1757.66 1770.34,-1749.09"/>
<polygon fill="black" stroke="black" points="1773.79,-1749.71 1772.65,-1739.17 1766.97,-1748.12 1773.79,-1749.71"/>
</g>
<!-- 17 -->
<g id="node18" class="node">
<title>17</title>
<polygon fill="none" stroke="black" points="2315.5,-1621 1258.5,-1621 1258.5,-1539 2315.5,-1539 2315.5,-1621"/>
<text text-anchor="start" x="1271" y="-1601.8" font-family="Times,serif" font-size="14.00">({0 ≤ i!412 ∧</text>
<text text-anchor="start" x="1271" y="-1586.8" font-family="Times,serif" font-size="14.00">i!412 ≤ at ∧</text>
<text text-anchor="start" x="1271" y="-1571.8" font-family="Times,serif" font-size="14.00">result!413 = seq.extract(t, 0, i!412), at ≤ i!412, at ≤ Length(t)}, None, {elem: elem, at: at, t: t, result: Concat(result!413, Unit(elem)), i: i!412})</text>
<text text-anchor="start" x="1758.5" y="-1550.8" font-family="Courier,monospace" font-size="14.00">havoc i</text>
</g>
<!-- 16&#45;&gt;17 -->
<g id="edge17" class="edge">
<title>16&#45;&gt;17</title>
<path fill="none" stroke="black" d="M1783.73,-1656.75C1784.09,-1648.57 1784.46,-1639.86 1784.83,-1631.37"/>
<polygon fill="black" stroke="black" points="1788.33,-1631.32 1785.27,-1621.17 1781.34,-1631.01 1788.33,-1631.32"/>
</g>
<!-- 18 -->
<g id="node19" class="node">
<title>18</title>
<polygon fill="none" stroke="black" points="2315.5,-1491 1258.5,-1491 1258.5,-1409 2315.5,-1409 2315.5,-1491"/>
<text text-anchor="start" x="1271" y="-1471.8" font-family="Times,serif" font-size="14.00">({0 ≤ i!412 ∧</text>
<text text-anchor="start" x="1271" y="-1456.8" font-family="Times,serif" font-size="14.00">i!412 ≤ at ∧</text>
<text text-anchor="start" x="1271" y="-1441.8" font-family="Times,serif" font-size="14.00">result!413 = seq.extract(t, 0, i!412), at ≤ i!412, at ≤ Length(t)}, None, {elem: elem, at: at, t: t, result: Concat(result!413, Unit(elem)), i: i!432})</text>
<text text-anchor="start" x="1737.5" y="-1420.8" font-family="Courier,monospace" font-size="14.00">havoc result</text>
</g>
<!-- 17&#45;&gt;18 -->
<g id="edge18" class="edge">
<title>17&#45;&gt;18</title>
<path fill="none" stroke="black" d="M1787,-1538.85C1787,-1526.94 1787,-1513.74 1787,-1501.27"/>
<polygon fill="black" stroke="black" points="1790.5,-1501.01 1787,-1491.01 1783.5,-1501.01 1790.5,-1501.01"/>
</g>
<!-- 19 -->
<g id="node20" class="node">
<title>19</title>
<polygon fill="none" stroke="black" points="2243,-1361 1331,-1361 1331,-1279 2243,-1279 2243,-1361"/>
<text text-anchor="start" x="1343" y="-1341.8" font-family="Times,serif" font-size="14.00">({0 ≤ i!412 ∧</text>
<text text-anchor="start" x="1343" y="-1326.8" font-family="Times,serif" font-size="14.00">i!412 ≤ at ∧</text>
<text text-anchor="start" x="1343" y="-1311.8" font-family="Times,serif" font-size="14.00">result!413 = seq.extract(t, 0, i!412), at ≤ i!412, at ≤ Length(t)}, None, {elem: elem, at: at, t: t, result: result!433, i: i!432})</text>
<text text-anchor="start" x="1593" y="-1290.8" font-family="Courier,monospace" font-size="14.00">assume InsertInvariant2(i, elem, at, t, result)</text>
</g>
<!-- 18&#45;&gt;19 -->
<g id="edge19" class="edge">
<title>18&#45;&gt;19</title>
<path fill="none" stroke="black" d="M1787,-1408.85C1787,-1396.94 1787,-1383.74 1787,-1371.27"/>
<polygon fill="black" stroke="black" points="1790.5,-1371.01 1787,-1361.01 1783.5,-1371.01 1790.5,-1371.01"/>
</g>
<!-- 20 -->
<g id="node21" class="node">
<title>20</title>
<polygon fill="none" stroke="black" points="2187.5,-1243 1386.5,-1243 1386.5,-1101 2187.5,-1101 2187.5,-1243"/>
<text text-anchor="start" x="1399" y="-1223.8" font-family="Times,serif" font-size="14.00">({i!432 ≥ at ∧</text>
<text text-anchor="start" x="1399" y="-1208.8" font-family="Times,serif" font-size="14.00">i!432 ≤ Length(t) ∧</text>
<text text-anchor="start" x="1399" y="-1193.8" font-family="Times,serif" font-size="14.00">result!433 =</text>
<text text-anchor="start" x="1399" y="-1178.8" font-family="Times,serif" font-size="14.00">Concat(seq.extract(t, 0, at),</text>
<text text-anchor="start" x="1399" y="-1163.8" font-family="Times,serif" font-size="14.00">       Concat(Unit(elem), seq.extract(t, at, i!432 + &#45;1·at))), 0 ≤ i!412 ∧</text>
<text text-anchor="start" x="1399" y="-1148.8" font-family="Times,serif" font-size="14.00">i!412 ≤ at ∧</text>
<text text-anchor="start" x="1399" y="-1133.8" font-family="Times,serif" font-size="14.00">result!413 = seq.extract(t, 0, i!412), at ≤ i!412}, None, {elem: elem, at: at, t: t, result: result!433, i: i!432})</text>
<text text-anchor="start" x="1552" y="-1112.8" font-family="Courier,monospace" font-size="14.00">loop&#45;scope(inv=InsertInvariant2(i, elem, at, t, result)):</text>
</g>
<!-- 19&#45;&gt;20 -->
<g id="edge20" class="edge">
<title>19&#45;&gt;20</title>
<path fill="none" stroke="black" d="M1787,-1278.72C1787,-1270.68 1787,-1261.98 1787,-1253.14"/>
<polygon fill="black" stroke="black" points="1790.5,-1253.13 1787,-1243.13 1783.5,-1253.13 1790.5,-1253.13"/>
</g>
<!-- 21 -->
<g id="node22" class="node">
<title>21</title>
<polygon fill="none" stroke="black" points="2187.5,-1065 1386.5,-1065 1386.5,-923 2187.5,-923 2187.5,-1065"/>
<text text-anchor="start" x="1399" y="-1045.8" font-family="Times,serif" font-size="14.00">({i!432 ≥ at ∧</text>
<text text-anchor="start" x="1399" y="-1030.8" font-family="Times,serif" font-size="14.00">i!432 ≤ Length(t) ∧</text>
<text text-anchor="start" x="1399" y="-1015.8" font-family="Times,serif" font-size="14.00">result!433 =</text>
<text text-anchor="start" x="1399" y="-1000.8" font-family="Times,serif" font-size="14.00">Concat(seq.extract(t, 0, at),</text>
<text text-anchor="start" x="1399" y="-985.8" font-family="Times,serif" font-size="14.00">       Concat(Unit(elem), seq.extract(t, at, i!432 + &#45;1·at))), 0 ≤ i!412 ∧</text>
<text text-anchor="start" x="1399" y="-970.8" font-family="Times,serif" font-size="14.00">i!412 ≤ at ∧</text>
<text text-anchor="start" x="1399" y="-955.8" font-family="Times,serif" font-size="14.00">result!413 = seq.extract(t, 0, i!412), at ≤ i!412}, None, {elem: elem, at: at, t: t, result: result!433, i: i!432})</text>
<text text-anchor="start" x="1721" y="-934.8" font-family="Courier,monospace" font-size="14.00">if (i &lt; len(t)):</text>
</g>
<!-- 20&#45;&gt;21 -->
<g id="edge21" class="edge">
<title>20&#45;&gt;21</title>
<path fill="none" stroke="black" d="M1787,-1100.93C1787,-1092.46 1787,-1083.75 1787,-1075.15"/>
<polygon fill="black" stroke="black" points="1790.5,-1075.11 1787,-1065.11 1783.5,-1075.11 1790.5,-1075.11"/>
</g>
<!-- 22 -->
<g id="node23" class="node">
<title>22</title>
<polygon fill="none" stroke="black" points="1784,-887 826,-887 826,-745 1784,-745 1784,-887"/>
<text text-anchor="start" x="838" y="-867.8" font-family="Times,serif" font-size="14.00">({i!432 ≥ at ∧</text>
<text text-anchor="start" x="838" y="-852.8" font-family="Times,serif" font-size="14.00">i!432 ≤ Length(t) ∧</text>
<text text-anchor="start" x="838" y="-837.8" font-family="Times,serif" font-size="14.00">result!433 =</text>
<text text-anchor="start" x="838" y="-822.8" font-family="Times,serif" font-size="14.00">Concat(seq.extract(t, 0, at),</text>
<text text-anchor="start" x="838" y="-807.8" font-family="Times,serif" font-size="14.00">       Concat(Unit(elem), seq.extract(t, at, i!432 + &#45;1·at))), 0 ≤ i!412 ∧</text>
<text text-anchor="start" x="838" y="-792.8" font-family="Times,serif" font-size="14.00">i!412 ≤ at ∧</text>
<text text-anchor="start" x="838" y="-777.8" font-family="Times,serif" font-size="14.00">result!413 = seq.extract(t, 0, i!412), ¬(Length(t) ≤ i!432), at ≤ i!412}, None, {elem: elem, at: at, t: t, result: result!433, i: i!432})</text>
<text text-anchor="start" x="1189" y="-756.8" font-family="Courier,monospace" font-size="14.00">result = (result + (t[i], ))</text>
</g>
<!-- 21&#45;&gt;22 -->
<g id="edge22" class="edge">
<title>21&#45;&gt;22</title>
<path fill="none" stroke="black" d="M1595.12,-922.93C1565.98,-912.3 1535.84,-901.29 1506.51,-890.58"/>
<polygon fill="black" stroke="black" points="1507.61,-887.25 1497.01,-887.11 1505.2,-893.83 1507.61,-887.25"/>
</g>
<!-- 27 -->
<g id="node28" class="node">
<title>27</title>
<polygon fill="none" stroke="black" points="2767.5,-887 1832.5,-887 1832.5,-745 2767.5,-745 2767.5,-887"/>
<text text-anchor="start" x="1845" y="-867.8" font-family="Times,serif" font-size="14.00">({i!432 ≥ at ∧</text>
<text text-anchor="start" x="1845" y="-852.8" font-family="Times,serif" font-size="14.00">i!432 ≤ Length(t) ∧</text>
<text text-anchor="start" x="1845" y="-837.8" font-family="Times,serif" font-size="14.00">result!433 =</text>
<text text-anchor="start" x="1845" y="-822.8" font-family="Times,serif" font-size="14.00">Concat(seq.extract(t, 0, at),</text>
<text text-anchor="start" x="1845" y="-807.8" font-family="Times,serif" font-size="14.00">       Concat(Unit(elem), seq.extract(t, at, i!432 + &#45;1·at))), 0 ≤ i!412 ∧</text>
<text text-anchor="start" x="1845" y="-792.8" font-family="Times,serif" font-size="14.00">i!412 ≤ at ∧</text>
<text text-anchor="start" x="1845" y="-777.8" font-family="Times,serif" font-size="14.00">result!413 = seq.extract(t, 0, i!412), at ≤ i!412, Length(t) ≤ i!432}, None, {elem: elem, at: at, t: t, result: result!433, i: i!432})</text>
<text text-anchor="start" x="2279.5" y="-756.8" font-family="Courier,monospace" font-size="14.00">break</text>
</g>
<!-- 21&#45;&gt;27 -->
<g id="edge27" class="edge">
<title>21&#45;&gt;27</title>
<path fill="none" stroke="black" d="M1991.23,-922.93C2022.37,-912.25 2054.59,-901.2 2085.94,-890.44"/>
<polygon fill="black" stroke="black" points="2087.32,-893.67 2095.64,-887.11 2085.04,-887.05 2087.32,-893.67"/>
</g>
<!-- 23 -->
<g id="node24" class="node">
<title>23</title>
<polygon fill="none" stroke="black" points="1844,-709 648,-709 648,-567 1844,-567 1844,-709"/>
<text text-anchor="start" x="660" y="-689.8" font-family="Times,serif" font-size="14.00">({i!432 ≥ at ∧</text>
<text text-anchor="start" x="660" y="-674.8" font-family="Times,serif" font-size="14.00">i!432 ≤ Length(t) ∧</text>
<text text-anchor="start" x="660" y="-659.8" font-family="Times,serif" font-size="14.00">result!433 =</text>
<text text-anchor="start" x="660" y="-644.8" font-family="Times,serif" font-size="14.00">Concat(seq.extract(t, 0, at),</text>
<text text-anchor="start" x="660" y="-629.8" font-family="Times,serif" font-size="14.00">       Concat(Unit(elem), seq.extract(t, at, i!432 + &#45;1·at))), 0 ≤ i!412 ∧</text>
<text text-anchor="start" x="660" y="-614.8" font-family="Times,serif" font-size="14.00">i!412 ≤ at ∧</text>
<text text-anchor="start" x="660" y="-599.8" font-family="Times,serif" font-size="14.00">result!413 = seq.extract(t, 0, i!412), ¬(Length(t) ≤ i!432), at ≤ i!412}, None, {elem: elem, at: at, t: t, result: Concat(result!433, Unit(seq.nth_i(t, i!432))), i: i!432})</text>
<text text-anchor="start" x="1200.5" y="-578.8" font-family="Courier,monospace" font-size="14.00">i = (i + 1)</text>
</g>
<!-- 22&#45;&gt;23 -->
<g id="edge23" class="edge">
<title>22&#45;&gt;23</title>
<path fill="none" stroke="black" d="M1281.51,-744.93C1278.64,-736.37 1275.69,-727.56 1272.77,-718.87"/>
<polygon fill="black" stroke="black" points="1276,-717.48 1269.5,-709.11 1269.36,-719.71 1276,-717.48"/>
</g>
<!-- 24 -->
<g id="node25" class="node">
<title>24</title>
<polygon fill="none" stroke="black" points="1852,-531 626,-531 626,-389 1852,-389 1852,-531"/>
<text text-anchor="start" x="638" y="-511.8" font-family="Times,serif" font-size="14.00">({i!432 ≥ at ∧</text>
<text text-anchor="start" x="638" y="-496.8" font-family="Times,serif" font-size="14.00">i!432 ≤ Length(t) ∧</text>
<text text-anchor="start" x="638" y="-481.8" font-family="Times,serif" font-size="14.00">result!433 =</text>
<text text-anchor="start" x="638" y="-466.8" font-family="Times,serif" font-size="14.00">Concat(seq.extract(t, 0, at),</text>
<text text-anchor="start" x="638" y="-451.8" font-family="Times,serif" font-size="14.00">       Concat(Unit(elem), seq.extract(t, at, i!432 + &#45;1·at))), 0 ≤ i!412 ∧</text>
<text text-anchor="start" x="638" y="-436.8" font-family="Times,serif" font-size="14.00">i!412 ≤ at ∧</text>
<text text-anchor="start" x="638" y="-421.8" font-family="Times,serif" font-size="14.00">result!413 = seq.extract(t, 0, i!412), ¬(Length(t) ≤ i!432), at ≤ i!412}, None, {elem: elem, at: at, t: t, result: Concat(result!433, Unit(seq.nth_i(t, i!432))), i: 1 + i!432})</text>
<text text-anchor="start" x="1205.5" y="-400.8" font-family="Courier,monospace" font-size="14.00">continue</text>
</g>
<!-- 23&#45;&gt;24 -->
<g id="edge24" class="edge">
<title>23&#45;&gt;24</title>
<path fill="none" stroke="black" d="M1243.21,-566.93C1242.88,-558.46 1242.53,-549.75 1242.19,-541.15"/>
<polygon fill="black" stroke="black" points="1245.68,-540.96 1241.79,-531.11 1238.69,-541.24 1245.68,-540.96"/>
</g>
<!-- 25 -->
<g id="node26" class="node">
<title>25</title>
<polygon fill="none" stroke="black" points="1821,-353 557,-353 557,-232 1821,-232 1821,-353"/>
<text text-anchor="start" x="569" y="-333.3" font-family="Times,serif" font-size="14.00">({i!432 ≥ at ∧</text>
<text text-anchor="start" x="569" y="-318.3" font-family="Times,serif" font-size="14.00">i!432 ≤ Length(t) ∧</text>
<text text-anchor="start" x="569" y="-303.3" font-family="Times,serif" font-size="14.00">result!433 =</text>
<text text-anchor="start" x="569" y="-288.3" font-family="Times,serif" font-size="14.00">Concat(seq.extract(t, 0, at),</text>
<text text-anchor="start" x="569" y="-273.3" font-family="Times,serif" font-size="14.00">       Concat(Unit(elem), seq.extract(t, at, i!432 + &#45;1·at))), 0 ≤ i!412 ∧</text>
<text text-anchor="start" x="569" y="-258.3" font-family="Times,serif" font-size="14.00">i!412 ≤ at ∧</text>
<text text-anchor="start" x="569" y="-243.3" font-family="Times,serif" font-size="14.00">result!413 = seq.extract(t, 0, i!412), ¬(Length(t) ≤ i!432), at ≤ i!412}, Continue(), {elem: elem, at: at, t: t, result: Concat(result!433, Unit(seq.nth_i(t, i!432))), i: 1 + i!432})</text>
</g>
<!-- 24&#45;&gt;25 -->
<g id="edge25" class="edge">
<title>24&#45;&gt;25</title>
<path fill="none" stroke="black" d="M1217.8,-388.81C1215.18,-380.17 1212.52,-371.34 1209.91,-362.72"/>
<polygon fill="black" stroke="black" points="1213.24,-361.64 1207,-353.08 1206.54,-363.67 1213.24,-361.64"/>
</g>
<!-- 26 -->
<g id="node27" class="node">
<title>26</title>
<polygon fill="#aeeeee" stroke="black" points="1798,-196 580,-196 580,0 1798,0 1798,-196"/>
<text text-anchor="start" x="592" y="-176.8" font-family="Times,serif" font-size="14.00">({i!432 ≥ &#45;1 + at ∧</text>
<text text-anchor="start" x="592" y="-161.8" font-family="Times,serif" font-size="14.00">i!432 ≤ &#45;1 + Length(t) ∧</text>
<text text-anchor="start" x="592" y="-146.8" font-family="Times,serif" font-size="14.00">Concat(result!433, Unit(seq.nth_i(t, i!432))) =</text>
<text text-anchor="start" x="592" y="-131.8" font-family="Times,serif" font-size="14.00">Concat(seq.extract(t, 0, at),</text>
<text text-anchor="start" x="592" y="-116.8" font-family="Times,serif" font-size="14.00">       Concat(Unit(elem),</text>
<text text-anchor="start" x="592" y="-101.8" font-family="Times,serif" font-size="14.00">              seq.extract(t, at, 1 + i!432 + &#45;1·at))), 0 ≤ i!412 ∧</text>
<text text-anchor="start" x="592" y="-86.8" font-family="Times,serif" font-size="14.00">i!412 ≤ at ∧</text>
<text text-anchor="start" x="592" y="-71.8" font-family="Times,serif" font-size="14.00">result!413 = seq.extract(t, 0, i!412), i!432 ≥ at ∧</text>
<text text-anchor="start" x="592" y="-56.8" font-family="Times,serif" font-size="14.00">i!432 ≤ Length(t) ∧</text>
<text text-anchor="start" x="592" y="-41.8" font-family="Times,serif" font-size="14.00">result!433 =</text>
<text text-anchor="start" x="592" y="-26.8" font-family="Times,serif" font-size="14.00">Concat(seq.extract(t, 0, at),</text>
<text text-anchor="start" x="592" y="-11.8" font-family="Times,serif" font-size="14.00">       Concat(Unit(elem), seq.extract(t, at, i!432 + &#45;1·at))), at ≤ i!412}, Halt(), {elem: elem, at: at, t: t, result: Concat(result!433, Unit(seq.nth_i(t, i!432))), i: 1 + i!432})</text>
</g>
<!-- 25&#45;&gt;26 -->
<g id="edge26" class="edge">
<title>25&#45;&gt;26</title>
<path fill="none" stroke="black" d="M1189,-231.91C1189,-223.74 1189,-215.15 1189,-206.43"/>
<polygon fill="black" stroke="black" points="1192.5,-206.16 1189,-196.16 1185.5,-206.16 1192.5,-206.16"/>
</g>
<!-- 28 -->
<g id="node29" class="node">
<title>28</title>
<polygon fill="none" stroke="black" points="2801.5,-709 1866.5,-709 1866.5,-567 2801.5,-567 2801.5,-709"/>
<text text-anchor="start" x="1879" y="-689.8" font-family="Times,serif" font-size="14.00">({i!432 ≥ at ∧</text>
<text text-anchor="start" x="1879" y="-674.8" font-family="Times,serif" font-size="14.00">i!432 ≤ Length(t) ∧</text>
<text text-anchor="start" x="1879" y="-659.8" font-family="Times,serif" font-size="14.00">result!433 =</text>
<text text-anchor="start" x="1879" y="-644.8" font-family="Times,serif" font-size="14.00">Concat(seq.extract(t, 0, at),</text>
<text text-anchor="start" x="1879" y="-629.8" font-family="Times,serif" font-size="14.00">       Concat(Unit(elem), seq.extract(t, at, i!432 + &#45;1·at))), 0 ≤ i!412 ∧</text>
<text text-anchor="start" x="1879" y="-614.8" font-family="Times,serif" font-size="14.00">i!412 ≤ at ∧</text>
<text text-anchor="start" x="1879" y="-599.8" font-family="Times,serif" font-size="14.00">result!413 = seq.extract(t, 0, i!412), at ≤ i!412, Length(t) ≤ i!432}, None, {elem: elem, at: at, t: t, result: result!433, i: i!432})</text>
<text text-anchor="start" x="2177.5" y="-578.8" font-family="Courier,monospace" font-size="14.00">assert PostInsert(elem, at, t, result)</text>
</g>
<!-- 27&#45;&gt;28 -->
<g id="edge28" class="edge">
<title>27&#45;&gt;28</title>
<path fill="none" stroke="black" d="M2313.54,-744.93C2315.17,-736.46 2316.85,-727.75 2318.52,-719.15"/>
<polygon fill="black" stroke="black" points="2322,-719.59 2320.46,-709.11 2315.12,-718.27 2322,-719.59"/>
</g>
<!-- 29 -->
<g id="node30" class="node">
<title>29</title>
<polygon fill="none" stroke="black" points="2830.5,-531 1895.5,-531 1895.5,-389 2830.5,-389 2830.5,-531"/>
<text text-anchor="start" x="1908" y="-511.8" font-family="Times,serif" font-size="14.00">({i!432 ≥ at ∧</text>
<text text-anchor="start" x="1908" y="-496.8" font-family="Times,serif" font-size="14.00">i!432 ≤ Length(t) ∧</text>
<text text-anchor="start" x="1908" y="-481.8" font-family="Times,serif" font-size="14.00">result!433 =</text>
<text text-anchor="start" x="1908" y="-466.8" font-family="Times,serif" font-size="14.00">Concat(seq.extract(t, 0, at),</text>
<text text-anchor="start" x="1908" y="-451.8" font-family="Times,serif" font-size="14.00">       Concat(Unit(elem), seq.extract(t, at, i!432 + &#45;1·at))), 0 ≤ i!412 ∧</text>
<text text-anchor="start" x="1908" y="-436.8" font-family="Times,serif" font-size="14.00">i!412 ≤ at ∧</text>
<text text-anchor="start" x="1908" y="-421.8" font-family="Times,serif" font-size="14.00">result!413 = seq.extract(t, 0, i!412), at ≤ i!412, Length(t) ≤ i!432}, None, {elem: elem, at: at, t: t, result: result!433, i: i!432})</text>
<text text-anchor="start" x="2309.5" y="-400.8" font-family="Courier,monospace" font-size="14.00">return result</text>
</g>
<!-- 28&#45;&gt;29 -->
<g id="edge29" class="edge">
<title>28&#45;&gt;29</title>
<path fill="none" stroke="black" d="M2345.54,-566.93C2346.94,-558.46 2348.38,-549.75 2349.79,-541.15"/>
<polygon fill="black" stroke="black" points="2353.27,-541.55 2351.45,-531.11 2346.37,-540.41 2353.27,-541.55"/>
</g>
<!-- 30 -->
<g id="node31" class="node">
<title>30</title>
<polygon fill="#aeeeee" stroke="black" points="2937,-353 1839,-353 1839,-232 2937,-232 2937,-353"/>
<text text-anchor="start" x="1851" y="-333.3" font-family="Times,serif" font-size="14.00">({i!432 ≥ at ∧</text>
<text text-anchor="start" x="1851" y="-318.3" font-family="Times,serif" font-size="14.00">i!432 ≤ Length(t) ∧</text>
<text text-anchor="start" x="1851" y="-303.3" font-family="Times,serif" font-size="14.00">result!433 =</text>
<text text-anchor="start" x="1851" y="-288.3" font-family="Times,serif" font-size="14.00">Concat(seq.extract(t, 0, at),</text>
<text text-anchor="start" x="1851" y="-273.3" font-family="Times,serif" font-size="14.00">       Concat(Unit(elem), seq.extract(t, at, i!432 + &#45;1·at))), 0 ≤ i!412 ∧</text>
<text text-anchor="start" x="1851" y="-258.3" font-family="Times,serif" font-size="14.00">i!412 ≤ at ∧</text>
<text text-anchor="start" x="1851" y="-243.3" font-family="Times,serif" font-size="14.00">result!413 = seq.extract(t, 0, i!412), at ≤ i!412, Length(t) ≤ i!432}, SymbolicReturn(result!433), {elem: elem, at: at, t: t, result: result!433, i: i!432})</text>
</g>
<!-- 29&#45;&gt;30 -->
<g id="edge30" class="edge">
<title>29&#45;&gt;30</title>
<path fill="none" stroke="black" d="M2373.6,-388.81C2374.89,-380.26 2376.21,-371.53 2377.5,-362.99"/>
<polygon fill="black" stroke="black" points="2380.97,-363.49 2379,-353.08 2374.05,-362.45 2380.97,-363.49"/>
</g>
</g>
</svg>
