<?xml version="1.0" encoding="UTF-8" standalone="no"?>
<!DOCTYPE svg PUBLIC "-//W3C//DTD SVG 1.1//EN"
 "http://www.w3.org/Graphics/SVG/1.1/DTD/svg11.dtd">
<!-- Generated by graphviz version 2.43.0 (0)
 -->
<!-- Title: %3 Pages: 1 -->
<svg width="223pt" height="412pt"
 viewBox="0.00 0.00 223.00 412.00" xmlns="http://www.w3.org/2000/svg" xmlns:xlink="http://www.w3.org/1999/xlink">
<g id="graph0" class="graph" transform="scale(1 1) rotate(0) translate(4 408)">
<title>%3</title>
<polygon fill="white" stroke="transparent" points="-4,4 -4,-408 219,-408 219,4 -4,4"/>
<!-- 0 -->
<g id="node1" class="node">
<title>0</title>
<polygon fill="none" stroke="black" points="215,-404 0,-404 0,-352 215,-352 215,-404"/>
<text text-anchor="start" x="12.5" y="-384.8" font-family="Times,serif" font-size="14.00">({}, None, {idx: 7, x: &#45;98})</text>
<text text-anchor="start" x="37.5" y="-363.8" font-family="Courier,monospace" font-size="14.00">while (idx &gt;= x):</text>
</g>
<!-- 1 -->
<g id="node2" class="node">
<title>1</title>
<polygon fill="none" stroke="black" points="215,-316 0,-316 0,-264 215,-264 215,-316"/>
<text text-anchor="start" x="12.5" y="-296.8" font-family="Times,serif" font-size="14.00">({}, None, {idx: 7, x: &#45;98})</text>
<text text-anchor="start" x="46" y="-275.8" font-family="Courier,monospace" font-size="14.00">idx = (idx &#45; 1)</text>
</g>
<!-- 0&#45;&gt;1 -->
<g id="edge1" class="edge">
<title>0&#45;&gt;1</title>
<path fill="none" stroke="black" d="M107.5,-351.66C107.5,-343.7 107.5,-334.76 107.5,-326.24"/>
<polygon fill="black" stroke="black" points="111,-326.16 107.5,-316.16 104,-326.16 111,-326.16"/>
</g>
<!-- 2 -->
<g id="node3" class="node">
<title>2</title>
<polygon fill="none" stroke="black" points="215,-228 0,-228 0,-176 215,-176 215,-228"/>
<text text-anchor="start" x="12.5" y="-208.8" font-family="Times,serif" font-size="14.00">({}, None, {idx: 6, x: &#45;98})</text>
<text text-anchor="start" x="37.5" y="-187.8" font-family="Courier,monospace" font-size="14.00">while (idx &gt;= x):</text>
</g>
<!-- 1&#45;&gt;2 -->
<g id="edge2" class="edge">
<title>1&#45;&gt;2</title>
<path fill="none" stroke="black" d="M107.5,-263.66C107.5,-255.7 107.5,-246.76 107.5,-238.24"/>
<polygon fill="black" stroke="black" points="111,-238.16 107.5,-228.16 104,-238.16 111,-238.16"/>
</g>
<!-- 3 -->
<g id="node4" class="node">
<title>3</title>
<polygon fill="none" stroke="black" points="215,-140 0,-140 0,-88 215,-88 215,-140"/>
<text text-anchor="start" x="12.5" y="-120.8" font-family="Times,serif" font-size="14.00">({}, None, {idx: 6, x: &#45;98})</text>
<text text-anchor="start" x="46" y="-99.8" font-family="Courier,monospace" font-size="14.00">idx = (idx &#45; 1)</text>
</g>
<!-- 2&#45;&gt;3 -->
<g id="edge3" class="edge">
<title>2&#45;&gt;3</title>
<path fill="none" stroke="black" d="M107.5,-175.66C107.5,-167.7 107.5,-158.76 107.5,-150.24"/>
<polygon fill="black" stroke="black" points="111,-150.16 107.5,-140.16 104,-150.16 111,-150.16"/>
</g>
<!-- 4 -->
<g id="node5" class="node">
<title>4</title>
<polygon fill="#aeeeee" stroke="black" points="215,-52 0,-52 0,0 215,0 215,-52"/>
<text text-anchor="start" x="12.5" y="-32.8" font-family="Times,serif" font-size="14.00">({}, None, {idx: 5, x: &#45;98})</text>
<text text-anchor="start" x="37.5" y="-11.8" font-family="Courier,monospace" font-size="14.00">while (idx &gt;= x):</text>
</g>
<!-- 3&#45;&gt;4 -->
<g id="edge4" class="edge">
<title>3&#45;&gt;4</title>
<path fill="none" stroke="black" d="M107.5,-87.66C107.5,-79.7 107.5,-70.76 107.5,-62.24"/>
<polygon fill="black" stroke="black" points="111,-62.16 107.5,-52.16 104,-62.16 111,-62.16"/>
</g>
</g>
</svg>
