<?xml version="1.0" encoding="UTF-8" standalone="no"?>
<!DOCTYPE svg PUBLIC "-//W3C//DTD SVG 1.1//EN"
 "http://www.w3.org/Graphics/SVG/1.1/DTD/svg11.dtd">
<!-- Generated by graphviz version 2.43.0 (0)
 -->
<!-- Title: %3 Pages: 1 -->
<svg width="3572pt" height="220pt"
 viewBox="0.00 0.00 3572.00 220.00" xmlns="http://www.w3.org/2000/svg" xmlns:xlink="http://www.w3.org/1999/xlink">
<g id="graph0" class="graph" transform="scale(1 1) rotate(0) translate(4 216)">
<title>%3</title>
<polygon fill="white" stroke="transparent" points="-4,4 -4,-216 3568,-216 3568,4 -4,4"/>
<!-- 0 -->
<g id="node1" class="node">
<title>0</title>
<polygon fill="none" stroke="black" points="1857,-212 1675,-212 1675,-160 1857,-160 1857,-212"/>
<text text-anchor="start" x="1687" y="-192.8" font-family="Times,serif" font-size="14.00">({}, None, {x: x, t: t})</text>
<text text-anchor="start" x="1708" y="-171.8" font-family="Courier,monospace" font-size="14.00">if (t[x] &gt; 0):</text>
</g>
<!-- 1 -->
<g id="node2" class="node">
<title>1</title>
<polygon fill="none" stroke="black" points="734,-124 216,-124 216,-72 734,-72 734,-124"/>
<text text-anchor="start" x="228" y="-104.8" font-family="Times,serif" font-size="14.00">({0 ≤ x ∧ ¬(Length(t) ≤ x), ¬(seq.nth_i(t, x) ≤ 0)}, None, {x: x, t: t})</text>
<text text-anchor="start" x="421" y="-83.8" font-family="Courier,monospace" font-size="14.00">result = t[x]</text>
</g>
<!-- 0&#45;&gt;1 -->
<g id="edge1" class="edge">
<title>0&#45;&gt;1</title>
<path fill="none" stroke="black" d="M1674.92,-179.28C1507.03,-168.7 1137.43,-145.2 826,-124 799.54,-122.2 771.95,-120.29 744.39,-118.36"/>
<polygon fill="black" stroke="black" points="744.46,-114.86 734.24,-117.65 743.97,-121.84 744.46,-114.86"/>
</g>
<!-- 3 -->
<g id="node4" class="node">
<title>3</title>
<polygon fill="none" stroke="black" points="1331,-124 835,-124 835,-72 1331,-72 1331,-124"/>
<text text-anchor="start" x="847" y="-104.8" font-family="Times,serif" font-size="14.00">({0 ≤ x ∧ ¬(Length(t) ≤ x), seq.nth_i(t, x) ≤ 0}, None, {x: x, t: t})</text>
<text text-anchor="start" x="1025" y="-83.8" font-family="Courier,monospace" font-size="14.00">result = &#45;t[x]</text>
</g>
<!-- 0&#45;&gt;3 -->
<g id="edge3" class="edge">
<title>0&#45;&gt;3</title>
<path fill="none" stroke="black" d="M1674.95,-173.54C1577.61,-161.28 1419.97,-141.43 1291.84,-125.3"/>
<polygon fill="black" stroke="black" points="1292.24,-121.82 1281.88,-124.04 1291.37,-128.76 1292.24,-121.82"/>
</g>
<!-- 5 -->
<g id="node6" class="node">
<title>5</title>
<polygon fill="none" stroke="black" points="2078,-124 1454,-124 1454,-72 2078,-72 2078,-124"/>
<text text-anchor="start" x="1466" y="-104.8" font-family="Times,serif" font-size="14.00">({¬(seq.nth_i(t, Length(t) + x) ≤ 0), ¬(0 ≤ x) ∧ x ≥ &#45;1·Length(t)}, None, {x: x, t: t})</text>
<text text-anchor="start" x="1712" y="-83.8" font-family="Courier,monospace" font-size="14.00">result = t[x]</text>
</g>
<!-- 0&#45;&gt;5 -->
<g id="edge5" class="edge">
<title>0&#45;&gt;5</title>
<path fill="none" stroke="black" d="M1766,-159.66C1766,-151.7 1766,-142.76 1766,-134.24"/>
<polygon fill="black" stroke="black" points="1769.5,-134.16 1766,-124.16 1762.5,-134.16 1769.5,-134.16"/>
</g>
<!-- 7 -->
<g id="node8" class="node">
<title>7</title>
<polygon fill="none" stroke="black" points="2697.5,-124 2096.5,-124 2096.5,-72 2697.5,-72 2697.5,-124"/>
<text text-anchor="start" x="2109" y="-104.8" font-family="Times,serif" font-size="14.00">({¬(0 ≤ x) ∧ x ≥ &#45;1·Length(t), seq.nth_i(t, Length(t) + x) ≤ 0}, None, {x: x, t: t})</text>
<text text-anchor="start" x="2339.5" y="-83.8" font-family="Courier,monospace" font-size="14.00">result = &#45;t[x]</text>
</g>
<!-- 0&#45;&gt;7 -->
<g id="edge7" class="edge">
<title>0&#45;&gt;7</title>
<path fill="none" stroke="black" d="M1857.08,-172.59C1947.28,-160.29 2088.23,-141.08 2203.5,-125.37"/>
<polygon fill="black" stroke="black" points="2204.07,-128.83 2213.51,-124.01 2203.13,-121.89 2204.07,-128.83"/>
</g>
<!-- 9 -->
<g id="node10" class="node">
<title>9</title>
<polygon fill="#ffaeb9" stroke="black" points="3564,-116 2716,-116 2716,-80 3564,-80 3564,-116"/>
<text text-anchor="start" x="2728" y="-93.8" font-family="Times,serif" font-size="14.00">({¬(0 ≤ x ∧ ¬(Length(t) ≤ x)) ∧ ¬(¬(0 ≤ x) ∧ x ≥ &#45;1·Length(t))}, IndexError(&#39;tuple index out of range&#39;), {x: x, t: t})</text>
</g>
<!-- 0&#45;&gt;9 -->
<g id="edge9" class="edge">
<title>0&#45;&gt;9</title>
<path fill="none" stroke="black" d="M1857.22,-179.29C2058,-166.72 2545.17,-136.23 2858.03,-116.65"/>
<polygon fill="black" stroke="black" points="2858.4,-120.13 2868.16,-116.01 2857.96,-113.15 2858.4,-120.13"/>
</g>
<!-- 2 -->
<g id="node3" class="node">
<title>2</title>
<polygon fill="#aeeeee" stroke="black" points="676,-36 0,-36 0,0 676,0 676,-36"/>
<text text-anchor="start" x="12" y="-13.8" font-family="Times,serif" font-size="14.00">({0 ≤ x ∧ ¬(Length(t) ≤ x), ¬(seq.nth_i(t, x) ≤ 0)}, None, {x: x, t: t, result: seq.nth_i(t, x)})</text>
</g>
<!-- 1&#45;&gt;2 -->
<g id="edge2" class="edge">
<title>1&#45;&gt;2</title>
<path fill="none" stroke="black" d="M430.9,-71.89C413.61,-62.05 393.93,-50.84 377.15,-41.29"/>
<polygon fill="black" stroke="black" points="378.58,-38.08 368.16,-36.17 375.12,-44.16 378.58,-38.08"/>
</g>
<!-- 4 -->
<g id="node5" class="node">
<title>4</title>
<polygon fill="#aeeeee" stroke="black" points="1366,-36 694,-36 694,0 1366,0 1366,-36"/>
<text text-anchor="start" x="706" y="-13.8" font-family="Times,serif" font-size="14.00">({0 ≤ x ∧ ¬(Length(t) ≤ x), seq.nth_i(t, x) ≤ 0}, None, {x: x, t: t, result: &#45;1·seq.nth_i(t, x)})</text>
</g>
<!-- 3&#45;&gt;4 -->
<g id="edge4" class="edge">
<title>3&#45;&gt;4</title>
<path fill="none" stroke="black" d="M1065.94,-71.89C1060.04,-63.21 1053.42,-53.47 1047.48,-44.73"/>
<polygon fill="black" stroke="black" points="1050.35,-42.71 1041.83,-36.41 1044.56,-46.65 1050.35,-42.71"/>
</g>
<!-- 6 -->
<g id="node7" class="node">
<title>6</title>
<polygon fill="#aeeeee" stroke="black" points="2254,-36 1384,-36 1384,0 2254,0 2254,-36"/>
<text text-anchor="start" x="1396" y="-13.8" font-family="Times,serif" font-size="14.00">({¬(seq.nth_i(t, Length(t) + x) ≤ 0), ¬(0 ≤ x) ∧ x ≥ &#45;1·Length(t)}, None, {x: x, t: t, result: seq.nth_i(t, Length(t) + x)})</text>
</g>
<!-- 5&#45;&gt;6 -->
<g id="edge6" class="edge">
<title>5&#45;&gt;6</title>
<path fill="none" stroke="black" d="M1783.06,-71.89C1788.96,-63.21 1795.58,-53.47 1801.52,-44.73"/>
<polygon fill="black" stroke="black" points="1804.44,-46.65 1807.17,-36.41 1798.65,-42.71 1804.44,-46.65"/>
</g>
<!-- 8 -->
<g id="node9" class="node">
<title>8</title>
<polygon fill="#aeeeee" stroke="black" points="3136.5,-36 2271.5,-36 2271.5,0 3136.5,0 3136.5,-36"/>
<text text-anchor="start" x="2284" y="-13.8" font-family="Times,serif" font-size="14.00">({¬(0 ≤ x) ∧ x ≥ &#45;1·Length(t), seq.nth_i(t, Length(t) + x) ≤ 0}, None, {x: x, t: t, result: &#45;1·seq.nth_i(t, Length(t) + x)})</text>
</g>
<!-- 7&#45;&gt;8 -->
<g id="edge8" class="edge">
<title>7&#45;&gt;8</title>
<path fill="none" stroke="black" d="M2495.4,-72C2537.93,-61.19 2586.95,-48.74 2626.79,-38.62"/>
<polygon fill="black" stroke="black" points="2627.88,-41.95 2636.71,-36.1 2626.15,-35.17 2627.88,-41.95"/>
</g>
</g>
</svg>
