<?xml version="1.0" encoding="UTF-8" standalone="no"?>
<!DOCTYPE svg PUBLIC "-//W3C//DTD SVG 1.1//EN"
 "http://www.w3.org/Graphics/SVG/1.1/DTD/svg11.dtd">
<!-- Generated by graphviz version 2.43.0 (0)
 -->
<!-- Title: %3 Pages: 1 -->
<svg width="813pt" height="890pt"
 viewBox="0.00 0.00 813.00 890.00" xmlns="http://www.w3.org/2000/svg" xmlns:xlink="http://www.w3.org/1999/xlink">
<g id="graph0" class="graph" transform="scale(1 1) rotate(0) translate(4 886)">
<title>%3</title>
<polygon fill="white" stroke="transparent" points="-4,4 -4,-886 809,-886 809,4 -4,4"/>
<!-- 0 -->
<g id="node1" class="node">
<title>0</title>
<text text-anchor="middle" x="439" y="-870.8" font-family="Times,serif" font-size="14.00">&lt;start&gt;</text>
</g>
<!-- 1 -->
<g id="node2" class="node">
<title>1</title>
<text text-anchor="middle" x="439" y="-819.8" font-family="Times,serif" font-size="14.00">&lt;stmts&gt;</text>
</g>
<!-- 0&#45;&gt;1 -->
<g id="edge1" class="edge">
<title>0&#45;&gt;1</title>
<path fill="none" stroke="black" d="M439,-866.69C439,-860.18 439,-850.1 439,-841.43"/>
<polygon fill="black" stroke="black" points="442.5,-841.26 439,-831.26 435.5,-841.26 442.5,-841.26"/>
</g>
<!-- 2 -->
<g id="node3" class="node">
<title>2</title>
<text text-anchor="middle" x="342" y="-768.8" font-family="Times,serif" font-size="14.00">&lt;stmt&gt;</text>
</g>
<!-- 1&#45;&gt;2 -->
<g id="edge2" class="edge">
<title>1&#45;&gt;2</title>
<path fill="none" stroke="black" d="M425.92,-815.89C410.07,-807.88 383.11,-794.27 364.03,-784.63"/>
<polygon fill="black" stroke="black" points="365.38,-781.39 354.87,-780 362.22,-787.64 365.38,-781.39"/>
</g>
<!-- 38 -->
<g id="node39" class="node">
<title>38</title>
<text text-anchor="middle" x="439" y="-768.8" font-family="Times,serif" font-size="14.00">&lt;NEWLINE&gt;</text>
</g>
<!-- 1&#45;&gt;38 -->
<g id="edge38" class="edge">
<title>1&#45;&gt;38</title>
<path fill="none" stroke="black" d="M439,-815.69C439,-809.18 439,-799.1 439,-790.43"/>
<polygon fill="black" stroke="black" points="442.5,-790.26 439,-780.26 435.5,-790.26 442.5,-790.26"/>
</g>
<!-- 40 -->
<g id="node41" class="node">
<title>40</title>
<text text-anchor="middle" x="539" y="-768.8" font-family="Times,serif" font-size="14.00">&lt;stmts&gt;</text>
</g>
<!-- 1&#45;&gt;40 -->
<g id="edge40" class="edge">
<title>1&#45;&gt;40</title>
<path fill="none" stroke="black" d="M452.49,-815.89C468.9,-807.85 496.87,-794.14 516.56,-784.5"/>
<polygon fill="black" stroke="black" points="518.29,-787.55 525.73,-780 515.21,-781.26 518.29,-787.55"/>
</g>
<!-- 3 -->
<g id="node4" class="node">
<title>3</title>
<text text-anchor="middle" x="340" y="-717.8" font-family="Times,serif" font-size="14.00">&lt;simple_stmt&gt;</text>
</g>
<!-- 2&#45;&gt;3 -->
<g id="edge3" class="edge">
<title>2&#45;&gt;3</title>
<path fill="none" stroke="black" d="M341.72,-764.69C341.46,-758.18 341.04,-748.1 340.69,-739.43"/>
<polygon fill="black" stroke="black" points="344.18,-739.1 340.28,-729.26 337.19,-739.39 344.18,-739.1"/>
</g>
<!-- 4 -->
<g id="node5" class="node">
<title>4</title>
<text text-anchor="middle" x="336" y="-666.8" font-family="Times,serif" font-size="14.00">&lt;assignment&gt;</text>
</g>
<!-- 3&#45;&gt;4 -->
<g id="edge4" class="edge">
<title>3&#45;&gt;4</title>
<path fill="none" stroke="black" d="M339.44,-713.69C338.91,-707.18 338.09,-697.1 337.38,-688.43"/>
<polygon fill="black" stroke="black" points="340.85,-687.94 336.55,-678.26 333.88,-688.51 340.85,-687.94"/>
</g>
<!-- 5 -->
<g id="node6" class="node">
<title>5</title>
<text text-anchor="middle" x="220" y="-615.8" font-family="Times,serif" font-size="14.00">&lt;NAME&gt;</text>
</g>
<!-- 4&#45;&gt;5 -->
<g id="edge5" class="edge">
<title>4&#45;&gt;5</title>
<path fill="none" stroke="black" d="M320.36,-662.89C300.96,-654.7 267.68,-640.64 244.79,-630.97"/>
<polygon fill="black" stroke="black" points="245.97,-627.67 235.4,-627 243.25,-634.12 245.97,-627.67"/>
</g>
<!-- 9 -->
<g id="node10" class="node">
<title>9</title>
<text text-anchor="middle" x="336" y="-615.8" font-family="Times,serif" font-size="14.00"> = </text>
</g>
<!-- 4&#45;&gt;9 -->
<g id="edge9" class="edge">
<title>4&#45;&gt;9</title>
<path fill="none" stroke="black" d="M336,-662.69C336,-656.18 336,-646.1 336,-637.43"/>
<polygon fill="black" stroke="black" points="339.5,-637.26 336,-627.26 332.5,-637.26 339.5,-637.26"/>
</g>
<!-- 10 -->
<g id="node11" class="node">
<title>10</title>
<text text-anchor="middle" x="416" y="-615.8" font-family="Times,serif" font-size="14.00">&lt;expression&gt;</text>
</g>
<!-- 4&#45;&gt;10 -->
<g id="edge10" class="edge">
<title>4&#45;&gt;10</title>
<path fill="none" stroke="black" d="M346.79,-662.89C359.5,-655.1 380.88,-642.01 396.52,-632.43"/>
<polygon fill="black" stroke="black" points="398.68,-635.21 405.38,-627 395.03,-629.24 398.68,-635.21"/>
</g>
<!-- 6 -->
<g id="node7" class="node">
<title>6</title>
<text text-anchor="middle" x="102" y="-564.8" font-family="Times,serif" font-size="14.00">&lt;INIT_CHAR&gt;</text>
</g>
<!-- 5&#45;&gt;6 -->
<g id="edge6" class="edge">
<title>5&#45;&gt;6</title>
<path fill="none" stroke="black" d="M204.09,-611.89C184.27,-603.66 150.2,-589.51 126.91,-579.84"/>
<polygon fill="black" stroke="black" points="128.24,-576.61 117.66,-576 125.55,-583.07 128.24,-576.61"/>
</g>
<!-- 8 -->
<g id="node9" class="node">
<title>8</title>
<text text-anchor="middle" x="220" y="-564.8" font-family="Times,serif" font-size="14.00">&lt;IDCHARS&gt;</text>
</g>
<!-- 5&#45;&gt;8 -->
<g id="edge8" class="edge">
<title>5&#45;&gt;8</title>
<path fill="none" stroke="black" d="M220,-611.69C220,-605.18 220,-595.1 220,-586.43"/>
<polygon fill="black" stroke="black" points="223.5,-586.26 220,-576.26 216.5,-586.26 223.5,-586.26"/>
</g>
<!-- 7 -->
<g id="node8" class="node">
<title>7</title>
<text text-anchor="middle" x="102" y="-513.8" font-family="Times,serif" font-size="14.00">x</text>
</g>
<!-- 6&#45;&gt;7 -->
<g id="edge7" class="edge">
<title>6&#45;&gt;7</title>
<path fill="none" stroke="black" d="M102,-560.69C102,-554.18 102,-544.1 102,-535.43"/>
<polygon fill="black" stroke="black" points="105.5,-535.26 102,-525.26 98.5,-535.26 105.5,-535.26"/>
</g>
<!-- 11 -->
<g id="node12" class="node">
<title>11</title>
<text text-anchor="middle" x="339" y="-564.8" font-family="Times,serif" font-size="14.00">&lt;conjunction&gt;</text>
</g>
<!-- 10&#45;&gt;11 -->
<g id="edge11" class="edge">
<title>10&#45;&gt;11</title>
<path fill="none" stroke="black" d="M405.62,-611.89C393.38,-604.1 372.81,-591.01 357.75,-581.43"/>
<polygon fill="black" stroke="black" points="359.54,-578.42 349.22,-576 355.78,-584.33 359.54,-578.42"/>
</g>
<!-- 37 -->
<g id="node38" class="node">
<title>37</title>
<text text-anchor="middle" x="479" y="-564.8" font-family="Times,serif" font-size="14.00">&lt;or_conjunctions&gt;</text>
</g>
<!-- 10&#45;&gt;37 -->
<g id="edge37" class="edge">
<title>10&#45;&gt;37</title>
<path fill="none" stroke="black" d="M424.5,-611.89C434.23,-604.32 450.39,-591.75 462.6,-582.26"/>
<polygon fill="black" stroke="black" points="464.89,-584.91 470.64,-576 460.6,-579.38 464.89,-584.91"/>
</g>
<!-- 12 -->
<g id="node13" class="node">
<title>12</title>
<text text-anchor="middle" x="248" y="-513.8" font-family="Times,serif" font-size="14.00">&lt;inversion&gt;</text>
</g>
<!-- 11&#45;&gt;12 -->
<g id="edge12" class="edge">
<title>11&#45;&gt;12</title>
<path fill="none" stroke="black" d="M326.73,-560.89C311.99,-552.96 287.03,-539.52 269.16,-529.9"/>
<polygon fill="black" stroke="black" points="270.54,-526.66 260.08,-525 267.22,-532.83 270.54,-526.66"/>
</g>
<!-- 36 -->
<g id="node37" class="node">
<title>36</title>
<text text-anchor="middle" x="377" y="-513.8" font-family="Times,serif" font-size="14.00">&lt;and_inversions&gt;</text>
</g>
<!-- 11&#45;&gt;36 -->
<g id="edge36" class="edge">
<title>11&#45;&gt;36</title>
<path fill="none" stroke="black" d="M344.28,-560.69C349.73,-553.67 358.39,-542.49 365.44,-533.41"/>
<polygon fill="black" stroke="black" points="368.4,-535.3 371.76,-525.26 362.87,-531.01 368.4,-535.3"/>
</g>
<!-- 13 -->
<g id="node14" class="node">
<title>13</title>
<text text-anchor="middle" x="248" y="-462.8" font-family="Times,serif" font-size="14.00">&lt;comparison&gt;</text>
</g>
<!-- 12&#45;&gt;13 -->
<g id="edge13" class="edge">
<title>12&#45;&gt;13</title>
<path fill="none" stroke="black" d="M248,-509.69C248,-503.18 248,-493.1 248,-484.43"/>
<polygon fill="black" stroke="black" points="251.5,-484.26 248,-474.26 244.5,-484.26 251.5,-484.26"/>
</g>
<!-- 14 -->
<g id="node15" class="node">
<title>14</title>
<text text-anchor="middle" x="223" y="-411.8" font-family="Times,serif" font-size="14.00">&lt;sum&gt;</text>
</g>
<!-- 13&#45;&gt;14 -->
<g id="edge14" class="edge">
<title>13&#45;&gt;14</title>
<path fill="none" stroke="black" d="M244.52,-458.69C241.05,-451.88 235.6,-441.19 231.05,-432.27"/>
<polygon fill="black" stroke="black" points="234.11,-430.57 226.45,-423.26 227.87,-433.75 234.11,-430.57"/>
</g>
<!-- 35 -->
<g id="node36" class="node">
<title>35</title>
<text text-anchor="middle" x="339" y="-411.8" font-family="Times,serif" font-size="14.00">&lt;maybe_compare&gt;</text>
</g>
<!-- 13&#45;&gt;35 -->
<g id="edge35" class="edge">
<title>13&#45;&gt;35</title>
<path fill="none" stroke="black" d="M260.27,-458.89C275.01,-450.96 299.97,-437.52 317.84,-427.9"/>
<polygon fill="black" stroke="black" points="319.78,-430.83 326.92,-423 316.46,-424.66 319.78,-430.83"/>
</g>
<!-- 15 -->
<g id="node16" class="node">
<title>15</title>
<text text-anchor="middle" x="223" y="-360.8" font-family="Times,serif" font-size="14.00">&lt;term&gt;</text>
</g>
<!-- 14&#45;&gt;15 -->
<g id="edge15" class="edge">
<title>14&#45;&gt;15</title>
<path fill="none" stroke="black" d="M223,-407.69C223,-401.18 223,-391.1 223,-382.43"/>
<polygon fill="black" stroke="black" points="226.5,-382.26 223,-372.26 219.5,-382.26 226.5,-382.26"/>
</g>
<!-- 16 -->
<g id="node17" class="node">
<title>16</title>
<text text-anchor="middle" x="118" y="-309.8" font-family="Times,serif" font-size="14.00">&lt;factor&gt;</text>
</g>
<!-- 15&#45;&gt;16 -->
<g id="edge16" class="edge">
<title>15&#45;&gt;16</title>
<path fill="none" stroke="black" d="M208.84,-356.89C191.44,-348.77 161.7,-334.89 141,-325.23"/>
<polygon fill="black" stroke="black" points="142.48,-322.06 131.94,-321 139.52,-328.4 142.48,-322.06"/>
</g>
<!-- 23 -->
<g id="node24" class="node">
<title>23</title>
<text text-anchor="middle" x="172" y="-309.8" font-family="Times,serif" font-size="14.00"> </text>
</g>
<!-- 15&#45;&gt;23 -->
<g id="edge23" class="edge">
<title>15&#45;&gt;23</title>
<path fill="none" stroke="black" d="M215.91,-356.69C207.19,-348.31 192.33,-334.03 182.34,-324.43"/>
<polygon fill="black" stroke="black" points="184.49,-321.64 174.85,-317.24 179.64,-326.69 184.49,-321.64"/>
</g>
<!-- 24 -->
<g id="node25" class="node">
<title>24</title>
<text text-anchor="middle" x="223" y="-309.8" font-family="Times,serif" font-size="14.00">&lt;tsym&gt;</text>
</g>
<!-- 15&#45;&gt;24 -->
<g id="edge24" class="edge">
<title>15&#45;&gt;24</title>
<path fill="none" stroke="black" d="M223,-356.69C223,-350.18 223,-340.1 223,-331.43"/>
<polygon fill="black" stroke="black" points="226.5,-331.26 223,-321.26 219.5,-331.26 226.5,-331.26"/>
</g>
<!-- 26 -->
<g id="node27" class="node">
<title>26</title>
<text text-anchor="middle" x="274" y="-309.8" font-family="Times,serif" font-size="14.00"> </text>
</g>
<!-- 15&#45;&gt;26 -->
<g id="edge26" class="edge">
<title>15&#45;&gt;26</title>
<path fill="none" stroke="black" d="M230.09,-356.69C238.81,-348.31 253.67,-334.03 263.66,-324.43"/>
<polygon fill="black" stroke="black" points="266.36,-326.69 271.15,-317.24 261.51,-321.64 266.36,-326.69"/>
</g>
<!-- 27 -->
<g id="node28" class="node">
<title>27</title>
<text text-anchor="middle" x="324" y="-309.8" font-family="Times,serif" font-size="14.00">&lt;term&gt;</text>
</g>
<!-- 15&#45;&gt;27 -->
<g id="edge27" class="edge">
<title>15&#45;&gt;27</title>
<path fill="none" stroke="black" d="M236.62,-356.89C253.2,-348.85 281.45,-335.14 301.33,-325.5"/>
<polygon fill="black" stroke="black" points="303.13,-328.52 310.59,-321 300.07,-322.22 303.13,-328.52"/>
</g>
<!-- 17 -->
<g id="node18" class="node">
<title>17</title>
<text text-anchor="middle" x="118" y="-258.8" font-family="Times,serif" font-size="14.00">&lt;primary&gt;</text>
</g>
<!-- 16&#45;&gt;17 -->
<g id="edge17" class="edge">
<title>16&#45;&gt;17</title>
<path fill="none" stroke="black" d="M118,-305.69C118,-299.18 118,-289.1 118,-280.43"/>
<polygon fill="black" stroke="black" points="121.5,-280.26 118,-270.26 114.5,-280.26 121.5,-280.26"/>
</g>
<!-- 18 -->
<g id="node19" class="node">
<title>18</title>
<text text-anchor="middle" x="118" y="-207.8" font-family="Times,serif" font-size="14.00">&lt;atom&gt;</text>
</g>
<!-- 17&#45;&gt;18 -->
<g id="edge18" class="edge">
<title>17&#45;&gt;18</title>
<path fill="none" stroke="black" d="M118,-254.69C118,-248.18 118,-238.1 118,-229.43"/>
<polygon fill="black" stroke="black" points="121.5,-229.26 118,-219.26 114.5,-229.26 121.5,-229.26"/>
</g>
<!-- 19 -->
<g id="node20" class="node">
<title>19</title>
<text text-anchor="middle" x="118" y="-156.8" font-family="Times,serif" font-size="14.00">&lt;NAME&gt;</text>
</g>
<!-- 18&#45;&gt;19 -->
<g id="edge19" class="edge">
<title>18&#45;&gt;19</title>
<path fill="none" stroke="black" d="M118,-203.69C118,-197.18 118,-187.1 118,-178.43"/>
<polygon fill="black" stroke="black" points="121.5,-178.26 118,-168.26 114.5,-178.26 121.5,-178.26"/>
</g>
<!-- 20 -->
<g id="node21" class="node">
<title>20</title>
<text text-anchor="middle" x="53" y="-105.8" font-family="Times,serif" font-size="14.00">&lt;INIT_CHAR&gt;</text>
</g>
<!-- 19&#45;&gt;20 -->
<g id="edge20" class="edge">
<title>19&#45;&gt;20</title>
<path fill="none" stroke="black" d="M109.23,-152.89C99.2,-145.32 82.51,-132.75 69.92,-123.26"/>
<polygon fill="black" stroke="black" points="71.72,-120.23 61.63,-117 67.51,-125.82 71.72,-120.23"/>
</g>
<!-- 22 -->
<g id="node23" class="node">
<title>22</title>
<text text-anchor="middle" x="171" y="-105.8" font-family="Times,serif" font-size="14.00">&lt;IDCHARS&gt;</text>
</g>
<!-- 19&#45;&gt;22 -->
<g id="edge22" class="edge">
<title>19&#45;&gt;22</title>
<path fill="none" stroke="black" d="M125.37,-152.69C133.28,-145.37 146.06,-133.56 156.09,-124.29"/>
<polygon fill="black" stroke="black" points="158.73,-126.61 163.69,-117.26 153.97,-121.47 158.73,-126.61"/>
</g>
<!-- 21 -->
<g id="node22" class="node">
<title>21</title>
<text text-anchor="middle" x="53" y="-54.8" font-family="Times,serif" font-size="14.00">a</text>
</g>
<!-- 20&#45;&gt;21 -->
<g id="edge21" class="edge">
<title>20&#45;&gt;21</title>
<path fill="none" stroke="black" d="M53,-101.69C53,-95.18 53,-85.1 53,-76.43"/>
<polygon fill="black" stroke="black" points="56.5,-76.26 53,-66.26 49.5,-76.26 56.5,-76.26"/>
</g>
<!-- 25 -->
<g id="node26" class="node">
<title>25</title>
<text text-anchor="middle" x="223" y="-258.8" font-family="Times,serif" font-size="14.00">//</text>
</g>
<!-- 24&#45;&gt;25 -->
<g id="edge25" class="edge">
<title>24&#45;&gt;25</title>
<path fill="none" stroke="black" d="M223,-305.69C223,-299.18 223,-289.1 223,-280.43"/>
<polygon fill="black" stroke="black" points="226.5,-280.26 223,-270.26 219.5,-280.26 226.5,-280.26"/>
</g>
<!-- 28 -->
<g id="node29" class="node">
<title>28</title>
<text text-anchor="middle" x="324" y="-258.8" font-family="Times,serif" font-size="14.00">&lt;factor&gt;</text>
</g>
<!-- 27&#45;&gt;28 -->
<g id="edge28" class="edge">
<title>27&#45;&gt;28</title>
<path fill="none" stroke="black" d="M324,-305.69C324,-299.18 324,-289.1 324,-280.43"/>
<polygon fill="black" stroke="black" points="327.5,-280.26 324,-270.26 320.5,-280.26 327.5,-280.26"/>
</g>
<!-- 29 -->
<g id="node30" class="node">
<title>29</title>
<text text-anchor="middle" x="324" y="-207.8" font-family="Times,serif" font-size="14.00">&lt;primary&gt;</text>
</g>
<!-- 28&#45;&gt;29 -->
<g id="edge29" class="edge">
<title>28&#45;&gt;29</title>
<path fill="none" stroke="black" d="M324,-254.69C324,-248.18 324,-238.1 324,-229.43"/>
<polygon fill="black" stroke="black" points="327.5,-229.26 324,-219.26 320.5,-229.26 327.5,-229.26"/>
</g>
<!-- 30 -->
<g id="node31" class="node">
<title>30</title>
<text text-anchor="middle" x="324" y="-156.8" font-family="Times,serif" font-size="14.00">&lt;atom&gt;</text>
</g>
<!-- 29&#45;&gt;30 -->
<g id="edge30" class="edge">
<title>29&#45;&gt;30</title>
<path fill="none" stroke="black" d="M324,-203.69C324,-197.18 324,-187.1 324,-178.43"/>
<polygon fill="black" stroke="black" points="327.5,-178.26 324,-168.26 320.5,-178.26 327.5,-178.26"/>
</g>
<!-- 31 -->
<g id="node32" class="node">
<title>31</title>
<text text-anchor="middle" x="324" y="-105.8" font-family="Times,serif" font-size="14.00">&lt;NAME&gt;</text>
</g>
<!-- 30&#45;&gt;31 -->
<g id="edge31" class="edge">
<title>30&#45;&gt;31</title>
<path fill="none" stroke="black" d="M324,-152.69C324,-146.18 324,-136.1 324,-127.43"/>
<polygon fill="black" stroke="black" points="327.5,-127.26 324,-117.26 320.5,-127.26 327.5,-127.26"/>
</g>
<!-- 32 -->
<g id="node33" class="node">
<title>32</title>
<text text-anchor="middle" x="225" y="-54.8" font-family="Times,serif" font-size="14.00">&lt;INIT_CHAR&gt;</text>
</g>
<!-- 31&#45;&gt;32 -->
<g id="edge32" class="edge">
<title>31&#45;&gt;32</title>
<path fill="none" stroke="black" d="M310.65,-101.89C294.39,-93.85 266.71,-80.14 247.22,-70.5"/>
<polygon fill="black" stroke="black" points="248.65,-67.3 238.14,-66 245.55,-73.58 248.65,-67.3"/>
</g>
<!-- 34 -->
<g id="node35" class="node">
<title>34</title>
<text text-anchor="middle" x="343" y="-54.8" font-family="Times,serif" font-size="14.00">&lt;IDCHARS&gt;</text>
</g>
<!-- 31&#45;&gt;34 -->
<g id="edge34" class="edge">
<title>31&#45;&gt;34</title>
<path fill="none" stroke="black" d="M326.64,-101.69C329.22,-95.03 333.25,-84.65 336.66,-75.85"/>
<polygon fill="black" stroke="black" points="340.03,-76.84 340.38,-66.26 333.5,-74.31 340.03,-76.84"/>
</g>
<!-- 33 -->
<g id="node34" class="node">
<title>33</title>
<text text-anchor="middle" x="225" y="-3.8" font-family="Times,serif" font-size="14.00">b</text>
</g>
<!-- 32&#45;&gt;33 -->
<g id="edge33" class="edge">
<title>32&#45;&gt;33</title>
<path fill="none" stroke="black" d="M225,-50.69C225,-44.18 225,-34.1 225,-25.43"/>
<polygon fill="black" stroke="black" points="228.5,-25.26 225,-15.26 221.5,-25.26 228.5,-25.26"/>
</g>
<!-- 39 -->
<g id="node40" class="node">
<title>39</title>
</g>
<!-- 38&#45;&gt;39 -->
<g id="edge39" class="edge">
<title>38&#45;&gt;39</title>
<path fill="none" stroke="black" d="M439,-764.69C439,-764.63 439,-764.58 439,-764.53"/>
<polygon fill="black" stroke="black" points="442.51,-774.37 439,-764.37 435.51,-774.37 442.51,-774.37"/>
</g>
<!-- 41 -->
<g id="node42" class="node">
<title>41</title>
<text text-anchor="middle" x="565" y="-717.8" font-family="Times,serif" font-size="14.00">&lt;stmt&gt;</text>
</g>
<!-- 40&#45;&gt;41 -->
<g id="edge41" class="edge">
<title>40&#45;&gt;41</title>
<path fill="none" stroke="black" d="M542.62,-764.69C546.22,-757.88 551.9,-747.19 556.63,-738.27"/>
<polygon fill="black" stroke="black" points="559.82,-739.73 561.42,-729.26 553.64,-736.45 559.82,-739.73"/>
</g>
<!-- 42 -->
<g id="node43" class="node">
<title>42</title>
<text text-anchor="middle" x="565" y="-666.8" font-family="Times,serif" font-size="14.00">&lt;simple_stmt&gt;</text>
</g>
<!-- 41&#45;&gt;42 -->
<g id="edge42" class="edge">
<title>41&#45;&gt;42</title>
<path fill="none" stroke="black" d="M565,-713.69C565,-707.18 565,-697.1 565,-688.43"/>
<polygon fill="black" stroke="black" points="568.5,-688.26 565,-678.26 561.5,-688.26 568.5,-688.26"/>
</g>
<!-- 43 -->
<g id="node44" class="node">
<title>43</title>
<text text-anchor="middle" x="591" y="-615.8" font-family="Times,serif" font-size="14.00">&lt;return_stmt&gt;</text>
</g>
<!-- 42&#45;&gt;43 -->
<g id="edge43" class="edge">
<title>42&#45;&gt;43</title>
<path fill="none" stroke="black" d="M568.62,-662.69C572.22,-655.88 577.9,-645.19 582.63,-636.27"/>
<polygon fill="black" stroke="black" points="585.82,-637.73 587.42,-627.26 579.64,-634.45 585.82,-637.73"/>
</g>
<!-- 44 -->
<g id="node45" class="node">
<title>44</title>
<text text-anchor="middle" x="591" y="-564.8" font-family="Times,serif" font-size="14.00">return </text>
</g>
<!-- 43&#45;&gt;44 -->
<g id="edge44" class="edge">
<title>43&#45;&gt;44</title>
<path fill="none" stroke="black" d="M591,-611.69C591,-605.18 591,-595.1 591,-586.43"/>
<polygon fill="black" stroke="black" points="594.5,-586.26 591,-576.26 587.5,-586.26 594.5,-586.26"/>
</g>
<!-- 45 -->
<g id="node46" class="node">
<title>45</title>
<text text-anchor="middle" x="686" y="-564.8" font-family="Times,serif" font-size="14.00">&lt;expression&gt;</text>
</g>
<!-- 43&#45;&gt;45 -->
<g id="edge45" class="edge">
<title>43&#45;&gt;45</title>
<path fill="none" stroke="black" d="M603.81,-611.89C619.34,-603.88 645.74,-590.27 664.42,-580.63"/>
<polygon fill="black" stroke="black" points="666.11,-583.7 673.39,-576 662.9,-577.48 666.11,-583.7"/>
</g>
<!-- 46 -->
<g id="node47" class="node">
<title>46</title>
<text text-anchor="middle" x="597" y="-513.8" font-family="Times,serif" font-size="14.00">&lt;conjunction&gt;</text>
</g>
<!-- 45&#45;&gt;46 -->
<g id="edge46" class="edge">
<title>45&#45;&gt;46</title>
<path fill="none" stroke="black" d="M674,-560.89C659.58,-552.96 635.17,-539.52 617.7,-529.9"/>
<polygon fill="black" stroke="black" points="619.26,-526.76 608.81,-525 615.88,-532.89 619.26,-526.76"/>
</g>
<!-- 60 -->
<g id="node61" class="node">
<title>60</title>
<text text-anchor="middle" x="737" y="-513.8" font-family="Times,serif" font-size="14.00">&lt;or_conjunctions&gt;</text>
</g>
<!-- 45&#45;&gt;60 -->
<g id="edge60" class="edge">
<title>45&#45;&gt;60</title>
<path fill="none" stroke="black" d="M693.09,-560.69C700.7,-553.37 713,-541.56 722.65,-532.29"/>
<polygon fill="black" stroke="black" points="725.18,-534.71 729.97,-525.26 720.33,-529.66 725.18,-534.71"/>
</g>
<!-- 47 -->
<g id="node48" class="node">
<title>47</title>
<text text-anchor="middle" x="519" y="-462.8" font-family="Times,serif" font-size="14.00">&lt;inversion&gt;</text>
</g>
<!-- 46&#45;&gt;47 -->
<g id="edge47" class="edge">
<title>46&#45;&gt;47</title>
<path fill="none" stroke="black" d="M586.48,-509.89C574.08,-502.1 553.24,-489.01 538,-479.43"/>
<polygon fill="black" stroke="black" points="539.68,-476.36 529.35,-474 535.96,-482.29 539.68,-476.36"/>
</g>
<!-- 59 -->
<g id="node60" class="node">
<title>59</title>
<text text-anchor="middle" x="648" y="-462.8" font-family="Times,serif" font-size="14.00">&lt;and_inversions&gt;</text>
</g>
<!-- 46&#45;&gt;59 -->
<g id="edge59" class="edge">
<title>46&#45;&gt;59</title>
<path fill="none" stroke="black" d="M604.09,-509.69C611.7,-502.37 624,-490.56 633.65,-481.29"/>
<polygon fill="black" stroke="black" points="636.18,-483.71 640.97,-474.26 631.33,-478.66 636.18,-483.71"/>
</g>
<!-- 48 -->
<g id="node49" class="node">
<title>48</title>
<text text-anchor="middle" x="519" y="-411.8" font-family="Times,serif" font-size="14.00">&lt;comparison&gt;</text>
</g>
<!-- 47&#45;&gt;48 -->
<g id="edge48" class="edge">
<title>47&#45;&gt;48</title>
<path fill="none" stroke="black" d="M519,-458.69C519,-452.18 519,-442.1 519,-433.43"/>
<polygon fill="black" stroke="black" points="522.5,-433.26 519,-423.26 515.5,-433.26 522.5,-433.26"/>
</g>
<!-- 49 -->
<g id="node50" class="node">
<title>49</title>
<text text-anchor="middle" x="509" y="-360.8" font-family="Times,serif" font-size="14.00">&lt;sum&gt;</text>
</g>
<!-- 48&#45;&gt;49 -->
<g id="edge49" class="edge">
<title>48&#45;&gt;49</title>
<path fill="none" stroke="black" d="M517.61,-407.69C516.27,-401.1 514.18,-390.87 512.4,-382.14"/>
<polygon fill="black" stroke="black" points="515.81,-381.35 510.38,-372.26 508.95,-382.75 515.81,-381.35"/>
</g>
<!-- 58 -->
<g id="node59" class="node">
<title>58</title>
<text text-anchor="middle" x="625" y="-360.8" font-family="Times,serif" font-size="14.00">&lt;maybe_compare&gt;</text>
</g>
<!-- 48&#45;&gt;58 -->
<g id="edge58" class="edge">
<title>48&#45;&gt;58</title>
<path fill="none" stroke="black" d="M533.3,-407.89C550.86,-399.77 580.89,-385.89 601.78,-376.23"/>
<polygon fill="black" stroke="black" points="603.32,-379.38 610.93,-372 600.39,-373.02 603.32,-379.38"/>
</g>
<!-- 50 -->
<g id="node51" class="node">
<title>50</title>
<text text-anchor="middle" x="509" y="-309.8" font-family="Times,serif" font-size="14.00">&lt;term&gt;</text>
</g>
<!-- 49&#45;&gt;50 -->
<g id="edge50" class="edge">
<title>49&#45;&gt;50</title>
<path fill="none" stroke="black" d="M509,-356.69C509,-350.18 509,-340.1 509,-331.43"/>
<polygon fill="black" stroke="black" points="512.5,-331.26 509,-321.26 505.5,-331.26 512.5,-331.26"/>
</g>
<!-- 51 -->
<g id="node52" class="node">
<title>51</title>
<text text-anchor="middle" x="509" y="-258.8" font-family="Times,serif" font-size="14.00">&lt;factor&gt;</text>
</g>
<!-- 50&#45;&gt;51 -->
<g id="edge51" class="edge">
<title>50&#45;&gt;51</title>
<path fill="none" stroke="black" d="M509,-305.69C509,-299.18 509,-289.1 509,-280.43"/>
<polygon fill="black" stroke="black" points="512.5,-280.26 509,-270.26 505.5,-280.26 512.5,-280.26"/>
</g>
<!-- 52 -->
<g id="node53" class="node">
<title>52</title>
<text text-anchor="middle" x="509" y="-207.8" font-family="Times,serif" font-size="14.00">&lt;primary&gt;</text>
</g>
<!-- 51&#45;&gt;52 -->
<g id="edge52" class="edge">
<title>51&#45;&gt;52</title>
<path fill="none" stroke="black" d="M509,-254.69C509,-248.18 509,-238.1 509,-229.43"/>
<polygon fill="black" stroke="black" points="512.5,-229.26 509,-219.26 505.5,-229.26 512.5,-229.26"/>
</g>
<!-- 53 -->
<g id="node54" class="node">
<title>53</title>
<text text-anchor="middle" x="509" y="-156.8" font-family="Times,serif" font-size="14.00">&lt;atom&gt;</text>
</g>
<!-- 52&#45;&gt;53 -->
<g id="edge53" class="edge">
<title>52&#45;&gt;53</title>
<path fill="none" stroke="black" d="M509,-203.69C509,-197.18 509,-187.1 509,-178.43"/>
<polygon fill="black" stroke="black" points="512.5,-178.26 509,-168.26 505.5,-178.26 512.5,-178.26"/>
</g>
<!-- 54 -->
<g id="node55" class="node">
<title>54</title>
<text text-anchor="middle" x="509" y="-105.8" font-family="Times,serif" font-size="14.00">&lt;NAME&gt;</text>
</g>
<!-- 53&#45;&gt;54 -->
<g id="edge54" class="edge">
<title>53&#45;&gt;54</title>
<path fill="none" stroke="black" d="M509,-152.69C509,-146.18 509,-136.1 509,-127.43"/>
<polygon fill="black" stroke="black" points="512.5,-127.26 509,-117.26 505.5,-127.26 512.5,-127.26"/>
</g>
<!-- 55 -->
<g id="node56" class="node">
<title>55</title>
<text text-anchor="middle" x="499" y="-54.8" font-family="Times,serif" font-size="14.00">&lt;INIT_CHAR&gt;</text>
</g>
<!-- 54&#45;&gt;55 -->
<g id="edge55" class="edge">
<title>54&#45;&gt;55</title>
<path fill="none" stroke="black" d="M507.61,-101.69C506.27,-95.1 504.18,-84.87 502.4,-76.14"/>
<polygon fill="black" stroke="black" points="505.81,-75.35 500.38,-66.26 498.95,-76.75 505.81,-75.35"/>
</g>
<!-- 57 -->
<g id="node58" class="node">
<title>57</title>
<text text-anchor="middle" x="617" y="-54.8" font-family="Times,serif" font-size="14.00">&lt;IDCHARS&gt;</text>
</g>
<!-- 54&#45;&gt;57 -->
<g id="edge57" class="edge">
<title>54&#45;&gt;57</title>
<path fill="none" stroke="black" d="M523.57,-101.89C541.46,-93.77 572.06,-79.89 593.34,-70.23"/>
<polygon fill="black" stroke="black" points="595,-73.32 602.67,-66 592.11,-66.95 595,-73.32"/>
</g>
<!-- 56 -->
<g id="node57" class="node">
<title>56</title>
<text text-anchor="middle" x="499" y="-3.8" font-family="Times,serif" font-size="14.00">x</text>
</g>
<!-- 55&#45;&gt;56 -->
<g id="edge56" class="edge">
<title>55&#45;&gt;56</title>
<path fill="none" stroke="black" d="M499,-50.69C499,-44.18 499,-34.1 499,-25.43"/>
<polygon fill="black" stroke="black" points="502.5,-25.26 499,-15.26 495.5,-25.26 502.5,-25.26"/>
</g>
</g>
</svg>
