<?xml version="1.0" encoding="UTF-8" standalone="no"?>
<!DOCTYPE svg PUBLIC "-//W3C//DTD SVG 1.1//EN"
 "http://www.w3.org/Graphics/SVG/1.1/DTD/svg11.dtd">
<!-- Generated by graphviz version 2.43.0 (0)
 -->
<!-- Title: %3 Pages: 1 -->
<svg width="2418pt" height="1738pt"
 viewBox="0.00 0.00 2418.00 1738.00" xmlns="http://www.w3.org/2000/svg" xmlns:xlink="http://www.w3.org/1999/xlink">
<g id="graph0" class="graph" transform="scale(1 1) rotate(0) translate(4 1734)">
<title>%3</title>
<polygon fill="white" stroke="transparent" points="-4,4 -4,-1734 2414,-1734 2414,4 -4,4"/>
<!-- 0 -->
<g id="node1" class="node">
<title>0</title>
<polygon fill="none" stroke="black" points="1822,-1730 1448,-1730 1448,-1678 1822,-1678 1822,-1730"/>
<text text-anchor="start" x="1460" y="-1710.8" font-family="Times,serif" font-size="14.00">({}, None, {haystack: haystack, needle: needle})</text>
<text text-anchor="start" x="1614" y="-1689.8" font-family="Courier,monospace" font-size="14.00">i = 0</text>
</g>
<!-- 1 -->
<g id="node2" class="node">
<title>1</title>
<polygon fill="none" stroke="black" points="1838,-1642 1432,-1642 1432,-1590 1838,-1590 1838,-1642"/>
<text text-anchor="start" x="1444" y="-1622.8" font-family="Times,serif" font-size="14.00">({}, None, {haystack: haystack, needle: needle, i: 0})</text>
<text text-anchor="start" x="1507" y="-1601.8" font-family="Courier,monospace" font-size="14.00">assert Inv(i, needle, haystack)</text>
</g>
<!-- 0&#45;&gt;1 -->
<g id="edge1" class="edge">
<title>0&#45;&gt;1</title>
<path fill="none" stroke="black" d="M1635,-1677.66C1635,-1669.7 1635,-1660.76 1635,-1652.24"/>
<polygon fill="black" stroke="black" points="1638.5,-1652.16 1635,-1642.16 1631.5,-1652.16 1638.5,-1652.16"/>
</g>
<!-- 2 -->
<g id="node3" class="node">
<title>2</title>
<polygon fill="none" stroke="black" points="1838,-1554 1432,-1554 1432,-1502 1838,-1502 1838,-1554"/>
<text text-anchor="start" x="1444" y="-1534.8" font-family="Times,serif" font-size="14.00">({}, None, {haystack: haystack, needle: needle, i: 0})</text>
<text text-anchor="start" x="1606" y="-1513.8" font-family="Courier,monospace" font-size="14.00">havoc i</text>
</g>
<!-- 1&#45;&gt;2 -->
<g id="edge2" class="edge">
<title>1&#45;&gt;2</title>
<path fill="none" stroke="black" d="M1635,-1589.66C1635,-1581.7 1635,-1572.76 1635,-1564.24"/>
<polygon fill="black" stroke="black" points="1638.5,-1564.16 1635,-1554.16 1631.5,-1564.16 1638.5,-1564.16"/>
</g>
<!-- 3 -->
<g id="node4" class="node">
<title>3</title>
<polygon fill="none" stroke="black" points="1856.5,-1466 1413.5,-1466 1413.5,-1414 1856.5,-1414 1856.5,-1466"/>
<text text-anchor="start" x="1426" y="-1446.8" font-family="Times,serif" font-size="14.00">({}, None, {haystack: haystack, needle: needle, i: i!2239})</text>
<text text-anchor="start" x="1507.5" y="-1425.8" font-family="Courier,monospace" font-size="14.00">assume Inv(i, needle, haystack)</text>
</g>
<!-- 2&#45;&gt;3 -->
<g id="edge3" class="edge">
<title>2&#45;&gt;3</title>
<path fill="none" stroke="black" d="M1635,-1501.66C1635,-1493.7 1635,-1484.76 1635,-1476.24"/>
<polygon fill="black" stroke="black" points="1638.5,-1476.16 1635,-1466.16 1631.5,-1476.16 1638.5,-1476.16"/>
</g>
<!-- 4 -->
<g id="node5" class="node">
<title>4</title>
<polygon fill="none" stroke="black" points="1887.5,-1378 1382.5,-1378 1382.5,-1221 1887.5,-1221 1887.5,-1378"/>
<text text-anchor="start" x="1395" y="-1358.3" font-family="Times,serif" font-size="14.00">({0 ≤ i!2239 ∧</text>
<text text-anchor="start" x="1395" y="-1343.3" font-family="Times,serif" font-size="14.00">i!2239 ≤ Length(haystack) ∧</text>
<text text-anchor="start" x="1395" y="-1328.3" font-family="Times,serif" font-size="14.00">(∀k :</text>
<text text-anchor="start" x="1395" y="-1313.3" font-family="Times,serif" font-size="14.00">  ¬(0 ≤ k ∧ ¬(i!2239 ≤ k)) ∨</text>
<text text-anchor="start" x="1395" y="-1298.3" font-family="Times,serif" font-size="14.00">  ¬(If(k ≥ 0 ∧ ¬(Length(haystack) ≤ k),</text>
<text text-anchor="start" x="1395" y="-1283.3" font-family="Times,serif" font-size="14.00">       seq.nth_i(haystack, k),</text>
<text text-anchor="start" x="1395" y="-1268.3" font-family="Times,serif" font-size="14.00">       seq.nth_u(haystack, k)) =</text>
<text text-anchor="start" x="1395" y="-1253.3" font-family="Times,serif" font-size="14.00">    needle))}, None, {haystack: haystack, needle: needle, i: i!2239})</text>
<text text-anchor="start" x="1466" y="-1232.3" font-family="Courier,monospace" font-size="14.00">loop&#45;scope(inv=Inv(i, needle, haystack)):</text>
</g>
<!-- 3&#45;&gt;4 -->
<g id="edge4" class="edge">
<title>3&#45;&gt;4</title>
<path fill="none" stroke="black" d="M1635,-1413.92C1635,-1406.36 1635,-1397.6 1635,-1388.36"/>
<polygon fill="black" stroke="black" points="1638.5,-1388.19 1635,-1378.19 1631.5,-1388.19 1638.5,-1388.19"/>
</g>
<!-- 5 -->
<g id="node6" class="node">
<title>5</title>
<polygon fill="none" stroke="black" points="1887.5,-1185 1382.5,-1185 1382.5,-1028 1887.5,-1028 1887.5,-1185"/>
<text text-anchor="start" x="1395" y="-1165.3" font-family="Times,serif" font-size="14.00">({0 ≤ i!2239 ∧</text>
<text text-anchor="start" x="1395" y="-1150.3" font-family="Times,serif" font-size="14.00">i!2239 ≤ Length(haystack) ∧</text>
<text text-anchor="start" x="1395" y="-1135.3" font-family="Times,serif" font-size="14.00">(∀k :</text>
<text text-anchor="start" x="1395" y="-1120.3" font-family="Times,serif" font-size="14.00">  ¬(0 ≤ k ∧ ¬(i!2239 ≤ k)) ∨</text>
<text text-anchor="start" x="1395" y="-1105.3" font-family="Times,serif" font-size="14.00">  ¬(If(k ≥ 0 ∧ ¬(Length(haystack) ≤ k),</text>
<text text-anchor="start" x="1395" y="-1090.3" font-family="Times,serif" font-size="14.00">       seq.nth_i(haystack, k),</text>
<text text-anchor="start" x="1395" y="-1075.3" font-family="Times,serif" font-size="14.00">       seq.nth_u(haystack, k)) =</text>
<text text-anchor="start" x="1395" y="-1060.3" font-family="Times,serif" font-size="14.00">    needle))}, None, {haystack: haystack, needle: needle, i: i!2239})</text>
<text text-anchor="start" x="1540.5" y="-1039.3" font-family="Courier,monospace" font-size="14.00">if (i &lt; len(haystack)):</text>
</g>
<!-- 4&#45;&gt;5 -->
<g id="edge5" class="edge">
<title>4&#45;&gt;5</title>
<path fill="none" stroke="black" d="M1635,-1220.81C1635,-1212.35 1635,-1203.69 1635,-1195.12"/>
<polygon fill="black" stroke="black" points="1638.5,-1195.12 1635,-1185.12 1631.5,-1195.12 1638.5,-1195.12"/>
</g>
<!-- 6 -->
<g id="node7" class="node">
<title>6</title>
<polygon fill="none" stroke="black" points="1626.5,-992 1121.5,-992 1121.5,-835 1626.5,-835 1626.5,-992"/>
<text text-anchor="start" x="1134" y="-972.3" font-family="Times,serif" font-size="14.00">({¬(Length(haystack) ≤ i!2239), 0 ≤ i!2239 ∧</text>
<text text-anchor="start" x="1134" y="-957.3" font-family="Times,serif" font-size="14.00">i!2239 ≤ Length(haystack) ∧</text>
<text text-anchor="start" x="1134" y="-942.3" font-family="Times,serif" font-size="14.00">(∀k :</text>
<text text-anchor="start" x="1134" y="-927.3" font-family="Times,serif" font-size="14.00">  ¬(0 ≤ k ∧ ¬(i!2239 ≤ k)) ∨</text>
<text text-anchor="start" x="1134" y="-912.3" font-family="Times,serif" font-size="14.00">  ¬(If(k ≥ 0 ∧ ¬(Length(haystack) ≤ k),</text>
<text text-anchor="start" x="1134" y="-897.3" font-family="Times,serif" font-size="14.00">       seq.nth_i(haystack, k),</text>
<text text-anchor="start" x="1134" y="-882.3" font-family="Times,serif" font-size="14.00">       seq.nth_u(haystack, k)) =</text>
<text text-anchor="start" x="1134" y="-867.3" font-family="Times,serif" font-size="14.00">    needle))}, None, {haystack: haystack, needle: needle, i: i!2239})</text>
<text text-anchor="start" x="1263" y="-846.3" font-family="Courier,monospace" font-size="14.00">if (haystack[i] == needle):</text>
</g>
<!-- 5&#45;&gt;6 -->
<g id="edge6" class="edge">
<title>5&#45;&gt;6</title>
<path fill="none" stroke="black" d="M1528.84,-1027.81C1515.52,-1018.06 1501.84,-1008.06 1488.4,-998.22"/>
<polygon fill="black" stroke="black" points="1490.2,-995.2 1480.06,-992.12 1486.07,-1000.85 1490.2,-995.2"/>
</g>
<!-- 14 -->
<g id="node15" class="node">
<title>14</title>
<polygon fill="none" stroke="black" points="2254.5,-992 1749.5,-992 1749.5,-835 2254.5,-835 2254.5,-992"/>
<text text-anchor="start" x="1762" y="-972.3" font-family="Times,serif" font-size="14.00">({Length(haystack) ≤ i!2239, 0 ≤ i!2239 ∧</text>
<text text-anchor="start" x="1762" y="-957.3" font-family="Times,serif" font-size="14.00">i!2239 ≤ Length(haystack) ∧</text>
<text text-anchor="start" x="1762" y="-942.3" font-family="Times,serif" font-size="14.00">(∀k :</text>
<text text-anchor="start" x="1762" y="-927.3" font-family="Times,serif" font-size="14.00">  ¬(0 ≤ k ∧ ¬(i!2239 ≤ k)) ∨</text>
<text text-anchor="start" x="1762" y="-912.3" font-family="Times,serif" font-size="14.00">  ¬(If(k ≥ 0 ∧ ¬(Length(haystack) ≤ k),</text>
<text text-anchor="start" x="1762" y="-897.3" font-family="Times,serif" font-size="14.00">       seq.nth_i(haystack, k),</text>
<text text-anchor="start" x="1762" y="-882.3" font-family="Times,serif" font-size="14.00">       seq.nth_u(haystack, k)) =</text>
<text text-anchor="start" x="1762" y="-867.3" font-family="Times,serif" font-size="14.00">    needle))}, None, {haystack: haystack, needle: needle, i: i!2239})</text>
<text text-anchor="start" x="1965" y="-846.3" font-family="Courier,monospace" font-size="14.00">return &#45;1</text>
</g>
<!-- 5&#45;&gt;14 -->
<g id="edge14" class="edge">
<title>5&#45;&gt;14</title>
<path fill="none" stroke="black" d="M1784.01,-1027.95C1803.73,-1017.69 1823.99,-1007.14 1843.86,-996.8"/>
<polygon fill="black" stroke="black" points="1845.7,-999.79 1852.95,-992.07 1842.47,-993.58 1845.7,-999.79"/>
</g>
<!-- 7 -->
<g id="node8" class="node">
<title>7</title>
<polygon fill="none" stroke="black" points="940.5,-799 117.5,-799 117.5,-642 940.5,-642 940.5,-799"/>
<text text-anchor="start" x="130" y="-779.3" font-family="Times,serif" font-size="14.00">({seq.nth_i(haystack, i!2239) = needle, 0 ≤ i!2239 ∧</text>
<text text-anchor="start" x="130" y="-764.3" font-family="Times,serif" font-size="14.00">i!2239 ≤ Length(haystack) ∧</text>
<text text-anchor="start" x="130" y="-749.3" font-family="Times,serif" font-size="14.00">(∀k :</text>
<text text-anchor="start" x="130" y="-734.3" font-family="Times,serif" font-size="14.00">  ¬(0 ≤ k ∧ ¬(i!2239 ≤ k)) ∨</text>
<text text-anchor="start" x="130" y="-719.3" font-family="Times,serif" font-size="14.00">  ¬(If(k ≥ 0 ∧ ¬(Length(haystack) ≤ k),</text>
<text text-anchor="start" x="130" y="-704.3" font-family="Times,serif" font-size="14.00">       seq.nth_i(haystack, k),</text>
<text text-anchor="start" x="130" y="-689.3" font-family="Times,serif" font-size="14.00">       seq.nth_u(haystack, k)) =</text>
<text text-anchor="start" x="130" y="-674.3" font-family="Times,serif" font-size="14.00">    needle)), 0 ≤ i!2239 ∧ ¬(Length(haystack) ≤ i!2239)}, None, {haystack: haystack, needle: needle, i: i!2239})</text>
<text text-anchor="start" x="508.5" y="-653.3" font-family="Courier,monospace" font-size="14.00">break</text>
</g>
<!-- 6&#45;&gt;7 -->
<g id="edge7" class="edge">
<title>6&#45;&gt;7</title>
<path fill="none" stroke="black" d="M1121.33,-855.39C1046.1,-838.38 962.25,-819.43 881.86,-801.26"/>
<polygon fill="black" stroke="black" points="882.6,-797.84 872.07,-799.05 881.06,-804.67 882.6,-797.84"/>
</g>
<!-- 10 -->
<g id="node11" class="node">
<title>10</title>
<polygon fill="none" stroke="black" points="1785.5,-799 962.5,-799 962.5,-642 1785.5,-642 1785.5,-799"/>
<text text-anchor="start" x="975" y="-779.3" font-family="Times,serif" font-size="14.00">({¬(seq.nth_i(haystack, i!2239) = needle), 0 ≤ i!2239 ∧</text>
<text text-anchor="start" x="975" y="-764.3" font-family="Times,serif" font-size="14.00">i!2239 ≤ Length(haystack) ∧</text>
<text text-anchor="start" x="975" y="-749.3" font-family="Times,serif" font-size="14.00">(∀k :</text>
<text text-anchor="start" x="975" y="-734.3" font-family="Times,serif" font-size="14.00">  ¬(0 ≤ k ∧ ¬(i!2239 ≤ k)) ∨</text>
<text text-anchor="start" x="975" y="-719.3" font-family="Times,serif" font-size="14.00">  ¬(If(k ≥ 0 ∧ ¬(Length(haystack) ≤ k),</text>
<text text-anchor="start" x="975" y="-704.3" font-family="Times,serif" font-size="14.00">       seq.nth_i(haystack, k),</text>
<text text-anchor="start" x="975" y="-689.3" font-family="Times,serif" font-size="14.00">       seq.nth_u(haystack, k)) =</text>
<text text-anchor="start" x="975" y="-674.3" font-family="Times,serif" font-size="14.00">    needle)), 0 ≤ i!2239 ∧ ¬(Length(haystack) ≤ i!2239)}, None, {haystack: haystack, needle: needle, i: i!2239})</text>
<text text-anchor="start" x="1329" y="-653.3" font-family="Courier,monospace" font-size="14.00">i = (i + 1)</text>
</g>
<!-- 6&#45;&gt;10 -->
<g id="edge10" class="edge">
<title>6&#45;&gt;10</title>
<path fill="none" stroke="black" d="M1374,-834.81C1374,-826.35 1374,-817.69 1374,-809.12"/>
<polygon fill="black" stroke="black" points="1377.5,-809.12 1374,-799.12 1370.5,-809.12 1377.5,-809.12"/>
</g>
<!-- 8 -->
<g id="node9" class="node">
<title>8</title>
<polygon fill="none" stroke="black" points="933.5,-606 110.5,-606 110.5,-449 933.5,-449 933.5,-606"/>
<text text-anchor="start" x="123" y="-586.3" font-family="Times,serif" font-size="14.00">({seq.nth_i(haystack, i!2239) = needle, 0 ≤ i!2239 ∧</text>
<text text-anchor="start" x="123" y="-571.3" font-family="Times,serif" font-size="14.00">i!2239 ≤ Length(haystack) ∧</text>
<text text-anchor="start" x="123" y="-556.3" font-family="Times,serif" font-size="14.00">(∀k :</text>
<text text-anchor="start" x="123" y="-541.3" font-family="Times,serif" font-size="14.00">  ¬(0 ≤ k ∧ ¬(i!2239 ≤ k)) ∨</text>
<text text-anchor="start" x="123" y="-526.3" font-family="Times,serif" font-size="14.00">  ¬(If(k ≥ 0 ∧ ¬(Length(haystack) ≤ k),</text>
<text text-anchor="start" x="123" y="-511.3" font-family="Times,serif" font-size="14.00">       seq.nth_i(haystack, k),</text>
<text text-anchor="start" x="123" y="-496.3" font-family="Times,serif" font-size="14.00">       seq.nth_u(haystack, k)) =</text>
<text text-anchor="start" x="123" y="-481.3" font-family="Times,serif" font-size="14.00">    needle)), 0 ≤ i!2239 ∧ ¬(Length(haystack) ≤ i!2239)}, None, {haystack: haystack, needle: needle, i: i!2239})</text>
<text text-anchor="start" x="489" y="-460.3" font-family="Courier,monospace" font-size="14.00">return i</text>
</g>
<!-- 7&#45;&gt;8 -->
<g id="edge8" class="edge">
<title>7&#45;&gt;8</title>
<path fill="none" stroke="black" d="M526.15,-641.81C525.84,-633.35 525.53,-624.69 525.21,-616.12"/>
<polygon fill="black" stroke="black" points="528.71,-615.98 524.84,-606.12 521.71,-616.24 528.71,-615.98"/>
</g>
<!-- 9 -->
<g id="node10" class="node">
<title>9</title>
<polygon fill="#aeeeee" stroke="black" points="958,-413 0,-413 0,-277 958,-277 958,-413"/>
<text text-anchor="start" x="12" y="-393.8" font-family="Times,serif" font-size="14.00">({seq.nth_i(haystack, i!2239) = needle, 0 ≤ i!2239 ∧</text>
<text text-anchor="start" x="12" y="-378.8" font-family="Times,serif" font-size="14.00">i!2239 ≤ Length(haystack) ∧</text>
<text text-anchor="start" x="12" y="-363.8" font-family="Times,serif" font-size="14.00">(∀k :</text>
<text text-anchor="start" x="12" y="-348.8" font-family="Times,serif" font-size="14.00">  ¬(0 ≤ k ∧ ¬(i!2239 ≤ k)) ∨</text>
<text text-anchor="start" x="12" y="-333.8" font-family="Times,serif" font-size="14.00">  ¬(If(k ≥ 0 ∧ ¬(Length(haystack) ≤ k),</text>
<text text-anchor="start" x="12" y="-318.8" font-family="Times,serif" font-size="14.00">       seq.nth_i(haystack, k),</text>
<text text-anchor="start" x="12" y="-303.8" font-family="Times,serif" font-size="14.00">       seq.nth_u(haystack, k)) =</text>
<text text-anchor="start" x="12" y="-288.8" font-family="Times,serif" font-size="14.00">    needle)), 0 ≤ i!2239 ∧ ¬(Length(haystack) ≤ i!2239)}, SymbolicReturn(i!2239), {haystack: haystack, needle: needle, i: i!2239})</text>
</g>
<!-- 8&#45;&gt;9 -->
<g id="edge9" class="edge">
<title>8&#45;&gt;9</title>
<path fill="none" stroke="black" d="M503.51,-448.9C501.47,-440.32 499.39,-431.58 497.34,-423"/>
<polygon fill="black" stroke="black" points="500.69,-421.94 494.97,-413.03 493.88,-423.57 500.69,-421.94"/>
</g>
<!-- 11 -->
<g id="node12" class="node">
<title>11</title>
<polygon fill="none" stroke="black" points="1826.5,-606 973.5,-606 973.5,-449 1826.5,-449 1826.5,-606"/>
<text text-anchor="start" x="986" y="-586.3" font-family="Times,serif" font-size="14.00">({¬(seq.nth_i(haystack, i!2239) = needle), 0 ≤ i!2239 ∧</text>
<text text-anchor="start" x="986" y="-571.3" font-family="Times,serif" font-size="14.00">i!2239 ≤ Length(haystack) ∧</text>
<text text-anchor="start" x="986" y="-556.3" font-family="Times,serif" font-size="14.00">(∀k :</text>
<text text-anchor="start" x="986" y="-541.3" font-family="Times,serif" font-size="14.00">  ¬(0 ≤ k ∧ ¬(i!2239 ≤ k)) ∨</text>
<text text-anchor="start" x="986" y="-526.3" font-family="Times,serif" font-size="14.00">  ¬(If(k ≥ 0 ∧ ¬(Length(haystack) ≤ k),</text>
<text text-anchor="start" x="986" y="-511.3" font-family="Times,serif" font-size="14.00">       seq.nth_i(haystack, k),</text>
<text text-anchor="start" x="986" y="-496.3" font-family="Times,serif" font-size="14.00">       seq.nth_u(haystack, k)) =</text>
<text text-anchor="start" x="986" y="-481.3" font-family="Times,serif" font-size="14.00">    needle)), 0 ≤ i!2239 ∧ ¬(Length(haystack) ≤ i!2239)}, None, {haystack: haystack, needle: needle, i: 1 + i!2239})</text>
<text text-anchor="start" x="1367" y="-460.3" font-family="Courier,monospace" font-size="14.00">continue</text>
</g>
<!-- 10&#45;&gt;11 -->
<g id="edge11" class="edge">
<title>10&#45;&gt;11</title>
<path fill="none" stroke="black" d="M1384.58,-641.81C1385.73,-633.35 1386.91,-624.69 1388.07,-616.12"/>
<polygon fill="black" stroke="black" points="1391.55,-616.5 1389.43,-606.12 1384.62,-615.55 1391.55,-616.5"/>
</g>
<!-- 12 -->
<g id="node13" class="node">
<title>12</title>
<polygon fill="none" stroke="black" points="1867.5,-413 976.5,-413 976.5,-277 1867.5,-277 1867.5,-413"/>
<text text-anchor="start" x="989" y="-393.8" font-family="Times,serif" font-size="14.00">({¬(seq.nth_i(haystack, i!2239) = needle), 0 ≤ i!2239 ∧</text>
<text text-anchor="start" x="989" y="-378.8" font-family="Times,serif" font-size="14.00">i!2239 ≤ Length(haystack) ∧</text>
<text text-anchor="start" x="989" y="-363.8" font-family="Times,serif" font-size="14.00">(∀k :</text>
<text text-anchor="start" x="989" y="-348.8" font-family="Times,serif" font-size="14.00">  ¬(0 ≤ k ∧ ¬(i!2239 ≤ k)) ∨</text>
<text text-anchor="start" x="989" y="-333.8" font-family="Times,serif" font-size="14.00">  ¬(If(k ≥ 0 ∧ ¬(Length(haystack) ≤ k),</text>
<text text-anchor="start" x="989" y="-318.8" font-family="Times,serif" font-size="14.00">       seq.nth_i(haystack, k),</text>
<text text-anchor="start" x="989" y="-303.8" font-family="Times,serif" font-size="14.00">       seq.nth_u(haystack, k)) =</text>
<text text-anchor="start" x="989" y="-288.8" font-family="Times,serif" font-size="14.00">    needle)), 0 ≤ i!2239 ∧ ¬(Length(haystack) ≤ i!2239)}, Continue(), {haystack: haystack, needle: needle, i: 1 + i!2239})</text>
</g>
<!-- 11&#45;&gt;12 -->
<g id="edge12" class="edge">
<title>11&#45;&gt;12</title>
<path fill="none" stroke="black" d="M1409.46,-448.9C1410.5,-440.32 1411.57,-431.58 1412.61,-423"/>
<polygon fill="black" stroke="black" points="1416.09,-423.38 1413.83,-413.03 1409.15,-422.53 1416.09,-423.38"/>
</g>
<!-- 13 -->
<g id="node14" class="node">
<title>13</title>
<polygon fill="#aeeeee" stroke="black" points="1850.5,-241 993.5,-241 993.5,0 1850.5,0 1850.5,-241"/>
<text text-anchor="start" x="1006" y="-221.3" font-family="Times,serif" font-size="14.00">({&#45;1 ≤ i!2239 ∧</text>
<text text-anchor="start" x="1006" y="-206.3" font-family="Times,serif" font-size="14.00">i!2239 ≤ &#45;1 + Length(haystack) ∧</text>
<text text-anchor="start" x="1006" y="-191.3" font-family="Times,serif" font-size="14.00">(∀k :</text>
<text text-anchor="start" x="1006" y="-176.3" font-family="Times,serif" font-size="14.00">  ¬(0 ≤ k ∧ ¬(i!2239 ≤ &#45;1 + k)) ∨</text>
<text text-anchor="start" x="1006" y="-161.3" font-family="Times,serif" font-size="14.00">  ¬(If(k ≥ 0 ∧ ¬(Length(haystack) ≤ k),</text>
<text text-anchor="start" x="1006" y="-146.3" font-family="Times,serif" font-size="14.00">       seq.nth_i(haystack, k),</text>
<text text-anchor="start" x="1006" y="-131.3" font-family="Times,serif" font-size="14.00">       seq.nth_u(haystack, k)) =</text>
<text text-anchor="start" x="1006" y="-116.3" font-family="Times,serif" font-size="14.00">    needle)), ¬(seq.nth_i(haystack, i!2239) = needle), 0 ≤ i!2239 ∧</text>
<text text-anchor="start" x="1006" y="-101.3" font-family="Times,serif" font-size="14.00">i!2239 ≤ Length(haystack) ∧</text>
<text text-anchor="start" x="1006" y="-86.3" font-family="Times,serif" font-size="14.00">(∀k :</text>
<text text-anchor="start" x="1006" y="-71.3" font-family="Times,serif" font-size="14.00">  ¬(0 ≤ k ∧ ¬(i!2239 ≤ k)) ∨</text>
<text text-anchor="start" x="1006" y="-56.3" font-family="Times,serif" font-size="14.00">  ¬(If(k ≥ 0 ∧ ¬(Length(haystack) ≤ k),</text>
<text text-anchor="start" x="1006" y="-41.3" font-family="Times,serif" font-size="14.00">       seq.nth_i(haystack, k),</text>
<text text-anchor="start" x="1006" y="-26.3" font-family="Times,serif" font-size="14.00">       seq.nth_u(haystack, k)) =</text>
<text text-anchor="start" x="1006" y="-11.3" font-family="Times,serif" font-size="14.00">    needle)), 0 ≤ i!2239 ∧ ¬(Length(haystack) ≤ i!2239)}, Halt(), {haystack: haystack, needle: needle, i: 1 + i!2239})</text>
</g>
<!-- 12&#45;&gt;13 -->
<g id="edge13" class="edge">
<title>12&#45;&gt;13</title>
<path fill="none" stroke="black" d="M1422,-276.94C1422,-268.67 1422,-260 1422,-251.18"/>
<polygon fill="black" stroke="black" points="1425.5,-251.16 1422,-241.16 1418.5,-251.16 1425.5,-251.16"/>
</g>
<!-- 15 -->
<g id="node16" class="node">
<title>15</title>
<polygon fill="#aeeeee" stroke="black" points="2410,-788.5 1804,-788.5 1804,-652.5 2410,-652.5 2410,-788.5"/>
<text text-anchor="start" x="1816" y="-769.3" font-family="Times,serif" font-size="14.00">({Length(haystack) ≤ i!2239, 0 ≤ i!2239 ∧</text>
<text text-anchor="start" x="1816" y="-754.3" font-family="Times,serif" font-size="14.00">i!2239 ≤ Length(haystack) ∧</text>
<text text-anchor="start" x="1816" y="-739.3" font-family="Times,serif" font-size="14.00">(∀k :</text>
<text text-anchor="start" x="1816" y="-724.3" font-family="Times,serif" font-size="14.00">  ¬(0 ≤ k ∧ ¬(i!2239 ≤ k)) ∨</text>
<text text-anchor="start" x="1816" y="-709.3" font-family="Times,serif" font-size="14.00">  ¬(If(k ≥ 0 ∧ ¬(Length(haystack) ≤ k),</text>
<text text-anchor="start" x="1816" y="-694.3" font-family="Times,serif" font-size="14.00">       seq.nth_i(haystack, k),</text>
<text text-anchor="start" x="1816" y="-679.3" font-family="Times,serif" font-size="14.00">       seq.nth_u(haystack, k)) =</text>
<text text-anchor="start" x="1816" y="-664.3" font-family="Times,serif" font-size="14.00">    needle))}, SymbolicReturn(&#45;1), {haystack: haystack, needle: needle, i: i!2239})</text>
</g>
<!-- 14&#45;&gt;15 -->
<g id="edge15" class="edge">
<title>14&#45;&gt;15</title>
<path fill="none" stroke="black" d="M2044.71,-834.81C2051.47,-822.51 2058.46,-809.8 2065.2,-797.54"/>
<polygon fill="black" stroke="black" points="2068.3,-799.15 2070.05,-788.71 2062.17,-795.78 2068.3,-799.15"/>
</g>
</g>
</svg>
