<?xml version="1.0" encoding="UTF-8" standalone="no"?>
<!DOCTYPE svg PUBLIC "-//W3C//DTD SVG 1.1//EN"
 "http://www.w3.org/Graphics/SVG/1.1/DTD/svg11.dtd">
<!-- Generated by graphviz version 2.43.0 (0)
 -->
<!-- Title: %3 Pages: 1 -->
<svg width="1991pt" height="1586pt"
 viewBox="0.00 0.00 1991.00 1586.00" xmlns="http://www.w3.org/2000/svg" xmlns:xlink="http://www.w3.org/1999/xlink">
<g id="graph0" class="graph" transform="scale(1 1) rotate(0) translate(4 1582)">
<title>%3</title>
<polygon fill="white" stroke="transparent" points="-4,4 -4,-1582 1987,-1582 1987,4 -4,4"/>
<!-- 0 -->
<g id="node1" class="node">
<title>0</title>
<polygon fill="none" stroke="black" points="1196,-1578 1048,-1578 1048,-1526 1196,-1526 1196,-1578"/>
<text text-anchor="start" x="1060" y="-1558.8" font-family="Times,serif" font-size="14.00">({}, None, {t: t})</text>
<text text-anchor="start" x="1101" y="-1537.8" font-family="Courier,monospace" font-size="14.00">i = 0</text>
</g>
<!-- 1 -->
<g id="node2" class="node">
<title>1</title>
<polygon fill="none" stroke="black" points="1211.5,-1490 1032.5,-1490 1032.5,-1438 1211.5,-1438 1211.5,-1490"/>
<text text-anchor="start" x="1045" y="-1470.8" font-family="Times,serif" font-size="14.00">({}, None, {t: t, i: 0})</text>
<text text-anchor="start" x="1081" y="-1449.8" font-family="Courier,monospace" font-size="14.00">result = 1</text>
</g>
<!-- 0&#45;&gt;1 -->
<g id="edge1" class="edge">
<title>0&#45;&gt;1</title>
<path fill="none" stroke="black" d="M1122,-1525.66C1122,-1517.7 1122,-1508.76 1122,-1500.24"/>
<polygon fill="black" stroke="black" points="1125.5,-1500.16 1122,-1490.16 1118.5,-1500.16 1125.5,-1500.16"/>
</g>
<!-- 2 -->
<g id="node3" class="node">
<title>2</title>
<polygon fill="none" stroke="black" points="1246,-1402 998,-1402 998,-1350 1246,-1350 1246,-1402"/>
<text text-anchor="start" x="1010" y="-1382.8" font-family="Times,serif" font-size="14.00">({}, None, {t: t, i: 0, result: 1})</text>
<text text-anchor="start" x="1088.5" y="-1361.8" font-family="Courier,monospace" font-size="14.00">elem = 1</text>
</g>
<!-- 1&#45;&gt;2 -->
<g id="edge2" class="edge">
<title>1&#45;&gt;2</title>
<path fill="none" stroke="black" d="M1122,-1437.66C1122,-1429.7 1122,-1420.76 1122,-1412.24"/>
<polygon fill="black" stroke="black" points="1125.5,-1412.16 1122,-1402.16 1118.5,-1412.16 1125.5,-1412.16"/>
</g>
<!-- 3 -->
<g id="node4" class="node">
<title>3</title>
<polygon fill="none" stroke="black" points="1277,-1314 967,-1314 967,-1262 1277,-1262 1277,-1314"/>
<text text-anchor="start" x="979" y="-1294.8" font-family="Times,serif" font-size="14.00">({}, None, {t: t, i: 0, result: 1, elem: 1})</text>
<text text-anchor="start" x="998" y="-1273.8" font-family="Courier,monospace" font-size="14.00">assert Inv(i, t, elem, result)</text>
</g>
<!-- 2&#45;&gt;3 -->
<g id="edge3" class="edge">
<title>2&#45;&gt;3</title>
<path fill="none" stroke="black" d="M1122,-1349.66C1122,-1341.7 1122,-1332.76 1122,-1324.24"/>
<polygon fill="black" stroke="black" points="1125.5,-1324.16 1122,-1314.16 1118.5,-1324.16 1125.5,-1324.16"/>
</g>
<!-- 4 -->
<g id="node5" class="node">
<title>4</title>
<polygon fill="none" stroke="black" points="1277,-1226 967,-1226 967,-1174 1277,-1174 1277,-1226"/>
<text text-anchor="start" x="979" y="-1206.8" font-family="Times,serif" font-size="14.00">({}, None, {t: t, i: 0, result: 1, elem: 1})</text>
<text text-anchor="start" x="1093" y="-1185.8" font-family="Courier,monospace" font-size="14.00">havoc i</text>
</g>
<!-- 3&#45;&gt;4 -->
<g id="edge4" class="edge">
<title>3&#45;&gt;4</title>
<path fill="none" stroke="black" d="M1122,-1261.66C1122,-1253.7 1122,-1244.76 1122,-1236.24"/>
<polygon fill="black" stroke="black" points="1125.5,-1236.16 1122,-1226.16 1118.5,-1236.16 1125.5,-1236.16"/>
</g>
<!-- 5 -->
<g id="node6" class="node">
<title>5</title>
<polygon fill="none" stroke="black" points="1282,-1138 962,-1138 962,-1086 1282,-1086 1282,-1138"/>
<text text-anchor="start" x="974" y="-1118.8" font-family="Times,serif" font-size="14.00">({}, None, {t: t, i: i!0, result: 1, elem: 1})</text>
<text text-anchor="start" x="1080.5" y="-1097.8" font-family="Courier,monospace" font-size="14.00">havoc elem</text>
</g>
<!-- 4&#45;&gt;5 -->
<g id="edge5" class="edge">
<title>4&#45;&gt;5</title>
<path fill="none" stroke="black" d="M1122,-1173.66C1122,-1165.7 1122,-1156.76 1122,-1148.24"/>
<polygon fill="black" stroke="black" points="1125.5,-1148.16 1122,-1138.16 1118.5,-1148.16 1125.5,-1148.16"/>
</g>
<!-- 6 -->
<g id="node7" class="node">
<title>6</title>
<polygon fill="none" stroke="black" points="1302.5,-1050 941.5,-1050 941.5,-998 1302.5,-998 1302.5,-1050"/>
<text text-anchor="start" x="954" y="-1030.8" font-family="Times,serif" font-size="14.00">({}, None, {t: t, i: i!0, result: 1, elem: elem!1})</text>
<text text-anchor="start" x="1072.5" y="-1009.8" font-family="Courier,monospace" font-size="14.00">havoc result</text>
</g>
<!-- 5&#45;&gt;6 -->
<g id="edge6" class="edge">
<title>5&#45;&gt;6</title>
<path fill="none" stroke="black" d="M1122,-1085.66C1122,-1077.7 1122,-1068.76 1122,-1060.24"/>
<polygon fill="black" stroke="black" points="1125.5,-1060.16 1122,-1050.16 1118.5,-1060.16 1125.5,-1060.16"/>
</g>
<!-- 7 -->
<g id="node8" class="node">
<title>7</title>
<polygon fill="none" stroke="black" points="1326.5,-962 917.5,-962 917.5,-910 1326.5,-910 1326.5,-962"/>
<text text-anchor="start" x="930" y="-942.8" font-family="Times,serif" font-size="14.00">({}, None, {t: t, i: i!0, result: result!2, elem: elem!1})</text>
<text text-anchor="start" x="998.5" y="-921.8" font-family="Courier,monospace" font-size="14.00">assume Inv(i, t, elem, result)</text>
</g>
<!-- 6&#45;&gt;7 -->
<g id="edge7" class="edge">
<title>6&#45;&gt;7</title>
<path fill="none" stroke="black" d="M1122,-997.66C1122,-989.7 1122,-980.76 1122,-972.24"/>
<polygon fill="black" stroke="black" points="1125.5,-972.16 1122,-962.16 1118.5,-972.16 1125.5,-972.16"/>
</g>
<!-- 8 -->
<g id="node9" class="node">
<title>8</title>
<polygon fill="none" stroke="black" points="1460,-874 784,-874 784,-777 1460,-777 1460,-874"/>
<text text-anchor="start" x="796" y="-854.3" font-family="Times,serif" font-size="14.00">({0 ≤ i!0 ∧</text>
<text text-anchor="start" x="796" y="-839.3" font-family="Times,serif" font-size="14.00">i!0 ≤ Length(t) ∧</text>
<text text-anchor="start" x="796" y="-824.3" font-family="Times,serif" font-size="14.00">(0 = elem!1 ∧ 0 = result!2 ∨</text>
<text text-anchor="start" x="796" y="-809.3" font-family="Times,serif" font-size="14.00"> ¬(0 = elem!1) ∧ 0 = result!2%elem!1)}, None, {t: t, i: i!0, result: result!2, elem: elem!1})</text>
<text text-anchor="start" x="1055.5" y="-788.3" font-family="Courier,monospace" font-size="14.00">if (i &lt; len(t)):</text>
</g>
<!-- 7&#45;&gt;8 -->
<g id="edge8" class="edge">
<title>7&#45;&gt;8</title>
<path fill="none" stroke="black" d="M1122,-909.84C1122,-902.1 1122,-893.25 1122,-884.27"/>
<polygon fill="black" stroke="black" points="1125.5,-884.13 1122,-874.13 1118.5,-884.13 1125.5,-884.13"/>
</g>
<!-- 9 -->
<g id="node10" class="node">
<title>9</title>
<polygon fill="none" stroke="black" points="1148,-741 334,-741 334,-644 1148,-644 1148,-741"/>
<text text-anchor="start" x="346" y="-721.3" font-family="Times,serif" font-size="14.00">({0 ≤ i!0 ∧</text>
<text text-anchor="start" x="346" y="-706.3" font-family="Times,serif" font-size="14.00">i!0 ≤ Length(t) ∧</text>
<text text-anchor="start" x="346" y="-691.3" font-family="Times,serif" font-size="14.00">(0 = elem!1 ∧ 0 = result!2 ∨</text>
<text text-anchor="start" x="346" y="-676.3" font-family="Times,serif" font-size="14.00"> ¬(0 = elem!1) ∧ 0 = result!2%elem!1), ¬(Length(t) ≤ i!0)}, None, {t: t, i: i!0, result: result!2, elem: elem!1})</text>
<text text-anchor="start" x="695.5" y="-655.3" font-family="Courier,monospace" font-size="14.00">elem = t[i]</text>
</g>
<!-- 8&#45;&gt;9 -->
<g id="edge9" class="edge">
<title>8&#45;&gt;9</title>
<path fill="none" stroke="black" d="M983.64,-776.93C952.87,-766.35 920.14,-755.09 889,-744.39"/>
<polygon fill="black" stroke="black" points="889.99,-741.02 879.39,-741.08 887.71,-747.64 889.99,-741.02"/>
</g>
<!-- 15 -->
<g id="node16" class="node">
<title>15</title>
<polygon fill="none" stroke="black" points="1876,-741 1200,-741 1200,-644 1876,-644 1876,-741"/>
<text text-anchor="start" x="1212" y="-721.3" font-family="Times,serif" font-size="14.00">({Length(t) ≤ i!0, 0 ≤ i!0 ∧</text>
<text text-anchor="start" x="1212" y="-706.3" font-family="Times,serif" font-size="14.00">i!0 ≤ Length(t) ∧</text>
<text text-anchor="start" x="1212" y="-691.3" font-family="Times,serif" font-size="14.00">(0 = elem!1 ∧ 0 = result!2 ∨</text>
<text text-anchor="start" x="1212" y="-676.3" font-family="Times,serif" font-size="14.00"> ¬(0 = elem!1) ∧ 0 = result!2%elem!1)}, None, {t: t, i: i!0, result: result!2, elem: elem!1})</text>
<text text-anchor="start" x="1484" y="-655.3" font-family="Courier,monospace" font-size="14.00">return result</text>
</g>
<!-- 8&#45;&gt;15 -->
<g id="edge15" class="edge">
<title>8&#45;&gt;15</title>
<path fill="none" stroke="black" d="M1273.07,-776.93C1306.95,-766.26 1343.02,-754.9 1377.28,-744.11"/>
<polygon fill="black" stroke="black" points="1378.41,-747.43 1386.9,-741.08 1376.31,-740.75 1378.41,-747.43"/>
</g>
<!-- 10 -->
<g id="node11" class="node">
<title>10</title>
<polygon fill="none" stroke="black" points="1144.5,-608 201.5,-608 201.5,-511 1144.5,-511 1144.5,-608"/>
<text text-anchor="start" x="214" y="-588.3" font-family="Times,serif" font-size="14.00">({0 ≤ i!0 ∧</text>
<text text-anchor="start" x="214" y="-573.3" font-family="Times,serif" font-size="14.00">i!0 ≤ Length(t) ∧</text>
<text text-anchor="start" x="214" y="-558.3" font-family="Times,serif" font-size="14.00">(0 = elem!1 ∧ 0 = result!2 ∨</text>
<text text-anchor="start" x="214" y="-543.3" font-family="Times,serif" font-size="14.00"> ¬(0 = elem!1) ∧ 0 = result!2%elem!1), 0 ≤ i!0 ∧ ¬(Length(t) ≤ i!0)}, None, {t: t, i: i!0, result: result!2, elem: seq.nth_i(t, i!0)})</text>
<text text-anchor="start" x="574" y="-522.3" font-family="Courier,monospace" font-size="14.00">result = (result * elem)</text>
</g>
<!-- 9&#45;&gt;10 -->
<g id="edge10" class="edge">
<title>9&#45;&gt;10</title>
<path fill="none" stroke="black" d="M716.26,-643.84C711.8,-635.26 707.12,-626.24 702.55,-617.43"/>
<polygon fill="black" stroke="black" points="705.55,-615.61 697.84,-608.35 699.34,-618.84 705.55,-615.61"/>
</g>
<!-- 11 -->
<g id="node12" class="node">
<title>11</title>
<polygon fill="none" stroke="black" points="1201.5,-475 144.5,-475 144.5,-378 1201.5,-378 1201.5,-475"/>
<text text-anchor="start" x="157" y="-455.3" font-family="Times,serif" font-size="14.00">({0 ≤ i!0 ∧</text>
<text text-anchor="start" x="157" y="-440.3" font-family="Times,serif" font-size="14.00">i!0 ≤ Length(t) ∧</text>
<text text-anchor="start" x="157" y="-425.3" font-family="Times,serif" font-size="14.00">(0 = elem!1 ∧ 0 = result!2 ∨</text>
<text text-anchor="start" x="157" y="-410.3" font-family="Times,serif" font-size="14.00"> ¬(0 = elem!1) ∧ 0 = result!2%elem!1), 0 ≤ i!0 ∧ ¬(Length(t) ≤ i!0)}, None, {t: t, i: i!0, result: result!2·seq.nth_i(t, i!0), elem: seq.nth_i(t, i!0)})</text>
<text text-anchor="start" x="628" y="-389.3" font-family="Courier,monospace" font-size="14.00">i = (i + 1)</text>
</g>
<!-- 10&#45;&gt;11 -->
<g id="edge11" class="edge">
<title>10&#45;&gt;11</title>
<path fill="none" stroke="black" d="M673,-510.84C673,-502.62 673,-493.99 673,-485.54"/>
<polygon fill="black" stroke="black" points="676.5,-485.35 673,-475.35 669.5,-485.35 676.5,-485.35"/>
</g>
<!-- 12 -->
<g id="node13" class="node">
<title>12</title>
<polygon fill="none" stroke="black" points="1216.5,-342 129.5,-342 129.5,-245 1216.5,-245 1216.5,-342"/>
<text text-anchor="start" x="142" y="-322.3" font-family="Times,serif" font-size="14.00">({0 ≤ i!0 ∧</text>
<text text-anchor="start" x="142" y="-307.3" font-family="Times,serif" font-size="14.00">i!0 ≤ Length(t) ∧</text>
<text text-anchor="start" x="142" y="-292.3" font-family="Times,serif" font-size="14.00">(0 = elem!1 ∧ 0 = result!2 ∨</text>
<text text-anchor="start" x="142" y="-277.3" font-family="Times,serif" font-size="14.00"> ¬(0 = elem!1) ∧ 0 = result!2%elem!1), 0 ≤ i!0 ∧ ¬(Length(t) ≤ i!0)}, None, {t: t, i: 1 + i!0, result: result!2·seq.nth_i(t, i!0), elem: seq.nth_i(t, i!0)})</text>
<text text-anchor="start" x="549.5" y="-256.3" font-family="Courier,monospace" font-size="14.00">assert Inv(i, t, elem, result)</text>
</g>
<!-- 11&#45;&gt;12 -->
<g id="edge12" class="edge">
<title>11&#45;&gt;12</title>
<path fill="none" stroke="black" d="M673,-377.84C673,-369.62 673,-360.99 673,-352.54"/>
<polygon fill="black" stroke="black" points="676.5,-352.35 673,-342.35 669.5,-352.35 676.5,-352.35"/>
</g>
<!-- 13 -->
<g id="node14" class="node">
<title>13</title>
<polygon fill="none" stroke="black" points="1216.5,-209 129.5,-209 129.5,-112 1216.5,-112 1216.5,-209"/>
<text text-anchor="start" x="142" y="-189.3" font-family="Times,serif" font-size="14.00">({0 ≤ i!0 ∧</text>
<text text-anchor="start" x="142" y="-174.3" font-family="Times,serif" font-size="14.00">i!0 ≤ Length(t) ∧</text>
<text text-anchor="start" x="142" y="-159.3" font-family="Times,serif" font-size="14.00">(0 = elem!1 ∧ 0 = result!2 ∨</text>
<text text-anchor="start" x="142" y="-144.3" font-family="Times,serif" font-size="14.00"> ¬(0 = elem!1) ∧ 0 = result!2%elem!1), 0 ≤ i!0 ∧ ¬(Length(t) ≤ i!0)}, None, {t: t, i: 1 + i!0, result: result!2·seq.nth_i(t, i!0), elem: seq.nth_i(t, i!0)})</text>
<text text-anchor="start" x="619.5" y="-123.3" font-family="Courier,monospace" font-size="14.00">return result</text>
</g>
<!-- 12&#45;&gt;13 -->
<g id="edge13" class="edge">
<title>12&#45;&gt;13</title>
<path fill="none" stroke="black" d="M673,-244.84C673,-236.62 673,-227.99 673,-219.54"/>
<polygon fill="black" stroke="black" points="676.5,-219.35 673,-209.35 669.5,-219.35 676.5,-219.35"/>
</g>
<!-- 14 -->
<g id="node15" class="node">
<title>14</title>
<polygon fill="#aeeeee" stroke="black" points="1346,-76 0,-76 0,0 1346,0 1346,-76"/>
<text text-anchor="start" x="12" y="-56.8" font-family="Times,serif" font-size="14.00">({0 ≤ i!0 ∧</text>
<text text-anchor="start" x="12" y="-41.8" font-family="Times,serif" font-size="14.00">i!0 ≤ Length(t) ∧</text>
<text text-anchor="start" x="12" y="-26.8" font-family="Times,serif" font-size="14.00">(0 = elem!1 ∧ 0 = result!2 ∨</text>
<text text-anchor="start" x="12" y="-11.8" font-family="Times,serif" font-size="14.00"> ¬(0 = elem!1) ∧ 0 = result!2%elem!1), 0 ≤ i!0 ∧ ¬(Length(t) ≤ i!0)}, SymbolicReturn(result!2·seq.nth_i(t, i!0)), {t: t, i: 1 + i!0, result: result!2·seq.nth_i(t, i!0), elem: seq.nth_i(t, i!0)})</text>
</g>
<!-- 13&#45;&gt;14 -->
<g id="edge14" class="edge">
<title>13&#45;&gt;14</title>
<path fill="none" stroke="black" d="M673,-111.88C673,-103.46 673,-94.69 673,-86.29"/>
<polygon fill="black" stroke="black" points="676.5,-86.25 673,-76.25 669.5,-86.25 676.5,-86.25"/>
</g>
<!-- 16 -->
<g id="node17" class="node">
<title>16</title>
<polygon fill="#aeeeee" stroke="black" points="1983,-597.5 1163,-597.5 1163,-521.5 1983,-521.5 1983,-597.5"/>
<text text-anchor="start" x="1175" y="-578.3" font-family="Times,serif" font-size="14.00">({Length(t) ≤ i!0, 0 ≤ i!0 ∧</text>
<text text-anchor="start" x="1175" y="-563.3" font-family="Times,serif" font-size="14.00">i!0 ≤ Length(t) ∧</text>
<text text-anchor="start" x="1175" y="-548.3" font-family="Times,serif" font-size="14.00">(0 = elem!1 ∧ 0 = result!2 ∨</text>
<text text-anchor="start" x="1175" y="-533.3" font-family="Times,serif" font-size="14.00"> ¬(0 = elem!1) ∧ 0 = result!2%elem!1)}, SymbolicReturn(result!2), {t: t, i: i!0, result: result!2, elem: elem!1})</text>
</g>
<!-- 15&#45;&gt;16 -->
<g id="edge16" class="edge">
<title>15&#45;&gt;16</title>
<path fill="none" stroke="black" d="M1550.73,-643.84C1553.91,-631.95 1557.31,-619.21 1560.48,-607.36"/>
<polygon fill="black" stroke="black" points="1563.87,-608.22 1563.07,-597.66 1557.11,-606.41 1563.87,-608.22"/>
</g>
</g>
</svg>
