<?xml version="1.0" encoding="UTF-8" standalone="no"?>
<!DOCTYPE svg PUBLIC "-//W3C//DTD SVG 1.1//EN"
 "http://www.w3.org/Graphics/SVG/1.1/DTD/svg11.dtd">
<!-- Generated by graphviz version 2.43.0 (0)
 -->
<!-- Title: %3 Pages: 1 -->
<svg width="2672pt" height="2111pt"
 viewBox="0.00 0.00 2672.00 2111.00" xmlns="http://www.w3.org/2000/svg" xmlns:xlink="http://www.w3.org/1999/xlink">
<g id="graph0" class="graph" transform="scale(1 1) rotate(0) translate(4 2107)">
<title>%3</title>
<polygon fill="white" stroke="transparent" points="-4,4 -4,-2107 2668,-2107 2668,4 -4,4"/>
<!-- 0 -->
<g id="node1" class="node">
<title>0</title>
<polygon fill="none" stroke="black" points="1951.5,-2103 1547.5,-2103 1547.5,-2051 1951.5,-2051 1951.5,-2103"/>
<text text-anchor="start" x="1574.5" y="-2083.8" font-family="Times,serif" font-size="14.00">({}, None, {haystack: haystack, needle: needle})</text>
<text text-anchor="start" x="1559.5" y="-2062.8" font-family="Courier,monospace" font-size="14.00">def find(needle: int, haystack: tuple) &#45;&gt; int:</text>
</g>
<!-- 1 -->
<g id="node2" class="node">
<title>1</title>
<polygon fill="none" stroke="black" points="1936.5,-2015 1562.5,-2015 1562.5,-1963 1936.5,-1963 1936.5,-2015"/>
<text text-anchor="start" x="1574.5" y="-1995.8" font-family="Times,serif" font-size="14.00">({}, None, {haystack: haystack, needle: needle})</text>
<text text-anchor="start" x="1638" y="-1974.8" font-family="Courier,monospace" font-size="14.00">method&#45;frame(result=var_0):</text>
</g>
<!-- 0&#45;&gt;1 -->
<g id="edge1" class="edge">
<title>0&#45;&gt;1</title>
<path fill="none" stroke="black" d="M1749.5,-2050.66C1749.5,-2042.7 1749.5,-2033.76 1749.5,-2025.24"/>
<polygon fill="black" stroke="black" points="1753,-2025.16 1749.5,-2015.16 1746,-2025.16 1753,-2025.16"/>
</g>
<!-- 2 -->
<g id="node3" class="node">
<title>2</title>
<polygon fill="none" stroke="black" points="1936.5,-1927 1562.5,-1927 1562.5,-1875 1936.5,-1875 1936.5,-1927"/>
<text text-anchor="start" x="1574.5" y="-1907.8" font-family="Times,serif" font-size="14.00">({}, None, {haystack: haystack, needle: needle})</text>
<text text-anchor="start" x="1687.5" y="-1886.8" font-family="Courier,monospace" font-size="14.00">needle = needle</text>
</g>
<!-- 1&#45;&gt;2 -->
<g id="edge2" class="edge">
<title>1&#45;&gt;2</title>
<path fill="none" stroke="black" d="M1749.5,-1962.66C1749.5,-1954.7 1749.5,-1945.76 1749.5,-1937.24"/>
<polygon fill="black" stroke="black" points="1753,-1937.16 1749.5,-1927.16 1746,-1937.16 1753,-1937.16"/>
</g>
<!-- 3 -->
<g id="node4" class="node">
<title>3</title>
<polygon fill="none" stroke="black" points="1936.5,-1839 1562.5,-1839 1562.5,-1787 1936.5,-1787 1936.5,-1839"/>
<text text-anchor="start" x="1574.5" y="-1819.8" font-family="Times,serif" font-size="14.00">({}, None, {haystack: haystack, needle: needle})</text>
<text text-anchor="start" x="1671" y="-1798.8" font-family="Courier,monospace" font-size="14.00">haystack = haystack</text>
</g>
<!-- 2&#45;&gt;3 -->
<g id="edge3" class="edge">
<title>2&#45;&gt;3</title>
<path fill="none" stroke="black" d="M1749.5,-1874.66C1749.5,-1866.7 1749.5,-1857.76 1749.5,-1849.24"/>
<polygon fill="black" stroke="black" points="1753,-1849.16 1749.5,-1839.16 1746,-1849.16 1753,-1849.16"/>
</g>
<!-- 4 -->
<g id="node5" class="node">
<title>4</title>
<polygon fill="none" stroke="black" points="1936.5,-1751 1562.5,-1751 1562.5,-1699 1936.5,-1699 1936.5,-1751"/>
<text text-anchor="start" x="1574.5" y="-1731.8" font-family="Times,serif" font-size="14.00">({}, None, {haystack: haystack, needle: needle})</text>
<text text-anchor="start" x="1728.5" y="-1710.8" font-family="Courier,monospace" font-size="14.00">i = 0</text>
</g>
<!-- 3&#45;&gt;4 -->
<g id="edge4" class="edge">
<title>3&#45;&gt;4</title>
<path fill="none" stroke="black" d="M1749.5,-1786.66C1749.5,-1778.7 1749.5,-1769.76 1749.5,-1761.24"/>
<polygon fill="black" stroke="black" points="1753,-1761.16 1749.5,-1751.16 1746,-1761.16 1753,-1761.16"/>
</g>
<!-- 5 -->
<g id="node6" class="node">
<title>5</title>
<polygon fill="none" stroke="black" points="1952.5,-1663 1546.5,-1663 1546.5,-1611 1952.5,-1611 1952.5,-1663"/>
<text text-anchor="start" x="1558.5" y="-1643.8" font-family="Times,serif" font-size="14.00">({}, None, {haystack: haystack, needle: needle, i: 0})</text>
<text text-anchor="start" x="1621.5" y="-1622.8" font-family="Courier,monospace" font-size="14.00">assert Inv(i, needle, haystack)</text>
</g>
<!-- 4&#45;&gt;5 -->
<g id="edge5" class="edge">
<title>4&#45;&gt;5</title>
<path fill="none" stroke="black" d="M1749.5,-1698.66C1749.5,-1690.7 1749.5,-1681.76 1749.5,-1673.24"/>
<polygon fill="black" stroke="black" points="1753,-1673.16 1749.5,-1663.16 1746,-1673.16 1753,-1673.16"/>
</g>
<!-- 6 -->
<g id="node7" class="node">
<title>6</title>
<polygon fill="none" stroke="black" points="1952.5,-1575 1546.5,-1575 1546.5,-1523 1952.5,-1523 1952.5,-1575"/>
<text text-anchor="start" x="1558.5" y="-1555.8" font-family="Times,serif" font-size="14.00">({}, None, {haystack: haystack, needle: needle, i: 0})</text>
<text text-anchor="start" x="1720.5" y="-1534.8" font-family="Courier,monospace" font-size="14.00">havoc i</text>
</g>
<!-- 5&#45;&gt;6 -->
<g id="edge6" class="edge">
<title>5&#45;&gt;6</title>
<path fill="none" stroke="black" d="M1749.5,-1610.66C1749.5,-1602.7 1749.5,-1593.76 1749.5,-1585.24"/>
<polygon fill="black" stroke="black" points="1753,-1585.16 1749.5,-1575.16 1746,-1585.16 1753,-1585.16"/>
</g>
<!-- 7 -->
<g id="node8" class="node">
<title>7</title>
<polygon fill="none" stroke="black" points="1971,-1487 1528,-1487 1528,-1435 1971,-1435 1971,-1487"/>
<text text-anchor="start" x="1540.5" y="-1467.8" font-family="Times,serif" font-size="14.00">({}, None, {haystack: haystack, needle: needle, i: i!2428})</text>
<text text-anchor="start" x="1622" y="-1446.8" font-family="Courier,monospace" font-size="14.00">assume Inv(i, needle, haystack)</text>
</g>
<!-- 6&#45;&gt;7 -->
<g id="edge7" class="edge">
<title>6&#45;&gt;7</title>
<path fill="none" stroke="black" d="M1749.5,-1522.66C1749.5,-1514.7 1749.5,-1505.76 1749.5,-1497.24"/>
<polygon fill="black" stroke="black" points="1753,-1497.16 1749.5,-1487.16 1746,-1497.16 1753,-1497.16"/>
</g>
<!-- 8 -->
<g id="node9" class="node">
<title>8</title>
<polygon fill="none" stroke="black" points="2002,-1399 1497,-1399 1497,-1242 2002,-1242 2002,-1399"/>
<text text-anchor="start" x="1509.5" y="-1379.3" font-family="Times,serif" font-size="14.00">({0 ≤ i!2428 ∧</text>
<text text-anchor="start" x="1509.5" y="-1364.3" font-family="Times,serif" font-size="14.00">i!2428 ≤ Length(haystack) ∧</text>
<text text-anchor="start" x="1509.5" y="-1349.3" font-family="Times,serif" font-size="14.00">(∀k :</text>
<text text-anchor="start" x="1509.5" y="-1334.3" font-family="Times,serif" font-size="14.00">  ¬(0 ≤ k ∧ ¬(i!2428 ≤ k)) ∨</text>
<text text-anchor="start" x="1509.5" y="-1319.3" font-family="Times,serif" font-size="14.00">  ¬(If(k ≥ 0 ∧ ¬(Length(haystack) ≤ k),</text>
<text text-anchor="start" x="1509.5" y="-1304.3" font-family="Times,serif" font-size="14.00">       seq.nth_i(haystack, k),</text>
<text text-anchor="start" x="1509.5" y="-1289.3" font-family="Times,serif" font-size="14.00">       seq.nth_u(haystack, k)) =</text>
<text text-anchor="start" x="1509.5" y="-1274.3" font-family="Times,serif" font-size="14.00">    needle))}, None, {haystack: haystack, needle: needle, i: i!2428})</text>
<text text-anchor="start" x="1580.5" y="-1253.3" font-family="Courier,monospace" font-size="14.00">loop&#45;scope(inv=Inv(i, needle, haystack)):</text>
</g>
<!-- 7&#45;&gt;8 -->
<g id="edge8" class="edge">
<title>7&#45;&gt;8</title>
<path fill="none" stroke="black" d="M1749.5,-1434.92C1749.5,-1427.36 1749.5,-1418.6 1749.5,-1409.36"/>
<polygon fill="black" stroke="black" points="1753,-1409.19 1749.5,-1399.19 1746,-1409.19 1753,-1409.19"/>
</g>
<!-- 9 -->
<g id="node10" class="node">
<title>9</title>
<polygon fill="none" stroke="black" points="2002,-1206 1497,-1206 1497,-1049 2002,-1049 2002,-1206"/>
<text text-anchor="start" x="1509.5" y="-1186.3" font-family="Times,serif" font-size="14.00">({0 ≤ i!2428 ∧</text>
<text text-anchor="start" x="1509.5" y="-1171.3" font-family="Times,serif" font-size="14.00">i!2428 ≤ Length(haystack) ∧</text>
<text text-anchor="start" x="1509.5" y="-1156.3" font-family="Times,serif" font-size="14.00">(∀k :</text>
<text text-anchor="start" x="1509.5" y="-1141.3" font-family="Times,serif" font-size="14.00">  ¬(0 ≤ k ∧ ¬(i!2428 ≤ k)) ∨</text>
<text text-anchor="start" x="1509.5" y="-1126.3" font-family="Times,serif" font-size="14.00">  ¬(If(k ≥ 0 ∧ ¬(Length(haystack) ≤ k),</text>
<text text-anchor="start" x="1509.5" y="-1111.3" font-family="Times,serif" font-size="14.00">       seq.nth_i(haystack, k),</text>
<text text-anchor="start" x="1509.5" y="-1096.3" font-family="Times,serif" font-size="14.00">       seq.nth_u(haystack, k)) =</text>
<text text-anchor="start" x="1509.5" y="-1081.3" font-family="Times,serif" font-size="14.00">    needle))}, None, {haystack: haystack, needle: needle, i: i!2428})</text>
<text text-anchor="start" x="1655" y="-1060.3" font-family="Courier,monospace" font-size="14.00">if (i &lt; len(haystack)):</text>
</g>
<!-- 8&#45;&gt;9 -->
<g id="edge9" class="edge">
<title>8&#45;&gt;9</title>
<path fill="none" stroke="black" d="M1749.5,-1241.81C1749.5,-1233.35 1749.5,-1224.69 1749.5,-1216.12"/>
<polygon fill="black" stroke="black" points="1753,-1216.12 1749.5,-1206.12 1746,-1216.12 1753,-1216.12"/>
</g>
<!-- 10 -->
<g id="node11" class="node">
<title>10</title>
<polygon fill="none" stroke="black" points="1746,-1013 1019,-1013 1019,-856 1746,-856 1746,-1013"/>
<text text-anchor="start" x="1031.5" y="-993.3" font-family="Times,serif" font-size="14.00">({0 ≤ i!2428 ∧</text>
<text text-anchor="start" x="1031.5" y="-978.3" font-family="Times,serif" font-size="14.00">i!2428 ≤ Length(haystack) ∧</text>
<text text-anchor="start" x="1031.5" y="-963.3" font-family="Times,serif" font-size="14.00">(∀k :</text>
<text text-anchor="start" x="1031.5" y="-948.3" font-family="Times,serif" font-size="14.00">  ¬(0 ≤ k ∧ ¬(i!2428 ≤ k)) ∨</text>
<text text-anchor="start" x="1031.5" y="-933.3" font-family="Times,serif" font-size="14.00">  ¬(If(k ≥ 0 ∧ ¬(Length(haystack) ≤ k),</text>
<text text-anchor="start" x="1031.5" y="-918.3" font-family="Times,serif" font-size="14.00">       seq.nth_i(haystack, k),</text>
<text text-anchor="start" x="1031.5" y="-903.3" font-family="Times,serif" font-size="14.00">       seq.nth_u(haystack, k)) =</text>
<text text-anchor="start" x="1031.5" y="-888.3" font-family="Times,serif" font-size="14.00">    needle)), ¬(Length(haystack) ≤ i!2428)}, None, {haystack: haystack, needle: needle, i: i!2428})</text>
<text text-anchor="start" x="1271.5" y="-867.3" font-family="Courier,monospace" font-size="14.00">if (haystack[i] == needle):</text>
</g>
<!-- 9&#45;&gt;10 -->
<g id="edge10" class="edge">
<title>9&#45;&gt;10</title>
<path fill="none" stroke="black" d="M1600.49,-1048.95C1580.77,-1038.69 1560.51,-1028.14 1540.64,-1017.8"/>
<polygon fill="black" stroke="black" points="1542.03,-1014.58 1531.55,-1013.07 1538.8,-1020.79 1542.03,-1014.58"/>
</g>
<!-- 19 -->
<g id="node20" class="node">
<title>19</title>
<polygon fill="none" stroke="black" points="2504,-1013 1799,-1013 1799,-856 2504,-856 2504,-1013"/>
<text text-anchor="start" x="1811.5" y="-993.3" font-family="Times,serif" font-size="14.00">({0 ≤ i!2428 ∧</text>
<text text-anchor="start" x="1811.5" y="-978.3" font-family="Times,serif" font-size="14.00">i!2428 ≤ Length(haystack) ∧</text>
<text text-anchor="start" x="1811.5" y="-963.3" font-family="Times,serif" font-size="14.00">(∀k :</text>
<text text-anchor="start" x="1811.5" y="-948.3" font-family="Times,serif" font-size="14.00">  ¬(0 ≤ k ∧ ¬(i!2428 ≤ k)) ∨</text>
<text text-anchor="start" x="1811.5" y="-933.3" font-family="Times,serif" font-size="14.00">  ¬(If(k ≥ 0 ∧ ¬(Length(haystack) ≤ k),</text>
<text text-anchor="start" x="1811.5" y="-918.3" font-family="Times,serif" font-size="14.00">       seq.nth_i(haystack, k),</text>
<text text-anchor="start" x="1811.5" y="-903.3" font-family="Times,serif" font-size="14.00">       seq.nth_u(haystack, k)) =</text>
<text text-anchor="start" x="1811.5" y="-888.3" font-family="Times,serif" font-size="14.00">    needle)), Length(haystack) ≤ i!2428}, None, {haystack: haystack, needle: needle, i: i!2428})</text>
<text text-anchor="start" x="2114.5" y="-867.3" font-family="Courier,monospace" font-size="14.00">return &#45;1</text>
</g>
<!-- 9&#45;&gt;19 -->
<g id="edge19" class="edge">
<title>9&#45;&gt;19</title>
<path fill="none" stroke="black" d="M1912.72,-1048.95C1934.61,-1038.55 1957.12,-1027.86 1979.16,-1017.38"/>
<polygon fill="black" stroke="black" points="1980.71,-1020.52 1988.24,-1013.07 1977.7,-1014.2 1980.71,-1020.52"/>
</g>
<!-- 11 -->
<g id="node12" class="node">
<title>11</title>
<polygon fill="none" stroke="black" points="958,-820 183,-820 183,-663 958,-663 958,-820"/>
<text text-anchor="start" x="195.5" y="-800.3" font-family="Times,serif" font-size="14.00">({0 ≤ i!2428 ∧ ¬(Length(haystack) ≤ i!2428), 0 ≤ i!2428 ∧</text>
<text text-anchor="start" x="195.5" y="-785.3" font-family="Times,serif" font-size="14.00">i!2428 ≤ Length(haystack) ∧</text>
<text text-anchor="start" x="195.5" y="-770.3" font-family="Times,serif" font-size="14.00">(∀k :</text>
<text text-anchor="start" x="195.5" y="-755.3" font-family="Times,serif" font-size="14.00">  ¬(0 ≤ k ∧ ¬(i!2428 ≤ k)) ∨</text>
<text text-anchor="start" x="195.5" y="-740.3" font-family="Times,serif" font-size="14.00">  ¬(If(k ≥ 0 ∧ ¬(Length(haystack) ≤ k),</text>
<text text-anchor="start" x="195.5" y="-725.3" font-family="Times,serif" font-size="14.00">       seq.nth_i(haystack, k),</text>
<text text-anchor="start" x="195.5" y="-710.3" font-family="Times,serif" font-size="14.00">       seq.nth_u(haystack, k)) =</text>
<text text-anchor="start" x="195.5" y="-695.3" font-family="Times,serif" font-size="14.00">    needle)), seq.nth_i(haystack, i!2428) = needle}, None, {haystack: haystack, needle: needle, i: i!2428})</text>
<text text-anchor="start" x="550" y="-674.3" font-family="Courier,monospace" font-size="14.00">break</text>
</g>
<!-- 10&#45;&gt;11 -->
<g id="edge11" class="edge">
<title>10&#45;&gt;11</title>
<path fill="none" stroke="black" d="M1052.81,-855.95C1005.75,-844.88 957.27,-833.48 910.02,-822.36"/>
<polygon fill="black" stroke="black" points="910.81,-818.95 900.27,-820.07 909.21,-825.77 910.81,-818.95"/>
</g>
<!-- 15 -->
<g id="node16" class="node">
<title>15</title>
<polygon fill="none" stroke="black" points="1781.5,-820 983.5,-820 983.5,-663 1781.5,-663 1781.5,-820"/>
<text text-anchor="start" x="995.5" y="-800.3" font-family="Times,serif" font-size="14.00">({0 ≤ i!2428 ∧ ¬(Length(haystack) ≤ i!2428), 0 ≤ i!2428 ∧</text>
<text text-anchor="start" x="995.5" y="-785.3" font-family="Times,serif" font-size="14.00">i!2428 ≤ Length(haystack) ∧</text>
<text text-anchor="start" x="995.5" y="-770.3" font-family="Times,serif" font-size="14.00">(∀k :</text>
<text text-anchor="start" x="995.5" y="-755.3" font-family="Times,serif" font-size="14.00">  ¬(0 ≤ k ∧ ¬(i!2428 ≤ k)) ∨</text>
<text text-anchor="start" x="995.5" y="-740.3" font-family="Times,serif" font-size="14.00">  ¬(If(k ≥ 0 ∧ ¬(Length(haystack) ≤ k),</text>
<text text-anchor="start" x="995.5" y="-725.3" font-family="Times,serif" font-size="14.00">       seq.nth_i(haystack, k),</text>
<text text-anchor="start" x="995.5" y="-710.3" font-family="Times,serif" font-size="14.00">       seq.nth_u(haystack, k)) =</text>
<text text-anchor="start" x="995.5" y="-695.3" font-family="Times,serif" font-size="14.00">    needle)), ¬(seq.nth_i(haystack, i!2428) = needle)}, None, {haystack: haystack, needle: needle, i: i!2428})</text>
<text text-anchor="start" x="1337" y="-674.3" font-family="Courier,monospace" font-size="14.00">i = (i + 1)</text>
</g>
<!-- 10&#45;&gt;15 -->
<g id="edge15" class="edge">
<title>10&#45;&gt;15</title>
<path fill="none" stroke="black" d="M1382.5,-855.81C1382.5,-847.35 1382.5,-838.69 1382.5,-830.12"/>
<polygon fill="black" stroke="black" points="1386,-830.12 1382.5,-820.12 1379,-830.12 1386,-830.12"/>
</g>
<!-- 12 -->
<g id="node13" class="node">
<title>12</title>
<polygon fill="none" stroke="black" points="933,-627 158,-627 158,-470 933,-470 933,-627"/>
<text text-anchor="start" x="170.5" y="-607.3" font-family="Times,serif" font-size="14.00">({0 ≤ i!2428 ∧ ¬(Length(haystack) ≤ i!2428), 0 ≤ i!2428 ∧</text>
<text text-anchor="start" x="170.5" y="-592.3" font-family="Times,serif" font-size="14.00">i!2428 ≤ Length(haystack) ∧</text>
<text text-anchor="start" x="170.5" y="-577.3" font-family="Times,serif" font-size="14.00">(∀k :</text>
<text text-anchor="start" x="170.5" y="-562.3" font-family="Times,serif" font-size="14.00">  ¬(0 ≤ k ∧ ¬(i!2428 ≤ k)) ∨</text>
<text text-anchor="start" x="170.5" y="-547.3" font-family="Times,serif" font-size="14.00">  ¬(If(k ≥ 0 ∧ ¬(Length(haystack) ≤ k),</text>
<text text-anchor="start" x="170.5" y="-532.3" font-family="Times,serif" font-size="14.00">       seq.nth_i(haystack, k),</text>
<text text-anchor="start" x="170.5" y="-517.3" font-family="Times,serif" font-size="14.00">       seq.nth_u(haystack, k)) =</text>
<text text-anchor="start" x="170.5" y="-502.3" font-family="Times,serif" font-size="14.00">    needle)), seq.nth_i(haystack, i!2428) = needle}, None, {haystack: haystack, needle: needle, i: i!2428})</text>
<text text-anchor="start" x="512.5" y="-481.3" font-family="Courier,monospace" font-size="14.00">return i</text>
</g>
<!-- 11&#45;&gt;12 -->
<g id="edge12" class="edge">
<title>11&#45;&gt;12</title>
<path fill="none" stroke="black" d="M560.33,-662.81C559.22,-654.35 558.09,-645.69 556.97,-637.12"/>
<polygon fill="black" stroke="black" points="560.43,-636.58 555.66,-627.12 553.49,-637.49 560.43,-636.58"/>
</g>
<!-- 13 -->
<g id="node14" class="node">
<title>13</title>
<polygon fill="none" stroke="black" points="950,-434 71,-434 71,-277 950,-277 950,-434"/>
<text text-anchor="start" x="83.5" y="-414.3" font-family="Times,serif" font-size="14.00">({0 ≤ i!2428 ∧ ¬(Length(haystack) ≤ i!2428), 0 ≤ i!2428 ∧</text>
<text text-anchor="start" x="83.5" y="-399.3" font-family="Times,serif" font-size="14.00">i!2428 ≤ Length(haystack) ∧</text>
<text text-anchor="start" x="83.5" y="-384.3" font-family="Times,serif" font-size="14.00">(∀k :</text>
<text text-anchor="start" x="83.5" y="-369.3" font-family="Times,serif" font-size="14.00">  ¬(0 ≤ k ∧ ¬(i!2428 ≤ k)) ∨</text>
<text text-anchor="start" x="83.5" y="-354.3" font-family="Times,serif" font-size="14.00">  ¬(If(k ≥ 0 ∧ ¬(Length(haystack) ≤ k),</text>
<text text-anchor="start" x="83.5" y="-339.3" font-family="Times,serif" font-size="14.00">       seq.nth_i(haystack, k),</text>
<text text-anchor="start" x="83.5" y="-324.3" font-family="Times,serif" font-size="14.00">       seq.nth_u(haystack, k)) =</text>
<text text-anchor="start" x="83.5" y="-309.3" font-family="Times,serif" font-size="14.00">    needle)), seq.nth_i(haystack, i!2428) = needle}, None, {haystack: haystack, needle: needle, i: i!2428, var_0: i!2428})</text>
<text text-anchor="start" x="453" y="-288.3" font-family="Courier,monospace" font-size="14.00">result = var_0</text>
</g>
<!-- 12&#45;&gt;13 -->
<g id="edge13" class="edge">
<title>12&#45;&gt;13</title>
<path fill="none" stroke="black" d="M531.26,-469.81C529.71,-461.35 528.13,-452.69 526.56,-444.12"/>
<polygon fill="black" stroke="black" points="529.97,-443.32 524.72,-434.12 523.08,-444.59 529.97,-443.32"/>
</g>
<!-- 14 -->
<g id="node15" class="node">
<title>14</title>
<polygon fill="#aeeeee" stroke="black" points="985,-188.5 0,-188.5 0,-52.5 985,-52.5 985,-188.5"/>
<text text-anchor="start" x="12.5" y="-169.3" font-family="Times,serif" font-size="14.00">({0 ≤ i!2428 ∧ ¬(Length(haystack) ≤ i!2428), 0 ≤ i!2428 ∧</text>
<text text-anchor="start" x="12.5" y="-154.3" font-family="Times,serif" font-size="14.00">i!2428 ≤ Length(haystack) ∧</text>
<text text-anchor="start" x="12.5" y="-139.3" font-family="Times,serif" font-size="14.00">(∀k :</text>
<text text-anchor="start" x="12.5" y="-124.3" font-family="Times,serif" font-size="14.00">  ¬(0 ≤ k ∧ ¬(i!2428 ≤ k)) ∨</text>
<text text-anchor="start" x="12.5" y="-109.3" font-family="Times,serif" font-size="14.00">  ¬(If(k ≥ 0 ∧ ¬(Length(haystack) ≤ k),</text>
<text text-anchor="start" x="12.5" y="-94.3" font-family="Times,serif" font-size="14.00">       seq.nth_i(haystack, k),</text>
<text text-anchor="start" x="12.5" y="-79.3" font-family="Times,serif" font-size="14.00">       seq.nth_u(haystack, k)) =</text>
<text text-anchor="start" x="12.5" y="-64.3" font-family="Times,serif" font-size="14.00">    needle)), seq.nth_i(haystack, i!2428) = needle}, None, {haystack: haystack, needle: needle, i: i!2428, var_0: i!2428, result: i!2428})</text>
</g>
<!-- 13&#45;&gt;14 -->
<g id="edge14" class="edge">
<title>13&#45;&gt;14</title>
<path fill="none" stroke="black" d="M504.51,-276.91C502.56,-251.78 500.41,-223.92 498.47,-198.81"/>
<polygon fill="black" stroke="black" points="501.94,-198.3 497.68,-188.6 494.96,-198.84 501.94,-198.3"/>
</g>
<!-- 16 -->
<g id="node17" class="node">
<title>16</title>
<polygon fill="none" stroke="black" points="1796.5,-627 968.5,-627 968.5,-470 1796.5,-470 1796.5,-627"/>
<text text-anchor="start" x="980.5" y="-607.3" font-family="Times,serif" font-size="14.00">({0 ≤ i!2428 ∧ ¬(Length(haystack) ≤ i!2428), 0 ≤ i!2428 ∧</text>
<text text-anchor="start" x="980.5" y="-592.3" font-family="Times,serif" font-size="14.00">i!2428 ≤ Length(haystack) ∧</text>
<text text-anchor="start" x="980.5" y="-577.3" font-family="Times,serif" font-size="14.00">(∀k :</text>
<text text-anchor="start" x="980.5" y="-562.3" font-family="Times,serif" font-size="14.00">  ¬(0 ≤ k ∧ ¬(i!2428 ≤ k)) ∨</text>
<text text-anchor="start" x="980.5" y="-547.3" font-family="Times,serif" font-size="14.00">  ¬(If(k ≥ 0 ∧ ¬(Length(haystack) ≤ k),</text>
<text text-anchor="start" x="980.5" y="-532.3" font-family="Times,serif" font-size="14.00">       seq.nth_i(haystack, k),</text>
<text text-anchor="start" x="980.5" y="-517.3" font-family="Times,serif" font-size="14.00">       seq.nth_u(haystack, k)) =</text>
<text text-anchor="start" x="980.5" y="-502.3" font-family="Times,serif" font-size="14.00">    needle)), ¬(seq.nth_i(haystack, i!2428) = needle)}, None, {haystack: haystack, needle: needle, i: 1 + i!2428})</text>
<text text-anchor="start" x="1349" y="-481.3" font-family="Courier,monospace" font-size="14.00">continue</text>
</g>
<!-- 15&#45;&gt;16 -->
<g id="edge16" class="edge">
<title>15&#45;&gt;16</title>
<path fill="none" stroke="black" d="M1382.5,-662.81C1382.5,-654.35 1382.5,-645.69 1382.5,-637.12"/>
<polygon fill="black" stroke="black" points="1386,-637.12 1382.5,-627.12 1379,-637.12 1386,-637.12"/>
</g>
<!-- 17 -->
<g id="node18" class="node">
<title>17</title>
<polygon fill="none" stroke="black" points="1842,-423.5 977,-423.5 977,-287.5 1842,-287.5 1842,-423.5"/>
<text text-anchor="start" x="989.5" y="-404.3" font-family="Times,serif" font-size="14.00">({0 ≤ i!2428 ∧ ¬(Length(haystack) ≤ i!2428), 0 ≤ i!2428 ∧</text>
<text text-anchor="start" x="989.5" y="-389.3" font-family="Times,serif" font-size="14.00">i!2428 ≤ Length(haystack) ∧</text>
<text text-anchor="start" x="989.5" y="-374.3" font-family="Times,serif" font-size="14.00">(∀k :</text>
<text text-anchor="start" x="989.5" y="-359.3" font-family="Times,serif" font-size="14.00">  ¬(0 ≤ k ∧ ¬(i!2428 ≤ k)) ∨</text>
<text text-anchor="start" x="989.5" y="-344.3" font-family="Times,serif" font-size="14.00">  ¬(If(k ≥ 0 ∧ ¬(Length(haystack) ≤ k),</text>
<text text-anchor="start" x="989.5" y="-329.3" font-family="Times,serif" font-size="14.00">       seq.nth_i(haystack, k),</text>
<text text-anchor="start" x="989.5" y="-314.3" font-family="Times,serif" font-size="14.00">       seq.nth_u(haystack, k)) =</text>
<text text-anchor="start" x="989.5" y="-299.3" font-family="Times,serif" font-size="14.00">    needle)), ¬(seq.nth_i(haystack, i!2428) = needle)}, Continue(), {haystack: haystack, needle: needle, i: 1 + i!2428})</text>
</g>
<!-- 16&#45;&gt;17 -->
<g id="edge17" class="edge">
<title>16&#45;&gt;17</title>
<path fill="none" stroke="black" d="M1393.48,-469.81C1395.17,-457.87 1396.91,-445.54 1398.6,-433.61"/>
<polygon fill="black" stroke="black" points="1402.07,-434.1 1400,-423.71 1395.13,-433.12 1402.07,-434.1"/>
</g>
<!-- 18 -->
<g id="node19" class="node">
<title>18</title>
<polygon fill="#aeeeee" stroke="black" points="1835.5,-241 1003.5,-241 1003.5,0 1835.5,0 1835.5,-241"/>
<text text-anchor="start" x="1015.5" y="-221.3" font-family="Times,serif" font-size="14.00">({0 ≤ i!2428 ∧ ¬(Length(haystack) ≤ i!2428), 0 ≤ i!2428 ∧</text>
<text text-anchor="start" x="1015.5" y="-206.3" font-family="Times,serif" font-size="14.00">i!2428 ≤ Length(haystack) ∧</text>
<text text-anchor="start" x="1015.5" y="-191.3" font-family="Times,serif" font-size="14.00">(∀k :</text>
<text text-anchor="start" x="1015.5" y="-176.3" font-family="Times,serif" font-size="14.00">  ¬(0 ≤ k ∧ ¬(i!2428 ≤ k)) ∨</text>
<text text-anchor="start" x="1015.5" y="-161.3" font-family="Times,serif" font-size="14.00">  ¬(If(k ≥ 0 ∧ ¬(Length(haystack) ≤ k),</text>
<text text-anchor="start" x="1015.5" y="-146.3" font-family="Times,serif" font-size="14.00">       seq.nth_i(haystack, k),</text>
<text text-anchor="start" x="1015.5" y="-131.3" font-family="Times,serif" font-size="14.00">       seq.nth_u(haystack, k)) =</text>
<text text-anchor="start" x="1015.5" y="-116.3" font-family="Times,serif" font-size="14.00">    needle)), &#45;1 ≤ i!2428 ∧</text>
<text text-anchor="start" x="1015.5" y="-101.3" font-family="Times,serif" font-size="14.00">i!2428 ≤ &#45;1 + Length(haystack) ∧</text>
<text text-anchor="start" x="1015.5" y="-86.3" font-family="Times,serif" font-size="14.00">(∀k :</text>
<text text-anchor="start" x="1015.5" y="-71.3" font-family="Times,serif" font-size="14.00">  ¬(0 ≤ k ∧ ¬(i!2428 ≤ &#45;1 + k)) ∨</text>
<text text-anchor="start" x="1015.5" y="-56.3" font-family="Times,serif" font-size="14.00">  ¬(If(k ≥ 0 ∧ ¬(Length(haystack) ≤ k),</text>
<text text-anchor="start" x="1015.5" y="-41.3" font-family="Times,serif" font-size="14.00">       seq.nth_i(haystack, k),</text>
<text text-anchor="start" x="1015.5" y="-26.3" font-family="Times,serif" font-size="14.00">       seq.nth_u(haystack, k)) =</text>
<text text-anchor="start" x="1015.5" y="-11.3" font-family="Times,serif" font-size="14.00">    needle)), ¬(seq.nth_i(haystack, i!2428) = needle)}, Halt(), {haystack: haystack, needle: needle, i: 1 + i!2428})</text>
</g>
<!-- 17&#45;&gt;18 -->
<g id="edge18" class="edge">
<title>17&#45;&gt;18</title>
<path fill="none" stroke="black" d="M1412.38,-287.42C1412.87,-275.96 1413.4,-263.72 1413.93,-251.28"/>
<polygon fill="black" stroke="black" points="1417.43,-251.41 1414.36,-241.27 1410.43,-251.11 1417.43,-251.41"/>
</g>
<!-- 20 -->
<g id="node21" class="node">
<title>20</title>
<polygon fill="none" stroke="black" points="2600,-820 1825,-820 1825,-663 2600,-663 2600,-820"/>
<text text-anchor="start" x="1837.5" y="-800.3" font-family="Times,serif" font-size="14.00">({0 ≤ i!2428 ∧</text>
<text text-anchor="start" x="1837.5" y="-785.3" font-family="Times,serif" font-size="14.00">i!2428 ≤ Length(haystack) ∧</text>
<text text-anchor="start" x="1837.5" y="-770.3" font-family="Times,serif" font-size="14.00">(∀k :</text>
<text text-anchor="start" x="1837.5" y="-755.3" font-family="Times,serif" font-size="14.00">  ¬(0 ≤ k ∧ ¬(i!2428 ≤ k)) ∨</text>
<text text-anchor="start" x="1837.5" y="-740.3" font-family="Times,serif" font-size="14.00">  ¬(If(k ≥ 0 ∧ ¬(Length(haystack) ≤ k),</text>
<text text-anchor="start" x="1837.5" y="-725.3" font-family="Times,serif" font-size="14.00">       seq.nth_i(haystack, k),</text>
<text text-anchor="start" x="1837.5" y="-710.3" font-family="Times,serif" font-size="14.00">       seq.nth_u(haystack, k)) =</text>
<text text-anchor="start" x="1837.5" y="-695.3" font-family="Times,serif" font-size="14.00">    needle)), Length(haystack) ≤ i!2428}, None, {haystack: haystack, needle: needle, i: i!2428, var_0: &#45;1})</text>
<text text-anchor="start" x="2155" y="-674.3" font-family="Courier,monospace" font-size="14.00">result = var_0</text>
</g>
<!-- 19&#45;&gt;20 -->
<g id="edge20" class="edge">
<title>19&#45;&gt;20</title>
<path fill="none" stroke="black" d="M2176.31,-855.81C2179.04,-847.26 2181.84,-838.51 2184.6,-829.84"/>
<polygon fill="black" stroke="black" points="2188,-830.71 2187.71,-820.12 2181.33,-828.58 2188,-830.71"/>
</g>
<!-- 21 -->
<g id="node22" class="node">
<title>21</title>
<polygon fill="#aeeeee" stroke="black" points="2664,-616.5 1815,-616.5 1815,-480.5 2664,-480.5 2664,-616.5"/>
<text text-anchor="start" x="1827.5" y="-597.3" font-family="Times,serif" font-size="14.00">({0 ≤ i!2428 ∧</text>
<text text-anchor="start" x="1827.5" y="-582.3" font-family="Times,serif" font-size="14.00">i!2428 ≤ Length(haystack) ∧</text>
<text text-anchor="start" x="1827.5" y="-567.3" font-family="Times,serif" font-size="14.00">(∀k :</text>
<text text-anchor="start" x="1827.5" y="-552.3" font-family="Times,serif" font-size="14.00">  ¬(0 ≤ k ∧ ¬(i!2428 ≤ k)) ∨</text>
<text text-anchor="start" x="1827.5" y="-537.3" font-family="Times,serif" font-size="14.00">  ¬(If(k ≥ 0 ∧ ¬(Length(haystack) ≤ k),</text>
<text text-anchor="start" x="1827.5" y="-522.3" font-family="Times,serif" font-size="14.00">       seq.nth_i(haystack, k),</text>
<text text-anchor="start" x="1827.5" y="-507.3" font-family="Times,serif" font-size="14.00">       seq.nth_u(haystack, k)) =</text>
<text text-anchor="start" x="1827.5" y="-492.3" font-family="Times,serif" font-size="14.00">    needle)), Length(haystack) ≤ i!2428}, None, {haystack: haystack, needle: needle, i: i!2428, var_0: &#45;1, result: &#45;1})</text>
</g>
<!-- 20&#45;&gt;21 -->
<g id="edge21" class="edge">
<title>20&#45;&gt;21</title>
<path fill="none" stroke="black" d="M2223.48,-662.81C2225.17,-650.87 2226.91,-638.54 2228.6,-626.61"/>
<polygon fill="black" stroke="black" points="2232.07,-627.1 2230,-616.71 2225.13,-626.12 2232.07,-627.1"/>
</g>
</g>
</svg>
