<?xml version="1.0" encoding="UTF-8" standalone="no"?>
<!DOCTYPE svg PUBLIC "-//W3C//DTD SVG 1.1//EN"
 "http://www.w3.org/Graphics/SVG/1.1/DTD/svg11.dtd">
<!-- Generated by graphviz version 2.43.0 (0)
 -->
<!-- Title: %3 Pages: 1 -->
<svg width="2157pt" height="2111pt"
 viewBox="0.00 0.00 2156.50 2111.00" xmlns="http://www.w3.org/2000/svg" xmlns:xlink="http://www.w3.org/1999/xlink">
<g id="graph0" class="graph" transform="scale(1 1) rotate(0) translate(4 2107)">
<title>%3</title>
<polygon fill="white" stroke="transparent" points="-4,4 -4,-2107 2152.5,-2107 2152.5,4 -4,4"/>
<!-- 0 -->
<g id="node1" class="node">
<title>0</title>
<polygon fill="none" stroke="black" points="1573,-2103 1169,-2103 1169,-2051 1573,-2051 1573,-2103"/>
<text text-anchor="start" x="1196" y="-2083.8" font-family="Times,serif" font-size="14.00">({}, None, {haystack: haystack, needle: needle})</text>
<text text-anchor="start" x="1181" y="-2062.8" font-family="Courier,monospace" font-size="14.00">def find(needle: int, haystack: tuple) &#45;&gt; int:</text>
</g>
<!-- 1 -->
<g id="node2" class="node">
<title>1</title>
<polygon fill="none" stroke="black" points="1558,-2015 1184,-2015 1184,-1963 1558,-1963 1558,-2015"/>
<text text-anchor="start" x="1196" y="-1995.8" font-family="Times,serif" font-size="14.00">({}, None, {haystack: haystack, needle: needle})</text>
<text text-anchor="start" x="1259.5" y="-1974.8" font-family="Courier,monospace" font-size="14.00">method&#45;frame(result=var_0):</text>
</g>
<!-- 0&#45;&gt;1 -->
<g id="edge1" class="edge">
<title>0&#45;&gt;1</title>
<path fill="none" stroke="black" d="M1371,-2050.66C1371,-2042.7 1371,-2033.76 1371,-2025.24"/>
<polygon fill="black" stroke="black" points="1374.5,-2025.16 1371,-2015.16 1367.5,-2025.16 1374.5,-2025.16"/>
</g>
<!-- 2 -->
<g id="node3" class="node">
<title>2</title>
<polygon fill="none" stroke="black" points="1558,-1927 1184,-1927 1184,-1875 1558,-1875 1558,-1927"/>
<text text-anchor="start" x="1196" y="-1907.8" font-family="Times,serif" font-size="14.00">({}, None, {haystack: haystack, needle: needle})</text>
<text text-anchor="start" x="1309" y="-1886.8" font-family="Courier,monospace" font-size="14.00">needle = needle</text>
</g>
<!-- 1&#45;&gt;2 -->
<g id="edge2" class="edge">
<title>1&#45;&gt;2</title>
<path fill="none" stroke="black" d="M1371,-1962.66C1371,-1954.7 1371,-1945.76 1371,-1937.24"/>
<polygon fill="black" stroke="black" points="1374.5,-1937.16 1371,-1927.16 1367.5,-1937.16 1374.5,-1937.16"/>
</g>
<!-- 3 -->
<g id="node4" class="node">
<title>3</title>
<polygon fill="none" stroke="black" points="1558,-1839 1184,-1839 1184,-1787 1558,-1787 1558,-1839"/>
<text text-anchor="start" x="1196" y="-1819.8" font-family="Times,serif" font-size="14.00">({}, None, {haystack: haystack, needle: needle})</text>
<text text-anchor="start" x="1292.5" y="-1798.8" font-family="Courier,monospace" font-size="14.00">haystack = haystack</text>
</g>
<!-- 2&#45;&gt;3 -->
<g id="edge3" class="edge">
<title>2&#45;&gt;3</title>
<path fill="none" stroke="black" d="M1371,-1874.66C1371,-1866.7 1371,-1857.76 1371,-1849.24"/>
<polygon fill="black" stroke="black" points="1374.5,-1849.16 1371,-1839.16 1367.5,-1849.16 1374.5,-1849.16"/>
</g>
<!-- 4 -->
<g id="node5" class="node">
<title>4</title>
<polygon fill="none" stroke="black" points="1558,-1751 1184,-1751 1184,-1699 1558,-1699 1558,-1751"/>
<text text-anchor="start" x="1196" y="-1731.8" font-family="Times,serif" font-size="14.00">({}, None, {haystack: haystack, needle: needle})</text>
<text text-anchor="start" x="1350" y="-1710.8" font-family="Courier,monospace" font-size="14.00">i = 0</text>
</g>
<!-- 3&#45;&gt;4 -->
<g id="edge4" class="edge">
<title>3&#45;&gt;4</title>
<path fill="none" stroke="black" d="M1371,-1786.66C1371,-1778.7 1371,-1769.76 1371,-1761.24"/>
<polygon fill="black" stroke="black" points="1374.5,-1761.16 1371,-1751.16 1367.5,-1761.16 1374.5,-1761.16"/>
</g>
<!-- 5 -->
<g id="node6" class="node">
<title>5</title>
<polygon fill="none" stroke="black" points="1574,-1663 1168,-1663 1168,-1611 1574,-1611 1574,-1663"/>
<text text-anchor="start" x="1180" y="-1643.8" font-family="Times,serif" font-size="14.00">({}, None, {haystack: haystack, needle: needle, i: 0})</text>
<text text-anchor="start" x="1243" y="-1622.8" font-family="Courier,monospace" font-size="14.00">assert Inv(i, needle, haystack)</text>
</g>
<!-- 4&#45;&gt;5 -->
<g id="edge5" class="edge">
<title>4&#45;&gt;5</title>
<path fill="none" stroke="black" d="M1371,-1698.66C1371,-1690.7 1371,-1681.76 1371,-1673.24"/>
<polygon fill="black" stroke="black" points="1374.5,-1673.16 1371,-1663.16 1367.5,-1673.16 1374.5,-1673.16"/>
</g>
<!-- 6 -->
<g id="node7" class="node">
<title>6</title>
<polygon fill="none" stroke="black" points="1574,-1575 1168,-1575 1168,-1523 1574,-1523 1574,-1575"/>
<text text-anchor="start" x="1180" y="-1555.8" font-family="Times,serif" font-size="14.00">({}, None, {haystack: haystack, needle: needle, i: 0})</text>
<text text-anchor="start" x="1342" y="-1534.8" font-family="Courier,monospace" font-size="14.00">havoc i</text>
</g>
<!-- 5&#45;&gt;6 -->
<g id="edge6" class="edge">
<title>5&#45;&gt;6</title>
<path fill="none" stroke="black" d="M1371,-1610.66C1371,-1602.7 1371,-1593.76 1371,-1585.24"/>
<polygon fill="black" stroke="black" points="1374.5,-1585.16 1371,-1575.16 1367.5,-1585.16 1374.5,-1585.16"/>
</g>
<!-- 7 -->
<g id="node8" class="node">
<title>7</title>
<polygon fill="none" stroke="black" points="1592.5,-1487 1149.5,-1487 1149.5,-1435 1592.5,-1435 1592.5,-1487"/>
<text text-anchor="start" x="1162" y="-1467.8" font-family="Times,serif" font-size="14.00">({}, None, {haystack: haystack, needle: needle, i: i!2408})</text>
<text text-anchor="start" x="1243.5" y="-1446.8" font-family="Courier,monospace" font-size="14.00">assume Inv(i, needle, haystack)</text>
</g>
<!-- 6&#45;&gt;7 -->
<g id="edge7" class="edge">
<title>6&#45;&gt;7</title>
<path fill="none" stroke="black" d="M1371,-1522.66C1371,-1514.7 1371,-1505.76 1371,-1497.24"/>
<polygon fill="black" stroke="black" points="1374.5,-1497.16 1371,-1487.16 1367.5,-1497.16 1374.5,-1497.16"/>
</g>
<!-- 8 -->
<g id="node9" class="node">
<title>8</title>
<polygon fill="none" stroke="black" points="1623.5,-1399 1118.5,-1399 1118.5,-1242 1623.5,-1242 1623.5,-1399"/>
<text text-anchor="start" x="1131" y="-1379.3" font-family="Times,serif" font-size="14.00">({0 ≤ i!2408 ∧</text>
<text text-anchor="start" x="1131" y="-1364.3" font-family="Times,serif" font-size="14.00">i!2408 ≤ Length(haystack) ∧</text>
<text text-anchor="start" x="1131" y="-1349.3" font-family="Times,serif" font-size="14.00">(∀k :</text>
<text text-anchor="start" x="1131" y="-1334.3" font-family="Times,serif" font-size="14.00">  ¬(0 ≤ k ∧ ¬(i!2408 ≤ k)) ∨</text>
<text text-anchor="start" x="1131" y="-1319.3" font-family="Times,serif" font-size="14.00">  ¬(If(k ≥ 0 ∧ ¬(Length(haystack) ≤ k),</text>
<text text-anchor="start" x="1131" y="-1304.3" font-family="Times,serif" font-size="14.00">       seq.nth_i(haystack, k),</text>
<text text-anchor="start" x="1131" y="-1289.3" font-family="Times,serif" font-size="14.00">       seq.nth_u(haystack, k)) =</text>
<text text-anchor="start" x="1131" y="-1274.3" font-family="Times,serif" font-size="14.00">    needle))}, None, {haystack: haystack, needle: needle, i: i!2408})</text>
<text text-anchor="start" x="1202" y="-1253.3" font-family="Courier,monospace" font-size="14.00">loop&#45;scope(inv=Inv(i, needle, haystack)):</text>
</g>
<!-- 7&#45;&gt;8 -->
<g id="edge8" class="edge">
<title>7&#45;&gt;8</title>
<path fill="none" stroke="black" d="M1371,-1434.92C1371,-1427.36 1371,-1418.6 1371,-1409.36"/>
<polygon fill="black" stroke="black" points="1374.5,-1409.19 1371,-1399.19 1367.5,-1409.19 1374.5,-1409.19"/>
</g>
<!-- 9 -->
<g id="node10" class="node">
<title>9</title>
<polygon fill="none" stroke="black" points="1623.5,-1206 1118.5,-1206 1118.5,-1049 1623.5,-1049 1623.5,-1206"/>
<text text-anchor="start" x="1131" y="-1186.3" font-family="Times,serif" font-size="14.00">({0 ≤ i!2408 ∧</text>
<text text-anchor="start" x="1131" y="-1171.3" font-family="Times,serif" font-size="14.00">i!2408 ≤ Length(haystack) ∧</text>
<text text-anchor="start" x="1131" y="-1156.3" font-family="Times,serif" font-size="14.00">(∀k :</text>
<text text-anchor="start" x="1131" y="-1141.3" font-family="Times,serif" font-size="14.00">  ¬(0 ≤ k ∧ ¬(i!2408 ≤ k)) ∨</text>
<text text-anchor="start" x="1131" y="-1126.3" font-family="Times,serif" font-size="14.00">  ¬(If(k ≥ 0 ∧ ¬(Length(haystack) ≤ k),</text>
<text text-anchor="start" x="1131" y="-1111.3" font-family="Times,serif" font-size="14.00">       seq.nth_i(haystack, k),</text>
<text text-anchor="start" x="1131" y="-1096.3" font-family="Times,serif" font-size="14.00">       seq.nth_u(haystack, k)) =</text>
<text text-anchor="start" x="1131" y="-1081.3" font-family="Times,serif" font-size="14.00">    needle))}, None, {haystack: haystack, needle: needle, i: i!2408})</text>
<text text-anchor="start" x="1276.5" y="-1060.3" font-family="Courier,monospace" font-size="14.00">if (i &lt; len(haystack)):</text>
</g>
<!-- 8&#45;&gt;9 -->
<g id="edge9" class="edge">
<title>8&#45;&gt;9</title>
<path fill="none" stroke="black" d="M1371,-1241.81C1371,-1233.35 1371,-1224.69 1371,-1216.12"/>
<polygon fill="black" stroke="black" points="1374.5,-1216.12 1371,-1206.12 1367.5,-1216.12 1374.5,-1216.12"/>
</g>
<!-- 10 -->
<g id="node11" class="node">
<title>10</title>
<polygon fill="none" stroke="black" points="1362.5,-1013 857.5,-1013 857.5,-856 1362.5,-856 1362.5,-1013"/>
<text text-anchor="start" x="870" y="-993.3" font-family="Times,serif" font-size="14.00">({¬(Length(haystack) ≤ i!2408), 0 ≤ i!2408 ∧</text>
<text text-anchor="start" x="870" y="-978.3" font-family="Times,serif" font-size="14.00">i!2408 ≤ Length(haystack) ∧</text>
<text text-anchor="start" x="870" y="-963.3" font-family="Times,serif" font-size="14.00">(∀k :</text>
<text text-anchor="start" x="870" y="-948.3" font-family="Times,serif" font-size="14.00">  ¬(0 ≤ k ∧ ¬(i!2408 ≤ k)) ∨</text>
<text text-anchor="start" x="870" y="-933.3" font-family="Times,serif" font-size="14.00">  ¬(If(k ≥ 0 ∧ ¬(Length(haystack) ≤ k),</text>
<text text-anchor="start" x="870" y="-918.3" font-family="Times,serif" font-size="14.00">       seq.nth_i(haystack, k),</text>
<text text-anchor="start" x="870" y="-903.3" font-family="Times,serif" font-size="14.00">       seq.nth_u(haystack, k)) =</text>
<text text-anchor="start" x="870" y="-888.3" font-family="Times,serif" font-size="14.00">    needle))}, None, {haystack: haystack, needle: needle, i: i!2408})</text>
<text text-anchor="start" x="999" y="-867.3" font-family="Courier,monospace" font-size="14.00">if (haystack[i] == needle):</text>
</g>
<!-- 9&#45;&gt;10 -->
<g id="edge10" class="edge">
<title>9&#45;&gt;10</title>
<path fill="none" stroke="black" d="M1264.84,-1048.81C1251.52,-1039.06 1237.84,-1029.06 1224.4,-1019.22"/>
<polygon fill="black" stroke="black" points="1226.2,-1016.2 1216.06,-1013.12 1222.07,-1021.85 1226.2,-1016.2"/>
</g>
<!-- 19 -->
<g id="node20" class="node">
<title>19</title>
<polygon fill="none" stroke="black" points="1962.5,-1013 1457.5,-1013 1457.5,-856 1962.5,-856 1962.5,-1013"/>
<text text-anchor="start" x="1470" y="-993.3" font-family="Times,serif" font-size="14.00">({Length(haystack) ≤ i!2408, 0 ≤ i!2408 ∧</text>
<text text-anchor="start" x="1470" y="-978.3" font-family="Times,serif" font-size="14.00">i!2408 ≤ Length(haystack) ∧</text>
<text text-anchor="start" x="1470" y="-963.3" font-family="Times,serif" font-size="14.00">(∀k :</text>
<text text-anchor="start" x="1470" y="-948.3" font-family="Times,serif" font-size="14.00">  ¬(0 ≤ k ∧ ¬(i!2408 ≤ k)) ∨</text>
<text text-anchor="start" x="1470" y="-933.3" font-family="Times,serif" font-size="14.00">  ¬(If(k ≥ 0 ∧ ¬(Length(haystack) ≤ k),</text>
<text text-anchor="start" x="1470" y="-918.3" font-family="Times,serif" font-size="14.00">       seq.nth_i(haystack, k),</text>
<text text-anchor="start" x="1470" y="-903.3" font-family="Times,serif" font-size="14.00">       seq.nth_u(haystack, k)) =</text>
<text text-anchor="start" x="1470" y="-888.3" font-family="Times,serif" font-size="14.00">    needle))}, None, {haystack: haystack, needle: needle, i: i!2408})</text>
<text text-anchor="start" x="1673" y="-867.3" font-family="Courier,monospace" font-size="14.00">return &#45;1</text>
</g>
<!-- 9&#45;&gt;19 -->
<g id="edge19" class="edge">
<title>9&#45;&gt;19</title>
<path fill="none" stroke="black" d="M1508.88,-1048.81C1526.84,-1038.69 1545.29,-1028.3 1563.39,-1018.1"/>
<polygon fill="black" stroke="black" points="1565.24,-1021.08 1572.24,-1013.12 1561.81,-1014.98 1565.24,-1021.08"/>
</g>
<!-- 11 -->
<g id="node12" class="node">
<title>11</title>
<polygon fill="none" stroke="black" points="721,-820 1,-820 1,-663 721,-663 721,-820"/>
<text text-anchor="start" x="13" y="-800.3" font-family="Times,serif" font-size="14.00">({seq.nth_i(haystack, i!2408) = needle, 0 ≤ i!2408 ∧ ¬(Length(haystack) ≤ i!2408), 0 ≤ i!2408 ∧</text>
<text text-anchor="start" x="13" y="-785.3" font-family="Times,serif" font-size="14.00">i!2408 ≤ Length(haystack) ∧</text>
<text text-anchor="start" x="13" y="-770.3" font-family="Times,serif" font-size="14.00">(∀k :</text>
<text text-anchor="start" x="13" y="-755.3" font-family="Times,serif" font-size="14.00">  ¬(0 ≤ k ∧ ¬(i!2408 ≤ k)) ∨</text>
<text text-anchor="start" x="13" y="-740.3" font-family="Times,serif" font-size="14.00">  ¬(If(k ≥ 0 ∧ ¬(Length(haystack) ≤ k),</text>
<text text-anchor="start" x="13" y="-725.3" font-family="Times,serif" font-size="14.00">       seq.nth_i(haystack, k),</text>
<text text-anchor="start" x="13" y="-710.3" font-family="Times,serif" font-size="14.00">       seq.nth_u(haystack, k)) =</text>
<text text-anchor="start" x="13" y="-695.3" font-family="Times,serif" font-size="14.00">    needle))}, None, {haystack: haystack, needle: needle, i: i!2408})</text>
<text text-anchor="start" x="340" y="-674.3" font-family="Courier,monospace" font-size="14.00">break</text>
</g>
<!-- 10&#45;&gt;11 -->
<g id="edge11" class="edge">
<title>10&#45;&gt;11</title>
<path fill="none" stroke="black" d="M857.47,-869.1C798.81,-854.15 735.68,-838.04 674.74,-822.51"/>
<polygon fill="black" stroke="black" points="675.54,-819.1 664.99,-820.02 673.81,-825.88 675.54,-819.1"/>
</g>
<!-- 15 -->
<g id="node16" class="node">
<title>15</title>
<polygon fill="none" stroke="black" points="1481,-820 739,-820 739,-663 1481,-663 1481,-820"/>
<text text-anchor="start" x="751" y="-800.3" font-family="Times,serif" font-size="14.00">({¬(seq.nth_i(haystack, i!2408) = needle), 0 ≤ i!2408 ∧ ¬(Length(haystack) ≤ i!2408), 0 ≤ i!2408 ∧</text>
<text text-anchor="start" x="751" y="-785.3" font-family="Times,serif" font-size="14.00">i!2408 ≤ Length(haystack) ∧</text>
<text text-anchor="start" x="751" y="-770.3" font-family="Times,serif" font-size="14.00">(∀k :</text>
<text text-anchor="start" x="751" y="-755.3" font-family="Times,serif" font-size="14.00">  ¬(0 ≤ k ∧ ¬(i!2408 ≤ k)) ∨</text>
<text text-anchor="start" x="751" y="-740.3" font-family="Times,serif" font-size="14.00">  ¬(If(k ≥ 0 ∧ ¬(Length(haystack) ≤ k),</text>
<text text-anchor="start" x="751" y="-725.3" font-family="Times,serif" font-size="14.00">       seq.nth_i(haystack, k),</text>
<text text-anchor="start" x="751" y="-710.3" font-family="Times,serif" font-size="14.00">       seq.nth_u(haystack, k)) =</text>
<text text-anchor="start" x="751" y="-695.3" font-family="Times,serif" font-size="14.00">    needle))}, None, {haystack: haystack, needle: needle, i: i!2408})</text>
<text text-anchor="start" x="1064.5" y="-674.3" font-family="Courier,monospace" font-size="14.00">i = (i + 1)</text>
</g>
<!-- 10&#45;&gt;15 -->
<g id="edge15" class="edge">
<title>10&#45;&gt;15</title>
<path fill="none" stroke="black" d="M1110,-855.81C1110,-847.35 1110,-838.69 1110,-830.12"/>
<polygon fill="black" stroke="black" points="1113.5,-830.12 1110,-820.12 1106.5,-830.12 1113.5,-830.12"/>
</g>
<!-- 12 -->
<g id="node13" class="node">
<title>12</title>
<polygon fill="none" stroke="black" points="721,-627 1,-627 1,-470 721,-470 721,-627"/>
<text text-anchor="start" x="13" y="-607.3" font-family="Times,serif" font-size="14.00">({seq.nth_i(haystack, i!2408) = needle, 0 ≤ i!2408 ∧ ¬(Length(haystack) ≤ i!2408), 0 ≤ i!2408 ∧</text>
<text text-anchor="start" x="13" y="-592.3" font-family="Times,serif" font-size="14.00">i!2408 ≤ Length(haystack) ∧</text>
<text text-anchor="start" x="13" y="-577.3" font-family="Times,serif" font-size="14.00">(∀k :</text>
<text text-anchor="start" x="13" y="-562.3" font-family="Times,serif" font-size="14.00">  ¬(0 ≤ k ∧ ¬(i!2408 ≤ k)) ∨</text>
<text text-anchor="start" x="13" y="-547.3" font-family="Times,serif" font-size="14.00">  ¬(If(k ≥ 0 ∧ ¬(Length(haystack) ≤ k),</text>
<text text-anchor="start" x="13" y="-532.3" font-family="Times,serif" font-size="14.00">       seq.nth_i(haystack, k),</text>
<text text-anchor="start" x="13" y="-517.3" font-family="Times,serif" font-size="14.00">       seq.nth_u(haystack, k)) =</text>
<text text-anchor="start" x="13" y="-502.3" font-family="Times,serif" font-size="14.00">    needle))}, None, {haystack: haystack, needle: needle, i: i!2408})</text>
<text text-anchor="start" x="327.5" y="-481.3" font-family="Courier,monospace" font-size="14.00">return i</text>
</g>
<!-- 11&#45;&gt;12 -->
<g id="edge12" class="edge">
<title>11&#45;&gt;12</title>
<path fill="none" stroke="black" d="M361,-662.81C361,-654.35 361,-645.69 361,-637.12"/>
<polygon fill="black" stroke="black" points="364.5,-637.12 361,-627.12 357.5,-637.12 364.5,-637.12"/>
</g>
<!-- 13 -->
<g id="node14" class="node">
<title>13</title>
<polygon fill="none" stroke="black" points="721,-434 1,-434 1,-277 721,-277 721,-434"/>
<text text-anchor="start" x="13" y="-414.3" font-family="Times,serif" font-size="14.00">({seq.nth_i(haystack, i!2408) = needle, 0 ≤ i!2408 ∧ ¬(Length(haystack) ≤ i!2408), 0 ≤ i!2408 ∧</text>
<text text-anchor="start" x="13" y="-399.3" font-family="Times,serif" font-size="14.00">i!2408 ≤ Length(haystack) ∧</text>
<text text-anchor="start" x="13" y="-384.3" font-family="Times,serif" font-size="14.00">(∀k :</text>
<text text-anchor="start" x="13" y="-369.3" font-family="Times,serif" font-size="14.00">  ¬(0 ≤ k ∧ ¬(i!2408 ≤ k)) ∨</text>
<text text-anchor="start" x="13" y="-354.3" font-family="Times,serif" font-size="14.00">  ¬(If(k ≥ 0 ∧ ¬(Length(haystack) ≤ k),</text>
<text text-anchor="start" x="13" y="-339.3" font-family="Times,serif" font-size="14.00">       seq.nth_i(haystack, k),</text>
<text text-anchor="start" x="13" y="-324.3" font-family="Times,serif" font-size="14.00">       seq.nth_u(haystack, k)) =</text>
<text text-anchor="start" x="13" y="-309.3" font-family="Times,serif" font-size="14.00">    needle))}, None, {haystack: haystack, needle: needle, i: i!2408, var_0: i!2408})</text>
<text text-anchor="start" x="303" y="-288.3" font-family="Courier,monospace" font-size="14.00">result = var_0</text>
</g>
<!-- 12&#45;&gt;13 -->
<g id="edge13" class="edge">
<title>12&#45;&gt;13</title>
<path fill="none" stroke="black" d="M361,-469.81C361,-461.35 361,-452.69 361,-444.12"/>
<polygon fill="black" stroke="black" points="364.5,-444.12 361,-434.12 357.5,-444.12 364.5,-444.12"/>
</g>
<!-- 14 -->
<g id="node15" class="node">
<title>14</title>
<polygon fill="#aeeeee" stroke="black" points="720,-188.5 0,-188.5 0,-52.5 720,-52.5 720,-188.5"/>
<text text-anchor="start" x="12" y="-169.3" font-family="Times,serif" font-size="14.00">({seq.nth_i(haystack, i!2408) = needle, 0 ≤ i!2408 ∧ ¬(Length(haystack) ≤ i!2408), 0 ≤ i!2408 ∧</text>
<text text-anchor="start" x="12" y="-154.3" font-family="Times,serif" font-size="14.00">i!2408 ≤ Length(haystack) ∧</text>
<text text-anchor="start" x="12" y="-139.3" font-family="Times,serif" font-size="14.00">(∀k :</text>
<text text-anchor="start" x="12" y="-124.3" font-family="Times,serif" font-size="14.00">  ¬(0 ≤ k ∧ ¬(i!2408 ≤ k)) ∨</text>
<text text-anchor="start" x="12" y="-109.3" font-family="Times,serif" font-size="14.00">  ¬(If(k ≥ 0 ∧ ¬(Length(haystack) ≤ k),</text>
<text text-anchor="start" x="12" y="-94.3" font-family="Times,serif" font-size="14.00">       seq.nth_i(haystack, k),</text>
<text text-anchor="start" x="12" y="-79.3" font-family="Times,serif" font-size="14.00">       seq.nth_u(haystack, k)) =</text>
<text text-anchor="start" x="12" y="-64.3" font-family="Times,serif" font-size="14.00">    needle))}, None, {haystack: haystack, needle: needle, i: i!2408, var_0: i!2408, result: i!2408})</text>
</g>
<!-- 13&#45;&gt;14 -->
<g id="edge14" class="edge">
<title>13&#45;&gt;14</title>
<path fill="none" stroke="black" d="M360.67,-276.91C360.56,-251.78 360.44,-223.92 360.33,-198.81"/>
<polygon fill="black" stroke="black" points="363.83,-198.59 360.29,-188.6 356.83,-198.62 363.83,-198.59"/>
</g>
<!-- 16 -->
<g id="node17" class="node">
<title>16</title>
<polygon fill="none" stroke="black" points="1481,-627 739,-627 739,-470 1481,-470 1481,-627"/>
<text text-anchor="start" x="751" y="-607.3" font-family="Times,serif" font-size="14.00">({¬(seq.nth_i(haystack, i!2408) = needle), 0 ≤ i!2408 ∧ ¬(Length(haystack) ≤ i!2408), 0 ≤ i!2408 ∧</text>
<text text-anchor="start" x="751" y="-592.3" font-family="Times,serif" font-size="14.00">i!2408 ≤ Length(haystack) ∧</text>
<text text-anchor="start" x="751" y="-577.3" font-family="Times,serif" font-size="14.00">(∀k :</text>
<text text-anchor="start" x="751" y="-562.3" font-family="Times,serif" font-size="14.00">  ¬(0 ≤ k ∧ ¬(i!2408 ≤ k)) ∨</text>
<text text-anchor="start" x="751" y="-547.3" font-family="Times,serif" font-size="14.00">  ¬(If(k ≥ 0 ∧ ¬(Length(haystack) ≤ k),</text>
<text text-anchor="start" x="751" y="-532.3" font-family="Times,serif" font-size="14.00">       seq.nth_i(haystack, k),</text>
<text text-anchor="start" x="751" y="-517.3" font-family="Times,serif" font-size="14.00">       seq.nth_u(haystack, k)) =</text>
<text text-anchor="start" x="751" y="-502.3" font-family="Times,serif" font-size="14.00">    needle))}, None, {haystack: haystack, needle: needle, i: 1 + i!2408})</text>
<text text-anchor="start" x="1076.5" y="-481.3" font-family="Courier,monospace" font-size="14.00">continue</text>
</g>
<!-- 15&#45;&gt;16 -->
<g id="edge16" class="edge">
<title>15&#45;&gt;16</title>
<path fill="none" stroke="black" d="M1110,-662.81C1110,-654.35 1110,-645.69 1110,-637.12"/>
<polygon fill="black" stroke="black" points="1113.5,-637.12 1110,-627.12 1106.5,-637.12 1113.5,-637.12"/>
</g>
<!-- 17 -->
<g id="node18" class="node">
<title>17</title>
<polygon fill="none" stroke="black" points="1482,-423.5 740,-423.5 740,-287.5 1482,-287.5 1482,-423.5"/>
<text text-anchor="start" x="752" y="-404.3" font-family="Times,serif" font-size="14.00">({¬(seq.nth_i(haystack, i!2408) = needle), 0 ≤ i!2408 ∧ ¬(Length(haystack) ≤ i!2408), 0 ≤ i!2408 ∧</text>
<text text-anchor="start" x="752" y="-389.3" font-family="Times,serif" font-size="14.00">i!2408 ≤ Length(haystack) ∧</text>
<text text-anchor="start" x="752" y="-374.3" font-family="Times,serif" font-size="14.00">(∀k :</text>
<text text-anchor="start" x="752" y="-359.3" font-family="Times,serif" font-size="14.00">  ¬(0 ≤ k ∧ ¬(i!2408 ≤ k)) ∨</text>
<text text-anchor="start" x="752" y="-344.3" font-family="Times,serif" font-size="14.00">  ¬(If(k ≥ 0 ∧ ¬(Length(haystack) ≤ k),</text>
<text text-anchor="start" x="752" y="-329.3" font-family="Times,serif" font-size="14.00">       seq.nth_i(haystack, k),</text>
<text text-anchor="start" x="752" y="-314.3" font-family="Times,serif" font-size="14.00">       seq.nth_u(haystack, k)) =</text>
<text text-anchor="start" x="752" y="-299.3" font-family="Times,serif" font-size="14.00">    needle))}, Continue(), {haystack: haystack, needle: needle, i: 1 + i!2408})</text>
</g>
<!-- 16&#45;&gt;17 -->
<g id="edge17" class="edge">
<title>16&#45;&gt;17</title>
<path fill="none" stroke="black" d="M1110.41,-469.81C1110.47,-457.99 1110.53,-445.79 1110.59,-433.97"/>
<polygon fill="black" stroke="black" points="1114.1,-433.72 1110.65,-423.71 1107.1,-433.69 1114.1,-433.72"/>
</g>
<!-- 18 -->
<g id="node19" class="node">
<title>18</title>
<polygon fill="#aeeeee" stroke="black" points="1485.5,-241 738.5,-241 738.5,0 1485.5,0 1485.5,-241"/>
<text text-anchor="start" x="751" y="-221.3" font-family="Times,serif" font-size="14.00">({0 ≤ i!2408 ∧ ¬(Length(haystack) ≤ i!2408), ¬(seq.nth_i(haystack, i!2408) = needle), &#45;1 ≤ i!2408 ∧</text>
<text text-anchor="start" x="751" y="-206.3" font-family="Times,serif" font-size="14.00">i!2408 ≤ &#45;1 + Length(haystack) ∧</text>
<text text-anchor="start" x="751" y="-191.3" font-family="Times,serif" font-size="14.00">(∀k :</text>
<text text-anchor="start" x="751" y="-176.3" font-family="Times,serif" font-size="14.00">  ¬(0 ≤ k ∧ ¬(i!2408 ≤ &#45;1 + k)) ∨</text>
<text text-anchor="start" x="751" y="-161.3" font-family="Times,serif" font-size="14.00">  ¬(If(k ≥ 0 ∧ ¬(Length(haystack) ≤ k),</text>
<text text-anchor="start" x="751" y="-146.3" font-family="Times,serif" font-size="14.00">       seq.nth_i(haystack, k),</text>
<text text-anchor="start" x="751" y="-131.3" font-family="Times,serif" font-size="14.00">       seq.nth_u(haystack, k)) =</text>
<text text-anchor="start" x="751" y="-116.3" font-family="Times,serif" font-size="14.00">    needle)), 0 ≤ i!2408 ∧</text>
<text text-anchor="start" x="751" y="-101.3" font-family="Times,serif" font-size="14.00">i!2408 ≤ Length(haystack) ∧</text>
<text text-anchor="start" x="751" y="-86.3" font-family="Times,serif" font-size="14.00">(∀k :</text>
<text text-anchor="start" x="751" y="-71.3" font-family="Times,serif" font-size="14.00">  ¬(0 ≤ k ∧ ¬(i!2408 ≤ k)) ∨</text>
<text text-anchor="start" x="751" y="-56.3" font-family="Times,serif" font-size="14.00">  ¬(If(k ≥ 0 ∧ ¬(Length(haystack) ≤ k),</text>
<text text-anchor="start" x="751" y="-41.3" font-family="Times,serif" font-size="14.00">       seq.nth_i(haystack, k),</text>
<text text-anchor="start" x="751" y="-26.3" font-family="Times,serif" font-size="14.00">       seq.nth_u(haystack, k)) =</text>
<text text-anchor="start" x="751" y="-11.3" font-family="Times,serif" font-size="14.00">    needle))}, Halt(), {haystack: haystack, needle: needle, i: 1 + i!2408})</text>
</g>
<!-- 17&#45;&gt;18 -->
<g id="edge18" class="edge">
<title>17&#45;&gt;18</title>
<path fill="none" stroke="black" d="M1111.29,-287.42C1111.34,-275.96 1111.39,-263.72 1111.44,-251.28"/>
<polygon fill="black" stroke="black" points="1114.94,-251.28 1111.49,-241.27 1107.94,-251.25 1114.94,-251.28"/>
</g>
<!-- 20 -->
<g id="node21" class="node">
<title>20</title>
<polygon fill="none" stroke="black" points="2092.5,-820 1517.5,-820 1517.5,-663 2092.5,-663 2092.5,-820"/>
<text text-anchor="start" x="1530" y="-800.3" font-family="Times,serif" font-size="14.00">({Length(haystack) ≤ i!2408, 0 ≤ i!2408 ∧</text>
<text text-anchor="start" x="1530" y="-785.3" font-family="Times,serif" font-size="14.00">i!2408 ≤ Length(haystack) ∧</text>
<text text-anchor="start" x="1530" y="-770.3" font-family="Times,serif" font-size="14.00">(∀k :</text>
<text text-anchor="start" x="1530" y="-755.3" font-family="Times,serif" font-size="14.00">  ¬(0 ≤ k ∧ ¬(i!2408 ≤ k)) ∨</text>
<text text-anchor="start" x="1530" y="-740.3" font-family="Times,serif" font-size="14.00">  ¬(If(k ≥ 0 ∧ ¬(Length(haystack) ≤ k),</text>
<text text-anchor="start" x="1530" y="-725.3" font-family="Times,serif" font-size="14.00">       seq.nth_i(haystack, k),</text>
<text text-anchor="start" x="1530" y="-710.3" font-family="Times,serif" font-size="14.00">       seq.nth_u(haystack, k)) =</text>
<text text-anchor="start" x="1530" y="-695.3" font-family="Times,serif" font-size="14.00">    needle))}, None, {haystack: haystack, needle: needle, i: i!2408, var_0: &#45;1})</text>
<text text-anchor="start" x="1747.5" y="-674.3" font-family="Courier,monospace" font-size="14.00">result = var_0</text>
</g>
<!-- 19&#45;&gt;20 -->
<g id="edge20" class="edge">
<title>19&#45;&gt;20</title>
<path fill="none" stroke="black" d="M1748.64,-855.81C1752.99,-847.07 1757.44,-838.13 1761.83,-829.29"/>
<polygon fill="black" stroke="black" points="1765.07,-830.63 1766.39,-820.12 1758.81,-827.51 1765.07,-830.63"/>
</g>
<!-- 21 -->
<g id="node22" class="node">
<title>21</title>
<polygon fill="#aeeeee" stroke="black" points="2148.5,-616.5 1499.5,-616.5 1499.5,-480.5 2148.5,-480.5 2148.5,-616.5"/>
<text text-anchor="start" x="1512" y="-597.3" font-family="Times,serif" font-size="14.00">({Length(haystack) ≤ i!2408, 0 ≤ i!2408 ∧</text>
<text text-anchor="start" x="1512" y="-582.3" font-family="Times,serif" font-size="14.00">i!2408 ≤ Length(haystack) ∧</text>
<text text-anchor="start" x="1512" y="-567.3" font-family="Times,serif" font-size="14.00">(∀k :</text>
<text text-anchor="start" x="1512" y="-552.3" font-family="Times,serif" font-size="14.00">  ¬(0 ≤ k ∧ ¬(i!2408 ≤ k)) ∨</text>
<text text-anchor="start" x="1512" y="-537.3" font-family="Times,serif" font-size="14.00">  ¬(If(k ≥ 0 ∧ ¬(Length(haystack) ≤ k),</text>
<text text-anchor="start" x="1512" y="-522.3" font-family="Times,serif" font-size="14.00">       seq.nth_i(haystack, k),</text>
<text text-anchor="start" x="1512" y="-507.3" font-family="Times,serif" font-size="14.00">       seq.nth_u(haystack, k)) =</text>
<text text-anchor="start" x="1512" y="-492.3" font-family="Times,serif" font-size="14.00">    needle))}, None, {haystack: haystack, needle: needle, i: i!2408, var_0: &#45;1, result: &#45;1})</text>
</g>
<!-- 20&#45;&gt;21 -->
<g id="edge21" class="edge">
<title>20&#45;&gt;21</title>
<path fill="none" stroke="black" d="M1812.73,-662.81C1813.9,-650.99 1815.12,-638.79 1816.29,-626.97"/>
<polygon fill="black" stroke="black" points="1819.81,-627 1817.31,-616.71 1812.84,-626.31 1819.81,-627"/>
</g>
</g>
</svg>
