<?xml version="1.0" encoding="UTF-8" standalone="no"?>
<!DOCTYPE svg PUBLIC "-//W3C//DTD SVG 1.1//EN"
 "http://www.w3.org/Graphics/SVG/1.1/DTD/svg11.dtd">
<!-- Generated by graphviz version 2.43.0 (0)
 -->
<!-- Title: %3 Pages: 1 -->
<svg width="1922pt" height="1586pt"
 viewBox="0.00 0.00 1921.50 1586.00" xmlns="http://www.w3.org/2000/svg" xmlns:xlink="http://www.w3.org/1999/xlink">
<g id="graph0" class="graph" transform="scale(1 1) rotate(0) translate(4 1582)">
<title>%3</title>
<polygon fill="white" stroke="transparent" points="-4,4 -4,-1582 1917.5,-1582 1917.5,4 -4,4"/>
<!-- 0 -->
<g id="node1" class="node">
<title>0</title>
<polygon fill="none" stroke="black" points="1144.5,-1578 996.5,-1578 996.5,-1526 1144.5,-1526 1144.5,-1578"/>
<text text-anchor="start" x="1008.5" y="-1558.8" font-family="Times,serif" font-size="14.00">({}, None, {t: t})</text>
<text text-anchor="start" x="1049.5" y="-1537.8" font-family="Courier,monospace" font-size="14.00">i = 0</text>
</g>
<!-- 1 -->
<g id="node2" class="node">
<title>1</title>
<polygon fill="none" stroke="black" points="1160,-1490 981,-1490 981,-1438 1160,-1438 1160,-1490"/>
<text text-anchor="start" x="993.5" y="-1470.8" font-family="Times,serif" font-size="14.00">({}, None, {t: t, i: 0})</text>
<text text-anchor="start" x="1029.5" y="-1449.8" font-family="Courier,monospace" font-size="14.00">result = 1</text>
</g>
<!-- 0&#45;&gt;1 -->
<g id="edge1" class="edge">
<title>0&#45;&gt;1</title>
<path fill="none" stroke="black" d="M1070.5,-1525.66C1070.5,-1517.7 1070.5,-1508.76 1070.5,-1500.24"/>
<polygon fill="black" stroke="black" points="1074,-1500.16 1070.5,-1490.16 1067,-1500.16 1074,-1500.16"/>
</g>
<!-- 2 -->
<g id="node3" class="node">
<title>2</title>
<polygon fill="none" stroke="black" points="1194.5,-1402 946.5,-1402 946.5,-1350 1194.5,-1350 1194.5,-1402"/>
<text text-anchor="start" x="958.5" y="-1382.8" font-family="Times,serif" font-size="14.00">({}, None, {t: t, i: 0, result: 1})</text>
<text text-anchor="start" x="1037" y="-1361.8" font-family="Courier,monospace" font-size="14.00">elem = 1</text>
</g>
<!-- 1&#45;&gt;2 -->
<g id="edge2" class="edge">
<title>1&#45;&gt;2</title>
<path fill="none" stroke="black" d="M1070.5,-1437.66C1070.5,-1429.7 1070.5,-1420.76 1070.5,-1412.24"/>
<polygon fill="black" stroke="black" points="1074,-1412.16 1070.5,-1402.16 1067,-1412.16 1074,-1412.16"/>
</g>
<!-- 3 -->
<g id="node4" class="node">
<title>3</title>
<polygon fill="none" stroke="black" points="1225.5,-1314 915.5,-1314 915.5,-1262 1225.5,-1262 1225.5,-1314"/>
<text text-anchor="start" x="927.5" y="-1294.8" font-family="Times,serif" font-size="14.00">({}, None, {t: t, i: 0, result: 1, elem: 1})</text>
<text text-anchor="start" x="946.5" y="-1273.8" font-family="Courier,monospace" font-size="14.00">assert Inv(i, t, elem, result)</text>
</g>
<!-- 2&#45;&gt;3 -->
<g id="edge3" class="edge">
<title>2&#45;&gt;3</title>
<path fill="none" stroke="black" d="M1070.5,-1349.66C1070.5,-1341.7 1070.5,-1332.76 1070.5,-1324.24"/>
<polygon fill="black" stroke="black" points="1074,-1324.16 1070.5,-1314.16 1067,-1324.16 1074,-1324.16"/>
</g>
<!-- 4 -->
<g id="node5" class="node">
<title>4</title>
<polygon fill="none" stroke="black" points="1225.5,-1226 915.5,-1226 915.5,-1174 1225.5,-1174 1225.5,-1226"/>
<text text-anchor="start" x="927.5" y="-1206.8" font-family="Times,serif" font-size="14.00">({}, None, {t: t, i: 0, result: 1, elem: 1})</text>
<text text-anchor="start" x="1041.5" y="-1185.8" font-family="Courier,monospace" font-size="14.00">havoc i</text>
</g>
<!-- 3&#45;&gt;4 -->
<g id="edge4" class="edge">
<title>3&#45;&gt;4</title>
<path fill="none" stroke="black" d="M1070.5,-1261.66C1070.5,-1253.7 1070.5,-1244.76 1070.5,-1236.24"/>
<polygon fill="black" stroke="black" points="1074,-1236.16 1070.5,-1226.16 1067,-1236.16 1074,-1236.16"/>
</g>
<!-- 5 -->
<g id="node6" class="node">
<title>5</title>
<polygon fill="none" stroke="black" points="1230.5,-1138 910.5,-1138 910.5,-1086 1230.5,-1086 1230.5,-1138"/>
<text text-anchor="start" x="922.5" y="-1118.8" font-family="Times,serif" font-size="14.00">({}, None, {t: t, i: i!0, result: 1, elem: 1})</text>
<text text-anchor="start" x="1029" y="-1097.8" font-family="Courier,monospace" font-size="14.00">havoc elem</text>
</g>
<!-- 4&#45;&gt;5 -->
<g id="edge5" class="edge">
<title>4&#45;&gt;5</title>
<path fill="none" stroke="black" d="M1070.5,-1173.66C1070.5,-1165.7 1070.5,-1156.76 1070.5,-1148.24"/>
<polygon fill="black" stroke="black" points="1074,-1148.16 1070.5,-1138.16 1067,-1148.16 1074,-1148.16"/>
</g>
<!-- 6 -->
<g id="node7" class="node">
<title>6</title>
<polygon fill="none" stroke="black" points="1251,-1050 890,-1050 890,-998 1251,-998 1251,-1050"/>
<text text-anchor="start" x="902.5" y="-1030.8" font-family="Times,serif" font-size="14.00">({}, None, {t: t, i: i!0, result: 1, elem: elem!1})</text>
<text text-anchor="start" x="1021" y="-1009.8" font-family="Courier,monospace" font-size="14.00">havoc result</text>
</g>
<!-- 5&#45;&gt;6 -->
<g id="edge6" class="edge">
<title>5&#45;&gt;6</title>
<path fill="none" stroke="black" d="M1070.5,-1085.66C1070.5,-1077.7 1070.5,-1068.76 1070.5,-1060.24"/>
<polygon fill="black" stroke="black" points="1074,-1060.16 1070.5,-1050.16 1067,-1060.16 1074,-1060.16"/>
</g>
<!-- 7 -->
<g id="node8" class="node">
<title>7</title>
<polygon fill="none" stroke="black" points="1275,-962 866,-962 866,-910 1275,-910 1275,-962"/>
<text text-anchor="start" x="878.5" y="-942.8" font-family="Times,serif" font-size="14.00">({}, None, {t: t, i: i!0, result: result!2, elem: elem!1})</text>
<text text-anchor="start" x="947" y="-921.8" font-family="Courier,monospace" font-size="14.00">assume Inv(i, t, elem, result)</text>
</g>
<!-- 6&#45;&gt;7 -->
<g id="edge7" class="edge">
<title>6&#45;&gt;7</title>
<path fill="none" stroke="black" d="M1070.5,-997.66C1070.5,-989.7 1070.5,-980.76 1070.5,-972.24"/>
<polygon fill="black" stroke="black" points="1074,-972.16 1070.5,-962.16 1067,-972.16 1074,-972.16"/>
</g>
<!-- 8 -->
<g id="node9" class="node">
<title>8</title>
<polygon fill="none" stroke="black" points="1408.5,-874 732.5,-874 732.5,-777 1408.5,-777 1408.5,-874"/>
<text text-anchor="start" x="744.5" y="-854.3" font-family="Times,serif" font-size="14.00">({0 ≤ i!0 ∧</text>
<text text-anchor="start" x="744.5" y="-839.3" font-family="Times,serif" font-size="14.00">i!0 ≤ Length(t) ∧</text>
<text text-anchor="start" x="744.5" y="-824.3" font-family="Times,serif" font-size="14.00">(0 = elem!1 ∧ 0 = result!2 ∨</text>
<text text-anchor="start" x="744.5" y="-809.3" font-family="Times,serif" font-size="14.00"> ¬(0 = elem!1) ∧ 0 = result!2%elem!1)}, None, {t: t, i: i!0, result: result!2, elem: elem!1})</text>
<text text-anchor="start" x="1004" y="-788.3" font-family="Courier,monospace" font-size="14.00">if (i &lt; len(t)):</text>
</g>
<!-- 7&#45;&gt;8 -->
<g id="edge8" class="edge">
<title>7&#45;&gt;8</title>
<path fill="none" stroke="black" d="M1070.5,-909.84C1070.5,-902.1 1070.5,-893.25 1070.5,-884.27"/>
<polygon fill="black" stroke="black" points="1074,-884.13 1070.5,-874.13 1067,-884.13 1074,-884.13"/>
</g>
<!-- 9 -->
<g id="node10" class="node">
<title>9</title>
<polygon fill="none" stroke="black" points="1096.5,-741 282.5,-741 282.5,-644 1096.5,-644 1096.5,-741"/>
<text text-anchor="start" x="294.5" y="-721.3" font-family="Times,serif" font-size="14.00">({0 ≤ i!0 ∧</text>
<text text-anchor="start" x="294.5" y="-706.3" font-family="Times,serif" font-size="14.00">i!0 ≤ Length(t) ∧</text>
<text text-anchor="start" x="294.5" y="-691.3" font-family="Times,serif" font-size="14.00">(0 = elem!1 ∧ 0 = result!2 ∨</text>
<text text-anchor="start" x="294.5" y="-676.3" font-family="Times,serif" font-size="14.00"> ¬(0 = elem!1) ∧ 0 = result!2%elem!1), ¬(Length(t) ≤ i!0)}, None, {t: t, i: i!0, result: result!2, elem: elem!1})</text>
<text text-anchor="start" x="644" y="-655.3" font-family="Courier,monospace" font-size="14.00">elem = t[i]</text>
</g>
<!-- 8&#45;&gt;9 -->
<g id="edge9" class="edge">
<title>8&#45;&gt;9</title>
<path fill="none" stroke="black" d="M932.14,-776.93C901.37,-766.35 868.64,-755.09 837.5,-744.39"/>
<polygon fill="black" stroke="black" points="838.49,-741.02 827.89,-741.08 836.21,-747.64 838.49,-741.02"/>
</g>
<!-- 15 -->
<g id="node16" class="node">
<title>15</title>
<polygon fill="none" stroke="black" points="1815.5,-741 1139.5,-741 1139.5,-644 1815.5,-644 1815.5,-741"/>
<text text-anchor="start" x="1151.5" y="-721.3" font-family="Times,serif" font-size="14.00">({Length(t) ≤ i!0, 0 ≤ i!0 ∧</text>
<text text-anchor="start" x="1151.5" y="-706.3" font-family="Times,serif" font-size="14.00">i!0 ≤ Length(t) ∧</text>
<text text-anchor="start" x="1151.5" y="-691.3" font-family="Times,serif" font-size="14.00">(0 = elem!1 ∧ 0 = result!2 ∨</text>
<text text-anchor="start" x="1151.5" y="-676.3" font-family="Times,serif" font-size="14.00"> ¬(0 = elem!1) ∧ 0 = result!2%elem!1)}, None, {t: t, i: i!0, result: result!2, elem: elem!1})</text>
<text text-anchor="start" x="1423.5" y="-655.3" font-family="Courier,monospace" font-size="14.00">return result</text>
</g>
<!-- 8&#45;&gt;15 -->
<g id="edge15" class="edge">
<title>8&#45;&gt;15</title>
<path fill="none" stroke="black" d="M1218.3,-776.93C1251.31,-766.3 1286.44,-755 1319.83,-744.25"/>
<polygon fill="black" stroke="black" points="1321.22,-747.48 1329.67,-741.08 1319.07,-740.82 1321.22,-747.48"/>
</g>
<!-- 10 -->
<g id="node11" class="node">
<title>10</title>
<polygon fill="none" stroke="black" points="1075.5,-608 201.5,-608 201.5,-511 1075.5,-511 1075.5,-608"/>
<text text-anchor="start" x="213.5" y="-588.3" font-family="Times,serif" font-size="14.00">({0 ≤ i!0 ∧</text>
<text text-anchor="start" x="213.5" y="-573.3" font-family="Times,serif" font-size="14.00">i!0 ≤ Length(t) ∧</text>
<text text-anchor="start" x="213.5" y="-558.3" font-family="Times,serif" font-size="14.00">(0 = elem!1 ∧ 0 = result!2 ∨</text>
<text text-anchor="start" x="213.5" y="-543.3" font-family="Times,serif" font-size="14.00"> ¬(0 = elem!1) ∧ 0 = result!2%elem!1), ¬(Length(t) ≤ i!0)}, None, {t: t, i: i!0, result: result!2, elem: seq.nth_i(t, i!0)})</text>
<text text-anchor="start" x="539" y="-522.3" font-family="Courier,monospace" font-size="14.00">result = (result * elem)</text>
</g>
<!-- 9&#45;&gt;10 -->
<g id="edge10" class="edge">
<title>9&#45;&gt;10</title>
<path fill="none" stroke="black" d="M670.94,-643.84C667.64,-635.35 664.17,-626.43 660.77,-617.7"/>
<polygon fill="black" stroke="black" points="664.02,-616.4 657.13,-608.35 657.49,-618.94 664.02,-616.4"/>
</g>
<!-- 11 -->
<g id="node12" class="node">
<title>11</title>
<polygon fill="none" stroke="black" points="1132.5,-475 144.5,-475 144.5,-378 1132.5,-378 1132.5,-475"/>
<text text-anchor="start" x="156.5" y="-455.3" font-family="Times,serif" font-size="14.00">({0 ≤ i!0 ∧</text>
<text text-anchor="start" x="156.5" y="-440.3" font-family="Times,serif" font-size="14.00">i!0 ≤ Length(t) ∧</text>
<text text-anchor="start" x="156.5" y="-425.3" font-family="Times,serif" font-size="14.00">(0 = elem!1 ∧ 0 = result!2 ∨</text>
<text text-anchor="start" x="156.5" y="-410.3" font-family="Times,serif" font-size="14.00"> ¬(0 = elem!1) ∧ 0 = result!2%elem!1), ¬(Length(t) ≤ i!0)}, None, {t: t, i: i!0, result: result!2·seq.nth_i(t, i!0), elem: seq.nth_i(t, i!0)})</text>
<text text-anchor="start" x="593" y="-389.3" font-family="Courier,monospace" font-size="14.00">i = (i + 1)</text>
</g>
<!-- 10&#45;&gt;11 -->
<g id="edge11" class="edge">
<title>10&#45;&gt;11</title>
<path fill="none" stroke="black" d="M638.5,-510.84C638.5,-502.62 638.5,-493.99 638.5,-485.54"/>
<polygon fill="black" stroke="black" points="642,-485.35 638.5,-475.35 635,-485.35 642,-485.35"/>
</g>
<!-- 12 -->
<g id="node13" class="node">
<title>12</title>
<polygon fill="none" stroke="black" points="1147.5,-342 129.5,-342 129.5,-245 1147.5,-245 1147.5,-342"/>
<text text-anchor="start" x="141.5" y="-322.3" font-family="Times,serif" font-size="14.00">({0 ≤ i!0 ∧</text>
<text text-anchor="start" x="141.5" y="-307.3" font-family="Times,serif" font-size="14.00">i!0 ≤ Length(t) ∧</text>
<text text-anchor="start" x="141.5" y="-292.3" font-family="Times,serif" font-size="14.00">(0 = elem!1 ∧ 0 = result!2 ∨</text>
<text text-anchor="start" x="141.5" y="-277.3" font-family="Times,serif" font-size="14.00"> ¬(0 = elem!1) ∧ 0 = result!2%elem!1), ¬(Length(t) ≤ i!0)}, None, {t: t, i: 1 + i!0, result: result!2·seq.nth_i(t, i!0), elem: seq.nth_i(t, i!0)})</text>
<text text-anchor="start" x="514.5" y="-256.3" font-family="Courier,monospace" font-size="14.00">assert Inv(i, t, elem, result)</text>
</g>
<!-- 11&#45;&gt;12 -->
<g id="edge12" class="edge">
<title>11&#45;&gt;12</title>
<path fill="none" stroke="black" d="M638.5,-377.84C638.5,-369.62 638.5,-360.99 638.5,-352.54"/>
<polygon fill="black" stroke="black" points="642,-352.35 638.5,-342.35 635,-352.35 642,-352.35"/>
</g>
<!-- 13 -->
<g id="node14" class="node">
<title>13</title>
<polygon fill="none" stroke="black" points="1147.5,-209 129.5,-209 129.5,-112 1147.5,-112 1147.5,-209"/>
<text text-anchor="start" x="141.5" y="-189.3" font-family="Times,serif" font-size="14.00">({0 ≤ i!0 ∧</text>
<text text-anchor="start" x="141.5" y="-174.3" font-family="Times,serif" font-size="14.00">i!0 ≤ Length(t) ∧</text>
<text text-anchor="start" x="141.5" y="-159.3" font-family="Times,serif" font-size="14.00">(0 = elem!1 ∧ 0 = result!2 ∨</text>
<text text-anchor="start" x="141.5" y="-144.3" font-family="Times,serif" font-size="14.00"> ¬(0 = elem!1) ∧ 0 = result!2%elem!1), ¬(Length(t) ≤ i!0)}, None, {t: t, i: 1 + i!0, result: result!2·seq.nth_i(t, i!0), elem: seq.nth_i(t, i!0)})</text>
<text text-anchor="start" x="584.5" y="-123.3" font-family="Courier,monospace" font-size="14.00">return result</text>
</g>
<!-- 12&#45;&gt;13 -->
<g id="edge13" class="edge">
<title>12&#45;&gt;13</title>
<path fill="none" stroke="black" d="M638.5,-244.84C638.5,-236.62 638.5,-227.99 638.5,-219.54"/>
<polygon fill="black" stroke="black" points="642,-219.35 638.5,-209.35 635,-219.35 642,-219.35"/>
</g>
<!-- 14 -->
<g id="node15" class="node">
<title>14</title>
<polygon fill="#aeeeee" stroke="black" points="1277,-76 0,-76 0,0 1277,0 1277,-76"/>
<text text-anchor="start" x="12.5" y="-56.8" font-family="Times,serif" font-size="14.00">({0 ≤ i!0 ∧</text>
<text text-anchor="start" x="12.5" y="-41.8" font-family="Times,serif" font-size="14.00">i!0 ≤ Length(t) ∧</text>
<text text-anchor="start" x="12.5" y="-26.8" font-family="Times,serif" font-size="14.00">(0 = elem!1 ∧ 0 = result!2 ∨</text>
<text text-anchor="start" x="12.5" y="-11.8" font-family="Times,serif" font-size="14.00"> ¬(0 = elem!1) ∧ 0 = result!2%elem!1), ¬(Length(t) ≤ i!0)}, SymbolicReturn(result!2·seq.nth_i(t, i!0)), {t: t, i: 1 + i!0, result: result!2·seq.nth_i(t, i!0), elem: seq.nth_i(t, i!0)})</text>
</g>
<!-- 13&#45;&gt;14 -->
<g id="edge14" class="edge">
<title>13&#45;&gt;14</title>
<path fill="none" stroke="black" d="M638.5,-111.88C638.5,-103.46 638.5,-94.69 638.5,-86.29"/>
<polygon fill="black" stroke="black" points="642,-86.25 638.5,-76.25 635,-86.25 642,-86.25"/>
</g>
<!-- 16 -->
<g id="node17" class="node">
<title>16</title>
<polygon fill="#aeeeee" stroke="black" points="1913.5,-597.5 1093.5,-597.5 1093.5,-521.5 1913.5,-521.5 1913.5,-597.5"/>
<text text-anchor="start" x="1105.5" y="-578.3" font-family="Times,serif" font-size="14.00">({Length(t) ≤ i!0, 0 ≤ i!0 ∧</text>
<text text-anchor="start" x="1105.5" y="-563.3" font-family="Times,serif" font-size="14.00">i!0 ≤ Length(t) ∧</text>
<text text-anchor="start" x="1105.5" y="-548.3" font-family="Times,serif" font-size="14.00">(0 = elem!1 ∧ 0 = result!2 ∨</text>
<text text-anchor="start" x="1105.5" y="-533.3" font-family="Times,serif" font-size="14.00"> ¬(0 = elem!1) ∧ 0 = result!2%elem!1)}, SymbolicReturn(result!2), {t: t, i: i!0, result: result!2, elem: elem!1})</text>
</g>
<!-- 15&#45;&gt;16 -->
<g id="edge16" class="edge">
<title>15&#45;&gt;16</title>
<path fill="none" stroke="black" d="M1486.96,-643.84C1489.3,-632.07 1491.8,-619.47 1494.13,-607.72"/>
<polygon fill="black" stroke="black" points="1497.61,-608.15 1496.13,-597.66 1490.75,-606.78 1497.61,-608.15"/>
</g>
</g>
</svg>
