<?xml version="1.0" encoding="UTF-8" standalone="no"?>
<!DOCTYPE svg PUBLIC "-//W3C//DTD SVG 1.1//EN"
 "http://www.w3.org/Graphics/SVG/1.1/DTD/svg11.dtd">
<!-- Generated by graphviz version 2.43.0 (0)
 -->
<!-- Title: %3 Pages: 1 -->
<svg width="3176pt" height="1738pt"
 viewBox="0.00 0.00 3176.00 1738.00" xmlns="http://www.w3.org/2000/svg" xmlns:xlink="http://www.w3.org/1999/xlink">
<g id="graph0" class="graph" transform="scale(1 1) rotate(0) translate(4 1734)">
<title>%3</title>
<polygon fill="white" stroke="transparent" points="-4,4 -4,-1734 3172,-1734 3172,4 -4,4"/>
<!-- 0 -->
<g id="node1" class="node">
<title>0</title>
<polygon fill="none" stroke="black" points="2339,-1730 1965,-1730 1965,-1678 2339,-1678 2339,-1730"/>
<text text-anchor="start" x="1977" y="-1710.8" font-family="Times,serif" font-size="14.00">({}, None, {haystack: haystack, needle: needle})</text>
<text text-anchor="start" x="2131" y="-1689.8" font-family="Courier,monospace" font-size="14.00">i = 0</text>
</g>
<!-- 1 -->
<g id="node2" class="node">
<title>1</title>
<polygon fill="none" stroke="black" points="2355,-1642 1949,-1642 1949,-1590 2355,-1590 2355,-1642"/>
<text text-anchor="start" x="1961" y="-1622.8" font-family="Times,serif" font-size="14.00">({}, None, {haystack: haystack, needle: needle, i: 0})</text>
<text text-anchor="start" x="2024" y="-1601.8" font-family="Courier,monospace" font-size="14.00">assert Inv(i, needle, haystack)</text>
</g>
<!-- 0&#45;&gt;1 -->
<g id="edge1" class="edge">
<title>0&#45;&gt;1</title>
<path fill="none" stroke="black" d="M2152,-1677.66C2152,-1669.7 2152,-1660.76 2152,-1652.24"/>
<polygon fill="black" stroke="black" points="2155.5,-1652.16 2152,-1642.16 2148.5,-1652.16 2155.5,-1652.16"/>
</g>
<!-- 2 -->
<g id="node3" class="node">
<title>2</title>
<polygon fill="none" stroke="black" points="2355,-1554 1949,-1554 1949,-1502 2355,-1502 2355,-1554"/>
<text text-anchor="start" x="1961" y="-1534.8" font-family="Times,serif" font-size="14.00">({}, None, {haystack: haystack, needle: needle, i: 0})</text>
<text text-anchor="start" x="2123" y="-1513.8" font-family="Courier,monospace" font-size="14.00">havoc i</text>
</g>
<!-- 1&#45;&gt;2 -->
<g id="edge2" class="edge">
<title>1&#45;&gt;2</title>
<path fill="none" stroke="black" d="M2152,-1589.66C2152,-1581.7 2152,-1572.76 2152,-1564.24"/>
<polygon fill="black" stroke="black" points="2155.5,-1564.16 2152,-1554.16 2148.5,-1564.16 2155.5,-1564.16"/>
</g>
<!-- 3 -->
<g id="node4" class="node">
<title>3</title>
<polygon fill="none" stroke="black" points="2373.5,-1466 1930.5,-1466 1930.5,-1414 2373.5,-1414 2373.5,-1466"/>
<text text-anchor="start" x="1943" y="-1446.8" font-family="Times,serif" font-size="14.00">({}, None, {haystack: haystack, needle: needle, i: i!2316})</text>
<text text-anchor="start" x="2024.5" y="-1425.8" font-family="Courier,monospace" font-size="14.00">assume Inv(i, needle, haystack)</text>
</g>
<!-- 2&#45;&gt;3 -->
<g id="edge3" class="edge">
<title>2&#45;&gt;3</title>
<path fill="none" stroke="black" d="M2152,-1501.66C2152,-1493.7 2152,-1484.76 2152,-1476.24"/>
<polygon fill="black" stroke="black" points="2155.5,-1476.16 2152,-1466.16 2148.5,-1476.16 2155.5,-1476.16"/>
</g>
<!-- 4 -->
<g id="node5" class="node">
<title>4</title>
<polygon fill="none" stroke="black" points="2404.5,-1378 1899.5,-1378 1899.5,-1221 2404.5,-1221 2404.5,-1378"/>
<text text-anchor="start" x="1912" y="-1358.3" font-family="Times,serif" font-size="14.00">({0 ≤ i!2316 ∧</text>
<text text-anchor="start" x="1912" y="-1343.3" font-family="Times,serif" font-size="14.00">i!2316 ≤ Length(haystack) ∧</text>
<text text-anchor="start" x="1912" y="-1328.3" font-family="Times,serif" font-size="14.00">(∀k :</text>
<text text-anchor="start" x="1912" y="-1313.3" font-family="Times,serif" font-size="14.00">  ¬(0 ≤ k ∧ ¬(i!2316 ≤ k)) ∨</text>
<text text-anchor="start" x="1912" y="-1298.3" font-family="Times,serif" font-size="14.00">  ¬(If(k ≥ 0 ∧ ¬(Length(haystack) ≤ k),</text>
<text text-anchor="start" x="1912" y="-1283.3" font-family="Times,serif" font-size="14.00">       seq.nth_i(haystack, k),</text>
<text text-anchor="start" x="1912" y="-1268.3" font-family="Times,serif" font-size="14.00">       seq.nth_u(haystack, k)) =</text>
<text text-anchor="start" x="1912" y="-1253.3" font-family="Times,serif" font-size="14.00">    needle))}, None, {haystack: haystack, needle: needle, i: i!2316})</text>
<text text-anchor="start" x="1983" y="-1232.3" font-family="Courier,monospace" font-size="14.00">loop&#45;scope(inv=Inv(i, needle, haystack)):</text>
</g>
<!-- 3&#45;&gt;4 -->
<g id="edge4" class="edge">
<title>3&#45;&gt;4</title>
<path fill="none" stroke="black" d="M2152,-1413.92C2152,-1406.36 2152,-1397.6 2152,-1388.36"/>
<polygon fill="black" stroke="black" points="2155.5,-1388.19 2152,-1378.19 2148.5,-1388.19 2155.5,-1388.19"/>
</g>
<!-- 5 -->
<g id="node6" class="node">
<title>5</title>
<polygon fill="none" stroke="black" points="2404.5,-1185 1899.5,-1185 1899.5,-1028 2404.5,-1028 2404.5,-1185"/>
<text text-anchor="start" x="1912" y="-1165.3" font-family="Times,serif" font-size="14.00">({0 ≤ i!2316 ∧</text>
<text text-anchor="start" x="1912" y="-1150.3" font-family="Times,serif" font-size="14.00">i!2316 ≤ Length(haystack) ∧</text>
<text text-anchor="start" x="1912" y="-1135.3" font-family="Times,serif" font-size="14.00">(∀k :</text>
<text text-anchor="start" x="1912" y="-1120.3" font-family="Times,serif" font-size="14.00">  ¬(0 ≤ k ∧ ¬(i!2316 ≤ k)) ∨</text>
<text text-anchor="start" x="1912" y="-1105.3" font-family="Times,serif" font-size="14.00">  ¬(If(k ≥ 0 ∧ ¬(Length(haystack) ≤ k),</text>
<text text-anchor="start" x="1912" y="-1090.3" font-family="Times,serif" font-size="14.00">       seq.nth_i(haystack, k),</text>
<text text-anchor="start" x="1912" y="-1075.3" font-family="Times,serif" font-size="14.00">       seq.nth_u(haystack, k)) =</text>
<text text-anchor="start" x="1912" y="-1060.3" font-family="Times,serif" font-size="14.00">    needle))}, None, {haystack: haystack, needle: needle, i: i!2316})</text>
<text text-anchor="start" x="2057.5" y="-1039.3" font-family="Courier,monospace" font-size="14.00">if (i &lt; len(haystack)):</text>
</g>
<!-- 4&#45;&gt;5 -->
<g id="edge5" class="edge">
<title>4&#45;&gt;5</title>
<path fill="none" stroke="black" d="M2152,-1220.81C2152,-1212.35 2152,-1203.69 2152,-1195.12"/>
<polygon fill="black" stroke="black" points="2155.5,-1195.12 2152,-1185.12 2148.5,-1195.12 2155.5,-1195.12"/>
</g>
<!-- 6 -->
<g id="node7" class="node">
<title>6</title>
<polygon fill="none" stroke="black" points="2148.5,-992 1421.5,-992 1421.5,-835 2148.5,-835 2148.5,-992"/>
<text text-anchor="start" x="1434" y="-972.3" font-family="Times,serif" font-size="14.00">({0 ≤ i!2316 ∧</text>
<text text-anchor="start" x="1434" y="-957.3" font-family="Times,serif" font-size="14.00">i!2316 ≤ Length(haystack) ∧</text>
<text text-anchor="start" x="1434" y="-942.3" font-family="Times,serif" font-size="14.00">(∀k :</text>
<text text-anchor="start" x="1434" y="-927.3" font-family="Times,serif" font-size="14.00">  ¬(0 ≤ k ∧ ¬(i!2316 ≤ k)) ∨</text>
<text text-anchor="start" x="1434" y="-912.3" font-family="Times,serif" font-size="14.00">  ¬(If(k ≥ 0 ∧ ¬(Length(haystack) ≤ k),</text>
<text text-anchor="start" x="1434" y="-897.3" font-family="Times,serif" font-size="14.00">       seq.nth_i(haystack, k),</text>
<text text-anchor="start" x="1434" y="-882.3" font-family="Times,serif" font-size="14.00">       seq.nth_u(haystack, k)) =</text>
<text text-anchor="start" x="1434" y="-867.3" font-family="Times,serif" font-size="14.00">    needle)), ¬(Length(haystack) ≤ i!2316)}, None, {haystack: haystack, needle: needle, i: i!2316})</text>
<text text-anchor="start" x="1674" y="-846.3" font-family="Courier,monospace" font-size="14.00">if (haystack[i] == needle):</text>
</g>
<!-- 5&#45;&gt;6 -->
<g id="edge6" class="edge">
<title>5&#45;&gt;6</title>
<path fill="none" stroke="black" d="M2002.99,-1027.95C1983.27,-1017.69 1963.01,-1007.14 1943.14,-996.8"/>
<polygon fill="black" stroke="black" points="1944.53,-993.58 1934.05,-992.07 1941.3,-999.79 1944.53,-993.58"/>
</g>
<!-- 15 -->
<g id="node16" class="node">
<title>15</title>
<polygon fill="none" stroke="black" points="2994.5,-992 2289.5,-992 2289.5,-835 2994.5,-835 2994.5,-992"/>
<text text-anchor="start" x="2302" y="-972.3" font-family="Times,serif" font-size="14.00">({0 ≤ i!2316 ∧</text>
<text text-anchor="start" x="2302" y="-957.3" font-family="Times,serif" font-size="14.00">i!2316 ≤ Length(haystack) ∧</text>
<text text-anchor="start" x="2302" y="-942.3" font-family="Times,serif" font-size="14.00">(∀k :</text>
<text text-anchor="start" x="2302" y="-927.3" font-family="Times,serif" font-size="14.00">  ¬(0 ≤ k ∧ ¬(i!2316 ≤ k)) ∨</text>
<text text-anchor="start" x="2302" y="-912.3" font-family="Times,serif" font-size="14.00">  ¬(If(k ≥ 0 ∧ ¬(Length(haystack) ≤ k),</text>
<text text-anchor="start" x="2302" y="-897.3" font-family="Times,serif" font-size="14.00">       seq.nth_i(haystack, k),</text>
<text text-anchor="start" x="2302" y="-882.3" font-family="Times,serif" font-size="14.00">       seq.nth_u(haystack, k)) =</text>
<text text-anchor="start" x="2302" y="-867.3" font-family="Times,serif" font-size="14.00">    needle)), Length(haystack) ≤ i!2316}, None, {haystack: haystack, needle: needle, i: i!2316})</text>
<text text-anchor="start" x="2605" y="-846.3" font-family="Courier,monospace" font-size="14.00">return &#45;1</text>
</g>
<!-- 5&#45;&gt;15 -->
<g id="edge15" class="edge">
<title>5&#45;&gt;15</title>
<path fill="none" stroke="black" d="M2350.95,-1027.95C2378.1,-1017.37 2406.04,-1006.48 2433.36,-995.83"/>
<polygon fill="black" stroke="black" points="2434.95,-998.96 2443,-992.07 2432.41,-992.44 2434.95,-998.96"/>
</g>
<!-- 7 -->
<g id="node8" class="node">
<title>7</title>
<polygon fill="none" stroke="black" points="1207,-799 113,-799 113,-642 1207,-642 1207,-799"/>
<text text-anchor="start" x="125" y="-779.3" font-family="Times,serif" font-size="14.00">({0 ≤ i!2316 ∧</text>
<text text-anchor="start" x="125" y="-764.3" font-family="Times,serif" font-size="14.00">i!2316 ≤ Length(haystack) ∧</text>
<text text-anchor="start" x="125" y="-749.3" font-family="Times,serif" font-size="14.00">(∀k :</text>
<text text-anchor="start" x="125" y="-734.3" font-family="Times,serif" font-size="14.00">  ¬(0 ≤ k ∧ ¬(i!2316 ≤ k)) ∨</text>
<text text-anchor="start" x="125" y="-719.3" font-family="Times,serif" font-size="14.00">  ¬(If(k ≥ 0 ∧ ¬(Length(haystack) ≤ k),</text>
<text text-anchor="start" x="125" y="-704.3" font-family="Times,serif" font-size="14.00">       seq.nth_i(haystack, k),</text>
<text text-anchor="start" x="125" y="-689.3" font-family="Times,serif" font-size="14.00">       seq.nth_u(haystack, k)) =</text>
<text text-anchor="start" x="125" y="-674.3" font-family="Times,serif" font-size="14.00">    needle)), seq.nth_i(haystack, i!2316) = needle, 0 ≤ i!2316 ∧ ¬(Length(haystack) ≤ i!2316)}, None, {haystack: haystack, needle: needle, i: i!2316})</text>
<text text-anchor="start" x="639" y="-653.3" font-family="Courier,monospace" font-size="14.00">break</text>
</g>
<!-- 6&#45;&gt;7 -->
<g id="edge7" class="edge">
<title>6&#45;&gt;7</title>
<path fill="none" stroke="black" d="M1421.3,-850.75C1327.43,-834.81 1225.08,-817.44 1126.75,-800.74"/>
<polygon fill="black" stroke="black" points="1127.08,-797.25 1116.63,-799.03 1125.9,-804.15 1127.08,-797.25"/>
</g>
<!-- 10 -->
<g id="node11" class="node">
<title>10</title>
<polygon fill="none" stroke="black" points="2343.5,-799 1226.5,-799 1226.5,-642 2343.5,-642 2343.5,-799"/>
<text text-anchor="start" x="1239" y="-779.3" font-family="Times,serif" font-size="14.00">({0 ≤ i!2316 ∧</text>
<text text-anchor="start" x="1239" y="-764.3" font-family="Times,serif" font-size="14.00">i!2316 ≤ Length(haystack) ∧</text>
<text text-anchor="start" x="1239" y="-749.3" font-family="Times,serif" font-size="14.00">(∀k :</text>
<text text-anchor="start" x="1239" y="-734.3" font-family="Times,serif" font-size="14.00">  ¬(0 ≤ k ∧ ¬(i!2316 ≤ k)) ∨</text>
<text text-anchor="start" x="1239" y="-719.3" font-family="Times,serif" font-size="14.00">  ¬(If(k ≥ 0 ∧ ¬(Length(haystack) ≤ k),</text>
<text text-anchor="start" x="1239" y="-704.3" font-family="Times,serif" font-size="14.00">       seq.nth_i(haystack, k),</text>
<text text-anchor="start" x="1239" y="-689.3" font-family="Times,serif" font-size="14.00">       seq.nth_u(haystack, k)) =</text>
<text text-anchor="start" x="1239" y="-674.3" font-family="Times,serif" font-size="14.00">    needle)), ¬(seq.nth_i(haystack, i!2316) = needle), 0 ≤ i!2316 ∧ ¬(Length(haystack) ≤ i!2316)}, None, {haystack: haystack, needle: needle, i: i!2316})</text>
<text text-anchor="start" x="1740" y="-653.3" font-family="Courier,monospace" font-size="14.00">i = (i + i)</text>
</g>
<!-- 6&#45;&gt;10 -->
<g id="edge10" class="edge">
<title>6&#45;&gt;10</title>
<path fill="none" stroke="black" d="M1785,-834.81C1785,-826.35 1785,-817.69 1785,-809.12"/>
<polygon fill="black" stroke="black" points="1788.5,-809.12 1785,-799.12 1781.5,-809.12 1788.5,-809.12"/>
</g>
<!-- 8 -->
<g id="node9" class="node">
<title>8</title>
<polygon fill="none" stroke="black" points="1204,-606 110,-606 110,-449 1204,-449 1204,-606"/>
<text text-anchor="start" x="122" y="-586.3" font-family="Times,serif" font-size="14.00">({0 ≤ i!2316 ∧</text>
<text text-anchor="start" x="122" y="-571.3" font-family="Times,serif" font-size="14.00">i!2316 ≤ Length(haystack) ∧</text>
<text text-anchor="start" x="122" y="-556.3" font-family="Times,serif" font-size="14.00">(∀k :</text>
<text text-anchor="start" x="122" y="-541.3" font-family="Times,serif" font-size="14.00">  ¬(0 ≤ k ∧ ¬(i!2316 ≤ k)) ∨</text>
<text text-anchor="start" x="122" y="-526.3" font-family="Times,serif" font-size="14.00">  ¬(If(k ≥ 0 ∧ ¬(Length(haystack) ≤ k),</text>
<text text-anchor="start" x="122" y="-511.3" font-family="Times,serif" font-size="14.00">       seq.nth_i(haystack, k),</text>
<text text-anchor="start" x="122" y="-496.3" font-family="Times,serif" font-size="14.00">       seq.nth_u(haystack, k)) =</text>
<text text-anchor="start" x="122" y="-481.3" font-family="Times,serif" font-size="14.00">    needle)), seq.nth_i(haystack, i!2316) = needle, 0 ≤ i!2316 ∧ ¬(Length(haystack) ≤ i!2316)}, None, {haystack: haystack, needle: needle, i: i!2316})</text>
<text text-anchor="start" x="623.5" y="-460.3" font-family="Courier,monospace" font-size="14.00">return i</text>
</g>
<!-- 7&#45;&gt;8 -->
<g id="edge8" class="edge">
<title>7&#45;&gt;8</title>
<path fill="none" stroke="black" d="M658.78,-641.81C658.65,-633.35 658.51,-624.69 658.38,-616.12"/>
<polygon fill="black" stroke="black" points="661.88,-616.06 658.22,-606.12 654.88,-616.17 661.88,-616.06"/>
</g>
<!-- 9 -->
<g id="node10" class="node">
<title>9</title>
<polygon fill="#aeeeee" stroke="black" points="1228,-413 0,-413 0,-277 1228,-277 1228,-413"/>
<text text-anchor="start" x="12" y="-393.8" font-family="Times,serif" font-size="14.00">({0 ≤ i!2316 ∧</text>
<text text-anchor="start" x="12" y="-378.8" font-family="Times,serif" font-size="14.00">i!2316 ≤ Length(haystack) ∧</text>
<text text-anchor="start" x="12" y="-363.8" font-family="Times,serif" font-size="14.00">(∀k :</text>
<text text-anchor="start" x="12" y="-348.8" font-family="Times,serif" font-size="14.00">  ¬(0 ≤ k ∧ ¬(i!2316 ≤ k)) ∨</text>
<text text-anchor="start" x="12" y="-333.8" font-family="Times,serif" font-size="14.00">  ¬(If(k ≥ 0 ∧ ¬(Length(haystack) ≤ k),</text>
<text text-anchor="start" x="12" y="-318.8" font-family="Times,serif" font-size="14.00">       seq.nth_i(haystack, k),</text>
<text text-anchor="start" x="12" y="-303.8" font-family="Times,serif" font-size="14.00">       seq.nth_u(haystack, k)) =</text>
<text text-anchor="start" x="12" y="-288.8" font-family="Times,serif" font-size="14.00">    needle)), seq.nth_i(haystack, i!2316) = needle, 0 ≤ i!2316 ∧ ¬(Length(haystack) ≤ i!2316)}, SymbolicReturn(i!2316), {haystack: haystack, needle: needle, i: i!2316})</text>
</g>
<!-- 8&#45;&gt;9 -->
<g id="edge9" class="edge">
<title>8&#45;&gt;9</title>
<path fill="none" stroke="black" d="M638.51,-448.9C636.47,-440.32 634.39,-431.58 632.34,-423"/>
<polygon fill="black" stroke="black" points="635.69,-421.94 629.97,-413.03 628.88,-423.57 635.69,-421.94"/>
</g>
<!-- 11 -->
<g id="node12" class="node">
<title>11</title>
<polygon fill="none" stroke="black" points="2373,-606 1243,-606 1243,-449 2373,-449 2373,-606"/>
<text text-anchor="start" x="1255" y="-586.3" font-family="Times,serif" font-size="14.00">({0 ≤ i!2316 ∧</text>
<text text-anchor="start" x="1255" y="-571.3" font-family="Times,serif" font-size="14.00">i!2316 ≤ Length(haystack) ∧</text>
<text text-anchor="start" x="1255" y="-556.3" font-family="Times,serif" font-size="14.00">(∀k :</text>
<text text-anchor="start" x="1255" y="-541.3" font-family="Times,serif" font-size="14.00">  ¬(0 ≤ k ∧ ¬(i!2316 ≤ k)) ∨</text>
<text text-anchor="start" x="1255" y="-526.3" font-family="Times,serif" font-size="14.00">  ¬(If(k ≥ 0 ∧ ¬(Length(haystack) ≤ k),</text>
<text text-anchor="start" x="1255" y="-511.3" font-family="Times,serif" font-size="14.00">       seq.nth_i(haystack, k),</text>
<text text-anchor="start" x="1255" y="-496.3" font-family="Times,serif" font-size="14.00">       seq.nth_u(haystack, k)) =</text>
<text text-anchor="start" x="1255" y="-481.3" font-family="Times,serif" font-size="14.00">    needle)), ¬(seq.nth_i(haystack, i!2316) = needle), 0 ≤ i!2316 ∧ ¬(Length(haystack) ≤ i!2316)}, None, {haystack: haystack, needle: needle, i: 2·i!2316})</text>
<text text-anchor="start" x="1774.5" y="-460.3" font-family="Courier,monospace" font-size="14.00">continue</text>
</g>
<!-- 10&#45;&gt;11 -->
<g id="edge11" class="edge">
<title>10&#45;&gt;11</title>
<path fill="none" stroke="black" d="M1794.35,-641.81C1795.37,-633.35 1796.42,-624.69 1797.45,-616.12"/>
<polygon fill="black" stroke="black" points="1800.93,-616.46 1798.65,-606.12 1793.98,-615.63 1800.93,-616.46"/>
</g>
<!-- 12 -->
<g id="node13" class="node">
<title>12</title>
<polygon fill="none" stroke="black" points="2414,-413 1246,-413 1246,-277 2414,-277 2414,-413"/>
<text text-anchor="start" x="1258" y="-393.8" font-family="Times,serif" font-size="14.00">({0 ≤ i!2316 ∧</text>
<text text-anchor="start" x="1258" y="-378.8" font-family="Times,serif" font-size="14.00">i!2316 ≤ Length(haystack) ∧</text>
<text text-anchor="start" x="1258" y="-363.8" font-family="Times,serif" font-size="14.00">(∀k :</text>
<text text-anchor="start" x="1258" y="-348.8" font-family="Times,serif" font-size="14.00">  ¬(0 ≤ k ∧ ¬(i!2316 ≤ k)) ∨</text>
<text text-anchor="start" x="1258" y="-333.8" font-family="Times,serif" font-size="14.00">  ¬(If(k ≥ 0 ∧ ¬(Length(haystack) ≤ k),</text>
<text text-anchor="start" x="1258" y="-318.8" font-family="Times,serif" font-size="14.00">       seq.nth_i(haystack, k),</text>
<text text-anchor="start" x="1258" y="-303.8" font-family="Times,serif" font-size="14.00">       seq.nth_u(haystack, k)) =</text>
<text text-anchor="start" x="1258" y="-288.8" font-family="Times,serif" font-size="14.00">    needle)), ¬(seq.nth_i(haystack, i!2316) = needle), 0 ≤ i!2316 ∧ ¬(Length(haystack) ≤ i!2316)}, Continue(), {haystack: haystack, needle: needle, i: 2·i!2316})</text>
</g>
<!-- 11&#45;&gt;12 -->
<g id="edge12" class="edge">
<title>11&#45;&gt;12</title>
<path fill="none" stroke="black" d="M1817.46,-448.9C1818.5,-440.32 1819.57,-431.58 1820.61,-423"/>
<polygon fill="black" stroke="black" points="1824.09,-423.38 1821.83,-413.03 1817.15,-422.53 1824.09,-423.38"/>
</g>
<!-- 13 -->
<g id="node14" class="node">
<title>13</title>
<polygon fill="#aeeeee" stroke="black" points="1701,-188.5 959,-188.5 959,-52.5 1701,-52.5 1701,-188.5"/>
<text text-anchor="start" x="971" y="-169.3" font-family="Times,serif" font-size="14.00">({¬(seq.nth_i(haystack, i!2316) = needle), 0 ≤ i!2316 ∧ ¬(Length(haystack) ≤ i!2316), i!2316 ≥ 0 ∧</text>
<text text-anchor="start" x="971" y="-154.3" font-family="Times,serif" font-size="14.00">2·i!2316 ≤ Length(haystack) ∧</text>
<text text-anchor="start" x="971" y="-139.3" font-family="Times,serif" font-size="14.00">(∀k :</text>
<text text-anchor="start" x="971" y="-124.3" font-family="Times,serif" font-size="14.00">  ¬(0 ≤ k ∧ ¬(2·i!2316 ≤ k)) ∨</text>
<text text-anchor="start" x="971" y="-109.3" font-family="Times,serif" font-size="14.00">  ¬(If(k ≥ 0 ∧ ¬(Length(haystack) ≤ k),</text>
<text text-anchor="start" x="971" y="-94.3" font-family="Times,serif" font-size="14.00">       seq.nth_i(haystack, k),</text>
<text text-anchor="start" x="971" y="-79.3" font-family="Times,serif" font-size="14.00">       seq.nth_u(haystack, k)) =</text>
<text text-anchor="start" x="971" y="-64.3" font-family="Times,serif" font-size="14.00">    needle))}, Halt(), {haystack: haystack, needle: needle, i: 2·i!2316})</text>
</g>
<!-- 12&#45;&gt;13 -->
<g id="edge13" class="edge">
<title>12&#45;&gt;13</title>
<path fill="none" stroke="black" d="M1679.31,-276.94C1619.55,-250.35 1550.75,-219.73 1490.09,-192.74"/>
<polygon fill="black" stroke="black" points="1491.38,-189.48 1480.82,-188.61 1488.53,-195.88 1491.38,-189.48"/>
</g>
<!-- 14 -->
<g id="node15" class="node">
<title>14</title>
<polygon fill="#ffaeb9" stroke="black" points="2943,-241 1719,-241 1719,0 2943,0 2943,-241"/>
<text text-anchor="start" x="1731" y="-221.3" font-family="Times,serif" font-size="14.00">({0 ≤ i!2316 ∧</text>
<text text-anchor="start" x="1731" y="-206.3" font-family="Times,serif" font-size="14.00">i!2316 ≤ Length(haystack) ∧</text>
<text text-anchor="start" x="1731" y="-191.3" font-family="Times,serif" font-size="14.00">(∀k :</text>
<text text-anchor="start" x="1731" y="-176.3" font-family="Times,serif" font-size="14.00">  ¬(0 ≤ k ∧ ¬(i!2316 ≤ k)) ∨</text>
<text text-anchor="start" x="1731" y="-161.3" font-family="Times,serif" font-size="14.00">  ¬(If(k ≥ 0 ∧ ¬(Length(haystack) ≤ k),</text>
<text text-anchor="start" x="1731" y="-146.3" font-family="Times,serif" font-size="14.00">       seq.nth_i(haystack, k),</text>
<text text-anchor="start" x="1731" y="-131.3" font-family="Times,serif" font-size="14.00">       seq.nth_u(haystack, k)) =</text>
<text text-anchor="start" x="1731" y="-116.3" font-family="Times,serif" font-size="14.00">    needle)), ¬(i!2316 ≥ 0 ∧</text>
<text text-anchor="start" x="1731" y="-101.3" font-family="Times,serif" font-size="14.00">  2·i!2316 ≤ Length(haystack) ∧</text>
<text text-anchor="start" x="1731" y="-86.3" font-family="Times,serif" font-size="14.00">  (∀k :</text>
<text text-anchor="start" x="1731" y="-71.3" font-family="Times,serif" font-size="14.00">    ¬(0 ≤ k ∧ ¬(2·i!2316 ≤ k)) ∨</text>
<text text-anchor="start" x="1731" y="-56.3" font-family="Times,serif" font-size="14.00">    ¬(If(k ≥ 0 ∧ ¬(Length(haystack) ≤ k),</text>
<text text-anchor="start" x="1731" y="-41.3" font-family="Times,serif" font-size="14.00">         seq.nth_i(haystack, k),</text>
<text text-anchor="start" x="1731" y="-26.3" font-family="Times,serif" font-size="14.00">         seq.nth_u(haystack, k)) =</text>
<text text-anchor="start" x="1731" y="-11.3" font-family="Times,serif" font-size="14.00">      needle))), ¬(seq.nth_i(haystack, i!2316) = needle), 0 ≤ i!2316 ∧ ¬(Length(haystack) ≤ i!2316)}, AssertionError(), {haystack: haystack, needle: needle, i: 2·i!2316})</text>
</g>
<!-- 12&#45;&gt;14 -->
<g id="edge14" class="edge">
<title>12&#45;&gt;14</title>
<path fill="none" stroke="black" d="M1981,-276.94C2003.73,-266.84 2027.78,-256.16 2052.18,-245.33"/>
<polygon fill="black" stroke="black" points="2053.84,-248.42 2061.55,-241.16 2050.99,-242.02 2053.84,-248.42"/>
</g>
<!-- 16 -->
<g id="node17" class="node">
<title>16</title>
<polygon fill="#aeeeee" stroke="black" points="3168,-788.5 2362,-788.5 2362,-652.5 3168,-652.5 3168,-788.5"/>
<text text-anchor="start" x="2374" y="-769.3" font-family="Times,serif" font-size="14.00">({0 ≤ i!2316 ∧</text>
<text text-anchor="start" x="2374" y="-754.3" font-family="Times,serif" font-size="14.00">i!2316 ≤ Length(haystack) ∧</text>
<text text-anchor="start" x="2374" y="-739.3" font-family="Times,serif" font-size="14.00">(∀k :</text>
<text text-anchor="start" x="2374" y="-724.3" font-family="Times,serif" font-size="14.00">  ¬(0 ≤ k ∧ ¬(i!2316 ≤ k)) ∨</text>
<text text-anchor="start" x="2374" y="-709.3" font-family="Times,serif" font-size="14.00">  ¬(If(k ≥ 0 ∧ ¬(Length(haystack) ≤ k),</text>
<text text-anchor="start" x="2374" y="-694.3" font-family="Times,serif" font-size="14.00">       seq.nth_i(haystack, k),</text>
<text text-anchor="start" x="2374" y="-679.3" font-family="Times,serif" font-size="14.00">       seq.nth_u(haystack, k)) =</text>
<text text-anchor="start" x="2374" y="-664.3" font-family="Times,serif" font-size="14.00">    needle)), Length(haystack) ≤ i!2316}, SymbolicReturn(&#45;1), {haystack: haystack, needle: needle, i: i!2316})</text>
</g>
<!-- 15&#45;&gt;16 -->
<g id="edge16" class="edge">
<title>15&#45;&gt;16</title>
<path fill="none" stroke="black" d="M2692.03,-834.81C2700.03,-822.39 2708.29,-809.56 2716.26,-797.19"/>
<polygon fill="black" stroke="black" points="2719.25,-799.01 2721.72,-788.71 2713.36,-795.22 2719.25,-799.01"/>
</g>
</g>
</svg>
