<?xml version="1.0" encoding="UTF-8" standalone="no"?>
<!DOCTYPE svg PUBLIC "-//W3C//DTD SVG 1.1//EN"
 "http://www.w3.org/Graphics/SVG/1.1/DTD/svg11.dtd">
<!-- Generated by graphviz version 2.43.0 (0)
 -->
<!-- Title: %3 Pages: 1 -->
<svg width="2788pt" height="1706pt"
 viewBox="0.00 0.00 2788.00 1706.00" xmlns="http://www.w3.org/2000/svg" xmlns:xlink="http://www.w3.org/1999/xlink">
<g id="graph0" class="graph" transform="scale(1 1) rotate(0) translate(4 1702)">
<title>%3</title>
<polygon fill="white" stroke="transparent" points="-4,4 -4,-1702 2784,-1702 2784,4 -4,4"/>
<!-- 0 -->
<g id="node1" class="node">
<title>0</title>
<polygon fill="none" stroke="black" points="1905.5,-1698 1757.5,-1698 1757.5,-1646 1905.5,-1646 1905.5,-1698"/>
<text text-anchor="start" x="1769.5" y="-1678.8" font-family="Times,serif" font-size="14.00">({}, None, {t: t})</text>
<text text-anchor="start" x="1810.5" y="-1657.8" font-family="Courier,monospace" font-size="14.00">i = 0</text>
</g>
<!-- 1 -->
<g id="node2" class="node">
<title>1</title>
<polygon fill="none" stroke="black" points="1921,-1610 1742,-1610 1742,-1558 1921,-1558 1921,-1610"/>
<text text-anchor="start" x="1754.5" y="-1590.8" font-family="Times,serif" font-size="14.00">({}, None, {t: t, i: 0})</text>
<text text-anchor="start" x="1790.5" y="-1569.8" font-family="Courier,monospace" font-size="14.00">result = 1</text>
</g>
<!-- 0&#45;&gt;1 -->
<g id="edge1" class="edge">
<title>0&#45;&gt;1</title>
<path fill="none" stroke="black" d="M1831.5,-1645.66C1831.5,-1637.7 1831.5,-1628.76 1831.5,-1620.24"/>
<polygon fill="black" stroke="black" points="1835,-1620.16 1831.5,-1610.16 1828,-1620.16 1835,-1620.16"/>
</g>
<!-- 2 -->
<g id="node3" class="node">
<title>2</title>
<polygon fill="none" stroke="black" points="1955.5,-1522 1707.5,-1522 1707.5,-1470 1955.5,-1470 1955.5,-1522"/>
<text text-anchor="start" x="1719.5" y="-1502.8" font-family="Times,serif" font-size="14.00">({}, None, {t: t, i: 0, result: 1})</text>
<text text-anchor="start" x="1798" y="-1481.8" font-family="Courier,monospace" font-size="14.00">elem = 1</text>
</g>
<!-- 1&#45;&gt;2 -->
<g id="edge2" class="edge">
<title>1&#45;&gt;2</title>
<path fill="none" stroke="black" d="M1831.5,-1557.66C1831.5,-1549.7 1831.5,-1540.76 1831.5,-1532.24"/>
<polygon fill="black" stroke="black" points="1835,-1532.16 1831.5,-1522.16 1828,-1532.16 1835,-1532.16"/>
</g>
<!-- 3 -->
<g id="node4" class="node">
<title>3</title>
<polygon fill="none" stroke="black" points="1986.5,-1434 1676.5,-1434 1676.5,-1382 1986.5,-1382 1986.5,-1434"/>
<text text-anchor="start" x="1688.5" y="-1414.8" font-family="Times,serif" font-size="14.00">({}, None, {t: t, i: 0, result: 1, elem: 1})</text>
<text text-anchor="start" x="1707.5" y="-1393.8" font-family="Courier,monospace" font-size="14.00">assert Inv(i, t, elem, result)</text>
</g>
<!-- 2&#45;&gt;3 -->
<g id="edge3" class="edge">
<title>2&#45;&gt;3</title>
<path fill="none" stroke="black" d="M1831.5,-1469.66C1831.5,-1461.7 1831.5,-1452.76 1831.5,-1444.24"/>
<polygon fill="black" stroke="black" points="1835,-1444.16 1831.5,-1434.16 1828,-1444.16 1835,-1444.16"/>
</g>
<!-- 4 -->
<g id="node5" class="node">
<title>4</title>
<polygon fill="none" stroke="black" points="1986.5,-1346 1676.5,-1346 1676.5,-1294 1986.5,-1294 1986.5,-1346"/>
<text text-anchor="start" x="1688.5" y="-1326.8" font-family="Times,serif" font-size="14.00">({}, None, {t: t, i: 0, result: 1, elem: 1})</text>
<text text-anchor="start" x="1802.5" y="-1305.8" font-family="Courier,monospace" font-size="14.00">havoc i</text>
</g>
<!-- 3&#45;&gt;4 -->
<g id="edge4" class="edge">
<title>3&#45;&gt;4</title>
<path fill="none" stroke="black" d="M1831.5,-1381.66C1831.5,-1373.7 1831.5,-1364.76 1831.5,-1356.24"/>
<polygon fill="black" stroke="black" points="1835,-1356.16 1831.5,-1346.16 1828,-1356.16 1835,-1356.16"/>
</g>
<!-- 5 -->
<g id="node6" class="node">
<title>5</title>
<polygon fill="none" stroke="black" points="1991.5,-1258 1671.5,-1258 1671.5,-1206 1991.5,-1206 1991.5,-1258"/>
<text text-anchor="start" x="1683.5" y="-1238.8" font-family="Times,serif" font-size="14.00">({}, None, {t: t, i: i!3, result: 1, elem: 1})</text>
<text text-anchor="start" x="1790" y="-1217.8" font-family="Courier,monospace" font-size="14.00">havoc elem</text>
</g>
<!-- 4&#45;&gt;5 -->
<g id="edge5" class="edge">
<title>4&#45;&gt;5</title>
<path fill="none" stroke="black" d="M1831.5,-1293.66C1831.5,-1285.7 1831.5,-1276.76 1831.5,-1268.24"/>
<polygon fill="black" stroke="black" points="1835,-1268.16 1831.5,-1258.16 1828,-1268.16 1835,-1268.16"/>
</g>
<!-- 6 -->
<g id="node7" class="node">
<title>6</title>
<polygon fill="none" stroke="black" points="2012,-1170 1651,-1170 1651,-1118 2012,-1118 2012,-1170"/>
<text text-anchor="start" x="1663.5" y="-1150.8" font-family="Times,serif" font-size="14.00">({}, None, {t: t, i: i!3, result: 1, elem: elem!4})</text>
<text text-anchor="start" x="1782" y="-1129.8" font-family="Courier,monospace" font-size="14.00">havoc result</text>
</g>
<!-- 5&#45;&gt;6 -->
<g id="edge6" class="edge">
<title>5&#45;&gt;6</title>
<path fill="none" stroke="black" d="M1831.5,-1205.66C1831.5,-1197.7 1831.5,-1188.76 1831.5,-1180.24"/>
<polygon fill="black" stroke="black" points="1835,-1180.16 1831.5,-1170.16 1828,-1180.16 1835,-1180.16"/>
</g>
<!-- 7 -->
<g id="node8" class="node">
<title>7</title>
<polygon fill="none" stroke="black" points="2036,-1082 1627,-1082 1627,-1030 2036,-1030 2036,-1082"/>
<text text-anchor="start" x="1639.5" y="-1062.8" font-family="Times,serif" font-size="14.00">({}, None, {t: t, i: i!3, result: result!5, elem: elem!4})</text>
<text text-anchor="start" x="1708" y="-1041.8" font-family="Courier,monospace" font-size="14.00">assume Inv(i, t, elem, result)</text>
</g>
<!-- 6&#45;&gt;7 -->
<g id="edge7" class="edge">
<title>6&#45;&gt;7</title>
<path fill="none" stroke="black" d="M1831.5,-1117.66C1831.5,-1109.7 1831.5,-1100.76 1831.5,-1092.24"/>
<polygon fill="black" stroke="black" points="1835,-1092.16 1831.5,-1082.16 1828,-1092.16 1835,-1092.16"/>
</g>
<!-- 8 -->
<g id="node9" class="node">
<title>8</title>
<polygon fill="none" stroke="black" points="2169.5,-994 1493.5,-994 1493.5,-897 2169.5,-897 2169.5,-994"/>
<text text-anchor="start" x="1505.5" y="-974.3" font-family="Times,serif" font-size="14.00">({0 ≤ i!3 ∧</text>
<text text-anchor="start" x="1505.5" y="-959.3" font-family="Times,serif" font-size="14.00">i!3 ≤ Length(t) ∧</text>
<text text-anchor="start" x="1505.5" y="-944.3" font-family="Times,serif" font-size="14.00">(0 = elem!4 ∧ 0 = result!5 ∨</text>
<text text-anchor="start" x="1505.5" y="-929.3" font-family="Times,serif" font-size="14.00"> ¬(0 = elem!4) ∧ 0 = result!5%elem!4)}, None, {t: t, i: i!3, result: result!5, elem: elem!4})</text>
<text text-anchor="start" x="1765" y="-908.3" font-family="Courier,monospace" font-size="14.00">if (i &lt; len(t)):</text>
</g>
<!-- 7&#45;&gt;8 -->
<g id="edge8" class="edge">
<title>7&#45;&gt;8</title>
<path fill="none" stroke="black" d="M1831.5,-1029.84C1831.5,-1022.1 1831.5,-1013.25 1831.5,-1004.27"/>
<polygon fill="black" stroke="black" points="1835,-1004.13 1831.5,-994.13 1828,-1004.13 1835,-1004.13"/>
</g>
<!-- 9 -->
<g id="node10" class="node">
<title>9</title>
<polygon fill="none" stroke="black" points="1794.5,-861 980.5,-861 980.5,-764 1794.5,-764 1794.5,-861"/>
<text text-anchor="start" x="992.5" y="-841.3" font-family="Times,serif" font-size="14.00">({0 ≤ i!3 ∧</text>
<text text-anchor="start" x="992.5" y="-826.3" font-family="Times,serif" font-size="14.00">i!3 ≤ Length(t) ∧</text>
<text text-anchor="start" x="992.5" y="-811.3" font-family="Times,serif" font-size="14.00">(0 = elem!4 ∧ 0 = result!5 ∨</text>
<text text-anchor="start" x="992.5" y="-796.3" font-family="Times,serif" font-size="14.00"> ¬(0 = elem!4) ∧ 0 = result!5%elem!4), ¬(Length(t) ≤ i!3)}, None, {t: t, i: i!3, result: result!5, elem: elem!4})</text>
<text text-anchor="start" x="1342" y="-775.3" font-family="Courier,monospace" font-size="14.00">elem = t[i]</text>
</g>
<!-- 8&#45;&gt;9 -->
<g id="edge9" class="edge">
<title>8&#45;&gt;9</title>
<path fill="none" stroke="black" d="M1670.26,-896.93C1633.94,-886.21 1595.27,-874.8 1558.56,-863.97"/>
<polygon fill="black" stroke="black" points="1559.36,-860.56 1548.77,-861.08 1557.38,-867.27 1559.36,-860.56"/>
</g>
<!-- 16 -->
<g id="node17" class="node">
<title>16</title>
<polygon fill="none" stroke="black" points="2672.5,-861 1880.5,-861 1880.5,-764 2672.5,-764 2672.5,-861"/>
<text text-anchor="start" x="1892.5" y="-841.3" font-family="Times,serif" font-size="14.00">({0 ≤ i!3 ∧</text>
<text text-anchor="start" x="1892.5" y="-826.3" font-family="Times,serif" font-size="14.00">i!3 ≤ Length(t) ∧</text>
<text text-anchor="start" x="1892.5" y="-811.3" font-family="Times,serif" font-size="14.00">(0 = elem!4 ∧ 0 = result!5 ∨</text>
<text text-anchor="start" x="1892.5" y="-796.3" font-family="Times,serif" font-size="14.00"> ¬(0 = elem!4) ∧ 0 = result!5%elem!4), Length(t) ≤ i!3}, None, {t: t, i: i!3, result: result!5, elem: elem!4})</text>
<text text-anchor="start" x="2222.5" y="-775.3" font-family="Courier,monospace" font-size="14.00">return result</text>
</g>
<!-- 8&#45;&gt;16 -->
<g id="edge16" class="edge">
<title>8&#45;&gt;16</title>
<path fill="none" stroke="black" d="M1993.1,-896.93C2029.5,-886.21 2068.26,-874.8 2105.05,-863.97"/>
<polygon fill="black" stroke="black" points="2106.26,-867.26 2114.86,-861.08 2104.28,-860.55 2106.26,-867.26"/>
</g>
<!-- 10 -->
<g id="node11" class="node">
<title>10</title>
<polygon fill="none" stroke="black" points="1825,-728 882,-728 882,-631 1825,-631 1825,-728"/>
<text text-anchor="start" x="894.5" y="-708.3" font-family="Times,serif" font-size="14.00">({0 ≤ i!3 ∧</text>
<text text-anchor="start" x="894.5" y="-693.3" font-family="Times,serif" font-size="14.00">i!3 ≤ Length(t) ∧</text>
<text text-anchor="start" x="894.5" y="-678.3" font-family="Times,serif" font-size="14.00">(0 = elem!4 ∧ 0 = result!5 ∨</text>
<text text-anchor="start" x="894.5" y="-663.3" font-family="Times,serif" font-size="14.00"> ¬(0 = elem!4) ∧ 0 = result!5%elem!4), 0 ≤ i!3 ∧ ¬(Length(t) ≤ i!3)}, None, {t: t, i: i!3, result: result!5, elem: seq.nth_i(t, i!3)})</text>
<text text-anchor="start" x="1254.5" y="-642.3" font-family="Courier,monospace" font-size="14.00">result = (result + elem)</text>
</g>
<!-- 9&#45;&gt;10 -->
<g id="edge10" class="edge">
<title>9&#45;&gt;10</title>
<path fill="none" stroke="black" d="M1375.13,-763.84C1372.97,-755.53 1370.71,-746.81 1368.49,-738.26"/>
<polygon fill="black" stroke="black" points="1371.82,-737.15 1365.92,-728.35 1365.04,-738.91 1371.82,-737.15"/>
</g>
<!-- 11 -->
<g id="node12" class="node">
<title>11</title>
<polygon fill="none" stroke="black" points="1890.5,-595 816.5,-595 816.5,-498 1890.5,-498 1890.5,-595"/>
<text text-anchor="start" x="828.5" y="-575.3" font-family="Times,serif" font-size="14.00">({0 ≤ i!3 ∧</text>
<text text-anchor="start" x="828.5" y="-560.3" font-family="Times,serif" font-size="14.00">i!3 ≤ Length(t) ∧</text>
<text text-anchor="start" x="828.5" y="-545.3" font-family="Times,serif" font-size="14.00">(0 = elem!4 ∧ 0 = result!5 ∨</text>
<text text-anchor="start" x="828.5" y="-530.3" font-family="Times,serif" font-size="14.00"> ¬(0 = elem!4) ∧ 0 = result!5%elem!4), 0 ≤ i!3 ∧ ¬(Length(t) ≤ i!3)}, None, {t: t, i: i!3, result: result!5 + seq.nth_i(t, i!3), elem: seq.nth_i(t, i!3)})</text>
<text text-anchor="start" x="1308" y="-509.3" font-family="Courier,monospace" font-size="14.00">i = (i + 1)</text>
</g>
<!-- 10&#45;&gt;11 -->
<g id="edge11" class="edge">
<title>10&#45;&gt;11</title>
<path fill="none" stroke="black" d="M1353.5,-630.84C1353.5,-622.62 1353.5,-613.99 1353.5,-605.54"/>
<polygon fill="black" stroke="black" points="1357,-605.35 1353.5,-595.35 1350,-605.35 1357,-605.35"/>
</g>
<!-- 12 -->
<g id="node13" class="node">
<title>12</title>
<polygon fill="none" stroke="black" points="1905.5,-462 801.5,-462 801.5,-365 1905.5,-365 1905.5,-462"/>
<text text-anchor="start" x="813.5" y="-442.3" font-family="Times,serif" font-size="14.00">({0 ≤ i!3 ∧</text>
<text text-anchor="start" x="813.5" y="-427.3" font-family="Times,serif" font-size="14.00">i!3 ≤ Length(t) ∧</text>
<text text-anchor="start" x="813.5" y="-412.3" font-family="Times,serif" font-size="14.00">(0 = elem!4 ∧ 0 = result!5 ∨</text>
<text text-anchor="start" x="813.5" y="-397.3" font-family="Times,serif" font-size="14.00"> ¬(0 = elem!4) ∧ 0 = result!5%elem!4), 0 ≤ i!3 ∧ ¬(Length(t) ≤ i!3)}, None, {t: t, i: 1 + i!3, result: result!5 + seq.nth_i(t, i!3), elem: seq.nth_i(t, i!3)})</text>
<text text-anchor="start" x="1229.5" y="-376.3" font-family="Courier,monospace" font-size="14.00">assert Inv(i, t, elem, result)</text>
</g>
<!-- 11&#45;&gt;12 -->
<g id="edge12" class="edge">
<title>11&#45;&gt;12</title>
<path fill="none" stroke="black" d="M1353.5,-497.84C1353.5,-489.62 1353.5,-480.99 1353.5,-472.54"/>
<polygon fill="black" stroke="black" points="1357,-472.35 1353.5,-462.35 1350,-472.35 1357,-472.35"/>
</g>
<!-- 13 -->
<g id="node14" class="node">
<title>13</title>
<polygon fill="none" stroke="black" points="1321,-329 138,-329 138,-172 1321,-172 1321,-329"/>
<text text-anchor="start" x="150.5" y="-309.3" font-family="Times,serif" font-size="14.00">({0 ≤ i!3 ∧</text>
<text text-anchor="start" x="150.5" y="-294.3" font-family="Times,serif" font-size="14.00">i!3 ≤ Length(t) ∧</text>
<text text-anchor="start" x="150.5" y="-279.3" font-family="Times,serif" font-size="14.00">(0 = elem!4 ∧ 0 = result!5 ∨</text>
<text text-anchor="start" x="150.5" y="-264.3" font-family="Times,serif" font-size="14.00"> ¬(0 = elem!4) ∧ 0 = result!5%elem!4), &#45;1 ≤ i!3 ∧</text>
<text text-anchor="start" x="150.5" y="-249.3" font-family="Times,serif" font-size="14.00">i!3 ≤ &#45;1 + Length(t) ∧</text>
<text text-anchor="start" x="150.5" y="-234.3" font-family="Times,serif" font-size="14.00">(0 = seq.nth_i(t, i!3) ∧ 0 = result!5 + seq.nth_i(t, i!3) ∨</text>
<text text-anchor="start" x="150.5" y="-219.3" font-family="Times,serif" font-size="14.00"> ¬(0 = seq.nth_i(t, i!3)) ∧</text>
<text text-anchor="start" x="150.5" y="-204.3" font-family="Times,serif" font-size="14.00"> 0 = (result!5 + seq.nth_i(t, i!3))%seq.nth_i(t, i!3)), 0 ≤ i!3 ∧ ¬(Length(t) ≤ i!3)}, None, {t: t, i: 1 + i!3, result: result!5 + seq.nth_i(t, i!3), elem: seq.nth_i(t, i!3)})</text>
<text text-anchor="start" x="676" y="-183.3" font-family="Courier,monospace" font-size="14.00">return result</text>
</g>
<!-- 12&#45;&gt;13 -->
<g id="edge13" class="edge">
<title>12&#45;&gt;13</title>
<path fill="none" stroke="black" d="M1169.23,-364.96C1128.38,-354.42 1083.99,-342.96 1039.66,-331.52"/>
<polygon fill="black" stroke="black" points="1040.46,-328.12 1029.9,-329.01 1038.71,-334.89 1040.46,-328.12"/>
</g>
<!-- 15 -->
<g id="node16" class="node">
<title>15</title>
<polygon fill="#ffaeb9" stroke="black" points="2616,-318.5 1339,-318.5 1339,-182.5 2616,-182.5 2616,-318.5"/>
<text text-anchor="start" x="1351.5" y="-299.3" font-family="Times,serif" font-size="14.00">({0 ≤ i!3 ∧</text>
<text text-anchor="start" x="1351.5" y="-284.3" font-family="Times,serif" font-size="14.00">i!3 ≤ Length(t) ∧</text>
<text text-anchor="start" x="1351.5" y="-269.3" font-family="Times,serif" font-size="14.00">(0 = elem!4 ∧ 0 = result!5 ∨</text>
<text text-anchor="start" x="1351.5" y="-254.3" font-family="Times,serif" font-size="14.00"> ¬(0 = elem!4) ∧ 0 = result!5%elem!4), ¬(&#45;1 ≤ i!3 ∧</text>
<text text-anchor="start" x="1351.5" y="-239.3" font-family="Times,serif" font-size="14.00">  i!3 ≤ &#45;1 + Length(t) ∧</text>
<text text-anchor="start" x="1351.5" y="-224.3" font-family="Times,serif" font-size="14.00">  (0 = seq.nth_i(t, i!3) ∧ 0 = result!5 + seq.nth_i(t, i!3) ∨</text>
<text text-anchor="start" x="1351.5" y="-209.3" font-family="Times,serif" font-size="14.00">   ¬(0 = seq.nth_i(t, i!3)) ∧</text>
<text text-anchor="start" x="1351.5" y="-194.3" font-family="Times,serif" font-size="14.00">   0 = (result!5 + seq.nth_i(t, i!3))%seq.nth_i(t, i!3))), 0 ≤ i!3 ∧ ¬(Length(t) ≤ i!3)}, AssertionError(), {t: t, i: 1 + i!3, result: result!5 + seq.nth_i(t, i!3), elem: seq.nth_i(t, i!3)})</text>
</g>
<!-- 12&#45;&gt;15 -->
<g id="edge15" class="edge">
<title>12&#45;&gt;15</title>
<path fill="none" stroke="black" d="M1537.77,-364.96C1591.03,-351.21 1650.29,-335.92 1707.62,-321.13"/>
<polygon fill="black" stroke="black" points="1708.74,-324.46 1717.55,-318.57 1706.99,-317.68 1708.74,-324.46"/>
</g>
<!-- 14 -->
<g id="node15" class="node">
<title>14</title>
<polygon fill="#aeeeee" stroke="black" points="1459,-136 0,-136 0,0 1459,0 1459,-136"/>
<text text-anchor="start" x="12.5" y="-116.8" font-family="Times,serif" font-size="14.00">({0 ≤ i!3 ∧</text>
<text text-anchor="start" x="12.5" y="-101.8" font-family="Times,serif" font-size="14.00">i!3 ≤ Length(t) ∧</text>
<text text-anchor="start" x="12.5" y="-86.8" font-family="Times,serif" font-size="14.00">(0 = elem!4 ∧ 0 = result!5 ∨</text>
<text text-anchor="start" x="12.5" y="-71.8" font-family="Times,serif" font-size="14.00"> ¬(0 = elem!4) ∧ 0 = result!5%elem!4), &#45;1 ≤ i!3 ∧</text>
<text text-anchor="start" x="12.5" y="-56.8" font-family="Times,serif" font-size="14.00">i!3 ≤ &#45;1 + Length(t) ∧</text>
<text text-anchor="start" x="12.5" y="-41.8" font-family="Times,serif" font-size="14.00">(0 = seq.nth_i(t, i!3) ∧ 0 = result!5 + seq.nth_i(t, i!3) ∨</text>
<text text-anchor="start" x="12.5" y="-26.8" font-family="Times,serif" font-size="14.00"> ¬(0 = seq.nth_i(t, i!3)) ∧</text>
<text text-anchor="start" x="12.5" y="-11.8" font-family="Times,serif" font-size="14.00"> 0 = (result!5 + seq.nth_i(t, i!3))%seq.nth_i(t, i!3)), 0 ≤ i!3 ∧ ¬(Length(t) ≤ i!3)}, SymbolicReturn(result!5 + seq.nth_i(t, i!3)), {t: t, i: 1 + i!3, result: result!5 + seq.nth_i(t, i!3), elem: seq.nth_i(t, i!3)})</text>
</g>
<!-- 13&#45;&gt;14 -->
<g id="edge14" class="edge">
<title>13&#45;&gt;14</title>
<path fill="none" stroke="black" d="M729.5,-171.9C729.5,-163.41 729.5,-154.77 729.5,-146.28"/>
<polygon fill="black" stroke="black" points="733,-146.03 729.5,-136.03 726,-146.03 733,-146.03"/>
</g>
<!-- 17 -->
<g id="node18" class="node">
<title>17</title>
<polygon fill="#aeeeee" stroke="black" points="2780,-717.5 1843,-717.5 1843,-641.5 2780,-641.5 2780,-717.5"/>
<text text-anchor="start" x="1855.5" y="-698.3" font-family="Times,serif" font-size="14.00">({0 ≤ i!3 ∧</text>
<text text-anchor="start" x="1855.5" y="-683.3" font-family="Times,serif" font-size="14.00">i!3 ≤ Length(t) ∧</text>
<text text-anchor="start" x="1855.5" y="-668.3" font-family="Times,serif" font-size="14.00">(0 = elem!4 ∧ 0 = result!5 ∨</text>
<text text-anchor="start" x="1855.5" y="-653.3" font-family="Times,serif" font-size="14.00"> ¬(0 = elem!4) ∧ 0 = result!5%elem!4), Length(t) ≤ i!3}, SymbolicReturn(result!5), {t: t, i: i!3, result: result!5, elem: elem!4})</text>
</g>
<!-- 16&#45;&gt;17 -->
<g id="edge17" class="edge">
<title>16&#45;&gt;17</title>
<path fill="none" stroke="black" d="M2289.23,-763.84C2292.41,-751.95 2295.81,-739.21 2298.98,-727.36"/>
<polygon fill="black" stroke="black" points="2302.37,-728.22 2301.57,-717.66 2295.61,-726.41 2302.37,-728.22"/>
</g>
</g>
</svg>
