<?xml version="1.0" encoding="UTF-8" standalone="no"?>
<!DOCTYPE svg PUBLIC "-//W3C//DTD SVG 1.1//EN"
 "http://www.w3.org/Graphics/SVG/1.1/DTD/svg11.dtd">
<!-- Generated by graphviz version 2.43.0 (0)
 -->
<!-- Title: %3 Pages: 1 -->
<svg width="524pt" height="308pt"
 viewBox="0.00 0.00 523.50 308.00" xmlns="http://www.w3.org/2000/svg" xmlns:xlink="http://www.w3.org/1999/xlink">
<g id="graph0" class="graph" transform="scale(1 1) rotate(0) translate(4 304)">
<title>%3</title>
<polygon fill="white" stroke="transparent" points="-4,4 -4,-304 519.5,-304 519.5,4 -4,4"/>
<!-- 0 -->
<g id="node1" class="node">
<title>0</title>
<polygon fill="none" stroke="black" points="358,-300 171,-300 171,-248 358,-248 358,-300"/>
<text text-anchor="start" x="183.5" y="-280.8" font-family="Times,serif" font-size="14.00">({}, None, {x: x, y: y})</text>
<text text-anchor="start" x="227.5" y="-259.8" font-family="Courier,monospace" font-size="14.00">x = 2 * y</text>
</g>
<!-- 1 -->
<g id="node2" class="node">
<title>1</title>
<polygon fill="none" stroke="black" points="363.5,-212 165.5,-212 165.5,-160 363.5,-160 363.5,-212"/>
<text text-anchor="start" x="177.5" y="-192.8" font-family="Times,serif" font-size="14.00">({}, None, {x: 2·y, y: y})</text>
<text text-anchor="start" x="227" y="-171.8" font-family="Courier,monospace" font-size="14.00">if x &lt; 0:</text>
</g>
<!-- 0&#45;&gt;1 -->
<g id="edge1" class="edge">
<title>0&#45;&gt;1</title>
<path fill="none" stroke="black" d="M264.5,-247.66C264.5,-239.7 264.5,-230.76 264.5,-222.24"/>
<polygon fill="black" stroke="black" points="268,-222.16 264.5,-212.16 261,-222.16 268,-222.16"/>
</g>
<!-- 2 -->
<g id="node3" class="node">
<title>2</title>
<polygon fill="none" stroke="black" points="261,-124 2,-124 2,-72 261,-72 261,-124"/>
<text text-anchor="start" x="14.5" y="-104.8" font-family="Times,serif" font-size="14.00">({¬(0 ≤ x)}, None, {x: 2·y, y: y})</text>
<text text-anchor="start" x="107" y="-83.8" font-family="Courier,monospace" font-size="14.00">x = &#45;x</text>
</g>
<!-- 1&#45;&gt;2 -->
<g id="edge2" class="edge">
<title>1&#45;&gt;2</title>
<path fill="none" stroke="black" d="M225.67,-159.89C211.19,-150.53 194.57,-139.78 179.37,-129.95"/>
<polygon fill="black" stroke="black" points="180.9,-126.78 170.61,-124.29 177.1,-132.66 180.9,-126.78"/>
</g>
<!-- 4 -->
<g id="node5" class="node">
<title>4</title>
<polygon fill="#aeeeee" stroke="black" points="515.5,-116 279.5,-116 279.5,-80 515.5,-80 515.5,-116"/>
<text text-anchor="start" x="291.5" y="-93.8" font-family="Times,serif" font-size="14.00">({0 ≤ x}, None, {x: 2·y, y: y})</text>
</g>
<!-- 1&#45;&gt;4 -->
<g id="edge4" class="edge">
<title>1&#45;&gt;4</title>
<path fill="none" stroke="black" d="M303.33,-159.89C322.04,-147.79 344.31,-133.39 362.5,-121.63"/>
<polygon fill="black" stroke="black" points="364.57,-124.46 371.06,-116.1 360.76,-118.59 364.57,-124.46"/>
</g>
<!-- 3 -->
<g id="node4" class="node">
<title>3</title>
<polygon fill="#aeeeee" stroke="black" points="263,-36 0,-36 0,0 263,0 263,-36"/>
<text text-anchor="start" x="12.5" y="-13.8" font-family="Times,serif" font-size="14.00">({¬(0 ≤ x)}, None, {x: &#45;2·y, y: y})</text>
</g>
<!-- 2&#45;&gt;3 -->
<g id="edge3" class="edge">
<title>2&#45;&gt;3</title>
<path fill="none" stroke="black" d="M131.5,-71.89C131.5,-63.84 131.5,-54.88 131.5,-46.66"/>
<polygon fill="black" stroke="black" points="135,-46.41 131.5,-36.41 128,-46.41 135,-46.41"/>
</g>
</g>
</svg>
