<?xml version="1.0" encoding="UTF-8" standalone="no"?>
<!DOCTYPE svg PUBLIC "-//W3C//DTD SVG 1.1//EN"
 "http://www.w3.org/Graphics/SVG/1.1/DTD/svg11.dtd">
<!-- Generated by graphviz version 2.43.0 (0)
 -->
<!-- Title: %3 Pages: 1 -->
<svg width="6710pt" height="1980pt"
 viewBox="0.00 0.00 6709.50 1980.00" xmlns="http://www.w3.org/2000/svg" xmlns:xlink="http://www.w3.org/1999/xlink">
<g id="graph0" class="graph" transform="scale(1 1) rotate(0) translate(4 1976)">
<title>%3</title>
<polygon fill="white" stroke="transparent" points="-4,4 -4,-1976 6705.5,-1976 6705.5,4 -4,4"/>
<!-- 0 -->
<g id="node1" class="node">
<title>0</title>
<polygon fill="none" stroke="black" points="1516,-1972 1112,-1972 1112,-1920 1516,-1920 1516,-1972"/>
<text text-anchor="start" x="1250" y="-1952.8" font-family="Times,serif" font-size="14.00">({}, None, {x: x})</text>
<text text-anchor="start" x="1124" y="-1931.8" font-family="Courier,monospace" font-size="14.00">def find(needle: int, haystack: tuple) &#45;&gt; int:</text>
</g>
<!-- 1 -->
<g id="node2" class="node">
<title>1</title>
<polygon fill="none" stroke="black" points="1400.5,-1884 1227.5,-1884 1227.5,-1832 1400.5,-1832 1400.5,-1884"/>
<text text-anchor="start" x="1250.5" y="-1864.8" font-family="Times,serif" font-size="14.00">({}, None, {x: x})</text>
<text text-anchor="start" x="1240" y="-1843.8" font-family="Courier,monospace" font-size="14.00">t = (1, 2, 3, 4, )</text>
</g>
<!-- 0&#45;&gt;1 -->
<g id="edge1" class="edge">
<title>0&#45;&gt;1</title>
<path fill="none" stroke="black" d="M1314,-1919.66C1314,-1911.7 1314,-1902.76 1314,-1894.24"/>
<polygon fill="black" stroke="black" points="1317.5,-1894.16 1314,-1884.16 1310.5,-1894.16 1317.5,-1894.16"/>
</g>
<!-- 2 -->
<g id="node3" class="node">
<title>2</title>
<polygon fill="none" stroke="black" points="1607.5,-1796 1020.5,-1796 1020.5,-1744 1607.5,-1744 1607.5,-1796"/>
<text text-anchor="start" x="1033" y="-1776.8" font-family="Times,serif" font-size="14.00">({}, None, {x: x, t: Concat(Unit(1), Concat(Unit(2), Concat(Unit(3), Unit(4))))})</text>
<text text-anchor="start" x="1203" y="-1755.8" font-family="Courier,monospace" font-size="14.00">method&#45;frame(result=var_0):</text>
</g>
<!-- 1&#45;&gt;2 -->
<g id="edge2" class="edge">
<title>1&#45;&gt;2</title>
<path fill="none" stroke="black" d="M1314,-1831.66C1314,-1823.7 1314,-1814.76 1314,-1806.24"/>
<polygon fill="black" stroke="black" points="1317.5,-1806.16 1314,-1796.16 1310.5,-1806.16 1317.5,-1806.16"/>
</g>
<!-- 3 -->
<g id="node4" class="node">
<title>3</title>
<polygon fill="none" stroke="black" points="1607.5,-1708 1020.5,-1708 1020.5,-1656 1607.5,-1656 1607.5,-1708"/>
<text text-anchor="start" x="1033" y="-1688.8" font-family="Times,serif" font-size="14.00">({}, None, {x: x, t: Concat(Unit(1), Concat(Unit(2), Concat(Unit(3), Unit(4))))})</text>
<text text-anchor="start" x="1273" y="-1667.8" font-family="Courier,monospace" font-size="14.00">needle = x</text>
</g>
<!-- 2&#45;&gt;3 -->
<g id="edge3" class="edge">
<title>2&#45;&gt;3</title>
<path fill="none" stroke="black" d="M1314,-1743.66C1314,-1735.7 1314,-1726.76 1314,-1718.24"/>
<polygon fill="black" stroke="black" points="1317.5,-1718.16 1314,-1708.16 1310.5,-1718.16 1317.5,-1718.16"/>
</g>
<!-- 4 -->
<g id="node5" class="node">
<title>4</title>
<polygon fill="none" stroke="black" points="1644.5,-1620 983.5,-1620 983.5,-1568 1644.5,-1568 1644.5,-1620"/>
<text text-anchor="start" x="996" y="-1600.8" font-family="Times,serif" font-size="14.00">({}, None, {x: x, t: Concat(Unit(1), Concat(Unit(2), Concat(Unit(3), Unit(4)))), needle: x})</text>
<text text-anchor="start" x="1264.5" y="-1579.8" font-family="Courier,monospace" font-size="14.00">haystack = t</text>
</g>
<!-- 3&#45;&gt;4 -->
<g id="edge4" class="edge">
<title>3&#45;&gt;4</title>
<path fill="none" stroke="black" d="M1314,-1655.66C1314,-1647.7 1314,-1638.76 1314,-1630.24"/>
<polygon fill="black" stroke="black" points="1317.5,-1630.16 1314,-1620.16 1310.5,-1630.16 1317.5,-1630.16"/>
</g>
<!-- 5 -->
<g id="node6" class="node">
<title>5</title>
<polygon fill="none" stroke="black" points="1890.5,-1532 737.5,-1532 737.5,-1480 1890.5,-1480 1890.5,-1532"/>
<text text-anchor="start" x="750" y="-1512.8" font-family="Times,serif" font-size="14.00">({}, None, {x: x, t: Concat(Unit(1), Concat(Unit(2), Concat(Unit(3), Unit(4)))), needle: x, haystack: Concat(Unit(1), Concat(Unit(2), Concat(Unit(3), Unit(4))))})</text>
<text text-anchor="start" x="1293.5" y="-1491.8" font-family="Courier,monospace" font-size="14.00">i = 0</text>
</g>
<!-- 4&#45;&gt;5 -->
<g id="edge5" class="edge">
<title>4&#45;&gt;5</title>
<path fill="none" stroke="black" d="M1314,-1567.66C1314,-1559.7 1314,-1550.76 1314,-1542.24"/>
<polygon fill="black" stroke="black" points="1317.5,-1542.16 1314,-1532.16 1310.5,-1542.16 1317.5,-1542.16"/>
</g>
<!-- 6 -->
<g id="node7" class="node">
<title>6</title>
<polygon fill="none" stroke="black" points="1906,-1444 722,-1444 722,-1392 1906,-1392 1906,-1444"/>
<text text-anchor="start" x="734" y="-1424.8" font-family="Times,serif" font-size="14.00">({}, None, {x: x, t: Concat(Unit(1), Concat(Unit(2), Concat(Unit(3), Unit(4)))), needle: x, haystack: Concat(Unit(1), Concat(Unit(2), Concat(Unit(3), Unit(4)))), i: 0})</text>
<text text-anchor="start" x="1206.5" y="-1403.8" font-family="Courier,monospace" font-size="14.00">while (i &lt; len(haystack)):</text>
</g>
<!-- 5&#45;&gt;6 -->
<g id="edge6" class="edge">
<title>5&#45;&gt;6</title>
<path fill="none" stroke="black" d="M1314,-1479.66C1314,-1471.7 1314,-1462.76 1314,-1454.24"/>
<polygon fill="black" stroke="black" points="1317.5,-1454.16 1314,-1444.16 1310.5,-1454.16 1317.5,-1454.16"/>
</g>
<!-- 7 -->
<g id="node8" class="node">
<title>7</title>
<polygon fill="none" stroke="black" points="1906,-1356 722,-1356 722,-1304 1906,-1304 1906,-1356"/>
<text text-anchor="start" x="734" y="-1336.8" font-family="Times,serif" font-size="14.00">({}, None, {x: x, t: Concat(Unit(1), Concat(Unit(2), Concat(Unit(3), Unit(4)))), needle: x, haystack: Concat(Unit(1), Concat(Unit(2), Concat(Unit(3), Unit(4)))), i: 0})</text>
<text text-anchor="start" x="1202.5" y="-1315.8" font-family="Courier,monospace" font-size="14.00">if (haystack[i] == needle):</text>
</g>
<!-- 6&#45;&gt;7 -->
<g id="edge7" class="edge">
<title>6&#45;&gt;7</title>
<path fill="none" stroke="black" d="M1314,-1391.66C1314,-1383.7 1314,-1374.76 1314,-1366.24"/>
<polygon fill="black" stroke="black" points="1317.5,-1366.16 1314,-1356.16 1310.5,-1366.16 1317.5,-1366.16"/>
</g>
<!-- 8 -->
<g id="node9" class="node">
<title>8</title>
<polygon fill="none" stroke="black" points="1299,-1268 77,-1268 77,-1216 1299,-1216 1299,-1268"/>
<text text-anchor="start" x="89" y="-1248.8" font-family="Times,serif" font-size="14.00">({1 = x}, None, {x: x, t: Concat(Unit(1), Concat(Unit(2), Concat(Unit(3), Unit(4)))), needle: x, haystack: Concat(Unit(1), Concat(Unit(2), Concat(Unit(3), Unit(4)))), i: 0})</text>
<text text-anchor="start" x="667" y="-1227.8" font-family="Courier,monospace" font-size="14.00">break</text>
</g>
<!-- 7&#45;&gt;8 -->
<g id="edge8" class="edge">
<title>7&#45;&gt;8</title>
<path fill="none" stroke="black" d="M1131.67,-1303.95C1052.75,-1293.11 960.33,-1280.41 880.32,-1269.42"/>
<polygon fill="black" stroke="black" points="880.51,-1265.91 870.13,-1268.02 879.56,-1272.85 880.51,-1265.91"/>
</g>
<!-- 12 -->
<g id="node13" class="node">
<title>12</title>
<polygon fill="none" stroke="black" points="2566.5,-1268 1321.5,-1268 1321.5,-1216 2566.5,-1216 2566.5,-1268"/>
<text text-anchor="start" x="1334" y="-1248.8" font-family="Times,serif" font-size="14.00">({¬(1 = x)}, None, {x: x, t: Concat(Unit(1), Concat(Unit(2), Concat(Unit(3), Unit(4)))), needle: x, haystack: Concat(Unit(1), Concat(Unit(2), Concat(Unit(3), Unit(4)))), i: 0})</text>
<text text-anchor="start" x="1899" y="-1227.8" font-family="Courier,monospace" font-size="14.00">i = (i + 1)</text>
</g>
<!-- 7&#45;&gt;12 -->
<g id="edge12" class="edge">
<title>7&#45;&gt;12</title>
<path fill="none" stroke="black" d="M1497.49,-1303.95C1576.91,-1293.11 1669.93,-1280.41 1750.45,-1269.42"/>
<polygon fill="black" stroke="black" points="1751.28,-1272.84 1760.71,-1268.02 1750.33,-1265.91 1751.28,-1272.84"/>
</g>
<!-- 9 -->
<g id="node10" class="node">
<title>9</title>
<polygon fill="none" stroke="black" points="1291,-1180 69,-1180 69,-1128 1291,-1128 1291,-1180"/>
<text text-anchor="start" x="81" y="-1160.8" font-family="Times,serif" font-size="14.00">({1 = x}, None, {x: x, t: Concat(Unit(1), Concat(Unit(2), Concat(Unit(3), Unit(4)))), needle: x, haystack: Concat(Unit(1), Concat(Unit(2), Concat(Unit(3), Unit(4)))), i: 0})</text>
<text text-anchor="start" x="646.5" y="-1139.8" font-family="Courier,monospace" font-size="14.00">return i</text>
</g>
<!-- 8&#45;&gt;9 -->
<g id="edge9" class="edge">
<title>8&#45;&gt;9</title>
<path fill="none" stroke="black" d="M685.64,-1215.66C684.9,-1207.7 684.07,-1198.76 683.28,-1190.24"/>
<polygon fill="black" stroke="black" points="686.75,-1189.79 682.34,-1180.16 679.78,-1190.44 686.75,-1189.79"/>
</g>
<!-- 10 -->
<g id="node11" class="node">
<title>10</title>
<polygon fill="none" stroke="black" points="1308,-1092 20,-1092 20,-1040 1308,-1040 1308,-1092"/>
<text text-anchor="start" x="32" y="-1072.8" font-family="Times,serif" font-size="14.00">({1 = x}, None, {x: x, t: Concat(Unit(1), Concat(Unit(2), Concat(Unit(3), Unit(4)))), needle: x, haystack: Concat(Unit(1), Concat(Unit(2), Concat(Unit(3), Unit(4)))), i: 0, var_0: 0})</text>
<text text-anchor="start" x="626.5" y="-1051.8" font-family="Courier,monospace" font-size="14.00">r = var_0</text>
</g>
<!-- 9&#45;&gt;10 -->
<g id="edge10" class="edge">
<title>9&#45;&gt;10</title>
<path fill="none" stroke="black" d="M675.29,-1127.66C673.8,-1119.7 672.14,-1110.76 670.56,-1102.24"/>
<polygon fill="black" stroke="black" points="673.95,-1101.35 668.68,-1092.16 667.07,-1102.63 673.95,-1101.35"/>
</g>
<!-- 11 -->
<g id="node12" class="node">
<title>11</title>
<polygon fill="#aeeeee" stroke="black" points="1322,-996 0,-996 0,-960 1322,-960 1322,-996"/>
<text text-anchor="start" x="12" y="-973.8" font-family="Times,serif" font-size="14.00">({1 = x}, None, {x: x, t: Concat(Unit(1), Concat(Unit(2), Concat(Unit(3), Unit(4)))), needle: x, haystack: Concat(Unit(1), Concat(Unit(2), Concat(Unit(3), Unit(4)))), i: 0, var_0: 0, r: 0})</text>
</g>
<!-- 10&#45;&gt;11 -->
<g id="edge11" class="edge">
<title>10&#45;&gt;11</title>
<path fill="none" stroke="black" d="M663.12,-1039.66C662.75,-1029.11 662.32,-1016.84 661.95,-1006.1"/>
<polygon fill="black" stroke="black" points="665.44,-1005.88 661.59,-996 658.44,-1006.12 665.44,-1005.88"/>
</g>
<!-- 13 -->
<g id="node14" class="node">
<title>13</title>
<polygon fill="none" stroke="black" points="2569.5,-1180 1324.5,-1180 1324.5,-1128 2569.5,-1128 2569.5,-1180"/>
<text text-anchor="start" x="1337" y="-1160.8" font-family="Times,serif" font-size="14.00">({¬(1 = x)}, None, {x: x, t: Concat(Unit(1), Concat(Unit(2), Concat(Unit(3), Unit(4)))), needle: x, haystack: Concat(Unit(1), Concat(Unit(2), Concat(Unit(3), Unit(4)))), i: 1})</text>
<text text-anchor="start" x="1840" y="-1139.8" font-family="Courier,monospace" font-size="14.00">while (i &lt; len(haystack)):</text>
</g>
<!-- 12&#45;&gt;13 -->
<g id="edge13" class="edge">
<title>12&#45;&gt;13</title>
<path fill="none" stroke="black" d="M1944.88,-1215.66C1945.16,-1207.7 1945.47,-1198.76 1945.77,-1190.24"/>
<polygon fill="black" stroke="black" points="1949.27,-1190.27 1946.12,-1180.16 1942.28,-1190.03 1949.27,-1190.27"/>
</g>
<!-- 14 -->
<g id="node15" class="node">
<title>14</title>
<polygon fill="none" stroke="black" points="2573.5,-1092 1328.5,-1092 1328.5,-1040 2573.5,-1040 2573.5,-1092"/>
<text text-anchor="start" x="1341" y="-1072.8" font-family="Times,serif" font-size="14.00">({¬(1 = x)}, None, {x: x, t: Concat(Unit(1), Concat(Unit(2), Concat(Unit(3), Unit(4)))), needle: x, haystack: Concat(Unit(1), Concat(Unit(2), Concat(Unit(3), Unit(4)))), i: 1})</text>
<text text-anchor="start" x="1840" y="-1051.8" font-family="Courier,monospace" font-size="14.00">if (haystack[i] == needle):</text>
</g>
<!-- 13&#45;&gt;14 -->
<g id="edge14" class="edge">
<title>13&#45;&gt;14</title>
<path fill="none" stroke="black" d="M1948.18,-1127.66C1948.55,-1119.7 1948.96,-1110.76 1949.36,-1102.24"/>
<polygon fill="black" stroke="black" points="1952.86,-1102.31 1949.83,-1092.16 1945.87,-1101.98 1952.86,-1102.31"/>
</g>
<!-- 15 -->
<g id="node16" class="node">
<title>15</title>
<polygon fill="none" stroke="black" points="2562,-1004 1340,-1004 1340,-952 2562,-952 2562,-1004"/>
<text text-anchor="start" x="1352" y="-984.8" font-family="Times,serif" font-size="14.00">({2 = x}, None, {x: x, t: Concat(Unit(1), Concat(Unit(2), Concat(Unit(3), Unit(4)))), needle: x, haystack: Concat(Unit(1), Concat(Unit(2), Concat(Unit(3), Unit(4)))), i: 1})</text>
<text text-anchor="start" x="1930" y="-963.8" font-family="Courier,monospace" font-size="14.00">break</text>
</g>
<!-- 14&#45;&gt;15 -->
<g id="edge15" class="edge">
<title>14&#45;&gt;15</title>
<path fill="none" stroke="black" d="M1951,-1039.66C1951,-1031.7 1951,-1022.76 1951,-1014.24"/>
<polygon fill="black" stroke="black" points="1954.5,-1014.16 1951,-1004.16 1947.5,-1014.16 1954.5,-1014.16"/>
</g>
<!-- 19 -->
<g id="node20" class="node">
<title>19</title>
<polygon fill="none" stroke="black" points="3903.5,-1004 2588.5,-1004 2588.5,-952 3903.5,-952 3903.5,-1004"/>
<text text-anchor="start" x="2601" y="-984.8" font-family="Times,serif" font-size="14.00">({¬(1 = x), ¬(2 = x)}, None, {x: x, t: Concat(Unit(1), Concat(Unit(2), Concat(Unit(3), Unit(4)))), needle: x, haystack: Concat(Unit(1), Concat(Unit(2), Concat(Unit(3), Unit(4)))), i: 1})</text>
<text text-anchor="start" x="3201" y="-963.8" font-family="Courier,monospace" font-size="14.00">i = (i + 1)</text>
</g>
<!-- 14&#45;&gt;19 -->
<g id="edge19" class="edge">
<title>14&#45;&gt;19</title>
<path fill="none" stroke="black" d="M2327.74,-1039.98C2494.76,-1028.89 2691.1,-1015.85 2859.26,-1004.68"/>
<polygon fill="black" stroke="black" points="2859.53,-1008.17 2869.28,-1004.02 2859.07,-1001.19 2859.53,-1008.17"/>
</g>
<!-- 16 -->
<g id="node17" class="node">
<title>16</title>
<polygon fill="none" stroke="black" points="2558,-916 1336,-916 1336,-864 2558,-864 2558,-916"/>
<text text-anchor="start" x="1348" y="-896.8" font-family="Times,serif" font-size="14.00">({2 = x}, None, {x: x, t: Concat(Unit(1), Concat(Unit(2), Concat(Unit(3), Unit(4)))), needle: x, haystack: Concat(Unit(1), Concat(Unit(2), Concat(Unit(3), Unit(4)))), i: 1})</text>
<text text-anchor="start" x="1913.5" y="-875.8" font-family="Courier,monospace" font-size="14.00">return i</text>
</g>
<!-- 15&#45;&gt;16 -->
<g id="edge16" class="edge">
<title>15&#45;&gt;16</title>
<path fill="none" stroke="black" d="M1949.82,-951.66C1949.45,-943.7 1949.04,-934.76 1948.64,-926.24"/>
<polygon fill="black" stroke="black" points="1952.13,-925.98 1948.17,-916.16 1945.14,-926.31 1952.13,-925.98"/>
</g>
<!-- 17 -->
<g id="node18" class="node">
<title>17</title>
<polygon fill="none" stroke="black" points="2575,-828 1287,-828 1287,-776 2575,-776 2575,-828"/>
<text text-anchor="start" x="1299" y="-808.8" font-family="Times,serif" font-size="14.00">({2 = x}, None, {x: x, t: Concat(Unit(1), Concat(Unit(2), Concat(Unit(3), Unit(4)))), needle: x, haystack: Concat(Unit(1), Concat(Unit(2), Concat(Unit(3), Unit(4)))), i: 1, var_0: 1})</text>
<text text-anchor="start" x="1893.5" y="-787.8" font-family="Courier,monospace" font-size="14.00">r = var_0</text>
</g>
<!-- 16&#45;&gt;17 -->
<g id="edge17" class="edge">
<title>16&#45;&gt;17</title>
<path fill="none" stroke="black" d="M1942.29,-863.66C1940.8,-855.7 1939.14,-846.76 1937.56,-838.24"/>
<polygon fill="black" stroke="black" points="1940.95,-837.35 1935.68,-828.16 1934.07,-838.63 1940.95,-837.35"/>
</g>
<!-- 18 -->
<g id="node19" class="node">
<title>18</title>
<polygon fill="#aeeeee" stroke="black" points="2592,-732 1270,-732 1270,-696 2592,-696 2592,-732"/>
<text text-anchor="start" x="1282" y="-709.8" font-family="Times,serif" font-size="14.00">({2 = x}, None, {x: x, t: Concat(Unit(1), Concat(Unit(2), Concat(Unit(3), Unit(4)))), needle: x, haystack: Concat(Unit(1), Concat(Unit(2), Concat(Unit(3), Unit(4)))), i: 1, var_0: 1, r: 1})</text>
</g>
<!-- 17&#45;&gt;18 -->
<g id="edge18" class="edge">
<title>17&#45;&gt;18</title>
<path fill="none" stroke="black" d="M1931,-775.66C1931,-765.11 1931,-752.84 1931,-742.1"/>
<polygon fill="black" stroke="black" points="1934.5,-742 1931,-732 1927.5,-742 1934.5,-742"/>
</g>
<!-- 20 -->
<g id="node21" class="node">
<title>20</title>
<polygon fill="none" stroke="black" points="3905.5,-916 2590.5,-916 2590.5,-864 3905.5,-864 3905.5,-916"/>
<text text-anchor="start" x="2603" y="-896.8" font-family="Times,serif" font-size="14.00">({¬(2 = x), ¬(1 = x)}, None, {x: x, t: Concat(Unit(1), Concat(Unit(2), Concat(Unit(3), Unit(4)))), needle: x, haystack: Concat(Unit(1), Concat(Unit(2), Concat(Unit(3), Unit(4)))), i: 2})</text>
<text text-anchor="start" x="3141" y="-875.8" font-family="Courier,monospace" font-size="14.00">while (i &lt; len(haystack)):</text>
</g>
<!-- 19&#45;&gt;20 -->
<g id="edge20" class="edge">
<title>19&#45;&gt;20</title>
<path fill="none" stroke="black" d="M3246.59,-951.66C3246.77,-943.7 3246.98,-934.76 3247.18,-926.24"/>
<polygon fill="black" stroke="black" points="3250.68,-926.24 3247.41,-916.16 3243.68,-926.07 3250.68,-926.24"/>
</g>
<!-- 21 -->
<g id="node22" class="node">
<title>21</title>
<polygon fill="none" stroke="black" points="3908.5,-828 2593.5,-828 2593.5,-776 3908.5,-776 3908.5,-828"/>
<text text-anchor="start" x="2606" y="-808.8" font-family="Times,serif" font-size="14.00">({¬(2 = x), ¬(1 = x)}, None, {x: x, t: Concat(Unit(1), Concat(Unit(2), Concat(Unit(3), Unit(4)))), needle: x, haystack: Concat(Unit(1), Concat(Unit(2), Concat(Unit(3), Unit(4)))), i: 2})</text>
<text text-anchor="start" x="3140" y="-787.8" font-family="Courier,monospace" font-size="14.00">if (haystack[i] == needle):</text>
</g>
<!-- 20&#45;&gt;21 -->
<g id="edge21" class="edge">
<title>20&#45;&gt;21</title>
<path fill="none" stroke="black" d="M3248.88,-863.66C3249.16,-855.7 3249.47,-846.76 3249.77,-838.24"/>
<polygon fill="black" stroke="black" points="3253.27,-838.27 3250.12,-828.16 3246.28,-838.03 3253.27,-838.27"/>
</g>
<!-- 22 -->
<g id="node23" class="node">
<title>22</title>
<polygon fill="none" stroke="black" points="3847,-740 2625,-740 2625,-688 3847,-688 3847,-740"/>
<text text-anchor="start" x="2637" y="-720.8" font-family="Times,serif" font-size="14.00">({3 = x}, None, {x: x, t: Concat(Unit(1), Concat(Unit(2), Concat(Unit(3), Unit(4)))), needle: x, haystack: Concat(Unit(1), Concat(Unit(2), Concat(Unit(3), Unit(4)))), i: 2})</text>
<text text-anchor="start" x="3215" y="-699.8" font-family="Courier,monospace" font-size="14.00">break</text>
</g>
<!-- 21&#45;&gt;22 -->
<g id="edge22" class="edge">
<title>21&#45;&gt;22</title>
<path fill="none" stroke="black" d="M3246.58,-775.66C3245.19,-767.7 3243.63,-758.76 3242.15,-750.24"/>
<polygon fill="black" stroke="black" points="3245.55,-749.41 3240.39,-740.16 3238.66,-750.61 3245.55,-749.41"/>
</g>
<!-- 26 -->
<g id="node27" class="node">
<title>26</title>
<polygon fill="none" stroke="black" points="5253,-740 3869,-740 3869,-688 5253,-688 5253,-740"/>
<text text-anchor="start" x="3881" y="-720.8" font-family="Times,serif" font-size="14.00">({¬(3 = x), ¬(2 = x), ¬(1 = x)}, None, {x: x, t: Concat(Unit(1), Concat(Unit(2), Concat(Unit(3), Unit(4)))), needle: x, haystack: Concat(Unit(1), Concat(Unit(2), Concat(Unit(3), Unit(4)))), i: 2})</text>
<text text-anchor="start" x="4515.5" y="-699.8" font-family="Courier,monospace" font-size="14.00">i = (i + 1)</text>
</g>
<!-- 21&#45;&gt;26 -->
<g id="edge26" class="edge">
<title>21&#45;&gt;26</title>
<path fill="none" stroke="black" d="M3632.11,-775.98C3801.06,-764.89 3999.67,-751.85 4169.78,-740.68"/>
<polygon fill="black" stroke="black" points="4170.16,-744.17 4179.91,-740.02 4169.7,-737.18 4170.16,-744.17"/>
</g>
<!-- 23 -->
<g id="node24" class="node">
<title>23</title>
<polygon fill="none" stroke="black" points="3845,-652 2623,-652 2623,-600 3845,-600 3845,-652"/>
<text text-anchor="start" x="2635" y="-632.8" font-family="Times,serif" font-size="14.00">({3 = x}, None, {x: x, t: Concat(Unit(1), Concat(Unit(2), Concat(Unit(3), Unit(4)))), needle: x, haystack: Concat(Unit(1), Concat(Unit(2), Concat(Unit(3), Unit(4)))), i: 2})</text>
<text text-anchor="start" x="3200.5" y="-611.8" font-family="Courier,monospace" font-size="14.00">return i</text>
</g>
<!-- 22&#45;&gt;23 -->
<g id="edge23" class="edge">
<title>22&#45;&gt;23</title>
<path fill="none" stroke="black" d="M3235.41,-687.66C3235.23,-679.7 3235.02,-670.76 3234.82,-662.24"/>
<polygon fill="black" stroke="black" points="3238.32,-662.07 3234.59,-652.16 3231.32,-662.24 3238.32,-662.07"/>
</g>
<!-- 24 -->
<g id="node25" class="node">
<title>24</title>
<polygon fill="none" stroke="black" points="3862,-564 2574,-564 2574,-512 3862,-512 3862,-564"/>
<text text-anchor="start" x="2586" y="-544.8" font-family="Times,serif" font-size="14.00">({3 = x}, None, {x: x, t: Concat(Unit(1), Concat(Unit(2), Concat(Unit(3), Unit(4)))), needle: x, haystack: Concat(Unit(1), Concat(Unit(2), Concat(Unit(3), Unit(4)))), i: 2, var_0: 2})</text>
<text text-anchor="start" x="3180.5" y="-523.8" font-family="Courier,monospace" font-size="14.00">r = var_0</text>
</g>
<!-- 23&#45;&gt;24 -->
<g id="edge24" class="edge">
<title>23&#45;&gt;24</title>
<path fill="none" stroke="black" d="M3229.29,-599.66C3227.8,-591.7 3226.14,-582.76 3224.56,-574.24"/>
<polygon fill="black" stroke="black" points="3227.95,-573.35 3222.68,-564.16 3221.07,-574.63 3227.95,-573.35"/>
</g>
<!-- 25 -->
<g id="node26" class="node">
<title>25</title>
<polygon fill="#aeeeee" stroke="black" points="3879,-468 2557,-468 2557,-432 3879,-432 3879,-468"/>
<text text-anchor="start" x="2569" y="-445.8" font-family="Times,serif" font-size="14.00">({3 = x}, None, {x: x, t: Concat(Unit(1), Concat(Unit(2), Concat(Unit(3), Unit(4)))), needle: x, haystack: Concat(Unit(1), Concat(Unit(2), Concat(Unit(3), Unit(4)))), i: 2, var_0: 2, r: 2})</text>
</g>
<!-- 24&#45;&gt;25 -->
<g id="edge25" class="edge">
<title>24&#45;&gt;25</title>
<path fill="none" stroke="black" d="M3218,-511.66C3218,-501.11 3218,-488.84 3218,-478.1"/>
<polygon fill="black" stroke="black" points="3221.5,-478 3218,-468 3214.5,-478 3221.5,-478"/>
</g>
<!-- 27 -->
<g id="node28" class="node">
<title>27</title>
<polygon fill="none" stroke="black" points="5255,-652 3871,-652 3871,-600 5255,-600 5255,-652"/>
<text text-anchor="start" x="3883" y="-632.8" font-family="Times,serif" font-size="14.00">({¬(3 = x), ¬(1 = x), ¬(2 = x)}, None, {x: x, t: Concat(Unit(1), Concat(Unit(2), Concat(Unit(3), Unit(4)))), needle: x, haystack: Concat(Unit(1), Concat(Unit(2), Concat(Unit(3), Unit(4)))), i: 3})</text>
<text text-anchor="start" x="4455.5" y="-611.8" font-family="Courier,monospace" font-size="14.00">while (i &lt; len(haystack)):</text>
</g>
<!-- 26&#45;&gt;27 -->
<g id="edge27" class="edge">
<title>26&#45;&gt;27</title>
<path fill="none" stroke="black" d="M4561.59,-687.66C4561.77,-679.7 4561.98,-670.76 4562.18,-662.24"/>
<polygon fill="black" stroke="black" points="4565.68,-662.24 4562.41,-652.16 4558.68,-662.07 4565.68,-662.24"/>
</g>
<!-- 28 -->
<g id="node29" class="node">
<title>28</title>
<polygon fill="none" stroke="black" points="5264,-564 3880,-564 3880,-512 5264,-512 5264,-564"/>
<text text-anchor="start" x="3892" y="-544.8" font-family="Times,serif" font-size="14.00">({¬(3 = x), ¬(1 = x), ¬(2 = x)}, None, {x: x, t: Concat(Unit(1), Concat(Unit(2), Concat(Unit(3), Unit(4)))), needle: x, haystack: Concat(Unit(1), Concat(Unit(2), Concat(Unit(3), Unit(4)))), i: 3})</text>
<text text-anchor="start" x="4460.5" y="-523.8" font-family="Courier,monospace" font-size="14.00">if (haystack[i] == needle):</text>
</g>
<!-- 27&#45;&gt;28 -->
<g id="edge28" class="edge">
<title>27&#45;&gt;28</title>
<path fill="none" stroke="black" d="M4565.65,-599.66C4566.48,-591.7 4567.42,-582.76 4568.31,-574.24"/>
<polygon fill="black" stroke="black" points="4571.81,-574.47 4569.37,-564.16 4564.85,-573.74 4571.81,-574.47"/>
</g>
<!-- 29 -->
<g id="node30" class="node">
<title>29</title>
<polygon fill="none" stroke="black" points="5151,-476 3929,-476 3929,-424 5151,-424 5151,-476"/>
<text text-anchor="start" x="3941" y="-456.8" font-family="Times,serif" font-size="14.00">({4 = x}, None, {x: x, t: Concat(Unit(1), Concat(Unit(2), Concat(Unit(3), Unit(4)))), needle: x, haystack: Concat(Unit(1), Concat(Unit(2), Concat(Unit(3), Unit(4)))), i: 3})</text>
<text text-anchor="start" x="4519" y="-435.8" font-family="Courier,monospace" font-size="14.00">break</text>
</g>
<!-- 28&#45;&gt;29 -->
<g id="edge29" class="edge">
<title>28&#45;&gt;29</title>
<path fill="none" stroke="black" d="M4562.57,-511.66C4559.54,-503.53 4556.14,-494.37 4552.91,-485.68"/>
<polygon fill="black" stroke="black" points="4556.13,-484.31 4549.36,-476.16 4549.57,-486.75 4556.13,-484.31"/>
</g>
<!-- 33 -->
<g id="node34" class="node">
<title>33</title>
<polygon fill="none" stroke="black" points="6627,-476 5173,-476 5173,-424 6627,-424 6627,-476"/>
<text text-anchor="start" x="5185" y="-456.8" font-family="Times,serif" font-size="14.00">({¬(3 = x), ¬(4 = x), ¬(1 = x), ¬(2 = x)}, None, {x: x, t: Concat(Unit(1), Concat(Unit(2), Concat(Unit(3), Unit(4)))), needle: x, haystack: Concat(Unit(1), Concat(Unit(2), Concat(Unit(3), Unit(4)))), i: 3})</text>
<text text-anchor="start" x="5854.5" y="-435.8" font-family="Courier,monospace" font-size="14.00">i = (i + 1)</text>
</g>
<!-- 28&#45;&gt;33 -->
<g id="edge33" class="edge">
<title>28&#45;&gt;33</title>
<path fill="none" stroke="black" d="M4958.34,-511.98C5129.7,-500.88 5331.16,-487.84 5503.66,-476.67"/>
<polygon fill="black" stroke="black" points="5503.92,-480.16 5513.68,-476.02 5503.47,-473.17 5503.92,-480.16"/>
</g>
<!-- 30 -->
<g id="node31" class="node">
<title>30</title>
<polygon fill="none" stroke="black" points="5149,-388 3927,-388 3927,-336 5149,-336 5149,-388"/>
<text text-anchor="start" x="3939" y="-368.8" font-family="Times,serif" font-size="14.00">({4 = x}, None, {x: x, t: Concat(Unit(1), Concat(Unit(2), Concat(Unit(3), Unit(4)))), needle: x, haystack: Concat(Unit(1), Concat(Unit(2), Concat(Unit(3), Unit(4)))), i: 3})</text>
<text text-anchor="start" x="4504.5" y="-347.8" font-family="Courier,monospace" font-size="14.00">return i</text>
</g>
<!-- 29&#45;&gt;30 -->
<g id="edge30" class="edge">
<title>29&#45;&gt;30</title>
<path fill="none" stroke="black" d="M4539.41,-423.66C4539.23,-415.7 4539.02,-406.76 4538.82,-398.24"/>
<polygon fill="black" stroke="black" points="4542.32,-398.07 4538.59,-388.16 4535.32,-398.24 4542.32,-398.07"/>
</g>
<!-- 31 -->
<g id="node32" class="node">
<title>31</title>
<polygon fill="none" stroke="black" points="5166,-300 3878,-300 3878,-248 5166,-248 5166,-300"/>
<text text-anchor="start" x="3890" y="-280.8" font-family="Times,serif" font-size="14.00">({4 = x}, None, {x: x, t: Concat(Unit(1), Concat(Unit(2), Concat(Unit(3), Unit(4)))), needle: x, haystack: Concat(Unit(1), Concat(Unit(2), Concat(Unit(3), Unit(4)))), i: 3, var_0: 3})</text>
<text text-anchor="start" x="4484.5" y="-259.8" font-family="Courier,monospace" font-size="14.00">r = var_0</text>
</g>
<!-- 30&#45;&gt;31 -->
<g id="edge31" class="edge">
<title>30&#45;&gt;31</title>
<path fill="none" stroke="black" d="M4533.29,-335.66C4531.8,-327.7 4530.14,-318.76 4528.56,-310.24"/>
<polygon fill="black" stroke="black" points="4531.95,-309.35 4526.68,-300.16 4525.07,-310.63 4531.95,-309.35"/>
</g>
<!-- 32 -->
<g id="node33" class="node">
<title>32</title>
<polygon fill="#aeeeee" stroke="black" points="5175,-204 3853,-204 3853,-168 5175,-168 5175,-204"/>
<text text-anchor="start" x="3865" y="-181.8" font-family="Times,serif" font-size="14.00">({4 = x}, None, {x: x, t: Concat(Unit(1), Concat(Unit(2), Concat(Unit(3), Unit(4)))), needle: x, haystack: Concat(Unit(1), Concat(Unit(2), Concat(Unit(3), Unit(4)))), i: 3, var_0: 3, r: 3})</text>
</g>
<!-- 31&#45;&gt;32 -->
<g id="edge32" class="edge">
<title>31&#45;&gt;32</title>
<path fill="none" stroke="black" d="M4519.64,-247.66C4518.66,-237.11 4517.52,-224.84 4516.52,-214.1"/>
<polygon fill="black" stroke="black" points="4519.99,-213.64 4515.58,-204 4513.02,-214.28 4519.99,-213.64"/>
</g>
<!-- 34 -->
<g id="node35" class="node">
<title>34</title>
<polygon fill="none" stroke="black" points="6629,-388 5175,-388 5175,-336 6629,-336 6629,-388"/>
<text text-anchor="start" x="5187" y="-368.8" font-family="Times,serif" font-size="14.00">({¬(3 = x), ¬(4 = x), ¬(2 = x), ¬(1 = x)}, None, {x: x, t: Concat(Unit(1), Concat(Unit(2), Concat(Unit(3), Unit(4)))), needle: x, haystack: Concat(Unit(1), Concat(Unit(2), Concat(Unit(3), Unit(4)))), i: 4})</text>
<text text-anchor="start" x="5794.5" y="-347.8" font-family="Courier,monospace" font-size="14.00">while (i &lt; len(haystack)):</text>
</g>
<!-- 33&#45;&gt;34 -->
<g id="edge34" class="edge">
<title>33&#45;&gt;34</title>
<path fill="none" stroke="black" d="M5900.59,-423.66C5900.77,-415.7 5900.98,-406.76 5901.18,-398.24"/>
<polygon fill="black" stroke="black" points="5904.68,-398.24 5901.41,-388.16 5897.68,-398.07 5904.68,-398.24"/>
</g>
<!-- 35 -->
<g id="node36" class="node">
<title>35</title>
<polygon fill="none" stroke="black" points="6642,-300 5188,-300 5188,-248 6642,-248 6642,-300"/>
<text text-anchor="start" x="5200" y="-280.8" font-family="Times,serif" font-size="14.00">({¬(3 = x), ¬(4 = x), ¬(2 = x), ¬(1 = x)}, None, {x: x, t: Concat(Unit(1), Concat(Unit(2), Concat(Unit(3), Unit(4)))), needle: x, haystack: Concat(Unit(1), Concat(Unit(2), Concat(Unit(3), Unit(4)))), i: 4})</text>
<text text-anchor="start" x="5894" y="-259.8" font-family="Courier,monospace" font-size="14.00">else:</text>
</g>
<!-- 34&#45;&gt;35 -->
<g id="edge35" class="edge">
<title>34&#45;&gt;35</title>
<path fill="none" stroke="black" d="M5905.83,-335.66C5907.03,-327.7 5908.38,-318.76 5909.67,-310.24"/>
<polygon fill="black" stroke="black" points="5913.16,-310.57 5911.2,-300.16 5906.24,-309.52 5913.16,-310.57"/>
</g>
<!-- 36 -->
<g id="node37" class="node">
<title>36</title>
<polygon fill="none" stroke="black" points="6647,-212 5193,-212 5193,-160 6647,-160 6647,-212"/>
<text text-anchor="start" x="5205" y="-192.8" font-family="Times,serif" font-size="14.00">({¬(3 = x), ¬(4 = x), ¬(2 = x), ¬(1 = x)}, None, {x: x, t: Concat(Unit(1), Concat(Unit(2), Concat(Unit(3), Unit(4)))), needle: x, haystack: Concat(Unit(1), Concat(Unit(2), Concat(Unit(3), Unit(4)))), i: 4})</text>
<text text-anchor="start" x="5882.5" y="-171.8" font-family="Courier,monospace" font-size="14.00">return &#45;1</text>
</g>
<!-- 35&#45;&gt;36 -->
<g id="edge36" class="edge">
<title>35&#45;&gt;36</title>
<path fill="none" stroke="black" d="M5916.47,-247.66C5916.94,-239.7 5917.46,-230.76 5917.95,-222.24"/>
<polygon fill="black" stroke="black" points="5921.45,-222.34 5918.54,-212.16 5914.46,-221.94 5921.45,-222.34"/>
</g>
<!-- 37 -->
<g id="node38" class="node">
<title>37</title>
<polygon fill="none" stroke="black" points="6682.5,-124 5157.5,-124 5157.5,-72 6682.5,-72 6682.5,-124"/>
<text text-anchor="start" x="5170" y="-104.8" font-family="Times,serif" font-size="14.00">({¬(3 = x), ¬(4 = x), ¬(1 = x), ¬(2 = x)}, None, {x: x, t: Concat(Unit(1), Concat(Unit(2), Concat(Unit(3), Unit(4)))), needle: x, haystack: Concat(Unit(1), Concat(Unit(2), Concat(Unit(3), Unit(4)))), i: 4, var_0: &#45;1})</text>
<text text-anchor="start" x="5883" y="-83.8" font-family="Courier,monospace" font-size="14.00">r = var_0</text>
</g>
<!-- 36&#45;&gt;37 -->
<g id="edge37" class="edge">
<title>36&#45;&gt;37</title>
<path fill="none" stroke="black" d="M5920,-159.66C5920,-151.7 5920,-142.76 5920,-134.24"/>
<polygon fill="black" stroke="black" points="5923.5,-134.16 5920,-124.16 5916.5,-134.16 5923.5,-134.16"/>
</g>
<!-- 38 -->
<g id="node39" class="node">
<title>38</title>
<polygon fill="#aeeeee" stroke="black" points="6701.5,-36 5138.5,-36 5138.5,0 6701.5,0 6701.5,-36"/>
<text text-anchor="start" x="5151" y="-13.8" font-family="Times,serif" font-size="14.00">({¬(3 = x), ¬(4 = x), ¬(2 = x), ¬(1 = x)}, None, {x: x, t: Concat(Unit(1), Concat(Unit(2), Concat(Unit(3), Unit(4)))), needle: x, haystack: Concat(Unit(1), Concat(Unit(2), Concat(Unit(3), Unit(4)))), i: 4, var_0: &#45;1, r: &#45;1})</text>
</g>
<!-- 37&#45;&gt;38 -->
<g id="edge38" class="edge">
<title>37&#45;&gt;38</title>
<path fill="none" stroke="black" d="M5920,-71.89C5920,-63.84 5920,-54.88 5920,-46.66"/>
<polygon fill="black" stroke="black" points="5923.5,-46.41 5920,-36.41 5916.5,-46.41 5923.5,-46.41"/>
</g>
</g>
</svg>
